<svg width="157" height="49" viewBox="0 0 157 49" fill="none" xmlns="http://www.w3.org/2000/svg">
<path d="M8.81641 4.71007V18.8632L9.92647 19.5475V3.89404L8.81641 4.71007Z" fill="#FE5E14"/>
<path d="M10.5742 3.41792V19.9468L11.6843 20.6311V2.60205L10.5742 3.41792Z" fill="#FE5E14"/>
<path d="M12.3301 2.12608V21.0305L13.4402 21.7148V1.31006L12.3301 2.12608Z" fill="#FE5E14"/>
<path d="M14.0898 0.834092V22.1141L15.1999 22.7986V0.0180664L14.0898 0.834092Z" fill="#FE5E14"/>
<path d="M20.0059 18.8551L26.3763 15.6699L32.5192 17.8313L32.6329 43.1889H26.7819L26.2625 16.6937L20.0059 18.8551Z" fill="white"/>
<path d="M15.1987 23.9548L8.78013 19.9712L2.6372 22.1326L2.52344 43.2003L8.60574 43.1887L8.89386 20.995L15.1987 23.9548Z" fill="white"/>
<path d="M17.2331 4.024L15.6836 3.19144V0L17.2331 0.832566V4.024Z" fill="#FE5E14"/>
<path d="M19.3834 5.13387L17.834 4.30134V1.10986L19.3834 1.94243V5.13387Z" fill="#FE5E14"/>
<path d="M17.2331 7.80525L15.6836 6.97269V3.78125L17.2331 4.61378V7.80525Z" fill="#FE5E14"/>
<path d="M19.3834 8.91512L17.834 8.08259V4.89111L19.3834 5.72368V8.91512Z" fill="#FE5E14"/>
<path d="M17.2331 11.5865L15.6836 10.754V7.5625L17.2331 8.39506V11.5865Z" fill="#FE5E14"/>
<path d="M19.3834 12.6964L17.834 11.8638V8.67236L19.3834 9.50489V12.6964Z" fill="#FE5E14"/>
<path d="M17.2331 15.3673L15.6836 14.5347V11.3433L17.2331 12.1758V15.3673Z" fill="#FE5E14"/>
<path d="M19.3834 16.4776L17.834 15.6451V12.4536L19.3834 13.2861V16.4776Z" fill="#FE5E14"/>
<path d="M17.2331 19.1485L15.6836 18.316V15.1245L17.2331 15.9571V19.1485Z" fill="#FE5E14"/>
<path d="M19.3834 20.2589L17.834 19.4263V16.2349L19.3834 17.0674V20.2589Z" fill="#FE5E14"/>
<path d="M17.2331 22.9298L15.6836 22.0972V18.9058L17.2331 19.7383V22.9298Z" fill="#FE5E14"/>
<path d="M19.3834 24.0402L17.834 23.2076V20.0161L19.3834 20.8487V24.0402Z" fill="#FE5E14"/>
<path d="M17.2331 26.711L15.6836 25.8785V22.687L17.2331 23.5195V26.711Z" fill="#FE5E14"/>
<path d="M19.3834 27.8214L17.834 26.9888V23.7974L19.3834 24.6299V27.8214Z" fill="#FE5E14"/>
<path d="M17.2331 30.4923L15.6836 29.6597V26.4683L17.2331 27.3008V30.4923Z" fill="#FE5E14"/>
<path d="M19.3834 31.6026L17.834 30.7701V27.5786L19.3834 28.4112V31.6026Z" fill="#FE5E14"/>
<path d="M17.2331 34.2736L15.6836 33.441V30.2495L17.2331 31.0821V34.2736Z" fill="#FE5E14"/>
<path d="M19.3834 35.3839L17.834 34.5513V31.3599L19.3834 32.1924V35.3839Z" fill="#FE5E14"/>
<path d="M17.2331 38.0548L15.6836 37.2222V34.0308L17.2331 34.8633V38.0548Z" fill="#FE5E14"/>
<path d="M19.3834 39.1646L17.834 38.3321V35.1406L19.3834 35.9732V39.1646Z" fill="#FE5E14"/>
<path d="M17.2331 41.836L15.6836 41.0035V37.812L17.2331 38.6446V41.836Z" fill="#FE5E14"/>
<path d="M19.3834 42.9459L17.834 42.1134V38.9219L19.3834 39.7544V42.9459Z" fill="#FE5E14"/>
<path d="M35.8909 47.417H0.109143C0.0488572 47.417 0 47.2938 0 47.1417V45.6923C0 45.5402 0.0488572 45.417 0.109143 45.417H35.8909C35.9511 45.417 36 45.5402 36 45.6923V47.1417C36 47.2938 35.9511 47.417 35.8909 47.417Z" fill="#FE5E14"/>
<path d="M66.0131 13.6006H62.1246C62.0536 13.0975 61.9086 12.6507 61.6896 12.26C61.4706 11.8635 61.1895 11.5261 60.8462 11.248C60.503 10.9698 60.1064 10.7567 59.6566 10.6088C59.2127 10.4608 58.7304 10.3868 58.2095 10.3868C57.2685 10.3868 56.4487 10.6206 55.7504 11.0882C55.052 11.5498 54.5104 12.2245 54.1257 13.1123C53.741 13.9942 53.5487 15.0654 53.5487 16.3261C53.5487 17.6222 53.741 18.7113 54.1257 19.5931C54.5163 20.475 55.0608 21.1408 55.7592 21.5906C56.4576 22.0405 57.2655 22.2654 58.1829 22.2654C58.6978 22.2654 59.1742 22.1973 59.6122 22.0612C60.0561 21.925 60.4497 21.7268 60.793 21.4664C61.1362 21.2 61.4203 20.8775 61.6452 20.4987C61.8761 20.1199 62.0359 19.6878 62.1246 19.2025L66.0131 19.2203C65.9125 20.0548 65.661 20.8597 65.2585 21.635C64.862 22.4044 64.3263 23.094 63.6516 23.7036C62.9828 24.3073 62.1838 24.7867 61.2546 25.1418C60.3313 25.491 59.2867 25.6656 58.1207 25.6656C56.4991 25.6656 55.049 25.2986 53.7706 24.5647C52.4981 23.8308 51.492 22.7684 50.7521 21.3776C50.0182 19.9867 49.6513 18.3029 49.6513 16.3261C49.6513 14.3434 50.0241 12.6566 50.7699 11.2657C51.5156 9.87485 52.5277 8.81543 53.8061 8.08745C55.0845 7.35354 56.5227 6.98659 58.1207 6.98659C59.1742 6.98659 60.1508 7.13456 61.0504 7.43049C61.956 7.72641 62.7579 8.15847 63.4563 8.72665C64.1547 9.28891 64.7229 9.97843 65.1609 10.7952C65.6048 11.6119 65.8888 12.5471 66.0131 13.6006ZM85.4778 16.3261C85.4778 18.3088 85.102 19.9956 84.3503 21.3865C83.6046 22.7773 82.5866 23.8397 81.2963 24.5736C80.012 25.3016 78.5679 25.6656 76.964 25.6656C75.3482 25.6656 73.8981 25.2986 72.6138 24.5647C71.3295 23.8308 70.3145 22.7684 69.5687 21.3776C68.823 19.9867 68.4501 18.3029 68.4501 16.3261C68.4501 14.3434 68.823 12.6566 69.5687 11.2657C70.3145 9.87485 71.3295 8.81543 72.6138 8.08745C73.8981 7.35354 75.3482 6.98659 76.964 6.98659C78.5679 6.98659 80.012 7.35354 81.2963 8.08745C82.5866 8.81543 83.6046 9.87485 84.3503 11.2657C85.102 12.6566 85.4778 14.3434 85.4778 16.3261ZM81.5804 16.3261C81.5804 15.0418 81.3881 13.9587 81.0034 13.0768C80.6246 12.1949 80.089 11.5261 79.3965 11.0704C78.704 10.6147 77.8932 10.3868 76.964 10.3868C76.0347 10.3868 75.2239 10.6147 74.5314 11.0704C73.839 11.5261 73.3004 12.1949 72.9157 13.0768C72.5369 13.9587 72.3475 15.0418 72.3475 16.3261C72.3475 17.6104 72.5369 18.6935 72.9157 19.5754C73.3004 20.4572 73.839 21.126 74.5314 21.5818C75.2239 22.0375 76.0347 22.2654 76.964 22.2654C77.8932 22.2654 78.704 22.0375 79.3965 21.5818C80.089 21.126 80.6246 20.4572 81.0034 19.5754C81.3881 18.6935 81.5804 17.6104 81.5804 16.3261ZM103.533 7.23517V25.417H100.213L92.3026 13.9735H92.1695V25.417H88.3254V7.23517H91.699L99.547 18.6698H99.7068V7.23517H103.533ZM116.572 12.4642C116.501 11.7481 116.197 11.1917 115.658 10.7952C115.119 10.3986 114.388 10.2004 113.465 10.2004C112.838 10.2004 112.308 10.2892 111.876 10.4667C111.444 10.6383 111.113 10.878 110.882 11.1858C110.657 11.4936 110.544 11.8428 110.544 12.2334C110.533 12.5589 110.601 12.843 110.749 13.0857C110.902 13.3283 111.113 13.5384 111.379 13.716C111.645 13.8876 111.953 14.0386 112.302 14.1688C112.651 14.2931 113.024 14.3996 113.421 14.4884L115.054 14.879C115.847 15.0566 116.575 15.2933 117.238 15.5892C117.901 15.8852 118.475 16.2491 118.961 16.6812C119.446 17.1133 119.822 17.6222 120.088 18.2082C120.36 18.7941 120.499 19.4659 120.505 20.2235C120.499 21.3361 120.215 22.3009 119.653 23.1176C119.097 23.9285 118.292 24.5588 117.238 25.0086C116.191 25.4525 114.927 25.6744 113.447 25.6744C111.98 25.6744 110.701 25.4495 109.612 24.9997C108.529 24.5499 107.683 23.8841 107.073 23.0022C106.469 22.1144 106.153 21.0165 106.123 19.7085H109.843C109.884 20.3182 110.059 20.8271 110.367 21.2355C110.681 21.638 111.098 21.9428 111.619 22.1499C112.145 22.3512 112.74 22.4518 113.403 22.4518C114.054 22.4518 114.619 22.3571 115.099 22.1677C115.584 21.9783 115.96 21.7149 116.226 21.3776C116.493 21.0402 116.626 20.6526 116.626 20.2146C116.626 19.8062 116.504 19.4629 116.262 19.1847C116.025 18.9066 115.676 18.6698 115.214 18.4745C114.758 18.2792 114.199 18.1017 113.536 17.9419L111.556 17.4447C110.024 17.0718 108.813 16.4888 107.925 15.6958C107.038 14.9027 106.597 13.8344 106.603 12.4909C106.597 11.39 106.89 10.4282 107.482 9.60556C108.079 8.78288 108.899 8.14071 109.941 7.67907C110.982 7.21742 112.166 6.98659 113.492 6.98659C114.841 6.98659 116.019 7.21742 117.025 7.67907C118.037 8.14071 118.824 8.78288 119.387 9.60556C119.949 10.4282 120.239 11.3811 120.257 12.4642H116.572ZM122.399 10.4046V7.23517H137.331V10.4046H131.765V25.417H127.965V10.4046H122.399ZM143.395 7.23517L147.061 13.4319H147.203L150.888 7.23517H155.229L149.68 16.3261L155.353 25.417H150.932L147.203 19.2114H147.061L143.332 25.417H138.929L144.62 16.3261L139.036 7.23517H143.395Z" fill="white"/>
<path d="M56.1641 42.252H57.4766C57.4082 42.8809 57.2282 43.4437 56.9365 43.9404C56.6449 44.4372 56.2324 44.8314 55.6992 45.123C55.166 45.4102 54.5007 45.5537 53.7031 45.5537C53.1198 45.5537 52.5889 45.4443 52.1104 45.2256C51.6364 45.0068 51.2285 44.6969 50.8867 44.2959C50.5449 43.8903 50.2806 43.4049 50.0938 42.8398C49.9115 42.2702 49.8203 41.6367 49.8203 40.9395V39.9482C49.8203 39.251 49.9115 38.6198 50.0938 38.0547C50.2806 37.485 50.5472 36.9974 50.8936 36.5918C51.2445 36.1862 51.666 35.874 52.1582 35.6553C52.6504 35.4365 53.2041 35.3271 53.8193 35.3271C54.5713 35.3271 55.207 35.4684 55.7266 35.751C56.2461 36.0335 56.6494 36.4255 56.9365 36.9268C57.2282 37.4235 57.4082 38 57.4766 38.6562H56.1641C56.1003 38.1914 55.9818 37.7926 55.8086 37.46C55.6354 37.1227 55.3893 36.863 55.0703 36.6807C54.7513 36.4984 54.3343 36.4072 53.8193 36.4072C53.3773 36.4072 52.9876 36.4915 52.6504 36.6602C52.3177 36.8288 52.0374 37.068 51.8096 37.3779C51.5863 37.6878 51.4176 38.0592 51.3037 38.4922C51.1898 38.9251 51.1328 39.4059 51.1328 39.9346V40.9395C51.1328 41.4271 51.1829 41.8851 51.2832 42.3135C51.388 42.7419 51.5452 43.1178 51.7549 43.4414C51.9645 43.765 52.2311 44.0202 52.5547 44.207C52.8783 44.3893 53.2611 44.4805 53.7031 44.4805C54.2637 44.4805 54.7103 44.3916 55.043 44.2139C55.3757 44.0361 55.6263 43.7809 55.7949 43.4482C55.9681 43.1156 56.0911 42.7168 56.1641 42.252ZM61.128 41.8008V41.6436C61.128 41.1104 61.2055 40.6159 61.3605 40.1602C61.5154 39.6999 61.7387 39.3011 62.0304 38.9639C62.3221 38.6221 62.6752 38.3577 63.09 38.1709C63.5047 37.9795 63.9695 37.8838 64.4845 37.8838C65.004 37.8838 65.4711 37.9795 65.8859 38.1709C66.3051 38.3577 66.6606 38.6221 66.9523 38.9639C67.2485 39.3011 67.4741 39.6999 67.629 40.1602C67.784 40.6159 67.8614 41.1104 67.8614 41.6436V41.8008C67.8614 42.334 67.784 42.8285 67.629 43.2842C67.4741 43.7399 67.2485 44.1387 66.9523 44.4805C66.6606 44.8177 66.3074 45.082 65.8927 45.2734C65.4825 45.4603 65.0177 45.5537 64.4982 45.5537C63.9786 45.5537 63.5115 45.4603 63.0968 45.2734C62.6821 45.082 62.3266 44.8177 62.0304 44.4805C61.7387 44.1387 61.5154 43.7399 61.3605 43.2842C61.2055 42.8285 61.128 42.334 61.128 41.8008ZM62.3927 41.6436V41.8008C62.3927 42.1699 62.436 42.5186 62.5226 42.8467C62.6092 43.1702 62.739 43.4574 62.9122 43.708C63.09 43.9587 63.311 44.1569 63.5753 44.3027C63.8396 44.444 64.1473 44.5146 64.4982 44.5146C64.8445 44.5146 65.1476 44.444 65.4073 44.3027C65.6717 44.1569 65.8904 43.9587 66.0636 43.708C66.2368 43.4574 66.3667 43.1702 66.4532 42.8467C66.5444 42.5186 66.59 42.1699 66.59 41.8008V41.6436C66.59 41.279 66.5444 40.9349 66.4532 40.6113C66.3667 40.2832 66.2345 39.9938 66.0568 39.7432C65.8836 39.488 65.6648 39.2874 65.4005 39.1416C65.1407 38.9958 64.8354 38.9229 64.4845 38.9229C64.1381 38.9229 63.8328 38.9958 63.5685 39.1416C63.3087 39.2874 63.09 39.488 62.9122 39.7432C62.739 39.9938 62.6092 40.2832 62.5226 40.6113C62.436 40.9349 62.3927 41.279 62.3927 41.6436ZM73.092 39.5996V45.417H71.8274V38.0205H73.0237L73.092 39.5996ZM72.7913 41.4385L72.2649 41.418C72.2694 40.9121 72.3446 40.445 72.4905 40.0166C72.6363 39.5837 72.8414 39.2077 73.1057 38.8887C73.37 38.5697 73.6845 38.3236 74.0491 38.1504C74.4182 37.9727 74.8261 37.8838 75.2727 37.8838C75.6373 37.8838 75.9654 37.9339 76.2571 38.0342C76.5487 38.1299 76.7971 38.2848 77.0022 38.499C77.2118 38.7132 77.3713 38.9912 77.4807 39.333C77.5901 39.6702 77.6448 40.0827 77.6448 40.5703V45.417H76.3733V40.5566C76.3733 40.1693 76.3163 39.8594 76.2024 39.627C76.0885 39.39 75.9221 39.2191 75.7034 39.1143C75.4846 39.0049 75.2157 38.9502 74.8967 38.9502C74.5823 38.9502 74.2952 39.0163 74.0354 39.1484C73.7802 39.2806 73.5592 39.4629 73.3723 39.6953C73.19 39.9277 73.0465 40.1943 72.9416 40.4951C72.8414 40.7913 72.7913 41.1058 72.7913 41.4385ZM86.2523 43.4551C86.2523 43.2728 86.2113 43.1042 86.1293 42.9492C86.0518 42.7897 85.89 42.6462 85.6439 42.5186C85.4024 42.3864 85.0378 42.2725 84.5502 42.1768C84.14 42.0902 83.7686 41.9876 83.4359 41.8691C83.1078 41.7507 82.8275 41.6071 82.5951 41.4385C82.3672 41.2699 82.1918 41.0716 82.0687 40.8438C81.9457 40.6159 81.8841 40.3493 81.8841 40.0439C81.8841 39.7523 81.9479 39.4766 82.0755 39.2168C82.2077 38.957 82.3923 38.7269 82.6293 38.5264C82.8708 38.3258 83.1602 38.1686 83.4974 38.0547C83.8347 37.9408 84.2106 37.8838 84.6254 37.8838C85.2178 37.8838 85.7237 37.9886 86.1429 38.1982C86.5622 38.4079 86.8835 38.6882 87.1068 39.0391C87.3301 39.3854 87.4418 39.7705 87.4418 40.1943H86.1771C86.1771 39.9893 86.1156 39.791 85.9925 39.5996C85.874 39.4036 85.6986 39.2419 85.4662 39.1143C85.2383 38.9867 84.958 38.9229 84.6254 38.9229C84.2744 38.9229 83.9896 38.9775 83.7709 39.0869C83.5567 39.1917 83.3994 39.3262 83.2992 39.4902C83.2035 39.6543 83.1556 39.8275 83.1556 40.0098C83.1556 40.1465 83.1784 40.2695 83.224 40.3789C83.2741 40.4837 83.3607 40.5817 83.4837 40.6729C83.6068 40.7594 83.78 40.8415 84.0033 40.9189C84.2266 40.9964 84.5114 41.0739 84.8578 41.1514C85.4639 41.2881 85.9629 41.4521 86.3548 41.6436C86.7468 41.835 87.0384 42.0697 87.2298 42.3477C87.4212 42.6257 87.517 42.9629 87.517 43.3594C87.517 43.6829 87.4486 43.9792 87.3119 44.248C87.1797 44.5169 86.986 44.7493 86.7308 44.9453C86.4802 45.1367 86.1794 45.2871 85.8285 45.3965C85.4821 45.5013 85.0925 45.5537 84.6595 45.5537C84.0078 45.5537 83.4564 45.4375 83.0052 45.2051C82.5541 44.9727 82.2123 44.6719 81.9798 44.3027C81.7474 43.9336 81.6312 43.5439 81.6312 43.1338H82.9027C82.9209 43.4801 83.0212 43.7559 83.2035 43.9609C83.3858 44.1615 83.6091 44.305 83.8734 44.3916C84.1377 44.4736 84.3998 44.5146 84.6595 44.5146C85.0059 44.5146 85.2953 44.4691 85.5277 44.3779C85.7647 44.2868 85.9447 44.1615 86.0677 44.002C86.1908 43.8424 86.2523 43.6602 86.2523 43.4551ZM94.6548 38.0205V38.9912H90.6557V38.0205H94.6548ZM92.0093 36.2227H93.2739V43.585C93.2739 43.8356 93.3126 44.0247 93.3901 44.1523C93.4676 44.2799 93.5679 44.3643 93.6909 44.4053C93.8139 44.4463 93.9461 44.4668 94.0874 44.4668C94.1922 44.4668 94.3016 44.4577 94.4155 44.4395C94.534 44.4167 94.6229 44.3984 94.6821 44.3848L94.6889 45.417C94.5887 45.4489 94.4565 45.4785 94.2925 45.5059C94.133 45.5378 93.9393 45.5537 93.7114 45.5537C93.4015 45.5537 93.1167 45.4922 92.8569 45.3691C92.5971 45.2461 92.3898 45.041 92.2348 44.7539C92.0845 44.4622 92.0093 44.0703 92.0093 43.5781V36.2227ZM99.7828 39.1826V45.417H98.5182V38.0205H99.7486L99.7828 39.1826ZM102.093 37.9795L102.087 39.1553C101.982 39.1325 101.881 39.1188 101.786 39.1143C101.695 39.1051 101.59 39.1006 101.471 39.1006C101.18 39.1006 100.922 39.1462 100.699 39.2373C100.476 39.3285 100.286 39.4561 100.131 39.6201C99.9765 39.7842 99.8535 39.9801 99.7623 40.208C99.6757 40.4313 99.6188 40.6774 99.5914 40.9463L99.2359 41.1514C99.2359 40.7048 99.2792 40.2855 99.3658 39.8936C99.457 39.5016 99.596 39.1553 99.7828 38.8545C99.9697 38.5492 100.207 38.3122 100.494 38.1436C100.785 37.9704 101.132 37.8838 101.533 37.8838C101.624 37.8838 101.729 37.8952 101.847 37.918C101.966 37.9362 102.048 37.9567 102.093 37.9795ZM110.168 43.708V38.0205H111.439V45.417H110.229L110.168 43.708ZM110.407 42.1494L110.933 42.1357C110.933 42.6279 110.881 43.0837 110.776 43.5029C110.676 43.9176 110.512 44.2777 110.284 44.583C110.056 44.8883 109.758 45.1276 109.388 45.3008C109.019 45.4694 108.57 45.5537 108.042 45.5537C107.682 45.5537 107.351 45.5013 107.051 45.3965C106.754 45.2917 106.499 45.1299 106.285 44.9111C106.071 44.6924 105.904 44.4076 105.786 44.0566C105.672 43.7057 105.615 43.2842 105.615 42.792V38.0205H106.88V42.8057C106.88 43.1383 106.916 43.4141 106.989 43.6328C107.066 43.847 107.169 44.0179 107.297 44.1455C107.429 44.2686 107.575 44.3551 107.734 44.4053C107.898 44.4554 108.067 44.4805 108.24 44.4805C108.778 44.4805 109.204 44.3779 109.518 44.1729C109.833 43.9632 110.058 43.6829 110.195 43.332C110.336 42.9766 110.407 42.5824 110.407 42.1494ZM118.707 44.5146C119.008 44.5146 119.286 44.4531 119.541 44.3301C119.796 44.207 120.006 44.0384 120.17 43.8242C120.334 43.6055 120.427 43.3571 120.45 43.0791H121.653C121.63 43.5166 121.482 43.9245 121.209 44.3027C120.94 44.6764 120.587 44.9795 120.149 45.2119C119.712 45.4398 119.231 45.5537 118.707 45.5537C118.151 45.5537 117.666 45.4557 117.251 45.2598C116.841 45.0638 116.499 44.7949 116.225 44.4531C115.957 44.1113 115.754 43.7194 115.617 43.2773C115.485 42.8307 115.419 42.359 115.419 41.8623V41.5752C115.419 41.0785 115.485 40.609 115.617 40.167C115.754 39.7204 115.957 39.3262 116.225 38.9844C116.499 38.6426 116.841 38.3737 117.251 38.1777C117.666 37.9818 118.151 37.8838 118.707 37.8838C119.286 37.8838 119.792 38.0023 120.224 38.2393C120.657 38.4717 120.997 38.7907 121.243 39.1963C121.494 39.5973 121.63 40.0531 121.653 40.5635H120.45C120.427 40.2581 120.341 39.9824 120.19 39.7363C120.044 39.4902 119.844 39.2943 119.589 39.1484C119.338 38.998 119.044 38.9229 118.707 38.9229C118.32 38.9229 117.994 39.0003 117.729 39.1553C117.47 39.3057 117.262 39.5107 117.107 39.7705C116.957 40.0257 116.848 40.3105 116.779 40.625C116.715 40.9349 116.683 41.2516 116.683 41.5752V41.8623C116.683 42.1859 116.715 42.5049 116.779 42.8193C116.843 43.1338 116.95 43.4186 117.1 43.6738C117.255 43.929 117.463 44.1341 117.723 44.2891C117.987 44.4395 118.315 44.5146 118.707 44.5146ZM128.552 38.0205V38.9912H124.553V38.0205H128.552ZM125.906 36.2227H127.171V43.585C127.171 43.8356 127.21 44.0247 127.287 44.1523C127.365 44.2799 127.465 44.3643 127.588 44.4053C127.711 44.4463 127.843 44.4668 127.984 44.4668C128.089 44.4668 128.199 44.4577 128.312 44.4395C128.431 44.4167 128.52 44.3984 128.579 44.3848L128.586 45.417C128.486 45.4489 128.353 45.4785 128.189 45.5059C128.03 45.5378 127.836 45.5537 127.608 45.5537C127.298 45.5537 127.014 45.4922 126.754 45.3691C126.494 45.2461 126.287 45.041 126.132 44.7539C125.981 44.4622 125.906 44.0703 125.906 43.5781V36.2227ZM133.789 38.0205V45.417H132.518V38.0205H133.789ZM132.422 36.0586C132.422 35.8535 132.483 35.6803 132.607 35.5391C132.734 35.3978 132.921 35.3271 133.167 35.3271C133.409 35.3271 133.593 35.3978 133.721 35.5391C133.853 35.6803 133.919 35.8535 133.919 36.0586C133.919 36.2546 133.853 36.4232 133.721 36.5645C133.593 36.7012 133.409 36.7695 133.167 36.7695C132.921 36.7695 132.734 36.7012 132.607 36.5645C132.483 36.4232 132.422 36.2546 132.422 36.0586ZM137.864 41.8008V41.6436C137.864 41.1104 137.942 40.6159 138.097 40.1602C138.252 39.6999 138.475 39.3011 138.767 38.9639C139.058 38.6221 139.412 38.3577 139.826 38.1709C140.241 37.9795 140.706 37.8838 141.221 37.8838C141.74 37.8838 142.208 37.9795 142.622 38.1709C143.042 38.3577 143.397 38.6221 143.689 38.9639C143.985 39.3011 144.21 39.6999 144.365 40.1602C144.52 40.6159 144.598 41.1104 144.598 41.6436V41.8008C144.598 42.334 144.52 42.8285 144.365 43.2842C144.21 43.7399 143.985 44.1387 143.689 44.4805C143.397 44.8177 143.044 45.082 142.629 45.2734C142.219 45.4603 141.754 45.5537 141.235 45.5537C140.715 45.5537 140.248 45.4603 139.833 45.2734C139.418 45.082 139.063 44.8177 138.767 44.4805C138.475 44.1387 138.252 43.7399 138.097 43.2842C137.942 42.8285 137.864 42.334 137.864 41.8008ZM139.129 41.6436V41.8008C139.129 42.1699 139.172 42.5186 139.259 42.8467C139.346 43.1702 139.475 43.4574 139.649 43.708C139.826 43.9587 140.047 44.1569 140.312 44.3027C140.576 44.444 140.884 44.5146 141.235 44.5146C141.581 44.5146 141.884 44.444 142.144 44.3027C142.408 44.1569 142.627 43.9587 142.8 43.708C142.973 43.4574 143.103 43.1702 143.19 42.8467C143.281 42.5186 143.326 42.1699 143.326 41.8008V41.6436C143.326 41.279 143.281 40.9349 143.19 40.6113C143.103 40.2832 142.971 39.9938 142.793 39.7432C142.62 39.488 142.401 39.2874 142.137 39.1416C141.877 38.9958 141.572 38.9229 141.221 38.9229C140.875 38.9229 140.569 38.9958 140.305 39.1416C140.045 39.2874 139.826 39.488 139.649 39.7432C139.475 39.9938 139.346 40.2832 139.259 40.6113C139.172 40.9349 139.129 41.279 139.129 41.6436ZM149.828 39.5996V45.417H148.564V38.0205H149.76L149.828 39.5996ZM149.528 41.4385L149.001 41.418C149.006 40.9121 149.081 40.445 149.227 40.0166C149.373 39.5837 149.578 39.2077 149.842 38.8887C150.106 38.5697 150.421 38.3236 150.785 38.1504C151.155 37.9727 151.562 37.8838 152.009 37.8838C152.374 37.8838 152.702 37.9339 152.993 38.0342C153.285 38.1299 153.534 38.2848 153.739 38.499C153.948 38.7132 154.108 38.9912 154.217 39.333C154.326 39.6702 154.381 40.0827 154.381 40.5703V45.417H153.11V40.5566C153.11 40.1693 153.053 39.8594 152.939 39.627C152.825 39.39 152.659 39.2191 152.44 39.1143C152.221 39.0049 151.952 38.9502 151.633 38.9502C151.319 38.9502 151.032 39.0163 150.772 39.1484C150.517 39.2806 150.296 39.4629 150.109 39.6953C149.926 39.9277 149.783 40.1943 149.678 40.4951C149.578 40.7913 149.528 41.1058 149.528 41.4385Z" fill="#FD5D14"/>
</svg>
