<svg width="153" height="49" viewBox="0 0 153 49" fill="none" xmlns="http://www.w3.org/2000/svg">
<path d="M8.81641 4.71007V18.8632L9.92647 19.5475V3.89404L8.81641 4.71007Z" fill="black"/>
<path d="M10.5742 3.41792V19.9468L11.6843 20.6311V2.60205L10.5742 3.41792Z" fill="black"/>
<path d="M12.3301 2.12584V21.0303L13.4402 21.7146V1.30981L12.3301 2.12584Z" fill="black"/>
<path d="M14.0898 0.833848V22.1139L15.1999 22.7983V0.0178223L14.0898 0.833848Z" fill="black"/>
<path d="M20.0059 18.8549L26.3763 15.6697L32.5192 17.831L32.6329 43.1887H26.7819L26.2625 16.6935L20.0059 18.8549Z" fill="#FF5E14"/>
<path d="M15.1987 23.9548L8.78013 19.9712L2.6372 22.1326L2.52344 43.2003L8.60574 43.1887L8.89386 20.995L15.1987 23.9548Z" fill="#FF5E14"/>
<path d="M17.2331 4.024L15.6836 3.19144V0L17.2331 0.832566V4.024Z" fill="black"/>
<path d="M19.3834 5.13411L17.834 4.30158V1.11011L19.3834 1.94267V5.13411Z" fill="black"/>
<path d="M17.2331 7.80525L15.6836 6.97269V3.78125L17.2331 4.61378V7.80525Z" fill="black"/>
<path d="M19.3834 8.91536L17.834 8.08283V4.89136L19.3834 5.72392V8.91536Z" fill="black"/>
<path d="M17.2331 11.5865L15.6836 10.754V7.5625L17.2331 8.39506V11.5865Z" fill="black"/>
<path d="M19.3834 12.6966L17.834 11.864V8.67261L19.3834 9.50514V12.6966Z" fill="black"/>
<path d="M17.2331 15.3675L15.6836 14.535V11.3435L17.2331 12.1761V15.3675Z" fill="black"/>
<path d="M19.3834 16.4779L17.834 15.6453V12.4539L19.3834 13.2864V16.4779Z" fill="black"/>
<path d="M17.2331 19.1488L15.6836 18.3162V15.1248L17.2331 15.9573V19.1488Z" fill="black"/>
<path d="M19.3834 20.2589L17.834 19.4263V16.2349L19.3834 17.0674V20.2589Z" fill="black"/>
<path d="M17.2331 22.9298L15.6836 22.0972V18.9058L17.2331 19.7383V22.9298Z" fill="black"/>
<path d="M19.3834 24.0399L17.834 23.2073V20.0159L19.3834 20.8484V24.0399Z" fill="black"/>
<path d="M17.2331 26.711L15.6836 25.8785V22.687L17.2331 23.5195V26.711Z" fill="black"/>
<path d="M19.3834 27.8211L17.834 26.9886V23.7971L19.3834 24.6297V27.8211Z" fill="black"/>
<path d="M17.2331 30.4923L15.6836 29.6597V26.4683L17.2331 27.3008V30.4923Z" fill="black"/>
<path d="M19.3834 31.6024L17.834 30.7698V27.5784L19.3834 28.4109V31.6024Z" fill="black"/>
<path d="M17.2331 34.2736L15.6836 33.441V30.2495L17.2331 31.0821V34.2736Z" fill="black"/>
<path d="M19.3834 35.3836L17.834 34.5511V31.3596L19.3834 32.1922V35.3836Z" fill="black"/>
<path d="M17.2331 38.0548L15.6836 37.2222V34.0308L17.2331 34.8633V38.0548Z" fill="black"/>
<path d="M19.3834 39.1649L17.834 38.3323V35.1409L19.3834 35.9734V39.1649Z" fill="black"/>
<path d="M17.2331 41.836L15.6836 41.0035V37.812L17.2331 38.6446V41.836Z" fill="black"/>
<path d="M19.3834 42.9459L17.834 42.1134V38.9219L19.3834 39.7544V42.9459Z" fill="black"/>
<path d="M35.8909 47.4167H0.109143C0.0488572 47.4167 0 47.2935 0 47.1415V45.692C0 45.54 0.0488572 45.4167 0.109143 45.4167H35.8909C35.9511 45.4167 36 45.54 36 45.692V47.1415C36 47.2935 35.9511 47.4167 35.8909 47.4167Z" fill="black"/>
<path d="M61.5078 13.0183H58.0859C58.0234 12.5756 57.8958 12.1824 57.7031 11.8386C57.5104 11.4897 57.263 11.1928 56.9609 10.948C56.6589 10.7032 56.3099 10.5157 55.9141 10.3855C55.5234 10.2553 55.099 10.1902 54.6406 10.1902C53.8125 10.1902 53.0911 10.3959 52.4766 10.8074C51.862 11.2136 51.3854 11.8074 51.0469 12.5886C50.7083 13.3647 50.5391 14.3074 50.5391 15.4167C50.5391 16.5574 50.7083 17.5157 51.0469 18.2917C51.3906 19.0678 51.8698 19.6537 52.4844 20.0496C53.099 20.4454 53.8099 20.6433 54.6172 20.6433C55.0703 20.6433 55.4896 20.5834 55.875 20.4636C56.2656 20.3438 56.612 20.1694 56.9141 19.9402C57.2161 19.7058 57.4661 19.422 57.6641 19.0886C57.8672 18.7553 58.0078 18.3751 58.0859 17.948L61.5078 17.9636C61.4193 18.698 61.1979 19.4063 60.8438 20.0886C60.4948 20.7657 60.0234 21.3725 59.4297 21.9089C58.8411 22.4402 58.138 22.8621 57.3203 23.1746C56.5078 23.4819 55.5885 23.6355 54.5625 23.6355C53.1354 23.6355 51.8594 23.3126 50.7344 22.6667C49.6146 22.0209 48.7292 21.086 48.0781 19.8621C47.4323 18.6381 47.1094 17.1563 47.1094 15.4167C47.1094 13.672 47.4375 12.1876 48.0938 10.9636C48.75 9.73966 49.6406 8.80737 50.7656 8.16675C51.8906 7.52091 53.1563 7.198 54.5625 7.198C55.4896 7.198 56.349 7.32821 57.1406 7.58862C57.9375 7.84904 58.6432 8.22925 59.2578 8.72925C59.8724 9.22404 60.3724 9.83081 60.7578 10.5496C61.1484 11.2683 61.3984 12.0912 61.5078 13.0183ZM78.6367 15.4167C78.6367 17.1615 78.306 18.6459 77.6445 19.8699C76.9883 21.0938 76.0924 22.0287 74.957 22.6746C73.8268 23.3152 72.556 23.6355 71.1445 23.6355C69.7227 23.6355 68.4466 23.3126 67.3164 22.6667C66.1862 22.0209 65.293 21.086 64.6367 19.8621C63.9805 18.6381 63.6523 17.1563 63.6523 15.4167C63.6523 13.672 63.9805 12.1876 64.6367 10.9636C65.293 9.73966 66.1862 8.80737 67.3164 8.16675C68.4466 7.52091 69.7227 7.198 71.1445 7.198C72.556 7.198 73.8268 7.52091 74.957 8.16675C76.0924 8.80737 76.9883 9.73966 77.6445 10.9636C78.306 12.1876 78.6367 13.672 78.6367 15.4167ZM75.207 15.4167C75.207 14.2865 75.0378 13.3334 74.6992 12.5574C74.3659 11.7813 73.8945 11.1928 73.2852 10.7917C72.6758 10.3907 71.9622 10.1902 71.1445 10.1902C70.3268 10.1902 69.6133 10.3907 69.0039 10.7917C68.3945 11.1928 67.9206 11.7813 67.582 12.5574C67.2487 13.3334 67.082 14.2865 67.082 15.4167C67.082 16.547 67.2487 17.5001 67.582 18.2761C67.9206 19.0522 68.3945 19.6407 69.0039 20.0417C69.6133 20.4428 70.3268 20.6433 71.1445 20.6433C71.9622 20.6433 72.6758 20.4428 73.2852 20.0417C73.8945 19.6407 74.3659 19.0522 74.6992 18.2761C75.0378 17.5001 75.207 16.547 75.207 15.4167ZM94.5254 7.41675V23.4167H91.6035L84.6426 13.3464H84.5254V23.4167H81.1426V7.41675H84.1113L91.0176 17.4792H91.1582V7.41675H94.5254ZM106 12.0183C105.938 11.3881 105.669 10.8985 105.195 10.5496C104.721 10.2006 104.078 10.0261 103.266 10.0261C102.714 10.0261 102.247 10.1042 101.867 10.2605C101.487 10.4115 101.195 10.6225 100.992 10.8933C100.794 11.1641 100.695 11.4714 100.695 11.8152C100.685 12.1016 100.745 12.3516 100.875 12.5652C101.01 12.7787 101.195 12.9636 101.43 13.1199C101.664 13.2709 101.935 13.4037 102.242 13.5183C102.549 13.6277 102.878 13.7214 103.227 13.7996L104.664 14.1433C105.362 14.2996 106.003 14.5079 106.586 14.7683C107.169 15.0287 107.674 15.349 108.102 15.7292C108.529 16.1095 108.859 16.5574 109.094 17.073C109.333 17.5886 109.456 18.1798 109.461 18.8464C109.456 19.8256 109.206 20.6746 108.711 21.3933C108.221 22.1069 107.513 22.6615 106.586 23.0574C105.664 23.448 104.552 23.6433 103.25 23.6433C101.958 23.6433 100.833 23.4454 99.875 23.0496C98.9219 22.6537 98.1771 22.0678 97.6406 21.2917C97.1094 20.5105 96.8307 19.5444 96.8047 18.3933H100.078C100.115 18.9298 100.268 19.3777 100.539 19.7371C100.815 20.0912 101.182 20.3595 101.641 20.5417C102.104 20.7188 102.628 20.8074 103.211 20.8074C103.784 20.8074 104.281 20.724 104.703 20.5574C105.13 20.3907 105.461 20.1589 105.695 19.8621C105.93 19.5652 106.047 19.224 106.047 18.8386C106.047 18.4792 105.94 18.1772 105.727 17.9324C105.518 17.6876 105.211 17.4792 104.805 17.3074C104.404 17.1355 103.911 16.9792 103.328 16.8386L101.586 16.4011C100.237 16.073 99.1719 15.56 98.3906 14.8621C97.6094 14.1641 97.2214 13.224 97.2266 12.0417C97.2214 11.073 97.4792 10.2266 98 9.50269C98.526 8.77873 99.2474 8.21362 100.164 7.80737C101.081 7.40112 102.122 7.198 103.289 7.198C104.477 7.198 105.513 7.40112 106.398 7.80737C107.289 8.21362 107.982 8.77873 108.477 9.50269C108.971 10.2266 109.227 11.0652 109.242 12.0183H106ZM111.127 10.2058V7.41675H124.268V10.2058H119.369V23.4167H116.025V10.2058H111.127ZM129.604 7.41675L132.83 12.8699H132.955L136.197 7.41675H140.018L135.135 15.4167L140.127 23.4167H136.236L132.955 17.9558H132.83L129.549 23.4167H125.674L130.682 15.4167L125.768 7.41675H129.604Z" fill="#2D2D2D"/>
<path d="M53.1641 42.2517H54.4766C54.4082 42.8806 54.2282 43.4434 53.9365 43.9402C53.6449 44.4369 53.2324 44.8311 52.6992 45.1228C52.166 45.4099 51.5007 45.5535 50.7031 45.5535C50.1198 45.5535 49.5889 45.4441 49.1104 45.2253C48.6364 45.0066 48.2285 44.6967 47.8867 44.2957C47.5449 43.8901 47.2806 43.4047 47.0938 42.8396C46.9115 42.2699 46.8203 41.6365 46.8203 40.9392V39.948C46.8203 39.2507 46.9115 38.6195 47.0938 38.0544C47.2806 37.4848 47.5472 36.9972 47.8936 36.5916C48.2445 36.186 48.666 35.8738 49.1582 35.655C49.6504 35.4363 50.2041 35.3269 50.8193 35.3269C51.5713 35.3269 52.207 35.4682 52.7266 35.7507C53.2461 36.0333 53.6494 36.4252 53.9365 36.9265C54.2282 37.4233 54.4082 37.9998 54.4766 38.656H53.1641C53.1003 38.1912 52.9818 37.7924 52.8086 37.4597C52.6354 37.1225 52.3893 36.8627 52.0703 36.6804C51.7513 36.4981 51.3343 36.407 50.8193 36.407C50.3773 36.407 49.9876 36.4913 49.6504 36.6599C49.3177 36.8285 49.0374 37.0678 48.8096 37.3777C48.5863 37.6876 48.4176 38.059 48.3037 38.4919C48.1898 38.9249 48.1328 39.4057 48.1328 39.9343V40.9392C48.1328 41.4268 48.1829 41.8848 48.2832 42.3132C48.388 42.7416 48.5452 43.1176 48.7549 43.4412C48.9645 43.7647 49.2311 44.0199 49.5547 44.2068C49.8783 44.3891 50.2611 44.4802 50.7031 44.4802C51.2637 44.4802 51.7103 44.3914 52.043 44.2136C52.3757 44.0359 52.6263 43.7807 52.7949 43.448C52.9681 43.1153 53.0911 42.7166 53.1641 42.2517ZM57.148 41.8005V41.6433C57.148 41.1101 57.2255 40.6156 57.3805 40.1599C57.5354 39.6996 57.7587 39.3009 58.0504 38.9636C58.3421 38.6218 58.6952 38.3575 59.11 38.1707C59.5247 37.9792 59.9895 37.8835 60.5045 37.8835C61.024 37.8835 61.4911 37.9792 61.9059 38.1707C62.3251 38.3575 62.6806 38.6218 62.9723 38.9636C63.2685 39.3009 63.4941 39.6996 63.649 40.1599C63.804 40.6156 63.8814 41.1101 63.8814 41.6433V41.8005C63.8814 42.3337 63.804 42.8282 63.649 43.2839C63.4941 43.7397 63.2685 44.1384 62.9723 44.4802C62.6806 44.8175 62.3274 45.0818 61.9127 45.2732C61.5025 45.46 61.0377 45.5535 60.5182 45.5535C59.9986 45.5535 59.5315 45.46 59.1168 45.2732C58.7021 45.0818 58.3466 44.8175 58.0504 44.4802C57.7587 44.1384 57.5354 43.7397 57.3805 43.2839C57.2255 42.8282 57.148 42.3337 57.148 41.8005ZM58.4127 41.6433V41.8005C58.4127 42.1697 58.456 42.5183 58.5426 42.8464C58.6292 43.17 58.759 43.4571 58.9322 43.7078C59.11 43.9584 59.331 44.1567 59.5953 44.3025C59.8596 44.4438 60.1673 44.5144 60.5182 44.5144C60.8645 44.5144 61.1676 44.4438 61.4273 44.3025C61.6917 44.1567 61.9104 43.9584 62.0836 43.7078C62.2568 43.4571 62.3867 43.17 62.4732 42.8464C62.5644 42.5183 62.61 42.1697 62.61 41.8005V41.6433C62.61 41.2787 62.5644 40.9347 62.4732 40.6111C62.3867 40.283 62.2545 39.9936 62.0768 39.7429C61.9036 39.4877 61.6848 39.2872 61.4205 39.1414C61.1607 38.9955 60.8554 38.9226 60.5045 38.9226C60.1581 38.9226 59.8528 38.9955 59.5885 39.1414C59.3287 39.2872 59.11 39.4877 58.9322 39.7429C58.759 39.9936 58.6292 40.283 58.5426 40.6111C58.456 40.9347 58.4127 41.2787 58.4127 41.6433ZM68.132 39.5994V45.4167H66.8674V38.0203H68.0637L68.132 39.5994ZM67.8312 41.4382L67.3049 41.4177C67.3094 40.9119 67.3846 40.4447 67.5305 40.0164C67.6763 39.5834 67.8814 39.2074 68.1457 38.8884C68.41 38.5694 68.7245 38.3233 69.0891 38.1501C69.4582 37.9724 69.8661 37.8835 70.3127 37.8835C70.6773 37.8835 71.0054 37.9337 71.2971 38.0339C71.5887 38.1296 71.8371 38.2846 72.0422 38.4988C72.2518 38.713 72.4113 38.991 72.5207 39.3328C72.6301 39.67 72.6848 40.0824 72.6848 40.5701V45.4167H71.4133V40.5564C71.4133 40.169 71.3563 39.8591 71.2424 39.6267C71.1284 39.3897 70.9621 39.2188 70.7434 39.114C70.5246 39.0046 70.2557 38.95 69.9367 38.95C69.6223 38.95 69.3352 39.016 69.0754 39.1482C68.8202 39.2804 68.5992 39.4626 68.4123 39.6951C68.23 39.9275 68.0865 40.1941 67.9816 40.4949C67.8814 40.7911 67.8312 41.1056 67.8312 41.4382ZM80.3123 43.4548C80.3123 43.2725 80.2713 43.1039 80.1893 42.949C80.1118 42.7895 79.95 42.6459 79.7039 42.5183C79.4624 42.3861 79.0978 42.2722 78.6102 42.1765C78.2 42.0899 77.8286 41.9874 77.4959 41.8689C77.1678 41.7504 76.8875 41.6069 76.6551 41.4382C76.4272 41.2696 76.2518 41.0714 76.1287 40.8435C76.0057 40.6156 75.9441 40.349 75.9441 40.0437C75.9441 39.752 76.0079 39.4763 76.1355 39.2166C76.2677 38.9568 76.4523 38.7266 76.6893 38.5261C76.9308 38.3256 77.2202 38.1684 77.5574 38.0544C77.8947 37.9405 78.2706 37.8835 78.6854 37.8835C79.2778 37.8835 79.7837 37.9884 80.2029 38.198C80.6222 38.4076 80.9435 38.6879 81.1668 39.0388C81.3901 39.3852 81.5018 39.7703 81.5018 40.1941H80.2371C80.2371 39.989 80.1756 39.7908 80.0525 39.5994C79.9341 39.4034 79.7586 39.2416 79.5262 39.114C79.2983 38.9864 79.018 38.9226 78.6854 38.9226C78.3344 38.9226 78.0496 38.9773 77.8309 39.0867C77.6167 39.1915 77.4594 39.3259 77.3592 39.49C77.2635 39.6541 77.2156 39.8272 77.2156 40.0095C77.2156 40.1462 77.2384 40.2693 77.284 40.3787C77.3341 40.4835 77.4207 40.5815 77.5438 40.6726C77.6668 40.7592 77.84 40.8412 78.0633 40.9187C78.2866 40.9962 78.5714 41.0736 78.9178 41.1511C79.5239 41.2878 80.0229 41.4519 80.4148 41.6433C80.8068 41.8347 81.0984 42.0694 81.2898 42.3474C81.4813 42.6254 81.577 42.9626 81.577 43.3591C81.577 43.6827 81.5086 43.9789 81.3719 44.2478C81.2397 44.5167 81.046 44.7491 80.7908 44.9451C80.5402 45.1365 80.2394 45.2869 79.8885 45.3962C79.5421 45.5011 79.1525 45.5535 78.7195 45.5535C78.0678 45.5535 77.5164 45.4373 77.0652 45.2048C76.6141 44.9724 76.2723 44.6716 76.0398 44.3025C75.8074 43.9333 75.6912 43.5437 75.6912 43.1335H76.9627C76.9809 43.4799 77.0812 43.7556 77.2635 43.9607C77.4458 44.1612 77.6691 44.3048 77.9334 44.3914C78.1977 44.4734 78.4598 44.5144 78.7195 44.5144C79.0659 44.5144 79.3553 44.4688 79.5877 44.3777C79.8247 44.2865 80.0047 44.1612 80.1277 44.0017C80.2508 43.8422 80.3123 43.6599 80.3123 43.4548ZM87.7348 38.0203V38.991H83.7357V38.0203H87.7348ZM85.0893 36.2224H86.3539V43.5847C86.3539 43.8354 86.3926 44.0245 86.4701 44.1521C86.5476 44.2797 86.6479 44.364 86.7709 44.405C86.8939 44.446 87.0261 44.4666 87.1674 44.4666C87.2722 44.4666 87.3816 44.4574 87.4955 44.4392C87.614 44.4164 87.7029 44.3982 87.7621 44.3845L87.7689 45.4167C87.6687 45.4486 87.5365 45.4783 87.3725 45.5056C87.213 45.5375 87.0193 45.5535 86.7914 45.5535C86.4815 45.5535 86.1967 45.4919 85.9369 45.3689C85.6771 45.2458 85.4698 45.0408 85.3148 44.7537C85.1645 44.462 85.0893 44.0701 85.0893 43.5779V36.2224ZM91.8828 39.1824V45.4167H90.6182V38.0203H91.8486L91.8828 39.1824ZM94.1934 37.9792L94.1865 39.155C94.0817 39.1322 93.9814 39.1186 93.8857 39.114C93.7946 39.1049 93.6898 39.1003 93.5713 39.1003C93.2796 39.1003 93.0221 39.1459 92.7988 39.2371C92.5755 39.3282 92.3864 39.4558 92.2314 39.6199C92.0765 39.7839 91.9535 39.9799 91.8623 40.2078C91.7757 40.4311 91.7188 40.6772 91.6914 40.946L91.3359 41.1511C91.3359 40.7045 91.3792 40.2852 91.4658 39.8933C91.557 39.5014 91.696 39.155 91.8828 38.8542C92.0697 38.5489 92.3066 38.3119 92.5938 38.1433C92.8854 37.9701 93.2318 37.8835 93.6328 37.8835C93.724 37.8835 93.8288 37.8949 93.9473 37.9177C94.0658 37.936 94.1478 37.9565 94.1934 37.9792ZM101.288 43.7078V38.0203H102.559V45.4167H101.349L101.288 43.7078ZM101.527 42.1492L102.053 42.1355C102.053 42.6277 102.001 43.0834 101.896 43.5027C101.796 43.9174 101.632 44.2774 101.404 44.5828C101.176 44.8881 100.878 45.1274 100.508 45.3005C100.139 45.4692 99.6904 45.5535 99.1617 45.5535C98.8017 45.5535 98.4713 45.5011 98.1705 45.3962C97.8743 45.2914 97.6191 45.1296 97.4049 44.9109C97.1907 44.6921 97.0244 44.4073 96.9059 44.0564C96.7919 43.7055 96.735 43.2839 96.735 42.7917V38.0203H97.9996V42.8054C97.9996 43.1381 98.0361 43.4138 98.109 43.6326C98.1865 43.8468 98.289 44.0177 98.4166 44.1453C98.5488 44.2683 98.6946 44.3549 98.8541 44.405C99.0182 44.4552 99.1868 44.4802 99.36 44.4802C99.8977 44.4802 100.324 44.3777 100.638 44.1726C100.953 43.963 101.178 43.6827 101.315 43.3318C101.456 42.9763 101.527 42.5821 101.527 42.1492ZM108.847 44.5144C109.148 44.5144 109.426 44.4529 109.681 44.3298C109.936 44.2068 110.146 44.0382 110.31 43.824C110.474 43.6052 110.567 43.3569 110.59 43.0789H111.793C111.77 43.5164 111.622 43.9242 111.349 44.3025C111.08 44.6762 110.727 44.9792 110.289 45.2117C109.852 45.4395 109.371 45.5535 108.847 45.5535C108.291 45.5535 107.806 45.4555 107.391 45.2595C106.981 45.0636 106.639 44.7947 106.365 44.4529C106.097 44.1111 105.894 43.7192 105.757 43.2771C105.625 42.8305 105.559 42.3588 105.559 41.8621V41.575C105.559 41.0782 105.625 40.6088 105.757 40.1667C105.894 39.7201 106.097 39.3259 106.365 38.9841C106.639 38.6423 106.981 38.3735 107.391 38.1775C107.806 37.9815 108.291 37.8835 108.847 37.8835C109.426 37.8835 109.932 38.002 110.364 38.239C110.797 38.4714 111.137 38.7904 111.383 39.196C111.634 39.5971 111.77 40.0528 111.793 40.5632H110.59C110.567 40.2579 110.481 39.9822 110.33 39.7361C110.184 39.49 109.984 39.294 109.729 39.1482C109.478 38.9978 109.184 38.9226 108.847 38.9226C108.46 38.9226 108.134 39.0001 107.869 39.155C107.61 39.3054 107.402 39.5105 107.247 39.7703C107.097 40.0255 106.987 40.3103 106.919 40.6248C106.855 40.9347 106.823 41.2514 106.823 41.575V41.8621C106.823 42.1856 106.855 42.5046 106.919 42.8191C106.983 43.1335 107.09 43.4184 107.24 43.6736C107.395 43.9288 107.603 44.1339 107.862 44.2888C108.127 44.4392 108.455 44.5144 108.847 44.5144ZM117.712 38.0203V38.991H113.713V38.0203H117.712ZM115.066 36.2224H116.331V43.5847C116.331 43.8354 116.37 44.0245 116.447 44.1521C116.525 44.2797 116.625 44.364 116.748 44.405C116.871 44.446 117.003 44.4666 117.144 44.4666C117.249 44.4666 117.359 44.4574 117.472 44.4392C117.591 44.4164 117.68 44.3982 117.739 44.3845L117.746 45.4167C117.646 45.4486 117.513 45.4783 117.349 45.5056C117.19 45.5375 116.996 45.5535 116.768 45.5535C116.458 45.5535 116.174 45.4919 115.914 45.3689C115.654 45.2458 115.447 45.0408 115.292 44.7537C115.141 44.462 115.066 44.0701 115.066 43.5779V36.2224ZM121.969 38.0203V45.4167H120.698V38.0203H121.969ZM120.602 36.0583C120.602 35.8533 120.663 35.6801 120.787 35.5388C120.914 35.3975 121.101 35.3269 121.347 35.3269C121.589 35.3269 121.773 35.3975 121.901 35.5388C122.033 35.6801 122.099 35.8533 122.099 36.0583C122.099 36.2543 122.033 36.4229 121.901 36.5642C121.773 36.7009 121.589 36.7693 121.347 36.7693C121.101 36.7693 120.914 36.7009 120.787 36.5642C120.663 36.4229 120.602 36.2543 120.602 36.0583ZM125.064 41.8005V41.6433C125.064 41.1101 125.142 40.6156 125.297 40.1599C125.452 39.6996 125.675 39.3009 125.967 38.9636C126.258 38.6218 126.612 38.3575 127.026 38.1707C127.441 37.9792 127.906 37.8835 128.421 37.8835C128.94 37.8835 129.408 37.9792 129.822 38.1707C130.242 38.3575 130.597 38.6218 130.889 38.9636C131.185 39.3009 131.41 39.6996 131.565 40.1599C131.72 40.6156 131.798 41.1101 131.798 41.6433V41.8005C131.798 42.3337 131.72 42.8282 131.565 43.2839C131.41 43.7397 131.185 44.1384 130.889 44.4802C130.597 44.8175 130.244 45.0818 129.829 45.2732C129.419 45.46 128.954 45.5535 128.435 45.5535C127.915 45.5535 127.448 45.46 127.033 45.2732C126.618 45.0818 126.263 44.8175 125.967 44.4802C125.675 44.1384 125.452 43.7397 125.297 43.2839C125.142 42.8282 125.064 42.3337 125.064 41.8005ZM126.329 41.6433V41.8005C126.329 42.1697 126.372 42.5183 126.459 42.8464C126.546 43.17 126.675 43.4571 126.849 43.7078C127.026 43.9584 127.247 44.1567 127.512 44.3025C127.776 44.4438 128.084 44.5144 128.435 44.5144C128.781 44.5144 129.084 44.4438 129.344 44.3025C129.608 44.1567 129.827 43.9584 130 43.7078C130.173 43.4571 130.303 43.17 130.39 42.8464C130.481 42.5183 130.526 42.1697 130.526 41.8005V41.6433C130.526 41.2787 130.481 40.9347 130.39 40.6111C130.303 40.283 130.171 39.9936 129.993 39.7429C129.82 39.4877 129.601 39.2872 129.337 39.1414C129.077 38.9955 128.772 38.9226 128.421 38.9226C128.075 38.9226 127.769 38.9955 127.505 39.1414C127.245 39.2872 127.026 39.4877 126.849 39.7429C126.675 39.9936 126.546 40.283 126.459 40.6111C126.372 40.9347 126.329 41.2787 126.329 41.6433ZM136.048 39.5994V45.4167H134.784V38.0203H135.98L136.048 39.5994ZM135.748 41.4382L135.221 41.4177C135.226 40.9119 135.301 40.4447 135.447 40.0164C135.593 39.5834 135.798 39.2074 136.062 38.8884C136.326 38.5694 136.641 38.3233 137.005 38.1501C137.375 37.9724 137.782 37.8835 138.229 37.8835C138.594 37.8835 138.922 37.9337 139.213 38.0339C139.505 38.1296 139.754 38.2846 139.959 38.4988C140.168 38.713 140.328 38.991 140.437 39.3328C140.546 39.67 140.601 40.0824 140.601 40.5701V45.4167H139.33V40.5564C139.33 40.169 139.273 39.8591 139.159 39.6267C139.045 39.3897 138.879 39.2188 138.66 39.114C138.441 39.0046 138.172 38.95 137.853 38.95C137.539 38.95 137.252 39.016 136.992 39.1482C136.737 39.2804 136.516 39.4626 136.329 39.6951C136.146 39.9275 136.003 40.1941 135.898 40.4949C135.798 40.7911 135.748 41.1056 135.748 41.4382Z" fill="black"/>
</svg>
