<svg width="46" height="61" viewBox="0 0 46 61" fill="none" xmlns="http://www.w3.org/2000/svg">
<path d="M11.2656 6.01828V24.1029L12.684 24.9773V4.97559L11.2656 6.01828Z" fill="#FE5E14"/>
<path d="M13.5117 4.36721V25.4874L14.9302 26.3618V3.32471L13.5117 4.36721Z" fill="#FE5E14"/>
<path d="M15.7559 2.71653V26.8722L17.1743 27.7466V1.67383L15.7559 2.71653Z" fill="#FE5E14"/>
<path d="M18.0039 1.06565V28.2568L19.4224 29.1314V0.0229492L18.0039 1.06565Z" fill="#FE5E14"/>
<path d="M25.5625 24.0924L33.7025 20.0225L41.5517 22.7842L41.6971 55.1856H34.2208L33.5571 21.3307L25.5625 24.0924Z" fill="white"/>
<path d="M19.4208 30.6087L11.2193 25.5186L3.36997 28.2804L3.22461 55.2001L10.9964 55.1853L11.3646 26.8268L19.4208 30.6087Z" fill="white"/>
<path d="M22.0209 5.14178L20.041 4.07795V0L22.0209 1.06383V5.14178Z" fill="#FE5E14"/>
<path d="M24.767 6.55975L22.7871 5.49597V1.41797L24.767 2.4818V6.55975Z" fill="#FE5E14"/>
<path d="M22.0209 9.97333L20.041 8.90949V4.83154L22.0209 5.89533V9.97333Z" fill="#FE5E14"/>
<path d="M24.767 11.3913L22.7871 10.3275V6.24951L24.767 7.31335V11.3913Z" fill="#FE5E14"/>
<path d="M22.0209 14.8049L20.041 13.7411V9.66309L22.0209 10.7269V14.8049Z" fill="#FE5E14"/>
<path d="M24.767 16.2228L22.7871 15.159V11.0811L24.767 12.1448V16.2228Z" fill="#FE5E14"/>
<path d="M22.0209 19.636L20.041 18.5721V14.4941L22.0209 15.558V19.636Z" fill="#FE5E14"/>
<path d="M24.767 21.0544L22.7871 19.9905V15.9126L24.767 16.9764V21.0544Z" fill="#FE5E14"/>
<path d="M22.0209 24.4675L20.041 23.4037V19.3257L22.0209 20.3895V24.4675Z" fill="#FE5E14"/>
<path d="M24.767 25.886L22.7871 24.8221V20.7441L24.767 21.808V25.886Z" fill="#FE5E14"/>
<path d="M22.0209 29.299L20.041 28.2352V24.1572L22.0209 25.2211V29.299Z" fill="#FE5E14"/>
<path d="M24.767 30.718L22.7871 29.6542V25.5762L24.767 26.64V30.718Z" fill="#FE5E14"/>
<path d="M22.0209 34.1306L20.041 33.0667V28.9888L22.0209 30.0526V34.1306Z" fill="#FE5E14"/>
<path d="M24.767 35.5495L22.7871 34.4857V30.4077L24.767 31.4715V35.5495Z" fill="#FE5E14"/>
<path d="M22.0209 38.9621L20.041 37.8983V33.8203L22.0209 34.8841V38.9621Z" fill="#FE5E14"/>
<path d="M24.767 40.381L22.7871 39.3172V35.2393L24.767 36.3031V40.381Z" fill="#FE5E14"/>
<path d="M22.0209 43.7937L20.041 42.7299V38.6519L22.0209 39.7157V43.7937Z" fill="#FE5E14"/>
<path d="M24.767 45.2126L22.7871 44.1487V40.0708L24.767 41.1346V45.2126Z" fill="#FE5E14"/>
<path d="M22.0209 48.6252L20.041 47.5614V43.4834L22.0209 44.5472V48.6252Z" fill="#FE5E14"/>
<path d="M24.767 50.0436L22.7871 48.9798V44.9019L24.767 45.9656V50.0436Z" fill="#FE5E14"/>
<path d="M22.0209 53.4567L20.041 52.3929V48.3149L22.0209 49.3788V53.4567Z" fill="#FE5E14"/>
<path d="M24.767 54.8752L22.7871 53.8114V49.7334L24.767 50.7972V54.8752Z" fill="#FE5E14"/>
<path d="M45.8605 60.5883H0.13946C0.0624287 60.5883 0 60.4308 0 60.2365V58.3845C0 58.1902 0.0624287 58.0327 0.13946 58.0327H45.8605C45.9376 58.0327 46 58.1902 46 58.3845V60.2365C46 60.4308 45.9376 60.5883 45.8605 60.5883Z" fill="#FE5E14"/>
</svg>
