<svg width="66" height="57" viewBox="0 0 66 57" fill="none" xmlns="http://www.w3.org/2000/svg">
<path d="M13.0303 10.3989C13.2459 10.1666 13.2323 9.8036 12.9998 9.58813L9.40586 6.25652C9.22441 6.0883 8.95561 6.05521 8.73839 6.17468C8.52153 6.29416 8.40577 6.53909 8.45118 6.78237L9.35029 11.5982C9.40186 11.8742 9.64294 12.0668 9.91398 12.0668C9.94891 12.0668 9.98433 12.0636 10.0199 12.057C10.3316 11.9989 10.5371 11.6992 10.479 11.3878L9.89836 8.27806L12.219 10.4294C12.4513 10.6448 12.8147 10.6313 13.0303 10.3989Z" fill="#FF7029"/>
<path d="M27.3274 17.2538C27.4379 17.3562 27.5779 17.4068 27.7176 17.4068C27.8718 17.4068 28.0256 17.3451 28.1387 17.2232L31.6108 13.4803C31.7791 13.2988 31.812 13.0299 31.6924 12.8132C31.5729 12.5966 31.3282 12.4807 31.0844 12.5263L26.1143 13.4536C25.8027 13.5118 25.5972 13.8114 25.6553 14.1229C25.7135 14.4343 26.0132 14.6397 26.3251 14.5815L29.5884 13.9727L27.2967 16.4431C27.0811 16.6755 27.095 17.0384 27.3274 17.2538Z" fill="#FF7029"/>
<path d="M2.59829 29.4118C2.63323 29.4118 2.66856 29.4086 2.70378 29.402L7.72042 28.4661C8.03211 28.408 8.23757 28.1083 8.17945 27.7969C8.12115 27.4854 7.82056 27.2798 7.50981 27.3382L4.20031 27.9556L6.45559 25.5254C6.67115 25.2931 6.65751 24.9301 6.42503 24.7146C6.19258 24.4992 5.8295 24.5128 5.61376 24.7452L2.17756 28.4479C2.0092 28.6294 1.97622 28.8983 2.09572 29.115C2.19793 29.3003 2.392 29.4118 2.59829 29.4118Z" fill="#FF7029"/>
<path d="M8.27366 13.7464C8.34411 13.4375 8.15071 13.13 7.84154 13.0596L3.05122 11.9686C2.80979 11.9139 2.56042 12.0195 2.43231 12.2313C2.30432 12.443 2.32654 12.713 2.48753 12.901L5.69848 16.6515C5.812 16.7841 5.97288 16.8522 6.13491 16.8522C6.26693 16.8522 6.39962 16.807 6.50781 16.7145C6.74878 16.5085 6.77689 16.1463 6.57078 15.9056L4.48795 13.4726L7.58647 14.1783C7.89469 14.2483 8.2032 14.0554 8.27366 13.7464Z" fill="#FF7029"/>
<path d="M17.2306 4.08069C16.9811 4.07433 16.7602 4.22976 16.6777 4.46306L15.0408 9.0906C14.9351 9.38931 15.0918 9.7171 15.3907 9.82266C15.6891 9.92826 16.0175 9.77176 16.1233 9.47301L17.1817 6.48082L18.1257 9.5407C18.2017 9.78722 18.4288 9.94554 18.6741 9.94554C18.73 9.94554 18.787 9.93728 18.8434 9.91995C19.1464 9.82657 19.3162 9.50546 19.2228 9.20268L17.7675 4.48524C17.6946 4.24875 17.4781 4.08568 17.2306 4.08069Z" fill="#FF7029"/>
<path d="M0.000115597 20.6283C-0.0048344 20.8757 0.149606 21.0984 0.383092 21.1807L5.10821 22.8462C5.17137 22.8684 5.23583 22.879 5.29919 22.879C5.53576 22.879 5.75738 22.7316 5.84054 22.496C5.94603 22.1972 5.78915 21.8695 5.49017 21.7641L2.40359 20.6762L5.49259 19.7242C5.7956 19.6309 5.96546 19.3097 5.87203 19.0069C5.77859 18.7043 5.45774 18.5342 5.15427 18.6278L0.40496 20.0914C0.168284 20.1644 0.0050656 20.3807 0.000115597 20.6283Z" fill="#FF7029"/>
<path d="M24.0913 12.4469C24.1343 12.4567 24.1773 12.4614 24.2196 12.4614C24.4814 12.4613 24.718 12.2811 24.7787 12.0152L25.8944 7.12928C25.9495 6.888 25.8436 6.63859 25.6316 6.51063C25.4198 6.3826 25.1496 6.40492 24.9614 6.5659L21.1841 9.79858C20.9433 10.0047 20.9152 10.3668 21.1214 10.6075C21.3277 10.8481 21.6901 10.8762 21.9309 10.6701L24.3885 8.56676L23.6594 11.7599C23.5888 12.0688 23.7823 12.3764 24.0913 12.4469Z" fill="#FF7029"/>
<path d="M56.3177 25.9448H58.4354C58.7524 25.9448 59.0094 25.688 59.0094 25.3711C59.0094 25.0543 58.7524 24.7974 58.4354 24.7974H56.8903V23.1111C56.8903 22.7943 56.6332 22.5374 56.3162 22.5374C55.9992 22.5374 55.7422 22.7943 55.7422 23.1111V24.8609C54.5339 25.1252 53.626 26.2018 53.626 27.4875C53.626 28.9708 54.8335 30.1776 56.3177 30.1776C57.1689 30.1776 57.8613 30.8696 57.8613 31.7202C57.8613 32.5708 57.1689 33.2629 56.3177 33.2629H54.2C53.883 33.2629 53.626 33.5198 53.626 33.8366C53.626 34.1534 53.883 34.4103 54.2 34.4103H55.7421V35.7711C55.7421 36.0879 55.9992 36.3448 56.3162 36.3448C56.6332 36.3448 56.8902 36.088 56.8902 35.7711V34.3476C58.1001 34.0845 59.0094 33.0071 59.0094 31.7202C59.0094 30.2369 57.8019 29.0302 56.3177 29.0302C55.4665 29.0302 54.7741 28.3381 54.7741 27.4875C54.7741 26.6369 55.4665 25.9448 56.3177 25.9448Z" fill="#FF7029"/>
<path d="M66 29.4409C66 24.1052 61.6564 19.7642 56.3174 19.7642C50.9784 19.7642 46.6348 24.1052 46.6348 29.4409C46.6348 33.1364 48.7211 36.3497 51.7761 37.9784H48.1473C47.3133 37.9784 46.6348 38.6565 46.6348 39.49V54.5858C46.6348 55.4193 47.3133 56.0974 48.1473 56.0974H64.4875C65.3215 56.0974 66 55.4193 66 54.5858V39.49C66 38.6565 65.3215 37.9784 64.4875 37.9784H60.8585C63.9132 36.349 66 33.1364 66 29.4409ZM64.852 39.49V42.1102H59.0132C58.6962 42.1102 58.4391 42.3671 58.4391 42.6839C58.4391 43.0008 58.6962 43.2576 59.0132 43.2576H64.852V46.4648H59.0132C58.6962 46.4648 58.4391 46.7217 58.4391 47.0385C58.4391 47.3554 58.6962 47.6122 59.0132 47.6122H64.852V50.8161H59.0132C58.6962 50.8161 58.4391 51.073 58.4391 51.3898C58.4391 51.7067 58.6962 51.9635 59.0132 51.9635H64.852V54.5858C64.852 54.7866 64.6884 54.95 64.4876 54.95H48.1473C47.9464 54.95 47.7829 54.7866 47.7829 54.5858V51.9635H53.6217C53.9387 51.9635 54.1957 51.7067 54.1957 51.3898C54.1957 51.073 53.9387 50.8161 53.6217 50.8161H47.7829V47.6122H53.6217C53.9387 47.6122 54.1957 47.3554 54.1957 47.0385C54.1957 46.7217 53.9387 46.4648 53.6217 46.4648H47.7829V43.2576H53.6217C53.9387 43.2576 54.1957 43.0008 54.1957 42.6839C54.1957 42.3671 53.9387 42.1102 53.6217 42.1102H47.7829V39.49C47.7829 39.2892 47.9464 39.1258 48.1473 39.1258H64.4876C64.6884 39.1258 64.852 39.2892 64.852 39.49ZM56.3174 37.9702C51.6114 37.9702 47.7829 34.144 47.7829 29.4409C47.7829 24.7378 51.6114 20.9116 56.3174 20.9116C61.0233 20.9116 64.852 24.7378 64.852 29.4409C64.852 34.144 61.0233 37.9702 56.3174 37.9702Z" fill="#FF7029"/>
<path d="M65.426 3.8114C65.743 3.8114 66 3.55453 66 3.23771C66 2.92088 65.743 2.66402 65.426 2.66402H61.3919V0.573694C61.3919 0.256869 61.1349 0 60.8178 0H56.0403C54.1033 0 52.3629 1.1376 51.6065 2.89815C51.2769 3.66532 51.0868 4.4733 51.0246 5.30455H40.5835C36.2403 5.30455 32.7068 8.8358 32.7068 13.1763V19.5563C32.7068 19.8732 32.9639 20.13 33.2809 20.13C33.5979 20.13 33.8549 19.8732 33.8549 19.5563V13.1763C33.8549 9.4685 36.8733 6.45194 40.5835 6.45194H51.0199C51.0883 7.37178 51.3191 8.25947 51.714 9.09687C52.4757 10.7125 54.1711 11.7565 56.0331 11.7565H60.8179C61.1349 11.7565 61.392 11.4996 61.392 11.1828V9.09091H65.426C65.743 9.09091 66.0001 8.83404 66.0001 8.51721C66.0001 8.20039 65.743 7.94352 65.426 7.94352H61.392V3.8114H65.426ZM60.2438 10.6091H56.033C54.6134 10.6091 53.3258 9.8235 52.7526 8.60775C52.3489 7.75149 52.1442 6.83314 52.1442 5.87824C52.1442 5.00028 52.3182 4.14991 52.6616 3.35083C53.2366 2.01229 54.5629 1.14739 56.0403 1.14739H60.2438L60.2438 10.6091Z" fill="#FF7029"/>
<path d="M44.7059 53.3046V26.0053C44.7059 24.4653 43.4522 23.2124 41.9112 23.2124H40.185V21.895C40.185 20.8494 39.3338 19.9987 38.2772 19.9987C37.2309 19.9987 36.3797 20.8494 36.3797 21.895V23.2124H29.135V21.895C29.135 20.8494 28.2837 19.9987 27.2272 19.9987C27.1842 19.9987 27.144 20.0085 27.1018 20.0114C26.9263 18.7033 26.6249 17.3376 25.8901 16.0068C23.1591 11.0521 16.8996 9.24225 11.9362 11.9723C9.53322 13.296 7.78994 15.4759 7.02744 18.1107C6.26503 20.7452 6.57466 23.5178 7.8988 25.9166C8.39558 26.8212 9.02476 27.6319 9.76046 28.3399V53.3046C9.76046 54.8446 11.0125 56.0976 12.5513 56.0976H41.9112C43.4522 56.0976 44.7059 54.8447 44.7059 53.3046ZM37.5278 21.895C37.5278 21.482 37.864 21.1461 38.2876 21.1461C38.7007 21.1461 39.0369 21.482 39.0369 21.895V26.8565C39.0369 27.2694 38.7007 27.6054 38.2876 27.6054H38.2772C37.864 27.6054 37.5278 27.2694 37.5278 26.8565V21.895ZM27.2375 21.1461C27.6507 21.1461 27.9869 21.482 27.9869 21.895V26.8565C27.9869 27.2694 27.6507 27.6054 27.2375 27.6054H27.2272C26.8139 27.6054 26.4778 27.2694 26.4778 26.8565V21.895C26.4778 21.482 26.8139 21.1461 27.2375 21.1461ZM8.90471 25.3635C7.72819 23.232 7.45321 20.7695 8.13041 18.4295C8.80771 16.0892 10.3561 14.1529 12.49 12.9774C16.8985 10.5525 22.4588 12.1596 24.8846 16.5608C25.5848 17.8288 25.847 19.174 26.0028 20.4584C25.5945 20.8065 25.3297 21.3178 25.3297 21.895V23.2124H18.0849V21.895C18.0849 20.8494 17.2337 19.9987 16.1771 19.9987C15.1308 19.9987 14.2797 20.8494 14.2797 21.895V23.2124H12.5513C11.0125 23.2124 9.76046 24.4653 9.76046 26.0053V26.634C9.44232 26.2369 9.15286 25.8154 8.90471 25.3635ZM16.9368 21.895V26.8565C16.9368 27.2694 16.6006 27.6054 16.1874 27.6054H16.1771C15.7639 27.6054 15.4277 27.2694 15.4277 26.8565V21.895C15.4277 21.482 15.7639 21.1461 16.1874 21.1461C16.6006 21.1461 16.9368 21.482 16.9368 21.895ZM10.9086 53.3046V26.0053C10.9086 25.098 11.6455 24.3598 12.5513 24.3598H14.2797V26.8565C14.2797 27.9021 15.1308 28.7528 16.1771 28.7528H16.1874C17.2337 28.7528 18.0849 27.9021 18.0849 26.8565V24.3598H25.3297V26.8565C25.3297 27.9021 26.1809 28.7528 27.2272 28.7528H27.2375C28.2838 28.7528 29.135 27.9021 29.135 26.8565V24.3598H36.3798V26.8565C36.3798 27.9021 37.2309 28.7528 38.2772 28.7528H38.2876C39.3338 28.7528 40.185 27.9021 40.185 26.8565V24.3598H41.9112C42.8191 24.3598 43.5578 25.098 43.5578 26.0053V53.3046C43.5578 54.212 42.8191 54.9501 41.9112 54.9501H12.5513C11.6455 54.9502 10.9086 54.212 10.9086 53.3046Z" fill="#FF7029"/>
<path d="M40.0068 32.3541H14.4559C14.1389 32.3541 13.8818 32.611 13.8818 32.9278V50.0261C13.8818 50.3429 14.1389 50.5998 14.4559 50.5998H40.0068C40.3239 50.5998 40.5809 50.3429 40.5809 50.0261V32.9278C40.5809 32.611 40.3239 32.3541 40.0068 32.3541ZM39.4328 40.9032H32.064V33.5016H39.4328V40.9032ZM23.5469 40.9032V33.5016H30.9158V40.9032H23.5469ZM30.9159 42.0507V49.4524H23.547V42.0507H30.9159ZM22.3988 33.5016V40.9032H15.0299V33.5016H22.3988ZM15.0299 42.0507H22.3988V49.4524H15.0299V42.0507ZM32.064 49.4524V42.0507H39.4328V49.4524H32.064Z" fill="#FF7029"/>
</svg>
