<svg width="74" height="74" viewBox="0 0 74 74" fill="none" xmlns="http://www.w3.org/2000/svg">
<path d="M70.7604 32.5376L64.2125 31.5621C63.5286 28.7142 62.4074 26.0233 60.8825 23.523L64.818 18.1973C65.0647 17.8609 65.031 17.4012 64.7395 17.0985L58.0122 10.3712C57.7207 10.0909 57.261 10.0573 56.9247 10.3039L51.5989 14.2394C49.861 13.1742 47.9662 12.2997 45.9704 11.627C45.5219 11.4812 45.051 11.7167 44.9053 12.1539C44.7595 12.5912 44.995 13.0733 45.4322 13.2191C47.4953 13.9142 49.435 14.8336 51.184 15.9661C51.4756 16.1567 51.8568 16.1455 52.1371 15.9324L57.3395 12.0867L63.0353 17.7824L59.1895 22.9848C58.9765 23.2652 58.9653 23.6464 59.1559 23.9379C60.8377 26.5615 62.0262 29.443 62.6989 32.4927C62.7774 32.8291 63.0465 33.0982 63.394 33.143L69.7962 34.0961V42.1576L63.394 43.1106C63.0465 43.1667 62.7662 43.4245 62.6989 43.7609C62.0374 46.7994 60.8489 49.6697 59.1559 52.3158C58.9653 52.6073 58.9765 52.9885 59.1895 53.2688L63.0353 58.4712L57.3395 64.167L52.1371 60.3212C51.8568 60.1082 51.4756 60.097 51.184 60.2876C48.5492 61.9694 45.6789 63.1579 42.6404 63.8194C42.304 63.8979 42.035 64.167 41.9901 64.5146L41.0371 70.9167H32.9756L32.0225 64.5146C31.9665 64.167 31.7086 63.8867 31.3722 63.8194C28.3337 63.1579 25.4634 61.9694 22.8286 60.2876C22.5371 60.097 22.1559 60.1082 21.8756 60.3212L16.6731 64.167L10.9774 58.4712L14.8231 53.2688C15.0362 52.9885 15.0474 52.6073 14.8568 52.3158C13.1637 49.6809 11.9753 46.7994 11.3137 43.7609C11.2353 43.4245 10.9662 43.1555 10.6186 43.1106L4.20526 42.1576V34.0961L10.6074 33.143C10.955 33.087 11.2353 32.8291 11.3025 32.4927C11.964 29.443 13.1637 26.5727 14.8456 23.9379C15.0362 23.6464 15.025 23.2652 14.8119 22.9848L10.9662 17.7824L16.6619 12.0867L21.8643 15.9324C22.1446 16.1455 22.5259 16.1567 22.8174 15.9661C24.5777 14.8448 26.5062 13.9142 28.5692 13.2191C29.0065 13.0733 29.2419 12.5912 29.0962 12.1539C28.9504 11.7167 28.4795 11.4812 28.031 11.627C26.0353 12.2997 24.1404 13.1855 22.4025 14.2394L17.0768 10.3039C16.7404 10.0573 16.2807 10.0909 15.978 10.3824L9.25071 17.1097C8.97041 17.4012 8.93677 17.8609 9.18344 18.1973L13.1189 23.523C11.594 26.0233 10.4728 28.7142 9.78889 31.5621L3.24101 32.5376C2.82616 32.5936 2.52344 32.9524 2.52344 33.3673V42.8752C2.52344 43.29 2.82616 43.6488 3.24101 43.7048L9.78889 44.6803C10.4728 47.517 11.5828 50.2191 13.1189 52.7194L9.18344 58.0452C8.93677 58.3815 8.97041 58.8412 9.26192 59.1439L15.9892 65.8712C16.2807 66.1627 16.7516 66.1964 17.088 65.9497L22.4137 62.0142C24.914 63.5391 27.605 64.6603 30.4528 65.333L31.4283 71.8809C31.4956 72.2958 31.8431 72.5985 32.258 72.5985H41.7659C42.1807 72.5985 42.5395 72.2958 42.5956 71.8809L43.571 65.333C46.4077 64.6491 49.1098 63.5391 51.6101 62.0142L56.9359 65.9497C57.2722 66.1964 57.7319 66.1627 58.0346 65.8712L64.7619 59.1439C65.0534 58.8524 65.0871 58.3815 64.8404 58.0452L60.905 52.7194C62.441 50.2191 63.551 47.517 64.235 44.6803L70.7828 43.7048C71.1977 43.6488 71.5004 43.29 71.5004 42.8752V33.3673C71.478 32.9524 71.1753 32.5936 70.7604 32.5376Z" fill="#FF7029"/>
<path d="M46.0829 20.4285C45.6681 20.2154 45.1635 20.3836 44.9505 20.7873C44.7375 21.1909 44.9057 21.7067 45.3093 21.9197C51.4199 25.0591 55.2096 31.2706 55.2096 38.1212C55.2096 48.1673 47.036 56.3409 36.9899 56.3409C26.9439 56.3409 18.7814 48.1673 18.7814 38.1212C18.7814 31.2706 22.5823 25.0703 28.6929 21.9197C29.1078 21.7067 29.2648 21.2021 29.0517 20.7873C28.8387 20.3724 28.3342 20.2154 27.9193 20.4285C21.2481 23.8594 17.0996 30.6427 17.0996 38.1212C17.0996 49.0979 26.0245 58.0227 37.0011 58.0227C47.9778 58.0227 56.9026 49.0979 56.9026 38.1212C56.9026 30.6427 52.7542 23.8594 46.0829 20.4285Z" fill="#FF7029"/>
<path d="M24.2642 32.4142C24.1409 32.7394 24.2194 33.1094 24.4772 33.3336L36.4406 44.3439C36.5976 44.4897 36.8106 44.5682 37.0124 44.5682C37.2142 44.5682 37.416 44.4897 37.5842 44.3439L49.5476 33.3336C49.8054 33.0982 49.8839 32.7282 49.7606 32.4142C49.6373 32.1003 49.3233 31.8761 48.9757 31.8761H43.1903V2.24243C43.1903 1.78273 42.8091 1.40152 42.3494 1.40152C41.8897 1.40152 41.4972 1.78273 41.4972 2.24243V32.717C41.4972 33.1767 41.8785 33.5579 42.3382 33.5579H46.8118L37.0012 42.5836L27.2018 33.5579H31.6754C32.1351 33.5579 32.5163 33.1767 32.5163 32.717V2.24243C32.5163 1.78273 32.1351 1.40152 31.6754 1.40152C31.2157 1.40152 30.8233 1.78273 30.8233 2.24243V31.8761H25.0379C24.7015 31.8761 24.3875 32.0891 24.2642 32.4142Z" fill="#FF7029"/>
<path d="M37.0001 68.3939C37.6193 68.3939 38.1213 67.892 38.1213 67.2727C38.1213 66.6535 37.6193 66.1515 37.0001 66.1515C36.3809 66.1515 35.8789 66.6535 35.8789 67.2727C35.8789 67.892 36.3809 68.3939 37.0001 68.3939Z" fill="#FF7029"/>
<path d="M15.5975 59.5252C16.0348 59.9624 16.7411 59.9624 17.1784 59.5252C17.6157 59.0879 17.6157 58.3815 17.1784 57.9443C16.7411 57.507 16.0348 57.507 15.5975 57.9443C15.1602 58.3815 15.1602 59.0879 15.5975 59.5252Z" fill="#FF7029"/>
<path d="M58.405 16.7173C57.9677 16.28 57.2613 16.28 56.824 16.7173C56.3868 17.1545 56.3868 17.8609 56.824 18.2982C57.2613 18.7354 57.9677 18.7354 58.405 18.2982C58.8422 17.8609 58.8422 17.1545 58.405 16.7173Z" fill="#FF7029"/>
<path d="M7.84973 39.2424C8.46896 39.2424 8.97094 38.7404 8.97094 38.1212C8.97094 37.502 8.46896 37 7.84973 37C7.2305 37 6.72852 37.502 6.72852 38.1212C6.72852 38.7404 7.2305 39.2424 7.84973 39.2424Z" fill="#FF7029"/>
<path d="M66.1525 39.2424C66.7717 39.2424 67.2737 38.7404 67.2737 38.1212C67.2737 37.502 66.7717 37 66.1525 37C65.5332 37 65.0312 37.502 65.0312 38.1212C65.0312 38.7404 65.5332 39.2424 66.1525 39.2424Z" fill="#FF7029"/>
<path d="M17.1784 18.2982C17.6157 17.8609 17.6157 17.1545 17.1784 16.7173C16.7411 16.28 16.0348 16.28 15.5975 16.7173C15.1602 17.1545 15.1602 17.8609 15.5975 18.2982C16.0348 18.7354 16.7411 18.7354 17.1784 18.2982Z" fill="#FF7029"/>
<path d="M56.824 57.9443C56.3868 58.3815 56.3868 59.0879 56.824 59.5252C57.2613 59.9624 57.9677 59.9624 58.405 59.5252C58.8422 59.0879 58.8422 58.3815 58.405 57.9443C57.9677 57.507 57.2613 57.507 56.824 57.9443Z" fill="#FF7029"/>
</svg>
