<svg width="70" height="70" viewBox="0 0 70 70" fill="none" xmlns="http://www.w3.org/2000/svg">
<path fill-rule="evenodd" clip-rule="evenodd" d="M39.085 70H30.915C30.5455 70 30.2581 69.7537 30.1349 69.4252L27.7126 62.2815C25.2903 61.6246 22.9912 60.6803 20.8563 59.4487L14.0821 62.7742C13.7537 62.9384 13.3842 62.8974 13.1378 62.651L7.34897 56.8622C7.10264 56.6158 7.02053 56.2053 7.18475 55.9179L10.5513 49.1026C9.31965 46.9677 8.33431 44.6686 7.71847 42.2874L0.533724 39.8651C0.205279 39.7419 0 39.4545 0 39.085V30.915C0 30.5455 0.205279 30.2581 0.533724 30.1349L7.71847 27.7126C8.33431 25.2903 9.31965 23.0323 10.5513 20.8563L7.18475 14.0821C7.02053 13.7537 7.10264 13.3842 7.34897 13.1378L13.1378 7.34897C13.3842 7.10264 13.7537 7.02053 14.0821 7.18475L20.8563 10.5513C23.0323 9.27859 25.2903 8.33431 27.7126 7.71847L30.1349 0.533724C30.2581 0.205279 30.5455 0 30.915 0H39.085C39.4545 0 39.7419 0.205279 39.8651 0.533724L42.2874 7.71847C44.6686 8.33431 46.9677 9.31965 49.1026 10.5513L55.9179 7.18475C56.2053 7.02053 56.6158 7.10264 56.8622 7.34897L62.651 13.1378C62.8974 13.3842 62.9384 13.7537 62.7742 14.0821L59.4487 20.8563C60.6803 22.9912 61.6246 25.2903 62.2815 27.7126L69.4252 30.1349C69.7537 30.2581 70 30.5455 70 30.915V39.085C70 39.4545 69.7537 39.7419 69.4252 39.8651L62.2815 42.2874C61.6246 44.6686 60.6803 46.9677 59.4487 49.1026L62.7742 55.9179C62.9384 56.2053 62.8974 56.6158 62.651 56.8622L56.8622 62.651C56.6158 62.8974 56.2053 62.9384 55.9179 62.7742L49.1026 59.4487C46.9677 60.6803 44.6686 61.6246 42.2874 62.2815L39.8651 69.4252C39.7419 69.7537 39.4545 70 39.085 70ZM31.4897 68.3578H38.5103L40.8915 61.3372C40.9736 61.0499 41.1789 60.8446 41.4663 60.8035C44.0117 60.1466 46.434 59.1613 48.651 57.8064C48.8974 57.6422 49.1848 57.6422 49.4721 57.7654L56.1232 61.0499L61.0499 56.1232L57.7654 49.4311C57.6422 49.1847 57.6833 48.8974 57.8064 48.651C59.1613 46.434 60.1466 44.0117 60.8035 41.4663C60.8446 41.1789 61.0499 40.9736 61.3372 40.8915L68.3578 38.5103V31.4897L61.3372 29.1085C61.0499 29.0264 60.8856 28.7801 60.8035 28.5337C60.1466 25.9883 59.1613 23.566 57.8064 21.3079C57.6833 21.0616 57.6422 20.7742 57.7654 20.5279L61.0499 13.8768L56.1232 8.90909L49.4311 12.1935C49.1847 12.3167 48.8974 12.3167 48.651 12.1935C46.434 10.8387 44.0117 9.81232 41.4663 9.19648C41.1789 9.11437 40.9736 8.90909 40.8915 8.66276L38.5103 1.64223H31.4897L29.1085 8.66276C29.0264 8.90909 28.7801 9.11437 28.5337 9.19648C25.9883 9.81232 23.566 10.8387 21.3079 12.1935C21.1026 12.3167 20.7742 12.3167 20.5279 12.1935L13.8768 8.90909L8.90909 13.8768L12.1935 20.5279C12.3167 20.7742 12.3167 21.1026 12.1935 21.3079C10.8387 23.566 9.81232 25.9883 9.19648 28.5337C9.11437 28.8211 8.90909 29.0264 8.66276 29.1085L1.64223 31.4897V38.5103L8.66276 40.8915C8.90909 40.9736 9.11437 41.1789 9.19648 41.4663C9.81232 44.0117 10.8387 46.434 12.1935 48.651C12.3167 48.8974 12.3167 49.1847 12.1935 49.4311L8.90909 56.1232L13.8768 61.0499L20.5279 57.7654C20.7742 57.6422 21.1026 57.6833 21.3079 57.8064C23.566 59.1613 25.9883 60.1466 28.5337 60.8035C28.8211 60.8446 29.0264 61.0499 29.1085 61.3372L31.4897 68.3578Z" fill="#FF7029"/>
<path fill-rule="evenodd" clip-rule="evenodd" d="M34.9795 56.3695C23.1965 56.3695 13.6305 46.8035 13.6305 34.9795C13.6305 23.1965 23.1965 13.6305 34.9795 13.6305C46.8035 13.6305 56.3695 23.1965 56.3695 34.9795C56.3695 46.8035 46.8035 56.3695 34.9795 56.3695ZM34.9795 15.2317C24.0997 15.2317 15.2317 24.0997 15.2317 34.9795C15.2317 45.8592 24.0997 54.7273 34.9795 54.7273C45.8592 54.7273 54.7273 45.8592 54.7273 34.9795C54.7273 24.0997 45.8592 15.2317 34.9795 15.2317Z" fill="#FF7029"/>
<path fill-rule="evenodd" clip-rule="evenodd" d="M38.7976 43.6422C38.305 43.6422 37.8944 43.1906 37.9765 42.6569L41.1789 26.9736C41.4252 25.9472 43.0264 26.2757 42.8211 27.3021L39.6188 42.9853C39.5367 43.3959 39.1672 43.6422 38.7976 43.6422Z" fill="#FF7029"/>
<path fill-rule="evenodd" clip-rule="evenodd" d="M27.302 40.3988H21.2669C20.4868 40.3988 20.1584 39.3724 20.7742 38.9208C22.4575 37.6891 26.1525 35.6774 26.1525 33.871C26.1525 30.7507 21.3079 31.0792 21.6774 34.1584C21.8006 35.1847 20.0352 35.7185 20.0352 33.871C20.0352 31.7361 21.7595 30.0117 23.8944 30.0117C26.0293 30.0117 27.7947 31.7361 27.7947 33.871C27.7947 35.8827 25.824 37.4428 23.9355 38.7566H27.302C28.4106 38.7566 28.4106 40.3988 27.302 40.3988Z" fill="#FF7029"/>
<path fill-rule="evenodd" clip-rule="evenodd" d="M34.4868 40.3988C33.4194 40.3988 33.6657 38.9619 33.6657 37.7302H29.478C28.8211 37.7302 28.4106 36.9091 28.8622 36.3754L33.871 30.2991C34.3636 29.7243 35.3079 30.0528 35.3079 30.8328V36.088C35.7595 36.088 36.6217 36.0469 36.6217 36.9091C36.6217 37.7713 35.7595 37.7302 35.3079 37.7302C35.3079 38.9619 35.5953 40.3988 34.4868 40.3988ZM31.2434 36.088H33.6657V33.132L31.2434 36.088Z" fill="#FF7029"/>
<path fill-rule="evenodd" clip-rule="evenodd" d="M44.0938 40.3988C43.478 40.3988 43.0674 39.7009 43.3548 39.1672L47.7067 31.654H44.3402C43.2317 31.654 43.2317 30.0117 44.3402 30.0117H49.1437C49.7595 30.0117 50.1701 30.7097 49.8416 31.2434L44.7918 39.9883C44.6276 40.2346 44.3812 40.3988 44.0938 40.3988Z" fill="#FF7029"/>
</svg>
