<svg width="74" height="74" viewBox="0 0 74 74" fill="none" xmlns="http://www.w3.org/2000/svg">
<path d="M70.7594 32.5376L64.2116 31.5621C63.5276 28.7142 62.4064 26.0233 60.8815 23.523L64.817 18.1973C65.0637 17.8609 65.03 17.4012 64.7385 17.0985L58.0112 10.3712C57.7197 10.0909 57.26 10.0573 56.9237 10.3039L51.5979 14.2394C49.86 13.1742 47.9652 12.2997 45.9694 11.627C45.5209 11.4812 45.05 11.7167 44.9043 12.1539C44.7585 12.5912 44.994 13.0733 45.4312 13.2191C47.4943 13.9142 49.434 14.8336 51.1831 15.9661C51.4746 16.1567 51.8558 16.1455 52.1361 15.9324L57.3385 12.0867L63.0343 17.7824L59.1885 22.9848C58.9755 23.2652 58.9643 23.6464 59.1549 23.9379C60.8367 26.5615 62.0252 29.443 62.6979 32.4927C62.7764 32.8291 63.0455 33.0982 63.3931 33.143L69.7952 34.0961V42.1576L63.3931 43.1106C63.0455 43.1667 62.7652 43.4245 62.6979 43.7609C62.0364 46.7994 60.8479 49.6697 59.1549 52.3158C58.9643 52.6073 58.9755 52.9885 59.1885 53.2688L63.0343 58.4712L57.3385 64.167L52.1361 60.3212C51.8558 60.1082 51.4746 60.097 51.1831 60.2876C48.5482 61.9694 45.6779 63.1579 42.6394 63.8194C42.3031 63.8979 42.034 64.167 41.9891 64.5146L41.0361 70.9167H32.9746L32.0216 64.5146C31.9655 64.167 31.7076 63.8867 31.3712 63.8194C28.3328 63.1579 25.4625 61.9694 22.8276 60.2876C22.5361 60.097 22.1549 60.1082 21.8746 60.3212L16.6722 64.167L10.9764 58.4712L14.8222 53.2688C15.0352 52.9885 15.0464 52.6073 14.8558 52.3158C13.1628 49.6809 11.9743 46.7994 11.3128 43.7609C11.2343 43.4245 10.9652 43.1555 10.6176 43.1106L4.20428 42.1576V34.0961L10.6064 33.143C10.954 33.087 11.2343 32.8291 11.3016 32.4927C11.9631 29.443 13.1628 26.5727 14.8446 23.9379C15.0352 23.6464 15.024 23.2652 14.8109 22.9848L10.9652 17.7824L16.6609 12.0867L21.8634 15.9324C22.1437 16.1455 22.5249 16.1567 22.8164 15.9661C24.5767 14.8448 26.5052 13.9142 28.5682 13.2191C29.0055 13.0733 29.2409 12.5912 29.0952 12.1539C28.9494 11.7167 28.4785 11.4812 28.03 11.627C26.0343 12.2997 24.1394 13.1855 22.4016 14.2394L17.0758 10.3039C16.7394 10.0573 16.2797 10.0909 15.977 10.3824L9.24973 17.1097C8.96943 17.4012 8.93579 17.8609 9.18246 18.1973L13.1179 23.523C11.5931 26.0233 10.4719 28.7142 9.78792 31.5621L3.24004 32.5376C2.82519 32.5936 2.52246 32.9524 2.52246 33.3673V42.8752C2.52246 43.29 2.82519 43.6488 3.24004 43.7048L9.78792 44.6803C10.4719 47.517 11.5819 50.2191 13.1179 52.7194L9.18246 58.0452C8.93579 58.3815 8.96943 58.8412 9.26095 59.1439L15.9882 65.8712C16.2797 66.1627 16.7506 66.1964 17.087 65.9497L22.4128 62.0142C24.9131 63.5391 27.604 64.6603 30.4519 65.333L31.4273 71.8809C31.4946 72.2958 31.8422 72.5985 32.257 72.5985H41.7649C42.1797 72.5985 42.5385 72.2958 42.5946 71.8809L43.57 65.333C46.4067 64.6491 49.1088 63.5391 51.6091 62.0142L56.9349 65.9497C57.2712 66.1964 57.7309 66.1627 58.0337 65.8712L64.7609 59.1439C65.0525 58.8524 65.0861 58.3815 64.8394 58.0452L60.904 52.7194C62.44 50.2191 63.55 47.517 64.234 44.6803L70.7819 43.7048C71.1967 43.6488 71.4994 43.29 71.4994 42.8752V33.3673C71.477 32.9524 71.1743 32.5936 70.7594 32.5376Z" fill="#FF5E14"/>
<path d="M46.082 20.4285C45.6671 20.2155 45.1626 20.3836 44.9495 20.7873C44.7365 21.1909 44.9047 21.7067 45.3083 21.9197C51.4189 25.0591 55.2086 31.2706 55.2086 38.1212C55.2086 48.1673 47.035 56.3409 36.9889 56.3409C26.9429 56.3409 18.7805 48.1673 18.7805 38.1212C18.7805 31.2706 22.5814 25.0703 28.692 21.9197C29.1068 21.7067 29.2638 21.2021 29.0508 20.7873C28.8377 20.3724 28.3332 20.2155 27.9183 20.4285C21.2471 23.8594 17.0986 30.6427 17.0986 38.1212C17.0986 49.0979 26.0235 58.0227 37.0001 58.0227C47.9768 58.0227 56.9017 49.0979 56.9017 38.1212C56.9017 30.6427 52.7532 23.8594 46.082 20.4285Z" fill="#FF5E14"/>
<path d="M24.2632 32.4142C24.1399 32.7394 24.2184 33.1094 24.4763 33.3336L36.4396 44.3439C36.5966 44.4897 36.8096 44.5682 37.0114 44.5682C37.2132 44.5682 37.4151 44.4897 37.5832 44.3439L49.5466 33.3336C49.8045 33.0982 49.8829 32.7282 49.7596 32.4142C49.6363 32.1003 49.3223 31.8761 48.9748 31.8761H43.1893V2.24242C43.1893 1.78273 42.8081 1.40151 42.3484 1.40151C41.8887 1.40151 41.4963 1.78273 41.4963 2.24242V32.717C41.4963 33.1767 41.8775 33.5579 42.3372 33.5579H46.8108L37.0002 42.5836L27.2008 33.5579H31.6745C32.1341 33.5579 32.5154 33.1767 32.5154 32.717V2.24242C32.5154 1.78273 32.1341 1.40151 31.6745 1.40151C31.2148 1.40151 30.8223 1.78273 30.8223 2.24242V31.8761H25.0369C24.7005 31.8761 24.3866 32.0891 24.2632 32.4142Z" fill="#FF5E14"/>
<path d="M37.0001 68.3939C37.6193 68.3939 38.1213 67.892 38.1213 67.2727C38.1213 66.6535 37.6193 66.1515 37.0001 66.1515C36.3809 66.1515 35.8789 66.6535 35.8789 67.2727C35.8789 67.892 36.3809 68.3939 37.0001 68.3939Z" fill="#FF5E14"/>
<path d="M15.5955 59.5252C16.0328 59.9624 16.7392 59.9624 17.1764 59.5252C17.6137 59.0879 17.6137 58.3815 17.1764 57.9442C16.7392 57.507 16.0328 57.507 15.5955 57.9442C15.1583 58.3815 15.1583 59.0879 15.5955 59.5252Z" fill="#FF5E14"/>
<path d="M58.404 16.7173C57.9667 16.28 57.2603 16.28 56.8231 16.7173C56.3858 17.1545 56.3858 17.8609 56.8231 18.2982C57.2603 18.7355 57.9667 18.7355 58.404 18.2982C58.8413 17.8609 58.8413 17.1545 58.404 16.7173Z" fill="#FF5E14"/>
<path d="M7.84777 39.2424C8.467 39.2424 8.96899 38.7404 8.96899 38.1212C8.96899 37.502 8.467 37 7.84777 37C7.22855 37 6.72656 37.502 6.72656 38.1212C6.72656 38.7404 7.22855 39.2424 7.84777 39.2424Z" fill="#FF5E14"/>
<path d="M66.1515 39.2424C66.7707 39.2424 67.2727 38.7404 67.2727 38.1212C67.2727 37.502 66.7707 37 66.1515 37C65.5323 37 65.0303 37.502 65.0303 38.1212C65.0303 38.7404 65.5323 39.2424 66.1515 39.2424Z" fill="#FF5E14"/>
<path d="M17.1764 18.2982C17.6137 17.8609 17.6137 17.1545 17.1764 16.7173C16.7392 16.28 16.0328 16.28 15.5955 16.7173C15.1583 17.1545 15.1583 17.8609 15.5955 18.2982C16.0328 18.7355 16.7392 18.7355 17.1764 18.2982Z" fill="#FF5E14"/>
<path d="M56.8231 57.9442C56.3858 58.3815 56.3858 59.0879 56.8231 59.5252C57.2603 59.9624 57.9667 59.9624 58.404 59.5252C58.8413 59.0879 58.8413 58.3815 58.404 57.9442C57.9667 57.507 57.2603 57.507 56.8231 57.9442Z" fill="#FF5E14"/>
</svg>
