<svg width="46" height="47" viewBox="0 0 46 47" fill="none" xmlns="http://www.w3.org/2000/svg">
<path d="M6.89915 7.98554L8.37068 11.1782L11.7088 11.655C12.3705 11.7483 12.6075 12.6087 12.1532 13.0648L9.71381 15.5215L10.3162 19.0044C10.4348 19.6885 9.74344 20.2068 9.17063 19.8751L6.19795 18.1958L3.22528 19.8751C2.65247 20.1964 1.93152 19.6989 2.08954 18.9525L2.6821 15.5111L0.242724 13.0544C-0.231324 12.5776 0.0254522 11.7276 0.69702 11.6343L4.02523 11.1575L5.49676 7.96481C5.77329 7.35323 6.62262 7.3636 6.89915 7.98554ZM7.13618 12.2977L6.19795 10.2453L5.24986 12.2977C5.14122 12.5361 4.91407 12.7227 4.64742 12.7642L2.50433 13.0648L4.07461 14.6404C4.25238 14.827 4.35114 15.0965 4.30176 15.3763L3.9166 17.6154L5.81279 16.5477C6.03994 16.4233 6.32634 16.4026 6.56337 16.5477L8.46944 17.6257L8.09415 15.4282C8.03489 15.1587 8.10402 14.8581 8.31142 14.6404L9.8817 13.0648L7.75836 12.7642C7.50159 12.7331 7.25469 12.5569 7.13618 12.2977ZM23.7081 0.470355L25.1796 3.66302L28.5276 4.13984C29.1893 4.23313 29.4263 5.09349 28.972 5.55995L26.5326 8.01664L27.1351 11.4995C27.2536 12.1837 26.5623 12.702 25.9895 12.3703L22.997 10.691L20.0244 12.3703C19.4516 12.6916 18.7306 12.194 18.8886 11.4477L19.4812 8.00628L17.0319 5.54959C16.5579 5.07276 16.8147 4.22277 17.4862 4.12948L20.8144 3.65265L22.286 0.470355C22.5822 -0.161957 23.4217 -0.151591 23.7081 0.470355ZM23.9451 4.78252L22.997 2.73009L22.0588 4.78252C21.9502 5.02093 21.723 5.20752 21.4564 5.24898L19.3034 5.54959L20.8737 7.12518C21.0613 7.31177 21.1502 7.58128 21.1008 7.86116L20.7157 10.1002L22.6217 9.03249C22.8489 8.9081 23.1254 8.88737 23.3723 9.03249L25.2784 10.1105L24.9031 7.91298C24.8438 7.64347 24.913 7.34287 25.1204 7.12518L26.6907 5.54959L24.5673 5.23861C24.3007 5.21788 24.0636 5.04166 23.9451 4.78252ZM40.5072 7.98554L41.9787 11.1782L45.3168 11.655C45.9785 11.7483 46.2254 12.6087 45.7612 13.0648L43.3219 15.5215L43.9243 19.0044C44.0428 19.6885 43.3515 20.2068 42.7787 19.8751L39.806 18.1958L36.8333 19.8751C36.2605 20.1964 35.5396 19.6989 35.6877 18.9525L36.2803 15.5111L33.8409 13.0544C33.3668 12.5776 33.6236 11.7276 34.2952 11.6343L37.6234 11.1575L39.0949 7.96481C39.3813 7.35323 40.2307 7.3636 40.5072 7.98554ZM40.7442 12.2977L39.806 10.2453L38.8579 12.2977C38.7493 12.5361 38.532 12.7227 38.2555 12.7642L36.1124 13.0648L37.6728 14.6404C37.8505 14.827 37.9493 15.0965 37.8999 15.3763L37.5148 17.6154L39.4208 16.5477C39.648 16.4233 39.9344 16.4026 40.1714 16.5477L42.0874 17.6257L41.7121 15.4282C41.6528 15.1587 41.7219 14.8581 41.9293 14.6404L43.4897 13.0648L41.3664 12.7642C41.1096 12.7331 40.8627 12.5569 40.7442 12.2977ZM19.333 29.1525C19.1158 28.7586 19.2442 28.2506 19.6194 28.0226C19.9947 27.7945 20.4787 27.9293 20.6959 28.3232L21.7329 30.2098L25.4167 26.3433C25.7228 26.022 26.2265 26.022 26.5326 26.3433C26.8388 26.6647 26.8388 27.1933 26.5326 27.5147L22.1181 32.1482C21.7527 32.5317 21.1403 32.4488 20.8836 31.9823L19.333 29.1525ZM22.997 20.3934C27.2931 20.3934 30.7793 24.0525 30.7793 28.5616C30.7793 33.0707 27.2931 36.7298 22.997 36.7298C18.701 36.7298 15.2147 33.0707 15.2147 28.5616C15.2147 24.0525 18.701 20.3934 22.997 20.3934ZM27.382 23.9592C24.9624 21.4196 21.0317 21.4196 18.6121 23.9592C16.1925 26.4988 16.1925 30.6244 18.6121 33.164C21.0317 35.7036 24.9624 35.7036 27.382 33.164C29.8016 30.614 29.8016 26.4988 27.382 23.9592ZM22.997 15.2623C29.9892 15.2623 35.6581 21.2123 35.6581 28.5512C35.6581 31.3293 34.8482 33.9104 33.4557 36.0457L37.2382 42.9182C37.6036 43.5609 37.1 44.2865 36.4482 44.1828L32.5768 43.5402L30.5028 46.2145C30.1374 46.7121 29.4559 46.6292 29.1893 46.1316L26.5425 41.3219C24.2315 42.0268 21.7527 42.0268 19.4516 41.3219L16.8048 46.1316C16.5381 46.6292 15.8567 46.7121 15.4913 46.2145L13.4173 43.5402L9.54592 44.1828C8.88423 44.2969 8.42006 43.5402 8.73609 42.9493L12.5384 36.0457C9.1015 30.7695 9.74344 23.669 14.0494 19.1495C16.3307 16.755 19.5009 15.2623 22.997 15.2623ZM32.4089 37.4451C31.204 38.8548 29.7226 39.9847 28.0437 40.7518L29.9794 44.2658L31.6385 42.1304C31.8262 41.8816 32.1126 41.7883 32.3891 41.8402L35.0556 42.2859L32.4089 37.4451ZM17.9405 40.7518C16.2715 39.9847 14.7901 38.8548 13.5852 37.4554L10.9286 42.2859L13.5951 41.8402C13.8617 41.7883 14.158 41.892 14.3457 42.1304L16.0048 44.2658L17.9405 40.7518ZM30.8386 20.3312C26.5129 15.791 19.4911 15.791 15.1654 20.3312C10.8397 24.8714 10.8397 32.2415 15.1654 36.7817C19.5009 41.3219 26.5129 41.3219 30.8386 36.7817C35.1643 32.2415 35.1643 24.8714 30.8386 20.3312Z" fill="#FF7029"/>
</svg>
