<svg width="43" height="39" viewBox="0 0 43 39" fill="none" xmlns="http://www.w3.org/2000/svg">
<path d="M43 22.1865C43 20.4539 42.5468 18.8253 41.7534 17.4113V6.08211C41.7534 5.69189 41.4365 5.37551 41.0456 5.37551H19.156L19.1553 4.14869C19.1552 3.49517 18.8954 2.87929 18.4238 2.41461C17.9511 1.94879 17.3014 1.687 16.6401 1.69503C15.2908 1.71235 14.1932 2.83354 14.1932 4.1947L14.1939 5.3756H11.1765C11.1774 5.08183 11.1783 4.78789 11.1794 4.49439C11.2309 3.56884 10.8404 2.61431 10.0784 1.80403C9.00027 0.657575 7.37007 0 5.60593 0C3.85948 0 2.23575 0.649273 1.15102 1.78133C0.373479 2.59285 -0.0340467 3.55311 0.0022289 4.48688V34.5278H0.00576798C-0.0190056 35.2951 0.259697 36.1038 0.812768 36.8232C1.8606 38.1863 3.65333 39 5.60841 39H41.0455C41.4364 39 41.7534 38.6836 41.7534 38.2934V26.9629C42.5467 25.5485 42.9999 23.9195 42.9999 22.1865H43ZM41.5844 22.1865C41.5844 26.8153 37.8121 30.5811 33.1752 30.5811C28.5384 30.5811 24.7685 26.8153 24.7685 22.1865C24.7685 17.5577 28.5397 13.7943 33.1752 13.7943C37.8107 13.7943 41.5844 17.5591 41.5844 22.1865ZM15.623 27.5751L15.612 9.38571L17.7428 9.35709L17.7538 27.5479L15.623 27.5751ZM17.7416 7.32156L17.742 7.94381L15.6111 7.97243L15.6107 7.35018L17.7416 7.32156ZM17.6794 28.9623L16.7237 31.1358L15.7002 28.9875L17.6794 28.9623ZM16.6583 3.10814C16.9479 3.10293 17.2212 3.21527 17.4293 3.42036C17.6294 3.61759 17.7397 3.87647 17.7397 4.14922V4.14966L17.7407 5.90828L15.6099 5.9369L15.6088 4.19435C15.6088 3.60284 16.0796 3.11564 16.6582 3.10822L16.6583 3.10814ZM2.17408 2.75802C2.99302 1.9033 4.24391 1.4131 5.60593 1.4131C6.98078 1.4131 8.23476 1.90807 9.04636 2.77118C9.53688 3.29273 9.79886 3.89652 9.76524 4.42761C9.76524 4.42761 9.72888 23.4301 9.7287 31.8285C8.72475 31.1639 7.26629 30.7564 5.60841 30.7564C3.75879 30.7564 2.35705 31.2755 1.41786 32.0127V4.47213L1.41716 4.44069C1.393 3.89855 1.66887 3.28523 2.17399 2.75793L2.17408 2.75802ZM40.3378 37.5868H5.60849C4.09058 37.5868 2.71768 36.9797 1.93599 35.9628C1.49909 35.3944 1.32709 34.7756 1.46423 34.2644C1.74257 33.2235 3.25553 32.1697 5.60849 32.1697C7.96146 32.1697 9.66641 33.1492 9.72879 34.0323V34.0821H9.73427C9.7763 34.4516 10.0996 34.7281 10.4769 34.7074C10.8262 34.6876 11.1012 34.4178 11.1393 34.0821H11.1445C11.1445 25.1414 11.1445 15.9199 11.1721 6.78879H14.1949L14.2084 28.9873C14.2084 29.0921 14.2319 29.1956 14.277 29.2903L16.1104 33.1386C16.2278 33.3851 16.4768 33.5417 16.7495 33.5417H16.7603C17.0374 33.5376 17.2864 33.3724 17.3977 33.1192L19.1107 29.2233C19.1502 29.1336 19.1704 29.0367 19.1704 28.9389L19.157 6.78879H40.3379V15.4826C38.5443 13.5749 35.997 12.3812 33.1752 12.3812C27.7592 12.3812 23.3529 16.7799 23.3529 22.1866C23.3529 27.5933 27.7591 31.9944 33.1752 31.9944C35.9969 31.9944 38.5442 30.8003 40.3379 28.8922L40.3378 37.5868ZM35.601 23.7013C35.601 24.7008 34.8764 25.5479 33.883 25.826V26.1475C33.883 26.5377 33.566 26.8541 33.1751 26.8541C32.7843 26.8541 32.4673 26.5377 32.4673 26.1475V25.8261C31.8489 25.6545 31.323 25.2621 31.0175 24.7175C30.8266 24.377 30.9483 23.9464 31.2893 23.7557C31.6304 23.5653 32.0617 23.6866 32.2528 24.0271C32.4171 24.3201 32.7792 24.5095 33.1751 24.5095C33.7227 24.5095 34.1854 24.1394 34.1854 23.7013C34.1854 23.1975 34.0343 23.09 33.0307 22.8792C32.1783 22.7003 30.7518 22.4007 30.7518 20.6742C30.7518 19.675 31.4753 18.8279 32.4673 18.5497V18.228C32.4673 17.8378 32.7843 17.5214 33.1751 17.5214C33.566 17.5214 33.883 17.8378 33.883 18.228V18.5489C34.5039 18.7204 35.0303 19.114 35.334 19.6603C35.5237 20.0015 35.4003 20.4316 35.0586 20.621C34.7167 20.8104 34.286 20.6873 34.0962 20.3461C33.934 20.0544 33.5726 19.8659 33.1751 19.8659C32.6194 19.8659 32.1674 20.2285 32.1674 20.6741C32.1674 21.1779 32.3185 21.2854 33.3221 21.4962C34.1745 21.6752 35.601 21.9748 35.601 23.7012V23.7013ZM33.1751 14.6822C29.0301 14.6822 25.6578 18.0487 25.6578 22.1866C25.6578 26.3245 29.0301 29.6934 33.1751 29.6934C37.3202 29.6934 40.695 26.3259 40.695 22.1866C40.695 18.0472 37.3216 14.6822 33.1751 14.6822ZM33.1751 28.2802C29.8106 28.2802 27.0734 25.5466 27.0734 22.1866C27.0734 18.8265 29.8106 16.0954 33.1751 16.0954C36.5397 16.0954 39.2794 18.8279 39.2794 22.1866C39.2794 25.5453 36.541 28.2802 33.1751 28.2802Z" fill="#FF7029"/>
</svg>
