<svg width="43" height="43" viewBox="0 0 43 43" fill="none" xmlns="http://www.w3.org/2000/svg">
<g clip-path="url(#clip0_287_187)">
<path d="M21.4923 1.52979C26.6074 1.52979 30.7145 5.63688 30.7145 10.752C30.7145 15.8672 26.6074 19.9743 21.4923 19.9743C16.3771 19.9743 12.27 15.8672 12.27 10.752C12.27 5.63688 16.3771 1.52979 21.4923 1.52979Z" fill="white"/>
<path d="M21.4942 0.000732422C15.575 0.000732422 10.7437 4.83211 10.7437 10.7513C10.7437 16.6704 15.575 21.5018 21.4942 21.5018C27.4133 21.5018 32.2447 16.6704 32.2447 10.7513C32.2447 4.83211 27.4133 0.000732422 21.4942 0.000732422ZM21.4942 3.07231C25.7533 3.07231 29.1731 6.49212 29.1731 10.7513C29.1731 15.0104 25.7533 18.4302 21.4942 18.4302C17.235 18.4302 13.8152 15.0104 13.8152 10.7513C13.8152 6.49212 17.235 3.07231 21.4942 3.07231Z" fill="#FF7029"/>
<path d="M4.04387 33.567C2.74324 35.7672 2.80073 38.2429 3.92688 40.0551C5.05304 41.8673 7.15123 43.0007 9.53612 43.0007H12.2837C13.1319 43.0007 13.8195 42.3131 13.8195 41.4649C13.8195 40.6167 13.1319 39.9291 12.2837 39.9291H9.53612C8.1038 39.9291 7.06473 39.2901 6.53353 38.4353C6.00233 37.5805 5.8826 36.4948 6.68951 35.1298C9.96329 29.5915 15.4496 26.1373 21.4895 26.113C27.5379 26.1287 33.0325 29.5844 36.3105 35.1298C37.1174 36.4948 36.9976 37.5805 36.4664 38.4353C35.9352 39.2901 34.8962 39.9291 33.4639 39.9291H18.4269C17.5787 39.9291 16.8911 40.6167 16.8911 41.4649C16.8911 42.3131 17.5787 43.0007 18.4269 43.0007H33.4639C35.8487 43.0007 37.9469 41.8673 39.0731 40.0551C40.1992 38.2429 40.2567 35.7672 38.9561 33.567C35.1932 27.2013 28.7124 23.0602 21.4939 23.0632C14.2754 23.0663 7.80386 27.2062 4.04387 33.567Z" fill="#FF7029"/>
</g>
<defs>
<clipPath id="clip0_287_187">
<rect width="43" height="43" fill="white"/>
</clipPath>
</defs>
</svg>
