<svg width="44" height="36" viewBox="0 0 44 36" fill="none" xmlns="http://www.w3.org/2000/svg">
<path fill-rule="evenodd" clip-rule="evenodd" d="M37.7439 0C41.1965 0 44 2.7712 44 6.18391C44 9.08338 41.9752 11.521 39.2236 12.1882V24.2994C39.2236 25.5053 38.2632 26.4804 37.0431 26.4804H24.5569V28.9437C24.5569 30.6372 25.777 31.6379 27.4123 31.7919C28.5545 31.8945 29.3852 32.8439 29.3333 33.9729C29.3074 34.1525 29.2814 34.3322 29.2295 34.5117H38.4708C39.4572 34.5117 39.4572 36 38.4708 36C25.9068 36 13.3427 36 0.778766 36C-0.207625 36 -0.207625 34.5117 0.778766 34.5117H10.0201C9.96815 34.3322 9.91624 34.1525 9.91624 33.9729C9.86434 32.8439 10.6691 31.8946 11.8372 31.7919C13.4726 31.6379 14.6667 30.6372 14.6667 28.9437V26.4804H2.18049C0.98639 26.4803 0 25.5053 0 24.2994V3.54098C0 2.36065 0.98639 1.38564 2.18049 1.38564H33.8241C34.8885 0.513244 36.2643 0 37.7439 0ZM23.0773 26.4803H16.1723V28.9436C16.1723 31.4582 14.3033 33.0234 11.967 33.2544C11.1882 33.3313 11.2401 34.5117 12.0189 34.5117H27.2047C28.0094 34.5117 28.0613 33.3313 27.2566 33.2544C24.9203 33.0234 23.0773 31.4582 23.0773 28.9436V26.4803ZM1.47967 19.8603H37.744V12.3678C34.2915 12.3678 31.4879 9.59662 31.4879 6.18391C31.4879 4.95228 31.8514 3.82326 32.4743 2.84824H2.18049C1.79111 2.84824 1.47959 3.15617 1.47959 3.54106L1.47967 19.8603ZM37.7439 21.3228H1.47967V24.2994C1.47967 24.6842 1.7912 24.9922 2.18058 24.9922H37.0431C37.4325 24.9922 37.744 24.6842 37.744 24.2994L37.7439 21.3228ZM37.7439 1.4626C40.3658 1.4626 42.5203 3.59229 42.5203 6.18391C42.5203 8.77553 40.3658 10.8796 37.7439 10.8796C35.1221 10.8796 32.9935 8.77553 32.9935 6.18391C32.9935 3.59229 35.1221 1.4626 37.7439 1.4626Z" fill="#FF7029"/>
<path d="M19.6248 23.9145C20.0405 23.9145 20.3776 23.5813 20.3776 23.1703C20.3776 22.7594 20.0405 22.4262 19.6248 22.4262C19.209 22.4262 18.872 22.7594 18.872 23.1703C18.872 23.5813 19.209 23.9145 19.6248 23.9145Z" fill="#FF7029"/>
<path fill-rule="evenodd" clip-rule="evenodd" d="M5.08793 6.20956H24.557C25.5434 6.20956 25.5434 7.67216 24.557 7.67216H5.08793C4.10145 7.67216 4.10145 6.20956 5.08793 6.20956Z" fill="#FF7029"/>
<path fill-rule="evenodd" clip-rule="evenodd" d="M5.08793 9.13477H14.8224C15.8088 9.13477 15.8088 10.623 14.8224 10.623H5.08793C4.10145 10.6229 4.10145 9.13477 5.08793 9.13477Z" fill="#FF7029"/>
<path fill-rule="evenodd" clip-rule="evenodd" d="M5.08793 12.0855H24.557C25.5434 12.0855 25.5434 13.5738 24.557 13.5738H5.08793C4.10145 13.5738 4.10145 12.0855 5.08793 12.0855Z" fill="#FF7029"/>
<path fill-rule="evenodd" clip-rule="evenodd" d="M5.08793 15.0363H14.8224C15.8088 15.0363 15.8088 16.4989 14.8224 16.4989H5.08793C4.10145 16.4989 4.10145 15.0363 5.08793 15.0363Z" fill="#FF7029"/>
<path fill-rule="evenodd" clip-rule="evenodd" d="M36.9652 8.95511C35.6413 8.18533 34.8885 6.72272 34.9923 5.23455C35.0701 4.56738 35.5114 4.02857 36.1604 3.87465C36.3681 3.82334 36.5758 3.72073 36.7574 3.56672C37.3285 3.07921 38.1592 3.07921 38.7563 3.56672C38.912 3.72064 39.1197 3.82334 39.3273 3.87465C39.9763 4.02857 40.4436 4.56747 40.4955 5.23455C40.6252 6.72281 39.8465 8.18533 38.5226 8.95511C38.0295 9.21173 37.4584 9.21173 36.9652 8.95511ZM37.718 7.67216C36.8873 7.18466 36.4201 6.28652 36.4979 5.33717C36.4979 5.31151 36.4979 5.28586 36.5239 5.28586C36.9911 5.18324 37.3805 4.97793 37.718 4.69574C37.718 4.67008 37.7699 4.67008 37.7958 4.69574C38.1333 4.97801 38.5227 5.18324 38.964 5.28586C38.9899 5.28586 39.0159 5.31151 39.0159 5.33717C39.0937 6.28652 38.6005 7.18466 37.7699 7.67216C37.7699 7.67216 37.7439 7.67216 37.718 7.67216Z" fill="#FF7029"/>
</svg>
