<svg width="60" height="52" viewBox="0 0 60 52" fill="none" xmlns="http://www.w3.org/2000/svg">
<path d="M51.4801 33.9214L40.8349 38.2647C40.8539 38.1364 40.8729 38.0081 40.8729 37.8707C40.8729 35.8731 39.1935 34.2513 37.1252 34.2513H29.4592C29.1461 34.2513 28.8425 34.1871 28.5579 34.0589L22.0588 31.2183C21.0436 30.7785 19.9146 30.5403 18.8046 30.5403H13.5104V32.3729H18.8046C19.649 32.3729 20.5028 32.547 21.2808 32.886L27.7799 35.7265C28.3112 35.9556 28.8805 36.0747 29.4687 36.0747H37.1347C38.1594 36.0747 38.9848 36.8811 38.9848 37.8615C38.9848 38.8419 38.1499 39.6483 37.1347 39.6483H27.2011V41.4809H37.1252C37.7799 41.4809 38.3871 41.3068 38.9184 41.0227V41.0319L52.2106 35.5982C53.3112 35.1493 54.5161 35.1584 55.6072 35.6166C56.4421 35.9739 57.1252 36.5512 57.5806 37.3026L34.1176 49.3244C32.3245 50.2407 30.1898 50.424 28.2543 49.8284L16.7742 46.264L13.5009 46.2181V48.0507H16.3378L27.6755 51.5693C28.6148 51.8626 29.5825 52 30.5598 52C32.0968 52 33.6338 51.6426 35 50.9371L60 38.1455L59.7249 37.3942C59.1461 35.8365 57.9507 34.6086 56.3757 33.9397C54.8008 33.2892 53.0645 33.2708 51.4801 33.9214Z" fill="#FF6016"/>
<path d="M11.4516 49.4893V30.0363C11.4516 29.0284 10.5977 28.2037 9.55408 28.2037H0V30.0363H9.55408V49.4985H0V51.3311H9.55408C10.5977 51.3219 11.4516 50.4973 11.4516 49.4893Z" fill="#FF6016"/>
<path d="M7.05882 46.6396C7.05882 47.3452 6.4611 47.9225 5.73055 47.9225C4.99051 47.9225 4.39279 47.3452 4.39279 46.6396C4.39279 45.9249 4.99051 45.3477 5.73055 45.3477C6.4611 45.3477 7.05882 45.9249 7.05882 46.6396Z" fill="#FF6016"/>
<path d="M22.4478 21.8079L23.4725 22.541L30.5313 18.7658L36.9165 22.4768L37.4668 22.7884L38.4915 22.0737L36.9545 14.4317L42.5996 9.70361L43.055 9.28211L42.6565 8.1459L34.6679 7.19295L31.7647 0.558942L31.4991 0.00916277L30.8918 0H30.2467L26.8406 7.06467L19.4023 7.66943L18.7666 7.74273L18.3871 8.88811L24.2789 14.1935L22.4478 21.8079ZM21.6414 9.32793L27.5427 8.83313L28.1025 8.76899L30.8254 3.12458L33.1309 8.37498L33.3681 8.87894L39.7818 9.63947L35.3416 13.3596L34.8956 13.7262L36.129 19.8654L31.0436 16.9057L30.5598 16.6583L24.9336 19.673L26.2524 14.1752L26.4137 13.607L21.6414 9.32793Z" fill="#FF6016"/>
<path d="M9.97154 18.4268L8.59582 24.1353L8.40607 24.7951L9.47818 25.5556L15.389 22.3944L20.6072 25.4181L21.1954 25.7755L22.2486 25.0333L20.9583 18.6284L22.334 17.483L21.0911 16.0994L19.26 17.6296L18.9848 17.9411V18.3077L19.8767 22.8617L16.0247 20.6167L15.8254 20.4335L15.019 20.4152L14.8292 20.5984L10.8918 22.7059L11.9545 18.2527V17.7121L8.26376 14.3951L12.7799 14.0102L13.2163 14.0011L13.6148 13.6162L15.6357 9.41956L17.4573 13.5704L17.7514 14.111H18.2827L20.5693 14.3859L20.8064 12.5625L18.9753 12.3517L16.5655 6.85392L16.2429 6.26749L14.9336 6.36828L14.7533 6.9089L12.1917 12.2326L6.15749 12.7366L5.40797 12.7732L5.00949 14.111L5.53131 14.4409L9.97154 18.4268Z" fill="#FF6016"/>
<path d="M41.1575 12.3517L41.3283 14.1752L43.1594 14.0102L43.5863 13.9919L43.9848 13.607L46.0057 9.4104L47.7419 13.3596L47.7609 14.1019H48.6528L53.1784 14.6425L49.6584 17.593L49.3454 17.9137V18.3077L50.2467 22.8525L46.3852 20.6167L46.186 20.4243L45.351 20.4335L45.1803 20.6076L41.2619 22.7059L42.334 18.2527L42.3245 17.7121L39.8956 15.5221L38.5958 16.8599L40.3321 18.4268L38.9658 24.1353L38.7761 24.7493L39.8102 25.5739L45.759 22.3944L50.9867 25.4273L51.575 25.7755L52.6091 25.0241L51.3188 18.6284L55.8824 14.8074C56.1954 14.5692 56.3283 14.166 56.2239 13.7995L56.0057 13.1489L49.3454 12.3609L46.9165 6.84476L46.6319 6.34079L45.5028 6.30414L45.2087 6.75313L42.5522 12.2326L41.1575 12.3517Z" fill="#FF6016"/>
</svg>
