<svg width="54" height="66" viewBox="0 0 54 66" fill="none" xmlns="http://www.w3.org/2000/svg">
<path d="M25.0736 21.538L28.08 20.0288L31.0869 21.538C31.2653 21.6272 31.4662 21.6671 31.667 21.6531C31.8679 21.6391 32.0606 21.5718 32.2235 21.4587C32.3863 21.3456 32.5129 21.1914 32.5888 21.0133C32.6646 20.8352 32.6869 20.6403 32.6529 20.4508L32.0791 17.2539L34.5113 14.9899C34.6556 14.8556 34.7577 14.6853 34.8059 14.4985C34.8542 14.3116 34.8467 14.1156 34.7844 13.9325C34.722 13.7495 34.6073 13.5868 34.4531 13.4628C34.2989 13.3388 34.1115 13.2585 33.912 13.2309L30.5518 12.7646L29.0482 9.85576C28.9487 9.69499 28.8071 9.56176 28.6372 9.46922C28.4673 9.37669 28.2751 9.32805 28.0796 9.3281C27.884 9.32816 27.6918 9.3769 27.522 9.46952C27.3522 9.56215 27.2106 9.69545 27.1112 9.85627L25.6083 12.7644L22.247 13.2307C22.0475 13.2584 21.8601 13.3387 21.706 13.4628C21.5519 13.5869 21.4372 13.7496 21.3749 13.9327C21.3126 14.1158 21.3052 14.3118 21.3536 14.4987C21.4019 14.6855 21.5041 14.8557 21.6485 14.99L24.0807 17.2535L23.5063 20.4504C23.4722 20.6401 23.4944 20.8351 23.5703 21.0134C23.6462 21.1917 23.7729 21.3461 23.936 21.4593C24.0991 21.5724 24.292 21.6397 24.4931 21.6535C24.6941 21.6673 24.8952 21.6276 25.0736 21.538ZM26.4805 14.728C26.6539 14.704 26.8186 14.6401 26.9604 14.5418C27.1022 14.4434 27.2168 14.3137 27.2943 14.1636L28.08 12.6424L28.8668 14.1641C28.9442 14.314 29.0587 14.4437 29.2004 14.542C29.3421 14.6402 29.5066 14.704 29.6799 14.728L31.4371 14.9718L30.1652 16.1556C30.0399 16.2723 29.9463 16.4163 29.8922 16.5753C29.8382 16.7342 29.8255 16.9033 29.8551 17.068L30.1546 18.7403L28.582 17.9507C28.4271 17.873 28.2547 17.8324 28.0798 17.8324C27.9048 17.8324 27.7325 17.873 27.5776 17.9507L26.0055 18.7398L26.3061 17.068C26.3355 16.9032 26.3225 16.7339 26.2684 16.5749C26.2142 16.4159 26.1203 16.2718 25.995 16.155L24.7236 14.9718L26.4805 14.728Z" fill="#FF6016"/>
<path d="M50.76 49.5H52.92C53.2064 49.5 53.4811 49.3913 53.6837 49.198C53.8862 49.0046 54 48.7423 54 48.4688V44.3438C54 44.0702 53.8862 43.8079 53.6837 43.6145C53.4811 43.4211 53.2064 43.3125 52.92 43.3125H41.04V42.2812C41.0388 41.1876 40.5833 40.139 39.7734 39.3657C38.9635 38.5924 37.8654 38.1574 36.72 38.1562C35.861 38.1553 35.0374 37.8291 34.43 37.2491C33.8226 36.6691 33.4809 35.8827 33.48 35.0625V28.7664C35.0891 28.0571 36.5294 27.0413 37.7124 25.7812H39.96C41.678 25.7794 43.3251 25.127 44.54 23.967C45.7548 22.807 46.4381 21.2342 46.44 19.5938V10.3125C46.44 10.039 46.3262 9.77669 46.1237 9.5833C45.9211 9.3899 45.6464 9.28125 45.36 9.28125H41.04V6.1875H43.2C43.4864 6.1875 43.7611 6.07885 43.9637 5.88545C44.1662 5.69206 44.28 5.42975 44.28 5.15625V1.03125C44.28 0.757746 44.1662 0.495443 43.9637 0.302046C43.7611 0.108649 43.4864 0 43.2 0H12.96C12.6736 0 12.3989 0.108649 12.1963 0.302046C11.9938 0.495443 11.88 0.757746 11.88 1.03125V5.15625C11.88 5.42975 11.9938 5.69206 12.1963 5.88545C12.3989 6.07885 12.6736 6.1875 12.96 6.1875H15.12V9.28125H10.8C10.5136 9.28125 10.2389 9.3899 10.0363 9.5833C9.83379 9.77669 9.72 10.039 9.72 10.3125V19.5938C9.72189 21.2342 10.4052 22.807 11.62 23.967C12.8349 25.127 14.482 25.7794 16.2 25.7812H18.4477C19.6308 27.0411 21.071 28.0569 22.68 28.7662V35.0625C22.6791 35.8827 22.3374 36.6691 21.73 37.2491C21.1226 37.8291 20.299 38.1553 19.44 38.1562C18.2947 38.1575 17.1966 38.5925 16.3867 39.3658C15.5768 40.1391 15.1213 41.1876 15.12 42.2812V43.3125H9.72C7.1421 43.3125 4.66978 44.2903 2.84692 46.0309C1.02407 47.7715 0 50.1322 0 52.5938C0 55.0553 1.02407 57.416 2.84692 59.1566C4.66978 60.8972 7.1421 61.875 9.72 61.875H30.24V64.9688C30.24 65.1603 30.2959 65.348 30.4013 65.5109C30.5067 65.6738 30.6576 65.8055 30.837 65.8911C31.0164 65.9768 31.2172 66.013 31.417 65.9958C31.6167 65.9786 31.8075 65.9087 31.968 65.7937L35.64 63.1641L39.312 65.7937C39.4725 65.9087 39.6633 65.9786 39.863 65.9958C40.0628 66.013 40.2636 65.9768 40.443 65.8911C40.6224 65.8055 40.7733 65.6738 40.8787 65.5109C40.9841 65.348 41.04 65.1603 41.04 64.9688V61.875H52.92C53.2064 61.875 53.4811 61.7663 53.6837 61.573C53.8862 61.3796 54 61.1173 54 60.8438V56.7188C54 56.4452 53.8862 56.1829 53.6837 55.9895C53.4811 55.7961 53.2064 55.6875 52.92 55.6875H50.76V49.5ZM48.6 51.5625H9.72C9.43357 51.5625 9.15886 51.6711 8.95632 51.8645C8.75379 52.0579 8.64 52.3202 8.64 52.5938C8.64 52.8673 8.75379 53.1296 8.95632 53.323C9.15886 53.5163 9.43357 53.625 9.72 53.625H30.24V55.6875H9.72C8.8607 55.6875 8.03659 55.3615 7.42897 54.7814C6.82136 54.2012 6.48 53.4143 6.48 52.5938C6.48 51.7732 6.82136 50.9863 7.42897 50.4061C8.03659 49.826 8.8607 49.5 9.72 49.5H48.6V51.5625ZM44.28 11.3438V19.5938C44.2788 20.6874 43.8233 21.736 43.0134 22.5093C42.2035 23.2826 41.1054 23.7176 39.96 23.7188H39.3082C40.4251 21.8297 41.021 19.7005 41.04 17.5312V11.3438H44.28ZM14.04 2.0625H42.12V4.125H14.04V2.0625ZM16.8518 23.7188H16.2C15.0547 23.7175 13.9566 23.2825 13.1467 22.5092C12.3368 21.7359 11.8813 20.6874 11.88 19.5938V11.3438H15.12V17.5312C15.1431 19.7 15.7387 21.8281 16.8518 23.7188ZM17.28 17.5312V6.1875H38.88V17.5312C38.88 20.2663 37.7421 22.8893 35.7168 24.8233C33.6914 26.7573 30.9443 27.8438 28.08 27.8438C25.2157 27.8438 22.4686 26.7573 20.4432 24.8233C18.4179 22.8893 17.28 20.2663 17.28 17.5312ZM24.84 35.0625V29.5144C25.9015 29.759 26.9881 29.8904 28.08 29.9062C29.1723 29.8961 30.2596 29.7646 31.32 29.5144V35.0625C31.3187 36.1787 31.6986 37.2648 32.4022 38.1562H23.7574C24.461 37.2649 24.8411 36.1787 24.84 35.0625ZM17.28 42.2812C17.2806 41.7344 17.5083 41.2101 17.9133 40.8234C18.3182 40.4368 18.8673 40.2193 19.44 40.2188H36.72C37.2927 40.2194 37.8417 40.4369 38.2466 40.8235C38.6516 41.2102 38.8793 41.7344 38.88 42.2812V43.3125H17.28V42.2812ZM9.72 59.8125C7.71496 59.8125 5.79205 59.052 4.37427 57.6982C2.9565 56.3444 2.16 54.5083 2.16 52.5938C2.16 50.6792 2.9565 48.8431 4.37427 47.4893C5.79205 46.1355 7.71496 45.375 9.72 45.375H51.84V47.4375H9.72C8.28783 47.4375 6.91432 47.9807 5.90162 48.9477C4.88893 49.9147 4.32 51.2262 4.32 52.5938C4.32 53.9613 4.88893 55.2728 5.90162 56.2398C6.91432 57.2067 8.28783 57.75 9.72 57.75H30.24V59.8125H9.72ZM38.88 62.9062L36.288 61.05C36.1013 60.916 35.874 60.8435 35.6404 60.8435C35.4068 60.8435 35.1796 60.916 34.9929 61.05L32.4 62.9062V53.625H38.88V62.9062ZM51.84 59.8125H41.04V57.75H51.84V59.8125ZM41.04 55.6875V53.625H48.6V55.6875H41.04Z" fill="#FF6016"/>
</svg>
