<svg width="46" height="48" viewBox="0 0 46 48" fill="none" xmlns="http://www.w3.org/2000/svg">
<g clip-path="url(#clip0_2284_31)">
<path d="M38.8125 13H41.5625C41.7448 13 41.9197 12.9276 42.0486 12.7986C42.1776 12.6697 42.25 12.4948 42.25 12.3125C42.25 12.1302 42.1776 11.9553 42.0486 11.8264C41.9197 11.6974 41.7448 11.625 41.5625 11.625H38.8125C38.6302 11.625 38.4553 11.6974 38.3264 11.8264C38.1974 11.9553 38.125 12.1302 38.125 12.3125C38.125 12.4948 38.1974 12.6697 38.3264 12.7986C38.4553 12.9276 38.6302 13 38.8125 13Z" fill="#FF5E14"/>
<path d="M38.8125 15.75H41.5625C41.7448 15.75 41.9197 15.6776 42.0486 15.5486C42.1776 15.4197 42.25 15.2448 42.25 15.0625C42.25 14.8802 42.1776 14.7053 42.0486 14.5764C41.9197 14.4474 41.7448 14.375 41.5625 14.375H38.8125C38.6302 14.375 38.4553 14.4474 38.3264 14.5764C38.1974 14.7053 38.125 14.8802 38.125 15.0625C38.125 15.2448 38.1974 15.4197 38.3264 15.5486C38.4553 15.6776 38.6302 15.75 38.8125 15.75Z" fill="#FF5E14"/>
<path d="M38.8125 18.5H41.5625C41.7448 18.5 41.9197 18.4276 42.0486 18.2986C42.1776 18.1697 42.25 17.9948 42.25 17.8125C42.25 17.6302 42.1776 17.4553 42.0486 17.3264C41.9197 17.1974 41.7448 17.125 41.5625 17.125H38.8125C38.6302 17.125 38.4553 17.1974 38.3264 17.3264C38.1974 17.4553 38.125 17.6302 38.125 17.8125C38.125 17.9948 38.1974 18.1697 38.3264 18.2986C38.4553 18.4276 38.6302 18.5 38.8125 18.5Z" fill="#FF5E14"/>
<path d="M38.8125 21.25H41.5625C41.7448 21.25 41.9197 21.1776 42.0486 21.0486C42.1776 20.9197 42.25 20.7448 42.25 20.5625C42.25 20.3802 42.1776 20.2053 42.0486 20.0764C41.9197 19.9474 41.7448 19.875 41.5625 19.875H38.8125C38.6302 19.875 38.4553 19.9474 38.3264 20.0764C38.1974 20.2053 38.125 20.3802 38.125 20.5625C38.125 20.7448 38.1974 20.9197 38.3264 21.0486C38.4553 21.1776 38.6302 21.25 38.8125 21.25Z" fill="#FF5E14"/>
<path d="M38.8125 24H41.5625C41.7448 24 41.9197 23.9276 42.0486 23.7986C42.1776 23.6697 42.25 23.4948 42.25 23.3125C42.25 23.1302 42.1776 22.9553 42.0486 22.8264C41.9197 22.6974 41.7448 22.625 41.5625 22.625H38.8125C38.6302 22.625 38.4553 22.6974 38.3264 22.8264C38.1974 22.9553 38.125 23.1302 38.125 23.3125C38.125 23.4948 38.1974 23.6697 38.3264 23.7986C38.4553 23.9276 38.6302 24 38.8125 24Z" fill="#FF5E14"/>
<path d="M41.5617 25.375H39.3789C39.4591 25.5953 39.4998 25.828 39.4992 26.0625V26.75H41.5617C41.7441 26.75 41.9189 26.6776 42.0479 26.5486C42.1768 26.4197 42.2492 26.2448 42.2492 26.0625C42.2492 25.8802 42.1768 25.7053 42.0479 25.5764C41.9189 25.4474 41.7441 25.375 41.5617 25.375Z" fill="#FF5E14"/>
<path d="M41.5625 28.125H39.5V29.5H41.5625C41.7448 29.5 41.9197 29.4276 42.0486 29.2986C42.1776 29.1697 42.25 28.9948 42.25 28.8125C42.25 28.6302 42.1776 28.4553 42.0486 28.3264C41.9197 28.1974 41.7448 28.125 41.5625 28.125Z" fill="#FF5E14"/>
<path d="M41.5625 30.875H39.5V32.25H41.5625C41.7448 32.25 41.9197 32.1776 42.0486 32.0486C42.1776 31.9197 42.25 31.7448 42.25 31.5625C42.25 31.3802 42.1776 31.2053 42.0486 31.0764C41.9197 30.9474 41.7448 30.875 41.5625 30.875Z" fill="#FF5E14"/>
<path d="M41.5625 33.625H39.5V35H41.5625C41.7448 35 41.9197 34.9276 42.0486 34.7986C42.1776 34.6697 42.25 34.4948 42.25 34.3125C42.25 34.1302 42.1776 33.9553 42.0486 33.8264C41.9197 33.6974 41.7448 33.625 41.5625 33.625Z" fill="#FF5E14"/>
<path d="M41.5625 36.375H39.5V37.75H41.5625C41.7448 37.75 41.9197 37.6776 42.0486 37.5486C42.1776 37.4197 42.25 37.2448 42.25 37.0625C42.25 36.8802 42.1776 36.7053 42.0486 36.5764C41.9197 36.4474 41.7448 36.375 41.5625 36.375Z" fill="#FF5E14"/>
<path d="M41.5625 39.125H39.5V40.5H41.5625C41.7448 40.5 41.9197 40.4276 42.0486 40.2986C42.1776 40.1697 42.25 39.9948 42.25 39.8125C42.25 39.6302 42.1776 39.4553 42.0486 39.3264C41.9197 39.1974 41.7448 39.125 41.5625 39.125Z" fill="#FF5E14"/>
<path d="M41.5625 41.875H39.5V43.25H41.5625C41.7448 43.25 41.9197 43.1776 42.0486 43.0486C42.1776 42.9197 42.25 42.7448 42.25 42.5625C42.25 42.3802 42.1776 42.2053 42.0486 42.0764C41.9197 41.9474 41.7448 41.875 41.5625 41.875Z" fill="#FF5E14"/>
<path d="M43.625 8.875H36.75C36.3854 8.87539 36.0359 9.02038 35.7782 9.27816C35.5204 9.53594 35.3754 9.88545 35.375 10.25V24H36.75V10.25H43.625V44.625H39.5V45.3125C39.4995 45.5468 39.459 45.7794 39.3801 46H44.3125C44.4948 46 44.6697 45.9276 44.7986 45.7986C44.9276 45.6697 45 45.4948 45 45.3125V10.25C44.9996 9.88545 44.8546 9.53594 44.5968 9.27816C44.3391 9.02038 43.9896 8.87539 43.625 8.875Z" fill="#FF5E14"/>
<path d="M28.5 25.375H25.0625C24.8802 25.375 24.7053 25.4474 24.5764 25.5764C24.4474 25.7053 24.375 25.8802 24.375 26.0625V45.3125C24.375 45.4948 24.4474 45.6697 24.5764 45.7986C24.7053 45.9276 24.8802 46 25.0625 46H37.4375C37.6198 46 37.7947 45.9276 37.9236 45.7986C38.0526 45.6697 38.125 45.4948 38.125 45.3125V26.0625C38.125 25.8802 38.0526 25.7053 37.9236 25.5764C37.7947 25.4474 37.6198 25.375 37.4375 25.375H34V23.3125C33.9996 22.9479 33.8546 22.5984 33.5968 22.3407C33.3391 22.0829 32.9896 21.9379 32.625 21.9375H29.875C29.5104 21.9379 29.1609 22.0829 28.9032 22.3407C28.6454 22.5984 28.5004 22.9479 28.5 23.3125V25.375ZM29.875 23.3125H32.625V25.375H29.875V23.3125ZM36.75 26.75V44.625H25.75V26.75H36.75Z" fill="#FF5E14"/>
<path d="M28.5 29.5H34C34.1823 29.5 34.3572 29.4276 34.4861 29.2986C34.6151 29.1697 34.6875 28.9948 34.6875 28.8125C34.6875 28.6302 34.6151 28.4553 34.4861 28.3264C34.3572 28.1974 34.1823 28.125 34 28.125H28.5C28.3177 28.125 28.1428 28.1974 28.0139 28.3264C27.8849 28.4553 27.8125 28.6302 27.8125 28.8125C27.8125 28.9948 27.8849 29.1697 28.0139 29.2986C28.1428 29.4276 28.3177 29.5 28.5 29.5Z" fill="#FF5E14"/>
<path d="M28.5 32.25H34C34.1823 32.25 34.3572 32.1776 34.4861 32.0486C34.6151 31.9197 34.6875 31.7448 34.6875 31.5625C34.6875 31.3802 34.6151 31.2053 34.4861 31.0764C34.3572 30.9474 34.1823 30.875 34 30.875H28.5C28.3177 30.875 28.1428 30.9474 28.0139 31.0764C27.8849 31.2053 27.8125 31.3802 27.8125 31.5625C27.8125 31.7448 27.8849 31.9197 28.0139 32.0486C28.1428 32.1776 28.3177 32.25 28.5 32.25Z" fill="#FF5E14"/>
<path d="M28.5 35H34C34.1823 35 34.3572 34.9276 34.4861 34.7986C34.6151 34.6697 34.6875 34.4948 34.6875 34.3125C34.6875 34.1302 34.6151 33.9553 34.4861 33.8264C34.3572 33.6974 34.1823 33.625 34 33.625H28.5C28.3177 33.625 28.1428 33.6974 28.0139 33.8264C27.8849 33.9553 27.8125 34.1302 27.8125 34.3125C27.8125 34.4948 27.8849 34.6697 28.0139 34.7986C28.1428 34.9276 28.3177 35 28.5 35Z" fill="#FF5E14"/>
<path d="M28.5 37.75H34C34.1823 37.75 34.3572 37.6776 34.4861 37.5486C34.6151 37.4197 34.6875 37.2448 34.6875 37.0625C34.6875 36.8802 34.6151 36.7053 34.4861 36.5764C34.3572 36.4474 34.1823 36.375 34 36.375H28.5C28.3177 36.375 28.1428 36.4474 28.0139 36.5764C27.8849 36.7053 27.8125 36.8802 27.8125 37.0625C27.8125 37.2448 27.8849 37.4197 28.0139 37.5486C28.1428 37.6776 28.3177 37.75 28.5 37.75Z" fill="#FF5E14"/>
<path d="M28.5 40.5H34C34.1823 40.5 34.3572 40.4276 34.4861 40.2986C34.6151 40.1697 34.6875 39.9948 34.6875 39.8125C34.6875 39.6302 34.6151 39.4553 34.4861 39.3264C34.3572 39.1974 34.1823 39.125 34 39.125H28.5C28.3177 39.125 28.1428 39.1974 28.0139 39.3264C27.8849 39.4553 27.8125 39.6302 27.8125 39.8125C27.8125 39.9948 27.8849 40.1697 28.0139 40.2986C28.1428 40.4276 28.3177 40.5 28.5 40.5Z" fill="#FF5E14"/>
<path d="M28.5 43.25H34C34.1823 43.25 34.3572 43.1776 34.4861 43.0486C34.6151 42.9197 34.6875 42.7448 34.6875 42.5625C34.6875 42.3802 34.6151 42.2053 34.4861 42.0764C34.3572 41.9474 34.1823 41.875 34 41.875H28.5C28.3177 41.875 28.1428 41.9474 28.0139 42.0764C27.8849 42.2053 27.8125 42.3802 27.8125 42.5625C27.8125 42.7448 27.8849 42.9197 28.0139 43.0486C28.1428 43.1776 28.3177 43.25 28.5 43.25Z" fill="#FF5E14"/>
<path d="M3.75001 40.5C3.02067 40.5 2.32119 40.7897 1.80547 41.3054C1.28974 41.8212 1.00001 42.5206 1.00001 43.25C1.00001 43.9793 1.28974 44.6788 1.80547 45.1945C2.32119 45.7103 3.02067 46 3.75001 46H20.9375C21.6669 46 22.3663 45.7103 22.8821 45.1945C23.3978 44.6788 23.6875 43.9793 23.6875 43.25C23.6875 42.5206 23.3978 41.8212 22.8821 41.3054C22.3663 40.7897 21.6669 40.5 20.9375 40.5H15.4375V39.125H21.625C21.9912 39.1234 22.3418 38.9765 22.5997 38.7164C22.8575 38.4564 23.0015 38.1046 23 37.7384V35.2477C22.9788 34.8351 22.857 34.4339 22.6452 34.0791C22.4334 33.7243 22.138 33.4267 21.7848 33.2122L13.9027 28.2697C13.7457 28.18 13.5691 28.1304 13.3884 28.125C12.9744 28.1251 12.6875 28.4516 12.6875 29.0075V32.2382H9.57587L21.2148 9.76182C21.2445 9.74013 21.2724 9.71607 21.2982 9.68988L24.8496 5.91516C24.9188 5.94898 24.9899 5.97887 25.0625 6.00467V8.18748H23.6875C23.5666 8.18748 23.4478 8.21938 23.3431 8.27995C23.2385 8.34053 23.1516 8.42763 23.0914 8.53249C23.0311 8.63734 22.9996 8.75623 23 8.87715C23.0004 8.99808 23.0326 9.11677 23.0935 9.22125L25.0625 12.5983V15.75C25.0625 15.9323 25.135 16.1072 25.2639 16.2361C25.3928 16.365 25.5677 16.4375 25.75 16.4375C25.7724 16.4375 25.7936 16.433 25.8155 16.4309C25.8373 16.433 25.8585 16.4375 25.8809 16.4375C26.2219 16.4716 26.538 16.6312 26.7679 16.8853C26.9978 17.1394 27.1251 17.4698 27.1251 17.8125C27.1251 18.1551 26.9978 18.4856 26.7679 18.7397C26.538 18.9937 26.2219 19.1533 25.8809 19.1875C25.6937 19.185 25.5096 19.1388 25.3435 19.0524C25.1773 18.966 25.0337 18.8419 24.9242 18.69C24.8145 18.5443 24.6514 18.4482 24.4708 18.4228C24.2902 18.3974 24.1069 18.4448 23.9613 18.5545C23.8156 18.6643 23.7195 18.8274 23.6941 19.008C23.6687 19.1885 23.7161 19.3718 23.8258 19.5175C24.0629 19.8401 24.3723 20.1027 24.7292 20.2841C25.0861 20.4656 25.4806 20.5609 25.8809 20.5625C26.5926 20.5437 27.2679 20.2437 27.7588 19.7281C28.2497 19.2124 28.5162 18.5232 28.5 17.8115C28.5094 17.1969 28.3107 16.5972 27.9363 16.1098C27.5619 15.6224 27.0337 15.2758 26.4375 15.1264V12.4129L28.3976 9.23602C28.4619 9.13185 28.4971 9.01244 28.4998 8.89009C28.5024 8.76774 28.4724 8.6469 28.4128 8.54004C28.3531 8.43318 28.2661 8.34417 28.1606 8.28219C28.055 8.22021 27.9349 8.18752 27.8125 8.18748H26.4375V6.00467C26.734 5.90035 27.0027 5.72959 27.2231 5.50545C27.4434 5.28132 27.6096 5.00975 27.7088 4.71152C27.8081 4.4133 27.8378 4.09632 27.7957 3.78484C27.7536 3.47335 27.6409 3.17563 27.466 2.91443C27.2912 2.65324 27.0589 2.4355 26.787 2.27787C26.5151 2.12025 26.2107 2.02691 25.8971 2.00501C25.5836 1.98311 25.2692 2.03322 24.978 2.15151C24.6868 2.2698 24.4265 2.45313 24.217 2.68748H20.3192C20.1633 2.68748 20.0121 2.74042 19.8903 2.8376C19.7685 2.93479 19.6834 3.07047 19.6488 3.22241L18.7736 7.06863C18.7633 7.08126 18.7511 7.09198 18.7418 7.10539L1.12455 32.2471C1.0435 32.3628 1.00002 32.5005 1.00001 32.6417V37.7384C0.998507 38.1046 1.14252 38.4564 1.40038 38.7164C1.65823 38.9765 2.00881 39.1234 2.37501 39.125H7.18751V40.5H3.75001ZM26.5805 9.56248L25.7084 10.9761L24.8843 9.56248H26.5805ZM25.75 3.37498C25.886 3.37498 26.0189 3.4153 26.132 3.49085C26.245 3.56639 26.3331 3.67376 26.3852 3.79939C26.4372 3.92501 26.4508 4.06325 26.4243 4.19661C26.3978 4.32997 26.3323 4.45247 26.2361 4.54862C26.14 4.64477 26.0175 4.71025 25.8841 4.73677C25.7508 4.7633 25.6125 4.74969 25.4869 4.69765C25.3613 4.64562 25.2539 4.5575 25.1784 4.44444C25.1028 4.33138 25.0625 4.19846 25.0625 4.06248C25.0627 3.88021 25.1352 3.70546 25.2641 3.57658C25.393 3.44769 25.5677 3.37519 25.75 3.37498ZM20.8679 4.06248H23.6875C23.6878 4.36424 23.7549 4.6622 23.8838 4.93501L21.0148 7.98456L20.135 7.28285L20.8679 4.06248ZM19.4479 8.49364L20.0674 8.98761L17.1447 14.6317L15.6652 13.892L19.4479 8.49364ZM14.8674 15.0305L16.5123 15.853L15.1724 18.4406L13.2483 17.3412L14.8674 15.0305ZM12.4559 18.4719L14.5396 19.6626L13.0512 22.537L10.5724 21.1599L12.4559 18.4719ZM9.77902 22.2922L12.4186 23.7586L10.6384 27.1964C10.6302 27.1914 10.6236 27.1849 10.6151 27.1802L7.54796 25.4762L9.77902 22.2922ZM6.76108 26.5992C6.79012 26.6231 6.82109 26.6447 6.85367 26.6635L9.94742 28.3823C9.96821 28.3919 9.9895 28.4003 10.0112 28.4077L8.02764 32.2382H2.80971L6.76108 26.5992ZM2.37501 37.7384V33.6132H14.0625V32.2382L14.0627 29.9929L21.0543 34.3771L21.0949 34.4026L21.1371 34.4251C21.27 34.5219 21.3819 34.6448 21.4658 34.7862C21.5496 34.9276 21.6038 35.0847 21.625 35.2477V37.75L2.37501 37.7384ZM14.0625 39.125V40.5H8.56251V39.125H14.0625ZM20.9375 41.875C21.3022 41.875 21.6519 42.0198 21.9098 42.2777C22.1676 42.5356 22.3125 42.8853 22.3125 43.25C22.3125 43.6147 22.1676 43.9644 21.9098 44.2223C21.6519 44.4801 21.3022 44.625 20.9375 44.625H3.75001C3.38534 44.625 3.0356 44.4801 2.77774 44.2223C2.51988 43.9644 2.37501 43.6147 2.37501 43.25C2.37501 42.8853 2.51988 42.5356 2.77774 42.2777C3.0356 42.0198 3.38534 41.875 3.75001 41.875H20.9375Z" fill="#FF5E14"/>
</g>
<defs>
<clipPath id="clip0_2284_31">
<rect width="44" height="44" fill="white" transform="translate(1 2)"/>
</clipPath>
</defs>
</svg>
