<svg width="35" height="35" viewBox="0 0 35 35" fill="none" xmlns="http://www.w3.org/2000/svg">
<path d="M31.8877 29.5368C32.2766 29.5368 32.5544 29.0998 32.3877 28.7174C31.6655 27.297 30.1656 26.4229 28.5545 26.4229C26.7213 26.4229 25.3324 27.3516 24.6658 28.8266H10.2219C9.49967 27.4062 7.99973 26.4229 6.38868 26.4229C4.77762 26.4229 3.33323 27.297 2.55548 28.7174C2.38882 29.0998 2.61104 29.5368 3.05547 29.5368H5.72203L6.44423 30.6841L5.72203 31.8314H3.11102C2.72215 31.8314 2.44438 32.2684 2.61104 32.6508C3.33323 34.0713 4.83318 34.9454 6.44423 34.9454C8.16639 34.9454 9.61078 34.0166 10.333 32.5962H24.7213C25.3324 33.962 26.6101 35 28.6101 35C30.2211 35 31.6655 34.1259 32.4433 32.7055C32.6099 32.3231 32.3877 31.886 31.9433 31.886H29.2767L28.5545 30.7387L29.2767 29.5915H31.8877V29.5368ZM6.44423 33.8527C5.61093 33.8527 4.77762 33.525 4.22209 32.9786H6.05535C6.22201 32.9786 6.44423 32.8694 6.49978 32.7055L7.61085 31.0119C7.72196 30.848 7.72196 30.6295 7.61085 30.411L6.49978 28.7174C6.38868 28.5535 6.22201 28.4442 6.05535 28.4442H4.22209C4.83318 27.8979 5.61093 27.5701 6.44423 27.5701C10.6663 27.5701 10.5552 33.8527 6.44423 33.8527ZM10.6663 31.449C10.7774 30.9573 10.7774 30.411 10.6663 29.9193H24.3324C24.2213 30.411 24.2213 30.9026 24.3324 31.3943L10.6663 31.449ZM28.499 28.7174L27.3879 30.411C27.2768 30.5749 27.2768 30.7934 27.3879 31.0119L28.499 32.7055C28.6101 32.8694 28.7767 32.9786 28.9434 32.9786H30.8322C30.2767 33.525 29.4434 33.8527 28.6101 33.8527C24.3324 33.8527 24.4436 27.5701 28.6101 27.5701C29.4434 27.5701 30.2767 27.8979 30.8322 28.4442H28.9434C28.7767 28.4442 28.6101 28.5535 28.499 28.7174Z" fill="#FF7029"/>
<path d="M30.9433 9.64983C30.4433 6.6451 27.6101 4.62373 25.0546 4.733C22.5547 -1.65889 13.2217 -1.54962 10.8885 4.89689C7.38861 4.18668 4.16651 6.4812 3.66653 9.75909C1.44439 10.5239 0 12.5453 0 14.8945C0 17.8992 2.49991 20.303 5.49979 20.303H7.05529C7.38861 20.303 7.61083 20.0844 7.61083 19.7567C7.61083 19.4289 7.38861 19.2103 7.05529 19.2103H5.49979C3.05544 19.2103 1.11107 17.2436 1.11107 14.8945C1.11107 12.9277 2.3888 11.2341 4.33317 10.6878C4.55539 10.6332 4.72205 10.4147 4.72205 10.1961C4.94426 7.30068 7.88859 5.11542 11.0551 6.04415C11.3329 6.15342 11.6662 5.93489 11.7218 5.66173C13.4439 -0.347731 22.1103 -0.511625 24.1102 5.44321C24.1658 5.71636 24.4435 5.82563 24.7213 5.82563C26.8879 5.49784 29.61 7.35531 29.8878 10.1415C29.8878 10.36 30.11 10.5786 30.3322 10.6332C32.3877 11.0156 33.8876 12.8185 33.8876 14.8945C33.8876 17.2982 31.8877 19.2103 29.4989 19.2103H27.999C27.6656 19.2103 27.4434 19.4289 27.4434 19.7567C27.4434 20.0844 27.6656 20.303 27.999 20.303H29.4989C32.5543 20.303 34.9987 17.8992 34.9987 14.8945C35.0542 12.436 33.3321 10.3054 30.9433 9.64983Z" fill="#FF7029"/>
<path d="M13.1661 6.64405C13.4439 6.75331 13.7772 6.53478 13.8327 6.26163C14.9438 2.32816 20.7214 2.16427 21.9991 6.15236C22.1102 6.42552 22.388 6.58942 22.7213 6.48015C22.9991 6.37089 23.1657 6.09773 23.0546 5.76994C21.388 0.743847 14.1661 0.962372 12.7217 5.93384C12.7217 6.26163 12.8883 6.53478 13.1661 6.64405Z" fill="#FF7029"/>
<path d="M8.6663 16.1507C8.33298 16.1507 8.11077 16.3692 8.11077 16.697V19.9203C8.11077 20.2481 8.33298 20.4666 8.6663 20.4666H10.2218C10.3885 20.9583 10.5551 21.3953 10.7773 21.8324L9.66626 22.925C9.44405 23.1435 9.44405 23.4713 9.66626 23.6898L11.9995 25.9844C12.1106 26.0936 12.2217 26.1483 12.3884 26.1483C12.555 26.1483 12.6662 26.0936 12.7773 25.9844L13.8883 24.9464C14.3328 25.1649 14.8327 25.3834 15.2772 25.4927V27.0224C15.2772 27.3501 15.4994 27.5687 15.8327 27.5687H19.1659C19.4992 27.5687 19.7214 27.3501 19.7214 27.0224V25.4927C20.2214 25.3288 20.6659 25.1649 21.1103 24.9464L22.1658 25.9844C22.2769 26.0936 22.388 26.1483 22.5547 26.1483C22.7213 26.1483 22.8324 26.0936 22.9435 25.9844L25.2768 23.6898C25.3879 23.5806 25.4435 23.4713 25.4435 23.3074C25.4435 23.1435 25.3879 23.0343 25.2768 22.925L24.2213 21.887C24.4435 21.4499 24.6657 20.9583 24.7768 20.5212H26.3323C26.6656 20.5212 26.8878 20.3027 26.8878 19.9749V16.7516C26.8878 16.4238 26.6656 16.2053 26.3323 16.2053H24.7768C24.6101 15.7136 24.4435 15.2766 24.2213 14.8395L25.2768 13.7469C25.3879 13.6376 25.4435 13.5284 25.4435 13.3645C25.4435 13.2006 25.3879 13.0913 25.2768 12.9821L22.9435 10.6875C22.7213 10.469 22.388 10.469 22.1658 10.6875L21.1103 11.7255C20.6659 11.507 20.1659 11.2885 19.7214 11.1792V9.70417C19.7214 9.37638 19.4992 9.15786 19.1659 9.15786H15.8327C15.4994 9.15786 15.2772 9.37638 15.2772 9.70417V11.2339C14.7772 11.3977 14.3328 11.5616 13.8883 11.7802L12.7773 10.7422C12.555 10.5236 12.2217 10.5236 11.9995 10.7422L9.66626 13.0367C9.44405 13.2552 9.44405 13.583 9.66626 13.8015L10.7218 14.8942C10.4996 15.3312 10.2774 15.8229 10.1662 16.26H8.6663V16.1507ZM11.1662 16.8063C11.3329 16.1507 11.5551 15.5497 11.944 14.9488C12.0551 14.7303 12.0551 14.4571 11.8884 14.2932L10.8884 13.3099L12.4439 11.7802L13.4439 12.7635C13.6106 12.9274 13.8883 12.9821 14.1105 12.8182C14.7216 12.4357 15.3883 12.2172 15.9994 12.0533C16.2771 11.9987 16.4438 11.7802 16.4438 11.507V10.1412H18.6104V11.507C18.6104 11.7802 18.777 11.9987 19.0548 12.0533C19.7214 12.2172 20.3325 12.4357 20.9436 12.8182C21.1658 12.9274 21.4436 12.9274 21.6103 12.7635L22.6102 11.7802L24.1657 13.3099L23.1658 14.2932C22.9991 14.4571 22.9435 14.7303 23.1102 14.9488C23.4435 15.5497 23.7213 16.1507 23.888 16.8063C23.9435 17.0794 24.1657 17.2433 24.4435 17.2433H25.8323V19.3739H24.4435C24.1657 19.3739 23.9435 19.5378 23.888 19.811C23.7213 20.4666 23.4435 21.0675 23.1102 21.6685C22.9991 21.887 22.9991 22.1602 23.1658 22.324L24.1657 23.3074L22.6102 24.8371L21.6103 23.8537C21.4436 23.6898 21.1658 23.6352 20.9436 23.7991C20.3881 24.1269 19.7214 24.4 19.0548 24.5639C18.777 24.6186 18.6104 24.8371 18.6104 25.1103V26.476H16.3882V25.1103C16.3882 24.8371 16.2216 24.6186 15.9438 24.5639C15.2772 24.4 14.6661 24.1815 14.055 23.7991C13.8328 23.6898 13.555 23.6898 13.3883 23.8537L12.3884 24.8371L10.8329 23.3074L11.8328 22.324C11.9995 22.1602 12.0551 21.887 11.8884 21.6685C11.4995 21.0675 11.2773 20.4666 11.1107 19.811C11.0551 19.5378 10.8329 19.3739 10.5551 19.3739H9.16628V17.2433H10.5551C10.8884 17.2433 11.1107 17.0794 11.1662 16.8063Z" fill="#FF7029"/>
<path d="M17.4993 22.7074C19.9437 22.7074 21.9436 20.7407 21.9436 18.3369C21.9436 15.9331 19.9437 13.9664 17.4993 13.9664C15.055 13.9664 13.055 15.9331 13.055 18.3369C13.055 20.7407 15.055 22.7074 17.4993 22.7074ZM17.4993 15.0044C19.3326 15.0044 20.8325 16.4794 20.8325 18.2823C20.8325 20.0851 19.3326 21.5601 17.4993 21.5601C15.666 21.5601 14.1661 20.0851 14.1661 18.2823C14.1661 16.4794 15.666 15.0044 17.4993 15.0044Z" fill="#FF7029"/>
</svg>
