<svg width="34" height="34" viewBox="0 0 34 34" fill="none" xmlns="http://www.w3.org/2000/svg">
<path d="M31.9122 14.727C31.7794 10.8536 30.2467 7.23146 27.5555 4.47714C24.7348 1.58967 20.9858 0 17 0C8.94971 0 2.37188 6.55786 2.08834 14.727C0.85984 15.2858 0 16.5442 0 18.0068V22.0362C0 24.0148 1.57276 25.625 3.50659 25.625C4.75785 25.625 5.77546 24.5835 5.77546 23.3029V16.7395C5.77546 15.5371 4.87441 14.5567 3.72886 14.4402C4.15174 7.32301 9.94075 1.66457 17 1.66457C20.5521 1.66457 23.8923 3.08168 26.4062 5.65455C28.7146 8.01713 30.0657 11.0966 30.269 14.4407C29.1245 14.5583 28.2251 15.5382 28.2251 16.7395V23.3023C28.2251 24.5147 29.1402 25.5012 30.2993 25.6039V27.2624C30.2993 29.13 28.8144 30.6492 26.9895 30.6492H24.5385C24.4181 30.2974 24.2295 29.9723 23.9649 29.7026C23.5014 29.226 22.8833 28.9636 22.2252 28.9636H19.6988C19.3361 28.9636 18.988 29.0423 18.6693 29.1944C17.7997 29.6033 17.238 30.5011 17.238 31.4815C17.238 32.1551 17.4944 32.7876 17.9591 33.2609C18.4237 33.7376 19.0417 34 19.6988 34H22.2252C23.2726 34 24.1959 33.307 24.5401 32.3138H26.9895C29.7116 32.3138 31.9258 30.0478 31.9258 27.2624V25.3076C33.1467 24.7455 34 23.4916 34 22.0351V18.0057C34 16.5442 33.1402 15.2858 31.9122 14.727ZM4.14848 16.7395V23.3023C4.14848 23.6647 3.86061 23.9599 3.50604 23.9599C2.46946 23.9599 1.62589 23.0965 1.62589 22.0356V18.0062C1.62589 16.9448 2.46946 16.082 3.50604 16.082C3.86061 16.082 4.14848 16.3772 4.14848 16.7395ZM23.0411 31.6602C22.9603 32.0519 22.6166 32.3365 22.2246 32.3365H19.6982C19.476 32.3365 19.2672 32.2478 19.1079 32.0846C18.9506 31.9243 18.8639 31.7101 18.8639 31.4826C18.8639 31.1503 19.0542 30.8467 19.3524 30.7064C19.4586 30.6553 19.5752 30.6292 19.6982 30.6292H22.2246C22.4469 30.6292 22.6556 30.7175 22.8145 30.8806C22.9717 31.0409 23.0585 31.2551 23.0585 31.4826C23.059 31.5436 23.0525 31.6047 23.0411 31.6602ZM32.3736 22.0356C32.3736 23.0965 31.53 23.9599 30.4934 23.9599C30.1394 23.9599 29.851 23.6652 29.851 23.3023V16.7395C29.851 16.3772 30.1388 16.082 30.4934 16.082C31.53 16.082 32.3736 16.9453 32.3736 18.0062V22.0356Z" fill="#FF7029"/>
<path d="M22.2658 22.3225C24.1661 22.3225 25.7117 20.74 25.7117 18.7958V11.6098C25.7117 10.6699 25.3528 9.78436 24.7012 9.11742C24.0495 8.45048 23.1848 8.08316 22.2658 8.08316H11.7342C9.83395 8.08316 8.28829 9.66506 8.28829 11.6098V18.7958C8.28829 20.7406 9.83395 22.3225 11.7342 22.3225H11.7987V24.1846C11.7987 24.8948 12.2123 25.5251 12.8521 25.7909C13.0586 25.8758 13.2733 25.9179 13.4858 25.9179C13.9288 25.9179 14.3603 25.7382 14.6764 25.4036L17.7032 22.3225H22.2658ZM16.7951 20.8998L13.5194 24.234C13.5048 24.2495 13.494 24.2611 13.4631 24.2473C13.4256 24.2317 13.4256 24.2068 13.4256 24.1846V21.4902C13.4256 21.0308 13.0619 20.6579 12.6124 20.6579H11.7347C10.7312 20.6579 9.91527 19.8223 9.91527 18.7958V11.6098C9.91527 10.5828 10.7312 9.74774 11.7347 9.74774H22.2664C22.7511 9.74774 23.207 9.94194 23.5518 10.2943C23.8966 10.6472 24.0858 11.1143 24.0858 11.6098V18.7958C24.0858 19.8228 23.2694 20.6579 22.2664 20.6579H17.3687C17.1534 20.6579 16.9474 20.745 16.7951 20.8998Z" fill="#FF7029"/>
<path d="M13.0494 14.1078C12.388 14.1078 11.8496 14.6593 11.8496 15.3357C11.8496 16.0121 12.3885 16.5636 13.0494 16.5636C13.7114 16.5636 14.2502 16.0121 14.2502 15.3357C14.2502 14.6593 13.7119 14.1078 13.0494 14.1078Z" fill="#FF7029"/>
<path d="M16.9995 14.1078C16.338 14.1078 15.7997 14.6593 15.7997 15.3357C15.7997 16.0121 16.3386 16.5636 16.9995 16.5636C17.662 16.5636 18.2003 16.0121 18.2003 15.3357C18.2003 14.6593 17.662 14.1078 16.9995 14.1078Z" fill="#FF7029"/>
<path d="M20.9495 14.1078C20.2881 14.1078 19.7498 14.6593 19.7498 15.3357C19.7498 16.0121 20.2886 16.5636 20.9495 16.5636C21.6115 16.5636 22.1504 16.0121 22.1504 15.3357C22.1504 14.6593 21.6115 14.1078 20.9495 14.1078Z" fill="#FF7029"/>
</svg>
