<svg width="26" height="32" viewBox="0 0 26 32" fill="none" xmlns="http://www.w3.org/2000/svg">
<path d="M12.0725 10.4426L13.52 9.71095L14.9678 10.4426C15.0537 10.4859 15.1504 10.5053 15.2471 10.4985C15.3438 10.4917 15.4366 10.459 15.515 10.4042C15.5934 10.3494 15.6543 10.2746 15.6909 10.1882C15.7274 10.1019 15.7381 10.0074 15.7218 9.91555L15.4455 8.36555L16.6165 7.26785C16.686 7.2027 16.7352 7.12016 16.7584 7.02956C16.7817 6.93895 16.7781 6.84391 16.748 6.75517C16.718 6.66643 16.6628 6.58754 16.5885 6.52742C16.5143 6.4673 16.4241 6.42836 16.328 6.415L14.7101 6.1889L13.9862 4.77855C13.9383 4.7006 13.8701 4.636 13.7883 4.59114C13.7065 4.54627 13.614 4.52269 13.5198 4.52272C13.4256 4.52274 13.3331 4.54637 13.2513 4.59128C13.1696 4.63619 13.1014 4.70082 13.0536 4.7788L12.3299 6.1888L10.7115 6.4149C10.6155 6.4283 10.5252 6.46727 10.451 6.52742C10.3768 6.58757 10.3216 6.66648 10.2916 6.75524C10.2616 6.844 10.2581 6.93906 10.2814 7.02966C10.3046 7.12026 10.3538 7.20278 10.4233 7.2679L11.5944 8.36535L11.3179 9.91535C11.3014 10.0073 11.3121 10.1019 11.3487 10.1883C11.3852 10.2748 11.4462 10.3496 11.5247 10.4045C11.6033 10.4593 11.6962 10.492 11.793 10.4987C11.8898 10.5054 11.9866 10.4861 12.0725 10.4426ZM12.7499 7.14085C12.8334 7.12922 12.9127 7.09823 12.9809 7.05056C13.0492 7.00288 13.1044 6.93995 13.1417 6.8672L13.52 6.12965L13.8988 6.86745C13.9361 6.94014 13.9912 7.00301 14.0595 7.05064C14.1277 7.09828 14.2069 7.12924 14.2903 7.14085L15.1364 7.25905L14.524 7.833C14.4637 7.88959 14.4186 7.95943 14.3926 8.03649C14.3666 8.11356 14.3604 8.19555 14.3747 8.2754L14.5189 9.0862L13.7617 8.70335C13.6871 8.66568 13.6041 8.64601 13.5199 8.64601C13.4357 8.64601 13.3527 8.66568 13.2781 8.70335L12.5212 9.08595L12.6659 8.2754C12.6801 8.19547 12.6738 8.11343 12.6477 8.03632C12.6216 7.95922 12.5765 7.88936 12.5161 7.83275L11.9039 7.25905L12.7499 7.14085Z" fill="#FF7029"/>
<path d="M24.44 24H25.48C25.6179 24 25.7502 23.9473 25.8477 23.8536C25.9452 23.7598 26 23.6326 26 23.5V21.5C26 21.3674 25.9452 21.2402 25.8477 21.1464C25.7502 21.0527 25.6179 21 25.48 21H19.76V20.5C19.7594 19.9697 19.5401 19.4614 19.1501 19.0864C18.7602 18.7114 18.2315 18.5006 17.68 18.5C17.2664 18.4996 16.8699 18.3414 16.5774 18.0602C16.285 17.779 16.1205 17.3977 16.12 17V13.9473C16.8947 13.6035 17.5882 13.1109 18.1578 12.5H19.24C20.0672 12.4991 20.8603 12.1828 21.4452 11.6204C22.0301 11.0579 22.3591 10.2954 22.36 9.5V5C22.36 4.86739 22.3052 4.74021 22.2077 4.64645C22.1102 4.55268 21.9779 4.5 21.84 4.5H19.76V3H20.8C20.9379 3 21.0702 2.94732 21.1677 2.85355C21.2652 2.75978 21.32 2.63261 21.32 2.5V0.5C21.32 0.367392 21.2652 0.240215 21.1677 0.146447C21.0702 0.0526784 20.9379 0 20.8 0H6.24C6.10209 0 5.96982 0.0526784 5.8723 0.146447C5.77479 0.240215 5.72 0.367392 5.72 0.5V2.5C5.72 2.63261 5.77479 2.75978 5.8723 2.85355C5.96982 2.94732 6.10209 3 6.24 3H7.28V4.5H5.2C5.06209 4.5 4.92982 4.55268 4.8323 4.64645C4.73479 4.74021 4.68 4.86739 4.68 5V9.5C4.68091 10.2954 5.00991 11.0579 5.59483 11.6204C6.17975 12.1828 6.9728 12.4991 7.8 12.5H8.88222C9.45186 13.1109 10.1453 13.6034 10.92 13.9473V17C10.9195 17.3977 10.755 17.779 10.4626 18.0602C10.1701 18.3414 9.7736 18.4996 9.36 18.5C8.80854 18.5006 8.27984 18.7115 7.8899 19.0864C7.49996 19.4614 7.28062 19.9697 7.28 20.5V21H4.68C3.43879 21 2.24841 21.4741 1.37074 22.318C0.49307 23.1619 0 24.3065 0 25.5C0 26.6935 0.49307 27.8381 1.37074 28.682C2.24841 29.5259 3.43879 30 4.68 30H14.56V31.5C14.56 31.5929 14.5869 31.6839 14.6377 31.7629C14.6884 31.8419 14.7611 31.9057 14.8475 31.9472C14.9338 31.9887 15.0305 32.0063 15.1267 31.998C15.2229 31.9896 15.3147 31.9557 15.392 31.9L17.16 30.625L18.928 31.9C19.0053 31.9557 19.0971 31.9896 19.1933 31.998C19.2895 32.0063 19.3862 31.9887 19.4725 31.9472C19.5589 31.9057 19.6316 31.8419 19.6823 31.7629C19.7331 31.6839 19.76 31.5929 19.76 31.5V30H25.48C25.6179 30 25.7502 29.9473 25.8477 29.8536C25.9452 29.7598 26 29.6326 26 29.5V27.5C26 27.3674 25.9452 27.2402 25.8477 27.1464C25.7502 27.0527 25.6179 27 25.48 27H24.44V24ZM23.4 25H4.68C4.54209 25 4.40982 25.0527 4.3123 25.1464C4.21479 25.2402 4.16 25.3674 4.16 25.5C4.16 25.6326 4.21479 25.7598 4.3123 25.8536C4.40982 25.9473 4.54209 26 4.68 26H14.56V27H4.68C4.26626 27 3.86947 26.842 3.57691 26.5607C3.28436 26.2794 3.12 25.8978 3.12 25.5C3.12 25.1022 3.28436 24.7206 3.57691 24.4393C3.86947 24.158 4.26626 24 4.68 24H23.4V25ZM21.32 5.5V9.5C21.3194 10.0303 21.1001 10.5386 20.7101 10.9136C20.3202 11.2886 19.7915 11.4994 19.24 11.5H18.9262C19.464 10.5841 19.7509 9.55177 19.76 8.5V5.5H21.32ZM6.76 1H20.28V2H6.76V1ZM8.11382 11.5H7.8C7.24854 11.4994 6.71984 11.2885 6.3299 10.9136C5.93996 10.5386 5.72062 10.0302 5.72 9.5V5.5H7.28V8.5C7.29111 9.55151 7.5779 10.5833 8.11382 11.5ZM8.32 8.5V3H18.72V8.5C18.72 9.82608 18.1721 11.0979 17.197 12.0355C16.2218 12.9732 14.8991 13.5 13.52 13.5C12.1409 13.5 10.8182 12.9732 9.84304 12.0355C8.86786 11.0979 8.32 9.82608 8.32 8.5ZM11.96 17V14.31C12.4711 14.4286 12.9943 14.4923 13.52 14.5C14.0459 14.4951 14.5694 14.4313 15.08 14.31V17C15.0794 17.5412 15.2623 18.0678 15.601 18.5H11.4388C11.7775 18.0678 11.9605 17.5412 11.96 17ZM8.32 20.5C8.32028 20.2349 8.42993 19.9807 8.62491 19.7932C8.81989 19.6057 9.08426 19.5003 9.36 19.5H17.68C17.9557 19.5003 18.2201 19.6058 18.415 19.7932C18.61 19.9807 18.7197 20.2349 18.72 20.5V21H8.32V20.5ZM4.68 29C3.71461 29 2.78876 28.6313 2.10613 27.9749C1.4235 27.3185 1.04 26.4283 1.04 25.5C1.04 24.5717 1.4235 23.6815 2.10613 23.0251C2.78876 22.3687 3.71461 22 4.68 22H24.96V23H4.68C3.99044 23 3.32912 23.2634 2.84152 23.7322C2.35393 24.2011 2.08 24.837 2.08 25.5C2.08 26.163 2.35393 26.7989 2.84152 27.2678C3.32912 27.7366 3.99044 28 4.68 28H14.56V29H4.68ZM18.72 30.5L17.472 29.6C17.3821 29.535 17.2727 29.4999 17.1602 29.4999C17.0477 29.4999 16.9383 29.535 16.8484 29.6L15.6 30.5V26H18.72V30.5ZM24.96 29H19.76V28H24.96V29ZM19.76 27V26H23.4V27H19.76Z" fill="#FF7029"/>
</svg>
