<svg width="32" height="28" viewBox="0 0 32 28" fill="none" xmlns="http://www.w3.org/2000/svg">
<path d="M27.456 18.2654L21.7786 20.6041C21.7887 20.535 21.7989 20.4659 21.7989 20.3919C21.7989 19.3163 20.9032 18.443 19.8001 18.443H15.7116C15.5446 18.443 15.3827 18.4085 15.2309 18.3394L11.7647 16.8099C11.2233 16.573 10.6211 16.4448 10.0291 16.4448H7.20557V17.4315H10.0291C10.4794 17.4315 10.9348 17.5253 11.3498 17.7078L14.8159 19.2374C15.0993 19.3607 15.4029 19.4248 15.7166 19.4248H19.8052C20.3517 19.4248 20.7919 19.859 20.7919 20.387C20.7919 20.9149 20.3466 21.3491 19.8052 21.3491H14.5073V22.3359H19.8001C20.1493 22.3359 20.4731 22.2421 20.7565 22.0892V22.0941L27.8457 19.1683C28.4326 18.9265 29.0753 18.9315 29.6572 19.1782C30.1025 19.3706 30.4668 19.6814 30.7097 20.086L18.1961 26.5593C17.2397 27.0527 16.1012 27.1514 15.0689 26.8307L8.94624 24.9114L7.20051 24.8867V25.8735H8.71347L14.7603 27.7681C15.2612 27.926 15.7774 28 16.2985 28C17.1183 28 17.938 27.8076 18.6667 27.4277L32 20.5399L31.8533 20.1353C31.5446 19.2966 30.907 18.6354 30.067 18.2752C29.2271 17.9249 28.3011 17.9151 27.456 18.2654Z" fill="#FF7029"/>
<path d="M6.10753 26.6481V16.1734C6.10753 15.6307 5.65212 15.1866 5.09551 15.1866H0V16.1734H5.09551V26.653H0V27.6398H5.09551C5.65212 27.6349 6.10753 27.1908 6.10753 26.6481Z" fill="#FF7029"/>
<path d="M3.76471 25.1137C3.76471 25.4936 3.44592 25.8044 3.05629 25.8044C2.66161 25.8044 2.34282 25.4936 2.34282 25.1137C2.34282 24.7288 2.66161 24.418 3.05629 24.418C3.44592 24.418 3.76471 24.7288 3.76471 25.1137Z" fill="#FF7029"/>
<path d="M11.9722 11.7427L12.5187 12.1374L16.2834 10.1047L19.6888 12.1029L19.9823 12.2707L20.5288 11.8858L19.709 7.77092L22.7198 5.22502L22.9627 4.99806L22.7502 4.38626L18.4896 3.87313L16.9412 0.300969L16.7995 0.0049338L16.4756 0H16.1316L14.315 3.80405L10.3479 4.12969L10.0089 4.16916L9.80645 4.7859L12.9488 7.64264L11.9722 11.7427ZM11.5421 5.02273L14.6894 4.7563L14.988 4.72176L16.4402 1.68247L17.6698 4.5096L17.7963 4.78097L21.217 5.19048L18.8488 7.19366L18.611 7.39101L19.2688 10.6967L16.5566 9.10308L16.2985 8.96987L13.2979 10.5931L14.0013 7.63278L14.0873 7.32687L11.5421 5.02273Z" fill="#FF7029"/>
<path d="M5.31815 9.92212L4.58444 12.9959L4.48324 13.3512L5.05503 13.7607L8.20746 12.0585L10.9905 13.6867L11.3042 13.8791L11.8659 13.4795L11.1777 10.0307L11.9114 9.41392L11.2486 8.6689L10.272 9.49286L10.1252 9.66062V9.85798L10.6009 12.3101L8.54649 11.1013L8.44023 11.0026L8.01012 10.9928L7.90892 11.0915L5.80898 12.2263L6.37571 9.82837V9.53727L4.40734 7.75119L6.81594 7.54397L7.0487 7.53903L7.26123 7.33181L8.33903 5.07207L9.31056 7.30714L9.46743 7.59824H9.75079L10.9703 7.74626L11.0968 6.76441L10.1202 6.65093L8.83491 3.69057L8.66287 3.3748L7.96458 3.42908L7.86844 3.72018L6.50221 6.58678L3.284 6.85815L2.88425 6.87789L2.67173 7.59824L2.95003 7.77586L5.31815 9.92212Z" fill="#FF7029"/>
<path d="M21.9507 6.65093L22.0417 7.63278L23.0183 7.54397L23.246 7.5341L23.4586 7.32687L24.5364 5.06714L25.4624 7.19366L25.4725 7.5933H25.9481L28.3618 7.88441L26.4845 9.47313L26.3175 9.64582V9.85798L26.7982 12.3052L24.7388 11.1013L24.6325 10.9977L24.1872 11.0026L24.0961 11.0964L22.0063 12.2263L22.5781 9.82837L22.5731 9.53727L21.2777 8.35806L20.5844 9.07842L21.5104 9.92212L20.7818 12.9959L20.6806 13.3265L21.2321 13.7706L24.4048 12.0585L27.1929 13.6916L27.5066 13.8791L28.0582 13.4745L27.37 10.0307L29.8039 7.97322C29.9709 7.84493 30.0417 7.62784 29.9861 7.43049L29.8697 7.08018L26.3175 6.65586L25.0221 3.68564L24.8703 3.41427L24.2682 3.39454L24.1113 3.6363L22.6945 6.58678L21.9507 6.65093Z" fill="#FF7029"/>
</svg>
