<svg width="34" height="34" viewBox="0 0 34 34" fill="none" xmlns="http://www.w3.org/2000/svg">
<path fill-rule="evenodd" clip-rule="evenodd" d="M30.8767 10.7614C31.7605 12.7268 32.2094 14.8244 32.2094 16.9955C32.2094 21.059 30.627 24.8793 27.7549 27.7527C24.8819 30.6261 21.0629 32.2085 17.0001 32.2085C15.3063 32.2085 13.6536 31.9341 12.0728 31.3922L12.9673 32.9417C13.1001 33.172 13.0211 33.4668 12.7905 33.5999C12.7151 33.6437 12.6325 33.6644 12.5502 33.6644C12.3838 33.6644 12.2222 33.5782 12.1328 33.4237L10.5475 30.6776C10.4844 30.5668 10.4665 30.4353 10.4996 30.3118C10.5326 30.1881 10.6136 30.0831 10.7246 30.0193L13.4694 28.4336C13.7 28.3005 13.9944 28.3795 14.1278 28.6102C14.2609 28.8406 14.1816 29.1354 13.951 29.2685L12.0564 30.3631C13.6352 30.9485 15.2954 31.2446 17.0002 31.2446C24.8552 31.2446 31.246 24.8525 31.246 16.9955C31.246 14.9618 30.8259 12.9971 29.9978 11.1567C29.8894 10.9141 29.9972 10.6287 30.2401 10.5195C30.4825 10.4103 30.7682 10.5185 30.8767 10.7614ZM29.7091 0H28.6044C28.2359 0.0561077 27.9522 0.375405 27.9522 0.759691C27.9522 1.05868 27.7239 1.17695 27.6536 1.20573C27.5833 1.23492 27.3385 1.31326 27.127 1.10143C26.8271 0.802098 26.3397 0.802099 26.0405 1.10178L25.4238 1.71855C25.1242 2.01822 25.1242 2.50605 25.4238 2.80573C25.635 3.01694 25.5566 3.26216 25.5278 3.33211C25.4987 3.4024 25.3811 3.63109 25.0816 3.63109C24.6583 3.63109 24.3137 3.9758 24.3137 4.39946V5.27219C24.3137 5.69592 24.6583 6.04063 25.0816 6.04063C25.3812 6.04063 25.4987 6.26932 25.5278 6.33961C25.5567 6.40956 25.635 6.65478 25.4238 6.86634C25.1242 7.16601 25.1242 7.65322 25.4238 7.95283L26.0405 8.56994C26.1855 8.71507 26.3783 8.79506 26.5833 8.79506C26.7893 8.79506 26.982 8.71507 27.1271 8.56994C27.3392 8.35777 27.5844 8.43618 27.6537 8.46496C27.7239 8.49415 27.9522 8.61208 27.9522 8.91203C27.9522 9.33576 28.2971 9.68046 28.7205 9.68046H29.5933C30.0165 9.68046 30.3614 9.33576 30.3614 8.91203C30.3614 8.6127 30.5897 8.49477 30.66 8.46599C30.7303 8.4368 30.9752 8.35846 31.1866 8.56994C31.3317 8.71507 31.5244 8.79506 31.7303 8.79506C31.9354 8.79506 32.128 8.71507 32.2732 8.56994L32.8901 7.95283C33.1894 7.65315 33.1894 7.16595 32.8901 6.86599C32.6786 6.65478 32.757 6.40956 32.7858 6.33961C32.815 6.26932 32.9326 6.04063 33.2321 6.04063C33.655 6.04063 34 5.69592 34 5.27219V4.39946C34 3.97573 33.6551 3.63109 33.2321 3.63109C32.9325 3.63109 32.815 3.4024 32.7858 3.33211C32.757 3.26209 32.6786 3.01687 32.8901 2.80573C33.1894 2.50605 33.1894 2.01822 32.8901 1.71855L32.2732 1.10143C31.9739 0.802098 31.4858 0.802099 31.1866 1.10178C30.9751 1.31333 30.7303 1.23492 30.66 1.20573C30.5897 1.17688 30.3614 1.05868 30.3614 0.759691C30.3614 0.375336 30.0777 0.0561077 29.7091 0ZM3.12319 23.2298C3.20386 23.4087 3.37937 23.5143 3.56299 23.5143C3.62907 23.5143 3.69576 23.5007 3.75991 23.4719C4.00279 23.3627 4.11099 23.0773 4.00217 22.8346C3.1744 20.9943 2.75436 19.0296 2.75436 16.9955C2.75436 9.13887 9.1448 2.7468 17.0001 2.7468C18.705 2.7468 20.3651 3.04289 21.9445 3.62827L20.049 4.72289C19.8184 4.85603 19.7394 5.15082 19.8728 5.38117C20.0056 5.6118 20.3003 5.6909 20.5309 5.55741L23.2763 3.97201C23.387 3.90819 23.4677 3.80293 23.5007 3.67949C23.5337 3.55606 23.5165 3.42456 23.4525 3.31379L21.8675 0.56803C21.7347 0.337403 21.44 0.258302 21.2094 0.391514C20.9788 0.524658 20.8998 0.819447 21.0326 1.04973L21.9274 2.5992C20.3473 2.05726 18.694 1.78319 17.0001 1.78319C12.9379 1.78319 9.11796 3.36536 6.24598 6.23869C3.37331 9.11209 1.79093 12.9324 1.79093 16.9957C1.79086 19.1669 2.23967 21.2644 3.12319 23.2298ZM4.84323 30.7696C3.95324 30.7696 3.22939 30.0456 3.22939 29.1554C3.22939 28.2655 3.95324 27.5411 4.84323 27.5411C5.73322 27.5411 6.45707 28.2655 6.45707 29.1554C6.45707 30.0456 5.73322 30.7696 4.84323 30.7696ZM4.84323 26.5775C3.42176 26.5775 2.26562 27.734 2.26562 29.1555C2.26562 30.577 3.42183 31.7335 4.84323 31.7335C6.26435 31.7335 7.42084 30.577 7.42084 29.1555C7.42084 27.734 6.26435 26.5775 4.84323 26.5775ZM8.72283 29.4087V28.9021C8.21241 28.8357 7.78493 28.5108 7.58251 28.0206C7.37948 27.5308 7.45167 26.9986 7.76649 26.5904L7.40763 26.2322C6.99955 26.5467 6.46746 26.6189 5.97742 26.4158C5.48806 26.213 5.16258 25.7858 5.09651 25.2745H4.59002C4.52395 25.7857 4.19915 26.213 3.70911 26.4158C3.21914 26.6189 2.68697 26.5467 2.2789 26.2322L1.92101 26.5904C2.23547 26.9986 2.30767 27.5308 2.10464 28.0206C1.9016 28.5107 1.47405 28.8357 0.96336 28.9021V29.4087C1.47405 29.4748 1.9016 29.8 2.10464 30.2902C2.30767 30.7804 2.23547 31.3123 1.92101 31.7204L2.2789 32.0787C2.68759 31.7638 3.21976 31.6916 3.70911 31.8943C4.19915 32.0972 4.52395 32.5247 4.59002 33.0363H5.09651C5.16258 32.5251 5.48806 32.0978 5.97742 31.895C6.46739 31.6918 6.99955 31.7644 7.40763 32.0786L7.76649 31.7204C7.45167 31.3122 7.37948 30.7803 7.58251 30.2901C7.78486 29.8 8.21241 29.4751 8.72283 29.4087ZM8.91843 27.9506C8.61986 27.9506 8.50127 27.7219 8.4725 27.6519C8.44367 27.5816 8.365 27.3364 8.5765 27.1252C8.87576 26.8255 8.87576 26.338 8.5765 26.0384L7.95982 25.4212C7.66022 25.1216 7.17286 25.1216 6.87291 25.4212C6.66176 25.6328 6.4166 25.5544 6.34667 25.5252C6.2764 25.4964 6.04776 25.3781 6.04776 25.0792C6.04776 24.6554 5.70287 24.3108 5.27959 24.3108H4.40763C3.98366 24.3108 3.63877 24.6555 3.63877 25.0792C3.63877 25.3781 3.41048 25.4964 3.3402 25.5252C3.26993 25.5543 3.02477 25.6327 2.81361 25.4212C2.51401 25.1216 2.02693 25.1216 1.72671 25.4212L1.1101 26.0384C0.965012 26.1835 0.885036 26.3762 0.885036 26.5816C0.885036 26.787 0.965081 26.9801 1.1101 27.1252C1.3216 27.3364 1.24355 27.5816 1.21409 27.6519C1.18526 27.7219 1.0677 27.9506 0.768169 27.9506C0.344888 27.9506 0 28.2953 0 28.719V29.5917C0 30.0155 0.344888 30.3602 0.768169 30.3602C1.06777 30.3602 1.18532 30.5889 1.21409 30.6591C1.24355 30.7291 1.3216 30.9743 1.1101 31.1855C0.965012 31.3307 0.885036 31.5237 0.885036 31.7291C0.885036 31.9345 0.965081 32.1272 1.1101 32.2724L1.72671 32.8895C1.87214 33.0346 2.06547 33.1146 2.27051 33.1146C2.47582 33.1146 2.66853 33.0346 2.81361 32.8895C3.02574 32.6773 3.27055 32.7556 3.34082 32.7845C3.41048 32.8137 3.63877 32.9316 3.63877 33.2316C3.63877 33.6553 3.98366 34 4.40763 34H5.27952C5.7028 34 6.04769 33.6553 6.04769 33.2316C6.04769 32.9326 6.27633 32.8143 6.3466 32.7855C6.4166 32.7564 6.66176 32.678 6.87285 32.8895C7.01793 33.0347 7.21161 33.1147 7.41664 33.1147C7.62168 33.1147 7.81432 33.0347 7.95975 32.8895L8.57643 32.2724C8.87569 31.9728 8.87569 31.4853 8.57643 31.1859C8.36493 30.9743 8.4436 30.7291 8.47243 30.6591C8.50127 30.5889 8.61979 30.3602 8.91836 30.3602C9.34233 30.3602 9.68653 30.0155 9.68653 29.5917V28.719C9.6866 28.2953 9.34233 27.9506 8.91843 27.9506ZM29.157 6.45004C28.267 6.45004 27.5429 5.72601 27.5429 4.83579C27.5429 3.94557 28.2671 3.22154 29.157 3.22154C30.0466 3.22154 30.7707 3.94557 30.7707 4.83579C30.7707 5.72601 30.0466 6.45004 29.157 6.45004ZM29.157 2.25787C30.5781 2.25787 31.7343 3.41437 31.7343 4.83579C31.7343 6.25728 30.5781 7.41378 29.157 7.41378C27.7355 7.41378 26.5794 6.25728 26.5794 4.83579C26.5793 3.41437 27.7355 2.25787 29.157 2.25787ZM33.0365 5.08914C32.5257 5.15557 32.0983 5.48044 31.8952 5.97061C31.6932 6.46071 31.7647 6.99267 32.0792 7.40084L31.7213 7.7591C31.3132 7.44456 30.7811 7.37227 30.2911 7.57543C29.8011 7.77852 29.4763 8.20549 29.4102 8.71672H28.9036C28.8376 8.20521 28.5127 7.77762 28.0224 7.57481C27.5324 7.37172 27.0013 7.44428 26.5922 7.75917L26.2343 7.40091C26.5488 6.99273 26.6204 6.4605 26.418 5.97068C26.2152 5.48058 25.7877 5.15529 25.277 5.0892V4.58258C25.7877 4.51615 26.2152 4.19128 26.418 3.70111C26.6204 3.21101 26.5488 2.67905 26.2343 2.27088L26.5922 1.91262C27.0003 2.22716 27.5324 2.29938 28.0224 2.09629C28.5128 1.89348 28.8376 1.46623 28.9036 0.955069H29.4102C29.4763 1.46623 29.8011 1.89355 30.2911 2.09629C30.7811 2.29938 31.3132 2.22716 31.7213 1.91262L32.0792 2.27088C31.7647 2.67905 31.6932 3.21094 31.8952 3.70111C32.0983 4.19121 32.5258 4.51615 33.0365 4.58258V5.08914ZM17.0001 20.8436C19.1211 20.8436 20.8466 19.1173 20.8466 16.9955C20.8466 14.8739 19.1211 13.1476 17.0001 13.1476C14.8788 13.1476 13.1532 14.874 13.1532 16.9955C13.1532 19.1173 14.8788 20.8436 17.0001 20.8436ZM17.0001 12.1839C14.3473 12.1839 12.1897 14.3424 12.1897 16.9955C12.1897 19.6489 14.3473 21.8074 17.0001 21.8074C19.6525 21.8074 21.8104 19.6489 21.8104 16.9955C21.8104 14.3424 19.6525 12.1839 17.0001 12.1839ZM25.4173 15.9844C24.3981 15.9844 23.522 15.3984 23.1318 14.4551C22.7409 13.512 22.9459 12.478 23.6671 11.7572C23.7099 11.7141 23.7099 11.6445 23.6671 11.6014L22.3924 10.327C22.3499 10.2842 22.2803 10.2842 22.2369 10.327C21.5163 11.0481 20.4825 11.2531 19.5398 10.8624C18.5966 10.4718 18.0111 9.59551 18.0111 8.576C18.0111 8.51542 17.9616 8.46585 17.9007 8.46585H16.099C16.0384 8.46585 15.9889 8.51542 15.9889 8.576C15.9889 9.59544 15.403 10.4718 14.4602 10.8624C13.5172 11.2531 12.4837 11.048 11.7631 10.327C11.7203 10.2842 11.6501 10.2842 11.6073 10.327L10.3332 11.6014C10.2898 11.6445 10.2898 11.7142 10.3332 11.7572C11.0538 12.478 11.2591 13.512 10.8682 14.4551C10.478 15.3984 9.6016 15.9844 8.58235 15.9844C8.52178 15.9844 8.47223 16.034 8.47223 16.0946V17.8967C8.47223 17.9576 8.52178 18.0068 8.58235 18.0068C9.60153 18.0068 10.4779 18.5928 10.8682 19.5359C11.2591 20.4792 11.0538 21.5133 10.3332 22.234C10.3067 22.2609 10.3008 22.291 10.3008 22.3117C10.3008 22.3328 10.3067 22.3632 10.3332 22.3898L11.6073 23.6641C11.6335 23.6907 11.6646 23.6962 11.685 23.6962C11.7057 23.6962 11.7358 23.6907 11.763 23.6641C12.2427 23.184 12.8606 22.9323 13.4973 22.9323C13.8186 22.9323 14.145 22.9965 14.4608 23.1274C15.4036 23.5177 15.9888 24.3943 15.9888 25.415C15.9888 25.4756 16.0384 25.5252 16.0989 25.5252H17.9006C17.9615 25.5252 18.0111 25.4756 18.0111 25.415C18.0111 24.3956 18.5966 23.5196 19.5397 23.1287C20.4825 22.738 21.5162 22.9431 22.2368 23.6641C22.2803 23.7069 22.3499 23.7069 22.3923 23.6641L23.6671 22.3898C23.7098 22.3467 23.7098 22.277 23.6671 22.2339C22.9458 21.5131 22.7408 20.4791 23.1317 19.5361C23.522 18.5928 24.3981 18.0067 25.4172 18.0067C25.4781 18.0067 25.5277 17.9575 25.5277 17.8966V16.0944C25.5278 16.034 25.4782 15.9844 25.4173 15.9844ZM24.3479 10.9199L23.0738 9.64549C22.6553 9.22699 21.9746 9.22699 21.5555 9.64549C21.0295 10.1716 20.3601 10.1593 19.9086 9.97202C19.4572 9.78476 18.9746 9.31993 18.9746 8.57614C18.9746 7.98395 18.4927 7.50225 17.9007 7.50225H16.099C15.507 7.50225 15.0254 7.98395 15.0254 8.57614C15.0254 9.31993 14.5428 9.78476 14.0913 9.97202C13.6399 10.1592 12.9702 10.1719 12.4442 9.64549C12.0257 9.22699 11.3443 9.22699 10.9259 9.64549L9.65212 10.9199C9.44908 11.123 9.33731 11.3925 9.33731 11.6795C9.33731 11.9661 9.44901 12.2357 9.65212 12.4388C10.1777 12.9646 10.1654 13.6348 9.97822 14.0864C9.79101 14.5379 9.32629 15.0207 8.58235 15.0207C7.99031 15.0207 7.50873 15.5024 7.50873 16.0946V17.8967C7.50873 18.4889 7.99031 18.9706 8.58235 18.9706C9.32629 18.9706 9.79101 19.4532 9.97822 19.9049C10.1654 20.3564 10.1777 21.0267 9.65212 21.5524C9.44908 21.7552 9.33731 22.025 9.33731 22.3118C9.33731 22.5988 9.44901 22.8683 9.65212 23.0715L10.9259 24.3459C11.1283 24.5486 11.3981 24.6601 11.685 24.6601C11.9723 24.6601 12.2411 24.5486 12.4442 24.3459C12.9708 23.8188 13.6405 23.8308 14.092 24.0177C14.5435 24.205 15.0254 24.6702 15.0254 25.4152C15.0254 26.0074 15.507 26.4891 16.099 26.4891H17.9007C18.4927 26.4891 18.9746 26.0074 18.9746 25.4152C18.9746 24.6714 19.4572 24.2066 19.9086 24.0193C20.3601 23.8321 21.0295 23.8197 21.5555 24.3458C21.7585 24.5486 22.0283 24.66 22.3146 24.66C22.6016 24.66 22.8716 24.5486 23.0738 24.3458L24.3485 23.0714C24.7669 22.6526 24.7669 21.9713 24.3479 21.5527C23.8219 21.0266 23.8352 20.3563 24.0217 19.9048C24.2089 19.4532 24.6734 18.9705 25.4172 18.9705C26.0093 18.9705 26.4912 18.4888 26.4912 17.8966V16.0945C26.4912 15.5023 26.0093 15.0206 25.4172 15.0206C24.6733 15.0206 24.2089 14.5379 24.0217 14.0863C23.8352 13.6347 23.8219 12.9645 24.3485 12.4384C24.767 12.02 24.767 11.3387 24.3479 10.9199Z" fill="#FF7029"/>
</svg>
