<svg width="32" height="32" viewBox="0 0 32 32" fill="none" xmlns="http://www.w3.org/2000/svg">
<path d="M16 15.992C17.0548 15.992 18.086 15.6792 18.963 15.0932C19.8401 14.5071 20.5237 13.6742 20.9274 12.6996C21.331 11.7251 21.4366 10.6528 21.2309 9.61819C21.0251 8.58362 20.5171 7.63331 19.7712 6.88743C19.0254 6.14155 18.075 5.6336 17.0405 5.42781C16.0059 5.22202 14.9336 5.32764 13.959 5.73131C12.9845 6.13498 12.1515 6.81856 11.5655 7.69563C10.9795 8.57269 10.6667 9.60383 10.6667 10.6587C10.6667 12.0732 11.2286 13.4297 12.2288 14.4299C13.229 15.4301 14.5855 15.992 16 15.992ZM16 7.992C16.5274 7.992 17.043 8.1484 17.4815 8.44142C17.9201 8.73443 18.2618 9.15091 18.4637 9.63818C18.6655 10.1254 18.7183 10.6616 18.6154 11.1789C18.5125 11.6962 18.2586 12.1713 17.8856 12.5443C17.5127 12.9172 17.0375 13.1712 16.5202 13.2741C16.003 13.377 15.4668 13.3242 14.9795 13.1223C14.4922 12.9205 14.0758 12.5787 13.7827 12.1402C13.4897 11.7017 13.3333 11.1861 13.3333 10.6587C13.3333 9.95142 13.6143 9.27315 14.1144 8.77305C14.6145 8.27295 15.2928 7.992 16 7.992ZM21.3333 29.3653L32 31.9627V17.9693C31.9997 17.1105 31.723 16.2746 31.2108 15.5852C30.6987 14.8958 29.9782 14.3895 29.156 14.1413L26.356 13.208C26.5607 12.3763 26.665 11.5231 26.6667 10.6667C26.6667 7.83769 25.5429 5.12458 23.5425 3.12419C21.5421 1.12381 18.829 0 16 0C13.171 0 10.4579 1.12381 8.45753 3.12419C6.45714 5.12458 5.33334 7.83769 5.33334 10.6667C5.33728 11.2079 5.38185 11.7481 5.46667 12.2827C4.86116 12.0413 4.20572 11.9519 3.5577 12.0225C2.90967 12.093 2.2888 12.3212 1.7494 12.6872C1.20999 13.0532 0.768497 13.5459 0.463528 14.122C0.158559 14.6981 -0.000590947 15.3401 1.64885e-06 15.992V28.9947L10.644 32.036L21.3333 29.3653ZM10.3427 5.01067C11.8457 3.52901 13.8733 2.70129 15.9838 2.70784C18.0943 2.71439 20.1167 3.55466 21.6105 5.04562C23.1042 6.53657 23.9483 8.55741 23.9589 10.6679C23.9694 12.7784 23.1455 14.8076 21.6667 16.3133L16 21.8587L10.3427 16.324C8.84249 14.8237 7.99971 12.789 7.99971 10.6673C7.99971 8.5457 8.84249 6.51094 10.3427 5.01067ZM2.66667 15.992C2.66498 15.7721 2.71855 15.5553 2.82245 15.3615C2.92635 15.1676 3.07726 15.003 3.26134 14.8827C3.45389 14.7563 3.67571 14.6816 3.90547 14.6657C4.13524 14.6498 4.36523 14.6933 4.57334 14.792L6.48534 15.4827C6.99688 16.4957 7.66611 17.421 8.468 18.224L16 25.592L23.5427 18.2147C24.2843 17.4741 24.9133 16.6286 25.4093 15.7053L28.3653 16.6933C28.6438 16.773 28.8887 16.9411 29.0631 17.1723C29.2375 17.4034 29.3319 17.6851 29.332 17.9747V28.5733L21.3333 26.6187L10.6933 29.2853L2.66667 26.9867V15.992Z" fill="#FF5E14"/>
</svg>
