<svg width="32" height="32" viewBox="0 0 32 32" fill="none" xmlns="http://www.w3.org/2000/svg">
<path d="M25.3333 5.1905H23.8667C23.5572 3.67532 22.7384 2.31389 21.5483 1.33567C20.3582 0.357452 18.8696 -0.177735 17.3333 -0.179687L14.6667 -0.179688C13.1304 -0.177735 11.6418 0.357452 10.4517 1.33567C9.26157 2.31389 8.4428 3.67532 8.13333 5.1905H6.66667C4.89921 5.19263 3.20474 5.90055 1.95496 7.15897C0.705176 8.41739 0.00211714 10.1236 0 11.9032L0 25.3287C0.00211714 27.1084 0.705176 28.8145 1.95496 30.073C3.20474 31.3314 4.89921 32.0393 6.66667 32.0414H25.3333C27.1008 32.0393 28.7953 31.3314 30.045 30.073C31.2948 28.8145 31.9979 27.1084 32 25.3287V11.9032C31.9979 10.1236 31.2948 8.41739 30.045 7.15897C28.7953 5.90055 27.1008 5.19263 25.3333 5.1905ZM14.6667 2.50541H17.3333C18.1577 2.50885 18.9608 2.76866 19.6329 3.24929C20.305 3.72993 20.8132 4.40792 21.088 5.1905H10.912C11.1868 4.40792 11.695 3.72993 12.3671 3.24929C13.0392 2.76866 13.8423 2.50885 14.6667 2.50541ZM6.66667 7.87559H25.3333C26.3942 7.87559 27.4116 8.29993 28.1618 9.05526C28.9119 9.81059 29.3333 10.835 29.3333 11.9032V15.9309H2.66667V11.9032C2.66667 10.835 3.08809 9.81059 3.83824 9.05526C4.58839 8.29993 5.6058 7.87559 6.66667 7.87559ZM25.3333 29.3563H6.66667C5.6058 29.3563 4.58839 28.932 3.83824 28.1767C3.08809 27.4213 2.66667 26.3969 2.66667 25.3287V18.616H14.6667V19.9585C14.6667 20.3146 14.8071 20.6561 15.0572 20.9078C15.3072 21.1596 15.6464 21.3011 16 21.3011C16.3536 21.3011 16.6928 21.1596 16.9428 20.9078C17.1929 20.6561 17.3333 20.3146 17.3333 19.9585V18.616H29.3333V25.3287C29.3333 26.3969 28.9119 27.4213 28.1618 28.1767C27.4116 28.932 26.3942 29.3563 25.3333 29.3563Z" fill="#FF5E14"/>
</svg>
