<svg width="32" height="32" viewBox="0 0 32 32" fill="none" xmlns="http://www.w3.org/2000/svg">
<path d="M10.6667 14.5883H6.66667C5.93067 14.5883 5.33333 13.9869 5.33333 13.2458C5.33333 12.5047 5.93067 11.9032 6.66667 11.9032H10.6667C11.4027 11.9032 12 12.5047 12 13.2458C12 13.9869 11.4027 14.5883 10.6667 14.5883ZM31.6787 31.5729C31.4147 31.8817 31.0413 32.0414 30.6653 32.0414C30.3587 32.0414 30.0493 31.9354 29.7987 31.7179L26.4533 28.8301C25.0653 29.9954 23.2813 30.6975 21.3333 30.6975C16.9147 30.6975 13.3333 27.0915 13.3333 22.6423C13.3333 18.1931 16.9147 14.587 21.3333 14.587C25.752 14.587 29.3333 18.1931 29.3333 22.6423C29.3333 24.1593 28.9093 25.5744 28.184 26.7867L31.5347 29.6785C32.0933 30.1605 32.1587 31.0104 31.6787 31.5729ZM22.6387 25.7664L26.2427 22.2569C26.7733 21.7428 26.7907 20.8929 26.2813 20.3586C25.7707 19.8229 24.9253 19.8081 24.396 20.3197L20.7787 23.8425C20.588 24.0318 20.2733 24.0358 20.0827 23.8452L18.2773 22.0583C17.7493 21.5373 16.9067 21.5467 16.392 22.077C15.876 22.6074 15.884 23.4558 16.4107 23.9754L18.216 25.7637C18.8293 26.3665 19.632 26.6686 20.4333 26.6686C21.2347 26.6686 22.0347 26.3665 22.6373 25.7677L22.6387 25.7664ZM14.6667 30.6989C14.6667 31.44 14.0693 32.0414 13.3333 32.0414H6.66667C2.99067 32.0414 0 29.0301 0 25.3287V6.53304C0 2.83164 2.99067 -0.179688 6.66667 -0.179688H12.6867C15.18 -0.179688 17.5227 0.797686 19.2867 2.57253L23.9333 7.25131C25.1173 8.44349 25.9613 9.9364 26.3773 11.5703C26.48 11.9717 26.392 12.3986 26.1387 12.7262C25.8853 13.0538 25.4973 13.2458 25.0853 13.2458H17.3347C15.1293 13.2458 13.3347 11.4387 13.3347 9.21814V2.53628C13.1213 2.51615 12.9053 2.50541 12.688 2.50541H6.668C4.46267 2.50541 2.668 4.31247 2.668 6.53304V25.3287C2.668 27.5493 4.46267 29.3563 6.668 29.3563H13.3347C14.0707 29.3563 14.668 29.9578 14.668 30.6989H14.6667ZM16 9.21814C16 9.95788 16.5987 10.5607 17.3333 10.5607H23.1173C22.8253 10.0478 22.4653 9.57257 22.0467 9.15101L17.4 4.47224C16.976 4.04531 16.5053 3.68416 16 3.39014V9.21814ZM9.33333 17.2734H6.66667C5.93067 17.2734 5.33333 17.8749 5.33333 18.616C5.33333 19.357 5.93067 19.9585 6.66667 19.9585H9.33333C10.0693 19.9585 10.6667 19.357 10.6667 18.616C10.6667 17.8749 10.0693 17.2734 9.33333 17.2734ZM9.33333 22.6436H6.66667C5.93067 22.6436 5.33333 23.2451 5.33333 23.9861C5.33333 24.7272 5.93067 25.3287 6.66667 25.3287H9.33333C10.0693 25.3287 10.6667 24.7272 10.6667 23.9861C10.6667 23.2451 10.0693 22.6436 9.33333 22.6436Z" fill="#FF5E14"/>
</svg>
