<svg width="38" height="32" viewBox="0 0 38 32" fill="none" xmlns="http://www.w3.org/2000/svg">
<path fill-rule="evenodd" clip-rule="evenodd" d="M20.8374 8.14089C20.8366 7.10649 21.0919 6.08732 21.5815 5.17076C22.0711 4.2542 22.7803 3.4676 23.6484 2.8784C24.5166 2.2892 25.5176 1.91498 26.5658 1.78783C27.614 1.66067 28.6781 1.78438 29.6667 2.14834C30.6554 2.5123 31.5392 3.10565 32.2423 3.87752C32.9455 4.6494 33.447 5.57676 33.7038 6.5801C33.9607 7.58344 33.9653 8.63283 33.7172 9.63829C33.4691 10.6437 32.9757 11.5753 32.2793 12.353C32.1213 11.5366 31.7543 10.7728 31.2127 10.1332C30.6711 9.49361 29.9726 8.99909 29.1826 8.69599C29.6042 8.33453 29.9032 7.85572 30.0397 7.32349C30.1762 6.79125 30.1437 6.2309 29.9466 5.71721C29.7495 5.20353 29.397 4.76095 28.9363 4.44854C28.4757 4.13614 27.9286 3.96877 27.3683 3.96877C26.808 3.96877 26.261 4.13614 25.8003 4.44854C25.3396 4.76095 24.9872 5.20353 24.79 5.71721C24.5929 6.2309 24.5604 6.79125 24.6969 7.32349C24.8334 7.85572 25.1324 8.33453 25.554 8.69599C24.7641 8.99917 24.0657 9.49371 23.5241 10.1333C22.9826 10.7729 22.6156 11.5366 22.4576 12.353C21.4124 11.1887 20.8363 9.69121 20.8372 8.14089H20.8374ZM35.6812 8.14089C35.6812 6.53077 35.1937 4.95682 34.2803 3.61805C33.3669 2.27929 32.0686 1.23586 30.5497 0.619691C29.0308 0.00352731 27.3595 -0.157689 25.747 0.156428C24.1345 0.470546 22.6534 1.24589 21.4909 2.38441C20.3283 3.52294 19.5366 4.9735 19.2159 6.55268C18.8952 8.13186 19.0598 9.76872 19.6889 11.2563C20.3181 12.7438 21.3835 14.0153 22.7505 14.9098C24.1175 15.8043 25.7246 16.2818 27.3687 16.2818C29.5725 16.2793 31.6854 15.4209 33.2438 13.8947C34.8021 12.3685 35.6787 10.2992 35.6812 8.14089ZM36.16 18.9181L27.2132 27.3968C27.0408 27.5684 26.8308 27.6994 26.5991 27.7798C26.3674 27.8603 26.1201 27.8881 25.8758 27.8612L11.3193 26.5998C11.1895 26.5884 11.0586 26.6048 10.9359 26.648L9.20253 27.2659L7.90371 19.8228L13.4353 17.8936C13.6936 17.7989 13.9725 17.7712 14.245 17.8131L24.1298 19.1726C24.9649 19.3455 25.4591 20.0585 25.4583 20.292C25.3792 20.3398 25.104 20.4285 24.5351 20.3813C24.5118 20.3798 24.489 20.3787 24.4656 20.3787L17.8046 20.3372H17.7913C16.7419 20.3372 15.8893 21.0725 15.8044 22.0526C15.7839 22.3037 15.8145 22.5564 15.8945 22.7958C15.9745 23.0353 16.1023 23.2568 16.2705 23.4474C16.4333 23.6338 16.6328 23.7859 16.8572 23.8947C17.0815 24.0035 17.3261 24.0667 17.576 24.0804L25.1746 24.511C25.9998 24.5657 26.817 24.3238 27.4733 23.8307L35.2158 18.1272C35.3328 18.0509 35.4721 18.0141 35.6124 18.0223C35.7528 18.0306 35.8865 18.0835 35.9933 18.173C36.1002 18.2624 36.1743 18.3836 36.2044 18.5181C36.2345 18.6526 36.219 18.7931 36.1602 18.9181H36.16ZM37.6272 19.9204C37.5888 19.9794 37.5434 20.0338 37.492 20.0824L28.4519 28.6505C28.1362 28.9576 27.7618 29.2007 27.3501 29.3659C26.9384 29.5311 26.4974 29.6152 26.0525 29.6133C25.9422 29.6133 25.8313 29.6086 25.7185 29.5987L11.359 28.3545L9.50743 29.0135L9.68555 30.0334C9.70543 30.1463 9.70237 30.2619 9.67655 30.3736C9.65074 30.4853 9.60267 30.5909 9.53511 30.6844C9.46754 30.7779 9.38181 30.8574 9.28281 30.9184C9.18382 30.9794 9.07351 31.0206 8.95821 31.0398L3.29918 31.9871C3.24947 31.9957 3.19908 32 3.14859 32C2.93841 31.9997 2.73509 31.9267 2.57453 31.7938C2.41396 31.661 2.30647 31.4769 2.27103 31.274L0.0126255 18.3308C-0.0269813 18.1027 0.0274467 17.8686 0.163958 17.6798C0.300469 17.491 0.507903 17.363 0.740711 17.3239L6.39907 16.3766C6.63192 16.3379 6.87092 16.3913 7.06367 16.5249C7.25641 16.6586 7.38716 16.8617 7.42722 17.0896L7.59904 18.0768L12.8369 16.2499C13.366 16.0596 13.9355 16.0028 14.4928 16.0848L24.4045 17.4485C24.4212 17.4503 24.4379 17.4533 24.4543 17.4573C26.0901 17.7746 27.4082 19.2527 27.2211 20.557C27.1612 20.9714 26.7832 22.303 24.4214 22.1228L17.7942 22.0812H17.7922C17.7079 22.0812 17.5869 22.1175 17.58 22.1986C17.5787 22.2176 17.5812 22.2366 17.5875 22.2547C17.5938 22.2727 17.6037 22.2893 17.6166 22.3035C17.6241 22.3133 17.6335 22.3215 17.6444 22.3276C17.6553 22.3337 17.6673 22.3375 17.6797 22.3388L25.2783 22.7687C25.6824 22.8 26.0837 22.6812 26.4024 22.4359L34.1612 16.7215C34.1702 16.7147 34.1792 16.7084 34.1887 16.7017C34.6484 16.3893 35.2041 16.242 35.7619 16.2847C36.3197 16.3275 36.8453 16.5576 37.2498 16.9362C37.6542 17.3148 37.9127 17.8186 37.9816 18.3624C38.0504 18.9062 37.9253 19.4565 37.6274 19.9204H37.6272Z" fill="#FF5E14"/>
</svg>
