<svg width="40" height="43" viewBox="0 0 40 43" fill="none" xmlns="http://www.w3.org/2000/svg">
<g clip-path="url(#clip0_0_5777)">
<path d="M10.5017 2.05469L10.3281 6.10909L13.7273 4.31709L10.5017 2.05469Z" fill="white"/>
<path d="M29.2011 40.5327L29.3355 36.4727L25.9531 38.3039L29.2011 40.5327Z" fill="white"/>
<path d="M10.6641 36.4727L10.7985 40.5327L14.0465 38.3039L10.6641 36.4727Z" fill="white"/>
<path d="M19.7927 -0.386719L17.8887 3.15248H21.6967L19.7927 -0.386719Z" fill="white"/>
<path d="M-0.216797 16.8881L2.6896 19.5873L3.5016 15.6953L-0.216797 16.8881Z" fill="white"/>
<path d="M7.50006 8.66796L3.66406 8.03516L5.13686 11.7928L7.50006 8.66796Z" fill="white"/>
<path d="M2.83569 23.6328L-0.0371094 26.3712L3.69249 27.5136L2.83569 23.6328Z" fill="white"/>
<path d="M7.87116 34.2364L5.50236 31.1172L4.03516 34.8748L7.87116 34.2364Z" fill="white"/>
<path d="M22.2689 39.2734L18.4609 39.2846L20.3705 42.8182L22.2689 39.2734Z" fill="white"/>
<path d="M37.31 19.5873L40.2164 16.8881L36.498 15.6953L37.31 19.5873Z" fill="white"/>
<path d="M32.5 8.66796L34.8576 11.7928L36.336 8.03516L32.5 8.66796Z" fill="white"/>
<path d="M40.0362 26.3712L37.1634 23.6328L36.3066 27.5136L40.0362 26.3712Z" fill="white"/>
<path d="M26.2715 4.31709L29.6707 6.10909L29.4971 2.05469L26.2715 4.31709Z" fill="white"/>
<path d="M32.1289 34.2364L35.9649 34.8748L34.4977 31.1172L32.1289 34.2364Z" fill="white"/>
<path d="M20.0676 5.64453C11.8468 5.64453 5.16602 12.6277 5.16602 21.2125C5.16602 29.7973 11.8468 36.7861 20.0676 36.7861C28.2884 36.7861 34.9636 29.8029 34.9636 21.2125C34.9636 12.6221 28.2828 5.64453 20.0676 5.64453ZM28.6524 18.2333L16.0804 35.2405C16.0537 35.2765 16.0192 35.3057 15.9793 35.3261C15.9395 35.3465 15.8955 35.3575 15.8508 35.3581C15.804 35.3577 15.7579 35.3462 15.7164 35.3245C15.6552 35.2932 15.6073 35.2409 15.5816 35.1771C15.5559 35.1133 15.554 35.0424 15.5764 34.9773L19.222 23.4357H11.8244C11.7772 23.4358 11.7306 23.4242 11.689 23.4018C11.6473 23.3795 11.6119 23.3472 11.5858 23.3078C11.5597 23.2684 11.5438 23.2231 11.5395 23.1761C11.5352 23.129 11.5427 23.0816 11.5612 23.0381L16.506 11.1157C16.5271 11.0631 16.5634 11.018 16.6103 10.986C16.6572 10.9541 16.7125 10.9369 16.7692 10.9365H23.4892C23.5349 10.937 23.5799 10.9481 23.6204 10.9691C23.661 10.9901 23.6961 11.0204 23.7228 11.0575C23.7495 11.0946 23.7671 11.1374 23.7742 11.1825C23.7813 11.2277 23.7777 11.2739 23.7636 11.3173L21.6412 17.7685H28.4004C28.4542 17.7692 28.5067 17.7847 28.5521 17.8134C28.5976 17.842 28.6342 17.8827 28.658 17.9309C28.6855 17.9768 28.6995 18.0295 28.6985 18.0829C28.6975 18.1364 28.6816 18.1885 28.6524 18.2333Z" fill="white"/>
<path d="M21.0089 18.2244C20.982 18.1879 20.9644 18.1453 20.9575 18.1005C20.9507 18.0556 20.9549 18.0097 20.9697 17.9668L23.0809 11.5156H16.9601L12.2617 22.8556H19.5977C19.6425 22.8563 19.6864 22.8672 19.7263 22.8876C19.7661 22.908 19.8007 22.9373 19.8273 22.9732C19.8548 23.0095 19.8731 23.0518 19.8809 23.0966C19.8887 23.1414 19.8857 23.1874 19.8721 23.2308L16.6409 33.5068L27.8409 18.3476H21.2441C21.1979 18.3477 21.1523 18.3365 21.1113 18.315C21.0704 18.2936 21.0352 18.2625 21.0089 18.2244Z" fill="white"/>
</g>
<defs>
<clipPath id="clip0_0_5777">
<rect width="40" height="43" fill="white"/>
</clipPath>
</defs>
</svg>
