<svg width="41" height="41" viewBox="0 0 41 41" fill="none" xmlns="http://www.w3.org/2000/svg">
<g clip-path="url(#clip0_0_5831)">
<path d="M40.5604 24.7432C39.2856 23.695 38.5545 22.1488 38.5545 20.5C38.5545 18.8513 39.2856 17.305 40.5604 16.2568C40.924 15.9582 41.0793 15.4737 40.9576 15.0181C40.8359 14.5633 40.4587 14.2213 39.9943 14.1445C38.3656 13.8738 36.9594 12.9001 36.1355 11.4716C35.3115 10.0446 35.1706 8.34063 35.7503 6.79518C35.9161 6.35397 35.808 5.8567 35.4748 5.52359C35.1417 5.19048 34.6453 5.08318 34.2041 5.24813C32.6586 5.82787 30.9538 5.68774 29.5269 4.86377C28.0991 4.0398 27.1254 2.63288 26.8556 1.00496C26.7779 0.539722 26.436 0.163369 25.9812 0.0408545C25.5255 -0.0808595 25.0419 0.074486 24.7424 0.438827C23.695 1.71362 22.148 2.44471 20.4984 2.44471C18.8497 2.44471 17.3034 1.71362 16.2561 0.438827C15.9566 0.074486 15.4721 -0.0808595 15.0173 0.0408545C14.5625 0.163369 14.2205 0.539722 14.1429 1.00496C13.873 2.63368 12.8993 4.0398 11.4716 4.86377C10.0446 5.68774 8.33984 5.82787 6.79439 5.24813C6.35398 5.08318 5.85671 5.19048 5.5236 5.52359C5.19049 5.8567 5.08239 6.35397 5.24814 6.79518C5.82788 8.34063 5.68695 10.0446 4.86298 11.4724C4.03901 12.9001 2.63289 13.8738 1.00417 14.1445C0.539731 14.2213 0.162578 14.5633 0.0408637 15.0181C-0.0808503 15.4737 0.0744952 15.9582 0.438036 16.2568C1.71283 17.305 2.44391 18.8513 2.44391 20.5C2.44391 22.1488 1.71283 23.695 0.438036 24.7432C0.0744952 25.0419 -0.0808503 25.5263 0.0408637 25.9819C0.162578 26.4368 0.539731 26.7787 1.00417 26.8556C2.63289 27.1262 4.03901 28.0999 4.86298 29.5285C5.68695 30.9554 5.82788 32.6594 5.24814 34.2048C5.08239 34.6461 5.19049 35.1433 5.5236 35.4764C5.85671 35.8096 6.35318 35.9169 6.79439 35.7519C8.33984 35.1722 10.0446 35.3123 11.4716 36.1363C12.8993 36.9602 13.873 38.3663 14.1429 39.9951C14.2205 40.4603 14.5625 40.8367 15.0173 40.9592C15.4729 41.0809 15.9574 40.9255 16.2561 40.5612C17.3034 39.2864 18.8497 38.5553 20.4984 38.5553C22.148 38.5553 23.695 39.2864 24.7424 40.5612C24.9738 40.8431 25.3165 41 25.6705 41C25.7738 41 25.8779 40.9864 25.9812 40.9592C26.436 40.8367 26.7779 40.4603 26.8556 39.9951C27.1254 38.3671 28.0991 36.9602 29.5269 36.1363C30.9538 35.3123 32.6586 35.1722 34.2041 35.7519C34.6453 35.9169 35.1417 35.8096 35.4748 35.4764C35.808 35.1433 35.9161 34.6461 35.7503 34.2048C35.1706 32.6594 35.3115 30.9554 36.1355 29.5285C36.1355 29.5277 36.1355 29.5277 36.1355 29.5277C36.9594 28.0999 38.3656 27.1262 39.9943 26.8556C40.4587 26.7787 40.8359 26.4368 40.9576 25.9819C41.0793 25.5263 40.924 25.0419 40.5604 24.7432ZM20.4992 33.7268C13.206 33.7268 7.27244 27.7932 7.27244 20.5C7.27244 13.2068 13.206 7.27323 20.4992 7.27323C27.7925 7.27323 33.726 13.2068 33.726 20.5C33.726 27.7932 27.7925 33.7268 20.4992 33.7268Z" fill="white"/>
<path d="M20.5003 9.67578C14.5315 9.67578 9.67578 14.5315 9.67578 20.5003C9.67578 26.4691 14.5315 31.3249 20.5003 31.3249C26.4691 31.3249 31.3249 26.4691 31.3249 20.5003C31.3249 14.5315 26.4691 9.67578 20.5003 9.67578ZM24.46 21.4748L19.4177 26.5172C19.1831 26.7518 18.8756 26.8695 18.5681 26.8695C18.2606 26.8695 17.9539 26.7518 17.7193 26.5172C17.2501 26.0487 17.2501 25.288 17.7193 24.8188L20.7109 21.8272H17.3902C16.9042 21.8272 16.4661 21.5341 16.2804 21.0857C16.0946 20.6364 16.1971 20.12 16.5406 19.7764L21.8344 14.4835C22.3028 14.0142 23.0635 14.0142 23.5328 14.4835C24.002 14.9519 24.002 15.7126 23.5328 16.1819L20.2897 19.4249H23.6104C24.0965 19.4249 24.5345 19.7172 24.7203 20.1664C24.906 20.6148 24.8035 21.1313 24.46 21.4748Z" fill="white"/>
</g>
<defs>
<clipPath id="clip0_0_5831">
<rect width="41" height="41" fill="white"/>
</clipPath>
</defs>
</svg>
