<svg width="34" height="34" viewBox="0 0 34 34" fill="none" xmlns="http://www.w3.org/2000/svg">
<g clip-path="url(#clip0_0_5804)">
<path d="M33.7071 8.35076C34.0962 7.96168 34.0961 7.33102 33.7071 6.94208L30.8898 4.12473L28.0724 1.30738C27.6835 0.918439 27.0528 0.918307 26.6638 1.30738L1.30733 26.6637C0.91839 27.0527 0.91839 27.6835 1.30733 28.0724L4.12468 30.8898L6.94203 33.7071C7.33098 34.0961 7.96177 34.0961 8.35071 33.7071L10.4638 31.5941L9.75939 29.481L11.8724 30.1854L13.2811 28.7767L12.5767 26.6637L14.6898 27.368L27.368 14.6898L26.6636 12.5768L28.7767 13.2812L30.1854 11.8725L29.481 9.75943L31.594 10.4638L33.7071 8.35076Z" fill="white"/>
<path d="M8.35109 33.7075L10.4641 31.5944L9.75977 29.4814L11.8728 30.1857L13.2815 28.7771L12.5771 26.664L14.6902 27.3684L27.3684 14.6902L26.664 12.5771L28.7771 13.2815L30.1857 11.8728L29.4814 9.75977L31.5944 10.4641L33.7075 8.35109C34.0965 7.96202 34.0964 7.33136 33.7075 6.94242L30.8901 4.125L4.125 30.8901L6.94235 33.7075C7.33136 34.0964 7.96209 34.0964 8.35109 33.7075Z" fill="white"/>
<path d="M28.0733 8.35446C27.6839 8.74379 27.6839 9.37386 28.0733 9.76313L30.1863 11.8762L31.595 10.4675L29.4819 8.35446C29.0926 7.96518 28.4625 7.96518 28.0733 8.35446Z" fill="white"/>
<path d="M25.2568 11.1709C24.8675 11.5603 24.8675 12.1903 25.2568 12.5796L27.3699 14.6926L28.7786 13.284L26.6655 11.1709C26.2763 10.7816 25.6462 10.7816 25.2568 11.1709Z" fill="white"/>
<path d="M11.169 25.2568C10.7796 25.6462 10.7796 26.2762 11.169 26.6655L13.282 28.7786L14.6907 27.3699L12.5776 25.2568C12.1884 24.8675 11.5583 24.8675 11.169 25.2568Z" fill="white"/>
<path d="M8.35255 28.0733C7.96321 28.4626 7.96321 29.0927 8.35255 29.4819L10.4656 31.595L11.8743 30.1863L9.76123 28.0733C9.37189 27.6839 8.74183 27.6839 8.35255 28.0733Z" fill="white"/>
<path d="M27.4878 20.4493L10.852 3.8125H8.03469L5.92164 5.92555L3.80859 8.03859V10.8559L20.4444 27.4927H23.2618L25.3748 25.3797L27.4878 23.2666V20.4493Z" fill="white"/>
<path d="M27.488 20.4493L10.8523 3.8125H8.03492L5.92188 5.92555L25.3751 25.3797L27.488 23.2666V20.4493Z" fill="white"/>
<path d="M6.62743 5.21854L5.92305 5.92284L5.21875 6.62721L24.6719 26.0813L25.3762 25.377L26.0805 24.6726L6.62743 5.21854Z" fill="white"/>
<path d="M5.92188 5.92188L6.62611 5.21764L26.0768 24.6683L25.3726 25.3726L5.92188 5.92188Z" fill="white"/>
<path d="M33.1274 26.084L31.7153 24.6719H28.898L26.7849 26.7849L24.6719 28.898V31.7153L26.0806 33.124C27.2457 34.2892 29.1394 34.2913 30.3018 33.1288L31.7153 31.7153L33.1288 30.3018C34.2913 29.1394 34.2906 27.2472 33.1274 26.084Z" fill="white"/>
<path d="M33.1277 26.084L31.7156 24.6719H28.8982L26.7852 26.7849L31.7156 31.7153L33.1291 30.3018C34.2915 29.1394 34.2908 27.2472 33.1277 26.084Z" fill="white"/>
<path d="M10.149 3.10552C10.0363 2.99283 9.9095 2.92231 9.76865 2.86606L1.31653 0.0487079C0.95017 -0.0640499 0.555784 0.0204852 0.2881 0.288102C0.0204164 0.55572 -0.0640524 0.950173 0.0486391 1.31654L2.86599 9.76866C2.9223 9.90944 2.99269 10.0362 3.10545 10.149L3.80982 10.8533L7.33155 7.33161L10.8533 3.80989L10.149 3.10552Z" fill="white"/>
<path d="M10.148 3.10548C10.0353 2.99279 9.90851 2.92227 9.76766 2.86602L1.31554 0.0486698C0.94918 -0.064088 0.554793 0.0204471 0.287109 0.288064L7.33055 7.33151L10.8523 3.80979L10.148 3.10548Z" fill="white"/>
<path d="M27.4888 20.4453L23.967 23.967L20.4453 27.4888L24.6714 31.7148L28.1931 28.1931L31.7149 24.6713L27.4888 20.4453Z" fill="white"/>
<path d="M23.9629 23.9688L27.4841 20.4476L31.7095 24.673L28.1883 28.1942L23.9629 23.9688Z" fill="white"/>
</g>
<defs>
<clipPath id="clip0_0_5804">
<rect width="34" height="34" fill="white"/>
</clipPath>
</defs>
</svg>
