<svg width="41" height="42" viewBox="0 0 41 42" fill="none" xmlns="http://www.w3.org/2000/svg">
<path d="M4.14805 15.9298C4.01962 16.3666 3.75245 16.7509 3.3861 17.0257C3.01975 17.3004 2.57371 17.4511 2.11406 17.4554C1.55364 17.4563 1.01641 17.677 0.62013 18.0692C0.22385 18.4613 0.000847203 18.993 0 19.5477V22.1234C0.000106154 22.6783 0.222871 23.2104 0.619312 23.6027C1.01575 23.9951 1.55341 24.2156 2.11406 24.2157C2.57442 24.2194 3.02122 24.3704 3.38778 24.6461C3.75434 24.9217 4.02103 25.3073 4.14805 25.7452C4.4721 26.803 4.90128 27.8264 5.4293 28.8004C5.65346 29.1992 5.74107 29.6591 5.67899 30.1113C5.61692 30.5635 5.4085 30.9836 5.08496 31.3088C4.68882 31.7015 4.46634 32.2338 4.46634 32.7888C4.46634 33.3438 4.68882 33.8761 5.08496 34.2688L6.93076 36.0956C7.32856 36.4859 7.86605 36.7049 8.42622 36.7049C8.98639 36.7049 9.52388 36.4859 9.92168 36.0956C10.2501 35.7753 10.6746 35.569 11.1316 35.5075C11.5885 35.4461 12.0532 35.5329 12.4562 35.7548C13.4411 36.2757 14.475 36.7004 15.5432 37.0229C15.9842 37.1493 16.3723 37.413 16.65 37.7749C16.9276 38.1367 17.0801 38.5775 17.0847 39.0319C17.0855 39.5866 17.3085 40.1183 17.7048 40.5105C18.1011 40.9027 18.6383 41.1234 19.1987 41.1242H21.8013C22.3619 41.1241 22.8996 40.9036 23.296 40.5113C23.6925 40.1189 23.9152 39.5868 23.9153 39.0319C23.9191 38.5763 24.0717 38.1341 24.3502 37.7713C24.6288 37.4086 25.0183 37.1446 25.4608 37.0189C26.5296 36.6982 27.5637 36.2734 28.5479 35.7509C28.9508 35.529 29.4155 35.4423 29.8724 35.5037C30.3293 35.5652 30.7538 35.7715 31.0823 36.0917C31.4792 36.4837 32.017 36.7039 32.5778 36.7039C33.1385 36.7039 33.6764 36.4837 34.0732 36.0917L35.919 34.2688C36.3134 33.8751 36.5347 33.3432 36.5347 32.7888C36.5347 32.2344 36.3134 31.7025 35.919 31.3088C35.5954 30.9837 35.3869 30.5636 35.3248 30.1113C35.2627 29.6591 35.3504 29.1992 35.5747 28.8004C36.1011 27.8256 36.5302 26.8024 36.856 25.7452C36.9828 25.3079 37.2489 24.9228 37.6146 24.6472C37.9804 24.3716 38.4263 24.2203 38.8859 24.2157C39.4464 24.2148 39.9836 23.9941 40.3799 23.6019C40.7761 23.2097 40.9992 22.678 41 22.1234V19.5477C40.9992 18.993 40.7761 18.4613 40.3799 18.0692C39.9836 17.677 39.4464 17.4563 38.8859 17.4554C38.4256 17.4516 37.9788 17.3007 37.6122 17.025C37.2457 16.7494 36.979 16.3638 36.852 15.9258C36.5279 14.8681 36.0987 13.8447 35.5707 12.8707C35.3465 12.4719 35.2589 12.0119 35.321 11.5598C35.3831 11.1076 35.5915 10.6874 35.915 10.3623C36.3112 9.96952 36.5337 9.43723 36.5337 8.88227C36.5337 8.3273 36.3112 7.79501 35.915 7.40222L34.0732 5.57941C33.8771 5.38531 33.6443 5.23134 33.388 5.12629C33.1318 5.02125 32.8571 4.96718 32.5798 4.96718C32.3024 4.96718 32.0278 5.02125 31.7715 5.12629C31.5153 5.23134 31.2825 5.38531 31.0863 5.57941C30.756 5.89798 30.331 6.10306 29.8739 6.16442C29.4169 6.22578 28.952 6.14016 28.5479 5.9202C27.564 5.39694 26.5299 4.97216 25.4608 4.65216C25.019 4.52526 24.6302 4.26101 24.3519 3.89849C24.0735 3.53597 23.9205 3.09442 23.9153 2.63914C23.9145 2.0845 23.6915 1.55281 23.2952 1.16061C22.8989 0.768417 22.3617 0.547713 21.8013 0.546875H19.1987C18.6383 0.547713 18.1011 0.768417 17.7048 1.16061C17.3085 1.55281 17.0855 2.0845 17.0847 2.63914C17.0809 3.09476 16.9283 3.53695 16.6498 3.89973C16.3713 4.26251 15.9817 4.52645 15.5392 4.65216C14.4704 4.97287 13.4363 5.39763 12.4522 5.9202C12.0492 6.14206 11.5845 6.22876 11.1276 6.16732C10.6707 6.10589 10.2462 5.89962 9.91768 5.57941C9.5208 5.18736 8.98296 4.96717 8.42222 4.96717C7.86147 4.96717 7.32363 5.18736 6.92676 5.57941L5.08496 7.40619C4.68882 7.79897 4.46634 8.33126 4.46634 8.88623C4.46634 9.44119 4.68882 9.97349 5.08496 10.3663C5.40862 10.6913 5.61711 11.1115 5.67919 11.5637C5.74127 12.0159 5.65359 12.4759 5.4293 12.8746C4.90128 13.8486 4.4721 14.872 4.14805 15.9298ZM20.5 9.54204C22.7569 9.54204 24.9631 10.2044 26.8397 11.4453C28.7162 12.6863 30.1788 14.4501 31.0425 16.5137C31.9062 18.5773 32.1322 20.8481 31.6919 23.0388C31.2516 25.2295 30.1648 27.2418 28.5689 28.8212C26.973 30.4007 24.9397 31.4763 22.7262 31.912C20.5127 32.3478 18.2183 32.1241 16.1332 31.2694C14.048 30.4146 12.2659 28.9671 11.012 27.1099C9.75812 25.2527 9.08887 23.0692 9.08887 20.8355C9.08887 17.8403 10.2911 14.9678 12.4311 12.8498C14.5711 10.7319 17.4736 9.54204 20.5 9.54204Z" fill="white"/>
<path d="M14.8184 19.3757C14.8177 20.4705 15.1402 21.5417 15.7462 22.4575C16.3523 23.3734 17.2154 24.0941 18.2297 24.5311V31.9056C19.7279 32.2067 21.2719 32.2067 22.7701 31.9056V24.5311C23.7542 24.1064 24.5966 23.4145 25.1998 22.5355C25.803 21.6565 26.1422 20.6264 26.1783 19.5645C26.2143 18.5026 25.9456 17.4523 25.4034 16.5352C24.8612 15.6182 24.0676 14.8719 23.1145 14.3828V19.0825L20.4999 20.9608L17.8854 19.0825V14.3828C16.9609 14.8569 16.1858 15.5734 15.6449 16.4539C15.104 17.3345 14.8181 18.3452 14.8184 19.3757Z" fill="white"/>
</svg>
