<svg width="36" height="48" viewBox="0 0 36 48" fill="none" xmlns="http://www.w3.org/2000/svg">
<path d="M8.81641 4.71007V18.8632L9.92647 19.5475V3.89404L8.81641 4.71007Z" fill="black"/>
<path d="M10.5742 3.41792V19.9468L11.6843 20.6311V2.60205L10.5742 3.41792Z" fill="black"/>
<path d="M12.3301 2.12584V21.0303L13.4402 21.7146V1.30981L12.3301 2.12584Z" fill="black"/>
<path d="M14.0898 0.833848V22.1139L15.1999 22.7983V0.0178223L14.0898 0.833848Z" fill="black"/>
<path d="M20.0059 18.8549L26.3763 15.6697L32.5192 17.831L32.6329 43.1887H26.7819L26.2625 16.6935L20.0059 18.8549Z" fill="#FF5E14"/>
<path d="M15.1987 23.9548L8.78013 19.9712L2.6372 22.1326L2.52344 43.2003L8.60574 43.1887L8.89386 20.995L15.1987 23.9548Z" fill="#FF5E14"/>
<path d="M17.2331 4.024L15.6836 3.19144V0L17.2331 0.832566V4.024Z" fill="black"/>
<path d="M19.3834 5.13411L17.834 4.30158V1.11011L19.3834 1.94267V5.13411Z" fill="black"/>
<path d="M17.2331 7.80525L15.6836 6.97269V3.78125L17.2331 4.61378V7.80525Z" fill="black"/>
<path d="M19.3834 8.91536L17.834 8.08283V4.89136L19.3834 5.72392V8.91536Z" fill="black"/>
<path d="M17.2331 11.5865L15.6836 10.754V7.5625L17.2331 8.39506V11.5865Z" fill="black"/>
<path d="M19.3834 12.6966L17.834 11.864V8.67261L19.3834 9.50514V12.6966Z" fill="black"/>
<path d="M17.2331 15.3675L15.6836 14.535V11.3435L17.2331 12.1761V15.3675Z" fill="black"/>
<path d="M19.3834 16.4779L17.834 15.6453V12.4539L19.3834 13.2864V16.4779Z" fill="black"/>
<path d="M17.2331 19.1488L15.6836 18.3162V15.1248L17.2331 15.9573V19.1488Z" fill="black"/>
<path d="M19.3834 20.2589L17.834 19.4263V16.2349L19.3834 17.0674V20.2589Z" fill="black"/>
<path d="M17.2331 22.9298L15.6836 22.0972V18.9058L17.2331 19.7383V22.9298Z" fill="black"/>
<path d="M19.3834 24.0399L17.834 23.2073V20.0159L19.3834 20.8484V24.0399Z" fill="black"/>
<path d="M17.2331 26.711L15.6836 25.8785V22.687L17.2331 23.5195V26.711Z" fill="black"/>
<path d="M19.3834 27.8211L17.834 26.9886V23.7971L19.3834 24.6297V27.8211Z" fill="black"/>
<path d="M17.2331 30.4923L15.6836 29.6597V26.4683L17.2331 27.3008V30.4923Z" fill="black"/>
<path d="M19.3834 31.6024L17.834 30.7698V27.5784L19.3834 28.4109V31.6024Z" fill="black"/>
<path d="M17.2331 34.2736L15.6836 33.441V30.2495L17.2331 31.0821V34.2736Z" fill="black"/>
<path d="M19.3834 35.3836L17.834 34.5511V31.3596L19.3834 32.1922V35.3836Z" fill="black"/>
<path d="M17.2331 38.0548L15.6836 37.2222V34.0308L17.2331 34.8633V38.0548Z" fill="black"/>
<path d="M19.3834 39.1649L17.834 38.3323V35.1409L19.3834 35.9734V39.1649Z" fill="black"/>
<path d="M17.2331 41.836L15.6836 41.0035V37.812L17.2331 38.6446V41.836Z" fill="black"/>
<path d="M19.3834 42.9459L17.834 42.1134V38.9219L19.3834 39.7544V42.9459Z" fill="black"/>
<path d="M35.8909 47.4167H0.109143C0.0488572 47.4167 0 47.2935 0 47.1415V45.692C0 45.54 0.0488572 45.4167 0.109143 45.4167H35.8909C35.9511 45.4167 36 45.54 36 45.692V47.1415C36 47.2935 35.9511 47.4167 35.8909 47.4167Z" fill="black"/>
</svg>
