<svg width="64" height="64" viewBox="0 0 64 64" fill="none" xmlns="http://www.w3.org/2000/svg">
<g clip-path="url(#clip0_1_11380)">
<path d="M25.1328 21.6445V29.9279C25.1328 30.4458 25.5526 30.8654 26.0703 30.8654C26.5881 30.8654 27.0078 30.4458 27.0078 29.9279V21.6445C27.0078 21.1267 26.5881 20.707 26.0703 20.707C25.5526 20.707 25.1328 21.1268 25.1328 21.6445Z" fill="#FF5E14"/>
<path d="M16.1973 20.707C15.6795 20.707 15.2598 21.1267 15.2598 21.6445V29.9279C15.2598 30.4458 15.6795 30.8654 16.1973 30.8654C16.715 30.8654 17.1348 30.4458 17.1348 29.9279V26.5817H20.9919V29.9279C20.9919 30.4458 21.4116 30.8654 21.9294 30.8654C22.4471 30.8654 22.8669 30.4458 22.8669 29.9279V21.6445C22.8669 21.1267 22.4471 20.707 21.9294 20.707C21.4116 20.707 20.9919 21.1267 20.9919 21.6445V24.7067H17.1348V21.6445C17.1348 21.1268 16.715 20.707 16.1973 20.707Z" fill="#FF5E14"/>
<path d="M42.0703 20.707C41.5526 20.707 41.1328 21.1267 41.1328 21.6445V29.9279C41.1328 30.4458 41.5526 30.8654 42.0703 30.8654C42.5882 30.8654 43.0078 30.4458 43.0078 29.9279V26.5817H46.8651V29.9279C46.8651 30.4458 47.2847 30.8654 47.8026 30.8654C48.3203 30.8654 48.7401 30.4458 48.7401 29.9279V21.6445C48.7401 21.1267 48.3203 20.707 47.8026 20.707C47.2847 20.707 46.8651 21.1267 46.8651 21.6445V24.7067H43.0078V21.6445C43.0078 21.1268 42.5882 20.707 42.0703 20.707Z" fill="#FF5E14"/>
<path d="M34.3527 22.5822C34.9949 22.5822 35.6142 22.7712 36.1436 23.1288C36.5726 23.4185 37.1553 23.3058 37.4452 22.8767C37.7351 22.4475 37.6222 21.8648 37.1931 21.575C36.3526 21.0073 35.3703 20.707 34.3526 20.707C31.5519 20.707 29.2734 22.9855 29.2734 25.7862C29.2734 28.5868 31.5519 30.8654 34.3526 30.8654C37.0097 30.8654 38.8654 28.7768 38.8654 25.7862C38.8654 25.2683 38.4458 24.8487 37.9279 24.8487H35.4501C34.9322 24.8487 34.5126 25.2683 34.5126 25.7862C34.5126 26.304 34.9322 26.7237 35.4501 26.7237H36.8956C36.6483 27.9082 35.8942 28.9904 34.3526 28.9904C32.5858 28.9904 31.1484 27.553 31.1484 25.7862C31.1486 24.0195 32.5859 22.5822 34.3527 22.5822Z" fill="#FF5E14"/>
<path d="M26.228 55.1127L26.7726 53.6827H30.4758L31.0146 55.1102C31.1563 55.4856 31.513 55.717 31.892 55.717C32.0018 55.717 32.1138 55.6975 32.2228 55.6563C32.7072 55.4736 32.9517 54.9327 32.7688 54.4482L29.6868 46.2812C29.6836 46.2727 29.6802 46.264 29.6766 46.2555C29.5022 45.8318 29.094 45.5585 28.6361 45.5585C28.6357 45.5585 28.6352 45.5585 28.6347 45.5585C28.1762 45.559 27.768 45.8335 27.5945 46.2578C27.5916 46.265 27.5888 46.272 27.5861 46.2791L24.4757 54.4457C24.2915 54.9295 24.5342 55.4711 25.0181 55.6555C25.5022 55.8401 26.0437 55.5968 26.228 55.1127ZM28.6327 48.7987L29.7682 51.8077H27.4866L28.6327 48.7987Z" fill="#FF5E14"/>
<path d="M36.0332 45.5583C35.5153 45.5583 35.0957 45.9781 35.0957 46.4958V54.7722C35.0957 55.2286 35.4245 55.6187 35.8742 55.6962C35.9418 55.7078 35.9967 55.7174 36.9071 55.7174C37.3493 55.7174 37.9935 55.715 38.9391 55.7097C39.457 55.7068 39.8742 55.2847 39.8713 54.767C39.8685 54.251 39.4493 53.8347 38.934 53.8347C38.9321 53.8347 38.9303 53.8347 38.9286 53.8347C38.25 53.8385 37.5212 53.8412 36.9707 53.8417V46.4958C36.9707 45.978 36.551 45.5583 36.0332 45.5583Z" fill="#FF5E14"/>
<path d="M44.0137 54.7795V46.4961C44.0137 45.9783 43.594 45.5586 43.0762 45.5586C42.5583 45.5586 42.1387 45.9783 42.1387 46.4961V54.7795C42.1387 55.2973 42.5583 55.717 43.0762 55.717C43.5939 55.717 44.0137 55.2973 44.0137 54.7795Z" fill="#FF5E14"/>
<path d="M58.3502 55.7169H58.3525C58.8692 55.7169 59.2887 55.2986 59.29 54.7818L59.2996 50.8275L61.7726 47.0286C62.0551 46.5946 61.9324 46.014 61.4985 45.7315C61.0646 45.4493 60.484 45.5719 60.2014 46.0056L58.3616 48.8316L56.502 45.9835C56.2186 45.5499 55.6381 45.4284 55.2044 45.711C54.7709 45.9941 54.6489 46.575 54.9319 47.0086L57.4246 50.8263L57.415 54.7771C57.4139 55.295 57.8325 55.7158 58.3502 55.7169Z" fill="#FF5E14"/>
<path d="M15.4551 45.5583C14.9373 45.5583 14.5176 45.9781 14.5176 46.4958V52.1957C14.5176 53.4272 15.0842 54.3878 16.2498 55.1326C16.855 55.5192 17.5381 55.7157 18.2802 55.7167H18.2862C18.9263 55.7167 19.527 55.5777 20.0713 55.3035C21.788 54.4391 22.1483 53.1331 22.1483 52.1897V46.4958C22.1483 45.9781 21.7286 45.5583 21.2108 45.5583C20.6931 45.5583 20.2733 45.9781 20.2733 46.4958V52.1897C20.2733 52.6146 20.1546 53.1622 19.2281 53.6288C18.9467 53.7706 18.6298 53.8453 18.2828 53.8417C17.898 53.8412 17.5632 53.7466 17.2595 53.5526C16.5401 53.093 16.3927 52.6778 16.3927 52.1958V46.496C16.3926 45.978 15.9728 45.5583 15.4551 45.5583Z" fill="#FF5E14"/>
<path d="M49.278 55.717C49.7959 55.717 50.2155 55.2973 50.2155 54.7795V47.4336H51.5745C52.0923 47.4336 52.512 47.014 52.512 46.4961C52.512 45.9783 52.0923 45.5586 51.5745 45.5586H47C46.4822 45.5586 46.0625 45.9783 46.0625 46.4961C46.0625 47.014 46.4822 47.4336 47 47.4336H48.3405V54.7795C48.3405 55.2973 48.7601 55.717 49.278 55.717Z" fill="#FF5E14"/>
<path d="M7.1553 45.5586C4.35467 45.5586 2.07617 47.8372 2.07617 50.6378C2.07617 53.4385 4.35467 55.717 7.1553 55.717C8.23442 55.717 9.23517 55.3777 10.0588 54.8017L10.666 55.409C10.849 55.592 11.089 55.6835 11.3289 55.6835C11.5688 55.6835 11.8088 55.5918 11.9918 55.409C12.3579 55.0427 12.3579 54.4492 11.9918 54.0831L11.373 53.4643C11.9167 52.6557 12.2344 51.6833 12.2344 50.6378C12.2344 47.8371 9.95592 45.5586 7.1553 45.5586ZM7.1553 53.8418C5.38855 53.8418 3.95117 52.4045 3.95117 50.6377C3.95117 48.8708 5.38855 47.4335 7.1553 47.4335C8.92205 47.4335 10.3594 48.8708 10.3594 50.6377C10.3594 51.1632 10.2314 51.6592 10.0062 52.0973L9.34192 51.433C8.9758 51.067 8.38217 51.067 8.01617 51.433C7.65005 51.7992 7.65005 52.3927 8.01617 52.759L8.70067 53.4435C8.24205 53.6971 7.7153 53.8418 7.1553 53.8418Z" fill="#FF5E14"/>
<path d="M62.0625 37.275H51.4586C54.2154 33.3169 55.7166 28.5714 55.7166 23.7166C55.7168 10.6392 45.0774 0 32 0C25.566 0 19.5445 2.5335 15.0448 7.1335C14.6828 7.50362 14.6892 8.09712 15.0594 8.45912C15.4295 8.82125 16.0231 8.81462 16.3851 8.4445C20.5292 4.20813 26.0747 1.875 32 1.875C44.0436 1.875 53.8418 11.6731 53.8418 23.7166C53.8418 28.6353 52.17 33.432 49.125 37.275H14.8751C11.8301 33.432 10.1584 28.6351 10.1584 23.7166C10.1584 19.4359 11.3961 15.2913 13.7378 11.7308C14.0223 11.2981 13.9023 10.7169 13.4696 10.4323C13.0371 10.1479 12.4556 10.268 12.1713 10.7005C9.62775 14.5677 8.2835 19.0685 8.2835 23.7166C8.2835 28.5714 9.78475 33.3167 12.5415 37.275H1.9375C0.869125 37.275 0 38.1441 0 39.2125V41.3541C0 42.4225 0.869125 43.2916 1.9375 43.2916H4.45188C4.96963 43.2916 5.38938 42.872 5.38938 42.3541C5.38938 41.8363 4.96963 41.4166 4.45188 41.4166H1.9375C1.903 41.4166 1.875 41.3885 1.875 41.3541V39.2125C1.875 39.1781 1.903 39.15 1.9375 39.15H62.0625C62.0969 39.15 62.125 39.1781 62.125 39.2125V41.3541C62.125 41.3885 62.0969 41.4166 62.0625 41.4166H8.82687C8.30912 41.4166 7.88938 41.8363 7.88938 42.3541C7.88938 42.872 8.30912 43.2916 8.82687 43.2916H62.0625C63.1309 43.2916 64 42.4225 64 41.3541V39.2125C64 38.1441 63.1309 37.275 62.0625 37.275Z" fill="#FF5E14"/>
<path d="M62.0625 57.9844H1.9375C0.869125 57.9844 0 58.8535 0 59.9219V62.0636C0 63.132 0.869125 64.0011 1.9375 64.0011H62.0625C63.1309 64.0011 64 63.132 64 62.0636V59.9219C64 58.8535 63.1309 57.9844 62.0625 57.9844ZM62.125 62.0636C62.125 62.098 62.0969 62.1261 62.0625 62.1261H1.9375C1.903 62.1261 1.875 62.098 1.875 62.0636V59.9219C1.875 59.8875 1.903 59.8594 1.9375 59.8594H62.0625C62.0969 59.8594 62.125 59.8875 62.125 59.9219V62.0636Z" fill="#FF5E14"/>
<path d="M37.0867 7.69738L34.4879 7.31975L33.3257 4.96475C33.0748 4.4565 32.5669 4.14062 32 4.14062C31.4332 4.14062 30.9252 4.45638 30.6744 4.96475L29.5122 7.31988L26.9133 7.6975C26.3523 7.779 25.895 8.1645 25.7199 8.70375C25.5448 9.24275 25.6882 9.8235 26.094 10.2191L27.9747 12.0521L27.5307 14.6405C27.4348 15.1993 27.6602 15.7531 28.1188 16.0864C28.3779 16.2746 28.681 16.3703 28.9863 16.3703C29.2213 16.3703 29.4574 16.3136 29.6757 16.1989L32 14.9767L34.3245 16.1986C34.8262 16.4628 35.4227 16.4196 35.8813 16.0864C36.3399 15.7533 36.5654 15.1993 36.4695 14.6405L36.0255 12.052L37.906 10.219C38.312 9.82338 38.4555 9.24263 38.2803 8.70363C38.1052 8.16438 37.6478 7.77875 37.0867 7.69738ZM34.5673 10.855C34.219 11.1946 34.0602 11.6836 34.1423 12.1635L34.4855 14.1654L32.6773 13.2146C32.4652 13.1031 32.2324 13.0473 31.9999 13.0473C31.7673 13.0473 31.5347 13.103 31.3228 13.2145L29.5143 14.1651L29.8577 12.1634C29.9399 11.6838 29.781 11.1945 29.4325 10.8548L27.9782 9.43712L29.9882 9.14512C30.4698 9.075 30.8859 8.77262 31.101 8.33637L32 6.51525L32.8989 8.33675C33.1144 8.77288 33.5304 9.07512 34.0119 9.14525L36.0217 9.43725L34.5673 10.855Z" fill="#FF5E14"/>
</g>
<defs>
<clipPath id="clip0_1_11380">
<rect width="64" height="64" fill="white"/>
</clipPath>
</defs>
</svg>
