<svg width="64" height="64" viewBox="0 0 64 64" fill="none" xmlns="http://www.w3.org/2000/svg">
<path d="M41.9861 52.4456C40.3669 50.9814 38.4668 49.9061 36.4203 49.271C38.5906 47.8332 40.0254 45.3705 40.0254 42.5779C40.0254 38.1532 36.4257 34.5536 32.0012 34.5536C27.5767 34.5536 23.9769 38.1532 23.9769 42.5779C23.9769 45.3705 25.4118 47.8332 27.5819 49.271C25.5353 49.9061 23.6349 50.9815 22.0158 52.4458C19.2951 54.9061 17.5827 58.2615 17.1941 61.8936C17.1638 62.1757 17.2548 62.4574 17.4446 62.6684C17.6343 62.8794 17.9047 63 18.1883 63L45.8137 62.9999C46.0974 62.9999 46.3678 62.8794 46.5574 62.6683C46.7472 62.4573 46.8382 62.1756 46.8079 61.8935C46.4192 58.2614 44.7067 54.9061 41.9861 52.4456ZM25.9768 42.5779C25.9768 39.256 28.6793 36.5536 32.0011 36.5536C35.3228 36.5536 38.0253 39.2561 38.0253 42.5779C38.0253 45.8986 35.3246 48.6002 32.0043 48.6021C32.0032 48.6021 32.0019 48.6021 32.0009 48.6021C31.9999 48.6021 31.9988 48.6021 31.9977 48.6021C28.6774 48.6002 25.9768 45.8986 25.9768 42.5779ZM19.3489 61C20.5167 55.0004 25.7707 50.6032 31.9984 50.6021H32.0011C32.0011 50.6021 32.0027 50.6021 32.0036 50.6021C38.2312 50.6034 43.4851 55.0004 44.6528 60.9999L19.3489 61ZM17.0421 19.5086L18.9812 20.2551C19.2709 21.2892 19.6828 22.2827 20.2103 23.22L19.3663 25.1201C19.1984 25.4981 19.2806 25.9406 19.5731 26.2331L22.3673 29.0274C22.6599 29.3199 23.1021 29.4023 23.4803 29.2341L25.3813 28.3899C26.3186 28.9172 27.3117 29.329 28.3452 29.6187L29.0918 31.5584C29.2403 31.9445 29.6113 32.1991 30.0251 32.1991H33.9767C34.3904 32.1991 34.7613 31.9444 34.9099 31.5584L35.6564 29.6192C36.6903 29.3295 37.6841 28.9176 38.6213 28.3901L40.5214 29.234C40.8992 29.4019 41.3419 29.3197 41.6344 29.0273L44.4287 26.233C44.7212 25.9405 44.8033 25.4981 44.6354 25.12L43.7911 23.219C44.3184 22.2819 44.7302 21.2886 45.0199 20.2551L46.9597 19.5085C47.3457 19.3599 47.6004 18.989 47.6004 18.5753V14.6237C47.6004 14.21 47.3457 13.8391 46.9597 13.6905L45.0206 12.9441C44.7308 11.91 44.3189 10.9164 43.7914 9.97913L44.6354 8.079C44.8033 7.70088 44.7212 7.2585 44.4286 6.966L41.6343 4.17175C41.3419 3.87925 40.8996 3.797 40.5214 3.96487L38.6204 4.80912C37.6832 4.28175 36.6902 3.87 35.6566 3.58025L34.9099 1.6405C34.7614 1.25475 34.3904 1 33.9768 1H30.0252C29.6114 1 29.2406 1.25475 29.0919 1.64075L28.3452 3.5805C27.3117 3.87012 26.3184 4.282 25.3813 4.80937L23.4803 3.96513C23.1022 3.79725 22.6597 3.87962 22.3673 4.172L19.5731 6.96625C19.2806 7.25875 19.1984 7.70113 19.3663 8.07925L20.2104 9.98C19.6829 10.9174 19.2712 11.9105 18.9816 12.9441L17.0421 13.6908C16.6561 13.8394 16.4013 14.2104 16.4013 14.624V18.5756C16.4013 18.9891 16.6561 19.36 17.0421 19.5086ZM18.4013 15.3104L20.1797 14.6257C20.4874 14.5072 20.7169 14.2448 20.7932 13.924C21.0754 12.7381 21.5436 11.6091 22.1846 10.5681C22.3576 10.2872 22.3808 9.93925 22.2471 9.63787L21.4729 7.89475L23.2961 6.0715L25.0394 6.84575C25.3406 6.97962 25.6888 6.95637 25.9696 6.78337C27.0106 6.14237 28.1396 5.67425 29.3254 5.39213C29.6461 5.31575 29.9087 5.08625 30.0271 4.7785L30.7118 3H33.2902L33.9748 4.77863C34.0932 5.08638 34.3558 5.31588 34.6764 5.39225C35.8622 5.67438 36.9913 6.1425 38.0323 6.7835C38.3131 6.9565 38.6613 6.97975 38.9624 6.84587L40.7058 6.07163L42.5291 7.89475L41.7551 9.63725C41.6213 9.93875 41.6446 10.2867 41.8176 10.5676C42.4585 11.6084 42.9267 12.7376 43.2089 13.9242C43.2853 14.245 43.5148 14.5076 43.8226 14.626L45.6007 15.3104V17.8888L43.8221 18.5734C43.5144 18.6918 43.2848 18.9543 43.2086 19.275C42.9262 20.4609 42.4581 21.5899 41.8172 22.6308C41.6443 22.9116 41.6211 23.2595 41.7548 23.5609L42.5291 25.3041L40.7058 27.1274L38.9633 26.3535C38.6622 26.2196 38.314 26.2429 38.0331 26.4159C36.9922 27.0569 35.8629 27.5251 34.6764 27.8074C34.3557 27.8837 34.0931 28.1132 33.9747 28.421L33.2902 30.199H30.7118L30.0272 28.4205C29.9088 28.1127 29.6462 27.8832 29.3256 27.8069C28.1399 27.5247 27.0108 27.0566 25.9697 26.4156C25.6887 26.2428 25.3407 26.2195 25.0396 26.3531L23.2962 27.1274L21.4729 25.3041L22.2468 23.5616C22.3806 23.2603 22.3573 22.9122 22.1843 22.6314C21.5434 21.5906 21.0753 20.4613 20.7929 19.2747C20.7167 18.954 20.4872 18.6914 20.1794 18.573L18.4013 17.8885V15.3104ZM32.0009 24.4912C36.3524 24.4912 39.8926 20.9511 39.8926 16.5996C39.8926 12.2481 36.3524 8.708 32.0009 8.708C27.6494 8.708 24.1093 12.2481 24.1093 16.5996C24.1093 20.9511 27.6494 24.4912 32.0009 24.4912ZM32.0009 10.708C35.2496 10.708 37.8926 13.351 37.8926 16.5996C37.8926 19.8482 35.2496 22.4912 32.0009 22.4912C28.7523 22.4912 26.1093 19.8482 26.1093 16.5996C26.1093 13.351 28.7523 10.708 32.0009 10.708ZM6.0273 33.5793L9.1408 36.0817L8.0928 39.9365C7.9468 40.4735 8.14343 41.0319 8.59368 41.359C8.82793 41.5291 9.10055 41.6147 9.37368 41.6147C9.62568 41.6147 9.87805 41.542 10.1014 41.3957L13.4436 39.2079L16.7857 41.3957C17.2514 41.7005 17.8433 41.6861 18.2934 41.359C18.7438 41.0319 18.9404 40.4735 18.7944 39.9364L17.7464 36.0817L20.8599 33.5791C21.2938 33.2304 21.4629 32.6631 21.2909 32.1338C21.1188 31.6044 20.6484 31.2449 20.0927 31.2179L16.1028 31.0233L14.6851 27.2889C14.4878 26.7693 14.0002 26.4335 13.4432 26.4336C12.8862 26.4338 12.3989 26.7696 12.2021 27.2889L10.7841 31.0234L6.7943 31.2179C6.23843 31.2449 5.76805 31.6044 5.59593 32.1338C5.4243 32.6632 5.59343 33.2306 6.0273 33.5793ZM11.3212 32.9997C11.8489 32.974 12.3109 32.6382 12.4979 32.1447L13.4437 29.6537L14.3894 32.145C14.5771 32.6386 15.0389 32.9741 15.5662 32.9996L18.2273 33.1294L16.1507 34.7986C15.7392 35.1294 15.5627 35.6722 15.7011 36.182L16.4001 38.753L14.1707 37.2936C13.7288 37.0046 13.1579 37.0046 12.7163 37.2938L10.4872 38.753L11.1861 36.1824C11.3248 35.6726 11.1484 35.1295 10.7367 34.7986L8.66005 33.1294L11.3212 32.9997ZM15.5631 48.989L11.5732 48.7945L10.1554 45.0602C9.9583 44.5405 9.4708 44.2046 8.9138 44.2046C8.3568 44.2046 7.86943 44.5405 7.67243 45.0599L6.25443 48.7944L2.26468 48.9888C1.7088 49.0158 1.2383 49.3754 1.0663 49.9048C0.894304 50.4341 1.06355 51.0015 1.4973 51.35L4.6108 53.8525L3.5628 57.7072C3.4168 58.2442 3.61343 58.8027 4.0638 59.1299C4.29805 59.3 4.57055 59.3855 4.84368 59.3855C5.09568 59.3855 5.34805 59.3126 5.57143 59.1665L8.91355 56.9787L12.2556 59.1665C12.7214 59.4714 13.3131 59.457 13.7633 59.1299C14.2137 58.8027 14.4103 58.2444 14.2643 57.7072L13.2163 53.8527L16.3297 51.3503C16.7637 51.0016 16.9328 50.4342 16.7608 49.9049C16.5888 49.3755 16.1188 49.016 15.5631 48.989ZM8.28555 45.77L8.28618 45.7718C8.28593 45.7711 8.28568 45.7704 8.28543 45.7697C8.28543 45.7697 8.28543 45.7699 8.28555 45.77ZM11.6217 52.569C11.2096 52.8996 11.0328 53.4426 11.1713 53.953L11.8703 56.5239L9.64093 55.0646C9.19905 54.7756 8.62818 54.7756 8.18655 55.0648L5.9573 56.524L6.65618 53.9535C6.79493 53.4439 6.61868 52.9006 6.2068 52.5696L4.13018 50.9005L6.7918 50.7707C7.3193 50.7449 7.78118 50.409 7.96805 49.9157L8.9138 47.4249L9.8593 49.9151C10.0464 50.409 10.5083 50.7447 11.0362 50.7707L13.6974 50.9005L11.6217 52.569ZM42.7108 32.1339C42.5388 32.6633 42.7081 33.2306 43.1418 33.5793L46.2553 36.0819L45.2073 39.9365C45.0613 40.4735 45.2579 41.032 45.7083 41.3591C46.1587 41.6862 46.7504 41.7006 47.2161 41.3959L50.5582 39.208L53.9003 41.3959C54.1238 41.5421 54.3762 41.6149 54.6281 41.6149C54.9013 41.6149 55.1738 41.5292 55.4081 41.3591C55.8583 41.032 56.0549 40.4736 55.9089 39.9365L54.8609 36.0817L57.9744 33.5793C58.4083 33.2305 58.5774 32.6633 58.4054 32.1339C58.2333 31.6045 57.7629 31.245 57.2072 31.218L53.2173 31.0235L51.7996 27.2894C51.6024 26.7698 51.1152 26.4339 50.5582 26.4338C50.5581 26.4338 50.5581 26.4338 50.5579 26.4338C50.0011 26.4338 49.5137 26.7695 49.3164 27.289L47.8986 31.0234L43.9088 31.2179C43.3532 31.245 42.8829 31.6045 42.7108 32.1339ZM48.4354 32.9997C48.9629 32.9741 49.4248 32.6386 49.6126 32.1447L50.5582 29.6539L51.5037 32.1442C51.6909 32.6382 52.1529 32.9741 52.6806 32.9997L55.3418 33.1295L53.2652 34.7988C52.8534 35.1296 52.6771 35.6729 52.8157 36.1821L53.5147 38.7531L51.2856 37.294C51.0647 37.1494 50.8116 37.077 50.5583 37.077C50.3052 37.077 50.0519 37.1493 49.8309 37.2939L47.6018 38.7531L48.3009 36.1818C48.4392 35.6724 48.2627 35.1295 47.8512 34.7988L45.7746 33.1295L48.4354 32.9997ZM62.9354 49.905C62.7634 49.3756 62.2929 49.016 61.7372 48.989L57.7473 48.7945L56.3296 45.0602C56.1324 44.5405 55.6449 44.2046 55.0879 44.2046C54.5309 44.2046 54.0436 44.5405 53.8463 45.0602L52.4286 48.7945L48.4388 48.9889C47.8829 49.0159 47.4124 49.3755 47.2404 49.9049C47.0684 50.4342 47.2377 51.0016 47.6714 51.3501L50.7849 53.8527L49.7369 57.7074C49.5909 58.2444 49.7876 58.8029 50.2379 59.13C50.4722 59.3001 50.7448 59.3857 51.0178 59.3857C51.2698 59.3857 51.5222 59.3129 51.7456 59.1668L55.0877 56.979L58.4297 59.1668C58.8954 59.4716 59.4872 59.4572 59.9374 59.1302C60.3878 58.8031 60.5844 58.2448 60.4384 57.7076L59.3904 53.8529L62.5038 51.3505C62.9382 51.0017 63.1074 50.4344 62.9354 49.905ZM55.7163 45.77C55.7164 45.7699 55.7164 45.7699 55.7164 45.7697C55.7162 45.7704 55.7159 45.7711 55.7157 45.7718L55.7163 45.77ZM57.7951 52.5696C57.3832 52.9006 57.2069 53.4439 57.3456 53.953L58.0446 56.524L55.8154 55.0649C55.5946 54.9202 55.3414 54.8479 55.0882 54.8479C54.8351 54.8479 54.5818 54.9201 54.3608 55.0648L52.1317 56.524L52.8308 53.9526C52.9691 53.443 52.7925 52.9001 52.3812 52.5698L50.3044 50.9005L52.9661 50.7707C53.4936 50.7449 53.9554 50.409 54.1423 49.9157L55.0881 47.4249L56.0338 49.916C56.2213 50.4094 56.6831 50.7449 57.2104 50.7707L59.8717 50.9005L57.7951 52.5696Z" fill="#FF5E14"/>
</svg>
