<svg width="64" height="64" viewBox="0 0 64 64" fill="none" xmlns="http://www.w3.org/2000/svg">
<g clip-path="url(#clip0_1_11419)">
<path d="M5.33333 50.1352H9.6C10.4487 50.1352 11.2626 49.7981 11.8627 49.198C12.4629 48.5978 12.8 47.7839 12.8 46.9352V29.8685C12.797 29.2172 12.5954 28.5823 12.222 28.0486C11.8486 27.5149 11.3213 27.1079 10.7104 26.8819C10.9238 21.3784 13.2602 16.1713 17.2294 12.353C21.1987 8.53468 26.4923 6.40182 32 6.40182C37.5077 6.40182 42.8013 8.53468 46.7706 12.353C50.7398 16.1713 53.0762 21.3784 53.2896 26.8819C52.6787 27.1079 52.1514 27.5149 51.778 28.0486C51.4046 28.5823 51.203 29.2172 51.2 29.8685V46.9352C51.2027 47.5947 51.4092 48.2372 51.791 48.7749C52.1729 49.3126 52.7116 49.7191 53.3333 49.9389V55.4685C53.3333 55.7514 53.221 56.0228 53.0209 56.2228C52.8209 56.4228 52.5496 56.5352 52.2667 56.5352H38.6347C38.3371 56.201 37.9724 55.9333 37.5644 55.7495C37.1563 55.5657 36.7142 55.47 36.2667 55.4685H28.8C27.6684 55.4685 26.5832 55.9181 25.783 56.7182C24.9829 57.5184 24.5333 58.6036 24.5333 59.7352C24.5333 60.8668 24.9829 61.952 25.783 62.7522C26.5832 63.5524 27.6684 64.0019 28.8 64.0019H36.2667C36.7142 64.0005 37.1563 63.9048 37.5644 63.721C37.9724 63.5372 38.3371 63.2694 38.6347 62.9352H52.2667C54.2462 62.9327 56.1439 62.1452 57.5436 60.7455C58.9433 59.3458 59.7308 57.4481 59.7333 55.4685V50.0285C60.9372 49.781 62.0188 49.126 62.796 48.1739C63.5732 47.2218 63.9985 46.0309 64 44.8019V32.0019C63.9977 30.7693 63.5691 29.5755 62.787 28.6229C62.0049 27.6702 60.9173 27.0174 59.7088 26.7752C59.4646 19.5894 56.4383 12.7794 51.2686 7.78241C46.0988 2.7854 39.19 -0.0078125 32 -0.0078125C24.81 -0.0078125 17.9012 2.7854 12.7315 7.78241C7.56172 12.7794 4.53543 19.5894 4.2912 26.7752C3.08267 27.0174 1.99512 27.6702 1.21299 28.6229C0.43086 29.5755 0.00230401 30.7693 0 32.0019V44.8019C0.00169371 46.2159 0.564141 47.5714 1.56397 48.5712C2.5638 49.5711 3.91937 50.1335 5.33333 50.1352ZM37.3333 60.8019C37.3333 61.0848 37.221 61.3561 37.0209 61.5561C36.8209 61.7562 36.5496 61.8685 36.2667 61.8685H28.8C28.2342 61.8685 27.6916 61.6438 27.2915 61.2437C26.8914 60.8436 26.6667 60.301 26.6667 59.7352C26.6667 59.1694 26.8914 58.6268 27.2915 58.2267C27.6916 57.8266 28.2342 57.6019 28.8 57.6019H36.2667C36.5496 57.6019 36.8209 57.7143 37.0209 57.9143C37.221 58.1143 37.3333 58.3857 37.3333 58.6685V60.8019ZM52.2667 60.8019H39.4667V58.6685H52.2667C53.1154 58.6685 53.9293 58.3314 54.5294 57.7313C55.1295 57.1312 55.4667 56.3172 55.4667 55.4685V50.1352H57.6V55.4685C57.5983 56.8825 57.0359 58.2381 56.036 59.2379C55.0362 60.2377 53.6806 60.8002 52.2667 60.8019ZM61.8667 32.0019V44.8019C61.8667 45.6506 61.5295 46.4645 60.9294 47.0646C60.3293 47.6647 59.5154 48.0019 58.6667 48.0019H54.4C54.1171 48.0019 53.8458 47.8895 53.6458 47.6895C53.4457 47.4894 53.3333 47.2181 53.3333 46.9352V29.8685C53.3333 29.5857 53.4457 29.3143 53.6458 29.1143C53.8458 28.9143 54.1171 28.8019 54.4 28.8019H58.6667C59.5154 28.8019 60.3293 29.139 60.9294 29.7391C61.5295 30.3393 61.8667 31.1532 61.8667 32.0019ZM32 2.13521C38.602 2.14347 44.9461 4.69911 49.7103 9.26954C54.4745 13.84 57.2911 20.0726 57.5733 26.6685H55.44C55.1526 20.6453 52.5576 14.9638 48.1932 10.8027C43.8288 6.64161 38.0301 4.32029 32 4.32029C25.9699 4.32029 20.1712 6.64161 15.8068 10.8027C11.4424 14.9638 8.84739 20.6453 8.56 26.6685H6.42667C6.70885 20.0726 9.52553 13.84 14.2897 9.26954C19.0539 4.69911 25.398 2.14347 32 2.13521ZM2.13333 32.0019C2.13333 31.1532 2.47048 30.3393 3.07059 29.7391C3.67071 29.139 4.48464 28.8019 5.33333 28.8019H9.6C9.8829 28.8019 10.1542 28.9143 10.3542 29.1143C10.5543 29.3143 10.6667 29.5857 10.6667 29.8685V46.9352C10.6667 47.2181 10.5543 47.4894 10.3542 47.6895C10.1542 47.8895 9.8829 48.0019 9.6 48.0019H5.33333C4.48464 48.0019 3.67071 47.6647 3.07059 47.0646C2.47048 46.4645 2.13333 45.6506 2.13333 44.8019V32.0019Z" fill="#FF5E14"/>
<path d="M18.4432 44.2953C18.8289 44.5792 19.2863 44.7497 19.7638 44.7874C20.2412 44.8251 20.7196 44.7285 21.1451 44.5087L23.9995 43.0548L26.8528 44.5129C27.278 44.7338 27.7567 44.8309 28.2343 44.7931C28.712 44.7554 29.1694 44.5844 29.5547 44.2996C29.9312 44.0252 30.2232 43.6508 30.3978 43.2189C30.5724 42.787 30.6225 42.3148 30.5424 41.8559L30.1019 39.3801L31.9995 38.3988L33.8971 39.3801L33.4555 41.8623C33.3763 42.3203 33.427 42.7914 33.6018 43.2222C33.7765 43.6529 34.0684 44.0261 34.4443 44.2996C34.8296 44.5844 35.2871 44.7554 35.7647 44.7931C36.2423 44.8309 36.721 44.7338 37.1462 44.5129L39.9995 43.0548L42.8528 44.5129C43.278 44.7338 43.7567 44.8309 44.2343 44.7931C44.712 44.7554 45.1694 44.5844 45.5547 44.2996C45.9314 44.0253 46.2236 43.651 46.3982 43.219C46.5728 42.7871 46.6227 42.3148 46.5424 41.8559L46.0091 38.8169L48.2971 36.6548C48.6376 36.3315 48.8795 35.9183 48.9946 35.4631C49.1098 35.0079 49.0936 34.5294 48.9478 34.0831C48.801 33.6316 48.5295 33.2309 48.1646 32.9272C47.7998 32.6235 47.3565 32.4292 46.8859 32.3668L43.703 31.9124L42.504 29.5455C42.6982 28.9857 42.7071 28.3784 42.5296 27.8132C42.3675 27.3051 42.0645 26.8535 41.6559 26.5108C41.2473 26.1681 40.7499 25.9484 40.2214 25.8772L36.3014 25.3161L34.552 21.8292C34.3128 21.3576 33.9476 20.9615 33.4969 20.6849C33.0463 20.4082 32.5278 20.2617 31.999 20.2617C31.4702 20.2617 30.9517 20.4082 30.5011 20.6849C30.0504 20.9615 29.6852 21.3576 29.4459 21.8292L27.6966 25.3161L23.7776 25.8772C23.2489 25.9482 22.7513 26.1679 22.3425 26.5106C21.9337 26.8533 21.6305 27.305 21.4683 27.8132C21.2901 28.3791 21.2994 28.9874 21.495 29.5476L20.3014 31.9049L17.1195 32.3593C16.6484 32.4214 16.2045 32.6156 15.8392 32.9195C15.4739 33.2235 15.2022 33.6247 15.0555 34.0767C14.9099 34.5246 14.8944 35.0047 15.0109 35.4611C15.1274 35.9175 15.3711 36.3315 15.7136 36.6548L17.9942 38.8095L17.4534 41.8548C17.3739 42.3134 17.4246 42.7852 17.5995 43.2165C17.7745 43.6479 18.0668 44.0216 18.4432 44.2953ZM46.583 34.4745C46.6579 34.4806 46.7293 34.5088 46.7881 34.5555C46.847 34.6022 46.8907 34.6654 46.9136 34.7369C46.9369 34.801 46.9405 34.8706 46.9239 34.9367C46.9074 35.0028 46.8715 35.0625 46.8208 35.1081L44.1211 37.6575C43.9925 37.7785 43.8959 37.9295 43.84 38.0971C43.7842 38.2646 43.7708 38.4435 43.8011 38.6175L44.4411 42.2175C44.454 42.2855 44.4466 42.3558 44.4196 42.4196C44.3926 42.4833 44.3474 42.5377 44.2896 42.5759C44.2239 42.6266 44.1448 42.6571 44.062 42.6635C43.9792 42.67 43.8963 42.6521 43.8235 42.6121L40.4848 40.9054C40.3347 40.8282 40.1683 40.7879 39.9995 40.7879C39.8307 40.7879 39.6643 40.8282 39.5142 40.9054L36.1744 42.6121C36.1014 42.6512 36.0187 42.6685 35.9361 42.6621C35.8535 42.6557 35.7745 42.6257 35.7083 42.5759C35.6511 42.5387 35.6061 42.4855 35.5789 42.4229C35.5518 42.3603 35.5437 42.291 35.5558 42.2239L35.8896 40.3433C36.3256 40.5027 36.794 40.5523 37.2536 40.488C37.7132 40.4236 38.15 40.2472 38.5254 39.9743C38.9501 39.6667 39.2797 39.2458 39.4765 38.7597C39.6732 38.2735 39.7292 37.7419 39.6379 37.2255L38.9712 33.4036L41.0544 31.4057L42.0454 33.3631C42.1229 33.5161 42.2362 33.6481 42.3757 33.748C42.5151 33.8479 42.6766 33.9127 42.8464 33.9369L46.583 34.4745ZM23.4992 28.4692C23.5391 28.342 23.615 28.2292 23.7179 28.1446C23.8207 28.0599 23.946 28.007 24.0784 27.9924L28.551 27.3524C28.7216 27.3281 28.8838 27.2628 29.0237 27.1621C29.1636 27.0614 29.277 26.9283 29.3542 26.7742L31.3595 22.7881C31.4215 22.6707 31.5143 22.5723 31.628 22.5037C31.7418 22.4351 31.872 22.3989 32.0048 22.3989C32.1377 22.3989 32.2679 22.4351 32.3817 22.5037C32.4954 22.5723 32.5882 22.6707 32.6502 22.7881L34.6448 26.7721C34.722 26.9261 34.8352 27.0591 34.9749 27.1597C35.1146 27.2604 35.2765 27.3258 35.447 27.3503L39.9206 27.9903C40.0528 28.0051 40.1779 28.0581 40.2805 28.1427C40.3832 28.2274 40.459 28.3401 40.4987 28.467C40.5392 28.5868 40.5438 28.7157 40.5122 28.8381C40.4806 28.9605 40.414 29.071 40.3206 29.1561L37.0843 32.2591C36.958 32.3802 36.8634 32.5305 36.8089 32.6968C36.7544 32.8631 36.7416 33.0403 36.7718 33.2127L37.5355 37.5935C37.5583 37.7176 37.5449 37.8457 37.4971 37.9626C37.4493 38.0794 37.3689 38.1801 37.2656 38.2526C37.1551 38.3351 37.0235 38.3844 36.886 38.395C36.7486 38.4056 36.6109 38.3769 36.4891 38.3124L32.4891 36.2431C32.3374 36.1653 32.1694 36.1247 31.999 36.1247C31.8285 36.1247 31.6605 36.1653 31.5088 36.2431L27.5099 38.3124C27.3879 38.3769 27.2501 38.4055 27.1125 38.3949C26.9749 38.3844 26.8431 38.335 26.7323 38.2526C26.6292 38.1802 26.549 38.0797 26.5012 37.963C26.4534 37.8464 26.4399 37.7185 26.4624 37.5945L27.2262 33.2127C27.2563 33.0403 27.2436 32.8631 27.1891 32.6968C27.1346 32.5305 27.04 32.3802 26.9136 32.2591L23.6795 29.1583C23.5857 29.0733 23.5187 28.963 23.4867 28.8406C23.4547 28.7182 23.4591 28.5891 23.4992 28.4692ZM17.1867 35.1156C17.1331 35.0706 17.0943 35.0105 17.0752 34.9432C17.0562 34.8759 17.0579 34.8044 17.08 34.738C17.1035 34.6658 17.1478 34.6023 17.2075 34.5554C17.2671 34.5084 17.3393 34.4803 17.415 34.4745L21.1483 33.9412C21.3181 33.917 21.4796 33.8522 21.6191 33.7523C21.7585 33.6524 21.8718 33.5203 21.9494 33.3673L22.9403 31.411L25.0224 33.4079L24.36 37.2255C24.2693 37.7412 24.3253 38.272 24.5216 38.7574C24.718 39.2429 25.0467 39.6634 25.4704 39.9711C25.8416 40.2539 26.2789 40.437 26.7409 40.5029C27.2028 40.5688 27.674 40.5153 28.1094 40.3476L28.4411 42.2143C28.454 42.2823 28.4466 42.3526 28.4196 42.4164C28.3926 42.4801 28.3474 42.5345 28.2896 42.5726C28.2238 42.6236 28.1445 42.6542 28.0615 42.6607C27.9785 42.6671 27.8954 42.6491 27.8224 42.6089L24.4848 40.9023C24.3344 40.8253 24.1679 40.7852 23.999 40.7852C23.83 40.7852 23.6635 40.8253 23.5131 40.9023L20.1755 42.6089C20.1021 42.6482 20.0191 42.6656 19.9361 42.6592C19.8531 42.6528 19.7737 42.6227 19.7072 42.5726C19.6505 42.535 19.6059 42.4817 19.5788 42.4193C19.5517 42.3568 19.5434 42.2878 19.5547 42.2207L20.1947 38.6143C20.225 38.4403 20.2117 38.2614 20.1558 38.0939C20.0999 37.9263 20.0034 37.7753 19.8747 37.6542L17.1867 35.1156Z" fill="#FF5E14"/>
</g>
<defs>
<clipPath id="clip0_1_11419">
<rect width="64" height="64" fill="white"/>
</clipPath>
</defs>
</svg>
