<svg width="64" height="64" viewBox="0 0 64 64" fill="none" xmlns="http://www.w3.org/2000/svg">
<g clip-path="url(#clip0_2404_13)">
<path d="M52.4839 8.41629C51.0868 8.04017 49.626 8.23304 48.3712 8.95929C45.7847 10.4564 44.8884 13.783 46.3731 16.3752C47.0931 17.6322 48.2587 18.5314 49.6552 18.9074C50.122 19.0332 50.5958 19.0953 51.0668 19.0953C52.0054 19.0953 52.9325 18.8482 53.7681 18.3645C56.3546 16.8674 57.2509 13.5408 55.7662 10.9487C55.046 9.69154 53.8803 8.79229 52.4839 8.41629ZM52.8288 16.7417C52.0085 17.2162 51.0546 17.3423 50.1425 17.0969C49.2311 16.8515 48.4703 16.2643 47.9999 15.4433C47.0268 13.7442 47.6145 11.5635 49.3101 10.582C49.8565 10.2659 50.4623 10.1044 51.0755 10.1044C51.3828 10.1044 51.692 10.1449 51.9963 10.2268C52.9076 10.4722 53.6686 11.0594 54.139 11.8804C55.1123 13.5797 54.5245 15.7603 52.8288 16.7417Z" fill="#777A83"/>
<path d="M63.2657 16.5219L61.5223 15.0197C61.6597 13.986 61.6442 12.9494 61.4763 11.9256L63.119 10.5161C63.8457 9.8925 64.0281 8.837 63.5525 8.00638L62.0443 5.37375C61.5665 4.53975 60.5621 4.16687 59.6563 4.48725L57.489 5.25338C56.67 4.6245 55.7692 4.12438 54.8 3.76038L54.4088 1.63163C54.2353 0.686 53.4127 0 52.4532 0C52.4531 0 52.4528 0 52.4527 0L49.4237 0.000375C48.4663 0.000625 47.6422 0.685125 47.4643 1.62775L47.0355 3.89975C46.0917 4.2955 45.184 4.84262 44.3922 5.49337L42.3618 4.77488C41.4583 4.45538 40.4535 4.82663 39.9727 5.65863L38.4517 8.2915C37.9718 9.12213 38.15 10.1784 38.8752 10.8031L40.6186 12.3053C40.4813 13.3389 40.4967 14.3755 40.6647 15.3994L39.0221 16.8089C38.2953 17.4325 38.113 18.488 38.5886 19.3186L40.0965 21.9511C40.5742 22.7851 41.5782 23.1582 42.4846 22.8377L44.652 22.0716C45.4711 22.7005 46.3718 23.2006 47.341 23.5646L47.7321 25.6936C47.9058 26.639 48.7286 27.325 49.6882 27.325L52.7172 27.3246C53.6746 27.3244 54.4986 26.6399 54.6766 25.6971L55.1053 23.4251C56.0487 23.0293 56.9571 22.4822 57.7486 21.8315L59.7793 22.55C60.6828 22.8697 61.6877 22.4979 62.1681 21.6663L63.6892 19.0333C64.169 18.2028 63.9907 17.1466 63.2657 16.5219ZM62.0657 18.0954L60.5446 20.7284C60.5158 20.7782 60.457 20.8007 60.4047 20.7825L57.8596 19.8819C57.5327 19.7661 57.1687 19.8404 56.9133 20.0746C56.0603 20.8566 55.0517 21.4666 53.9632 21.8585C53.6506 21.9709 53.421 22.2404 53.3593 22.5667L52.8342 25.3495C52.8232 25.4075 52.774 25.4496 52.717 25.4496L49.6882 25.45C49.6335 25.45 49.5865 25.4099 49.5762 25.3546L49.0863 22.688C49.0236 22.3467 48.7773 22.0679 48.4465 21.9634C47.3356 21.6128 46.325 21.053 45.4428 20.2997C45.151 20.077 44.844 20.02 44.5216 20.1289L41.8596 21.0697C41.8075 21.0884 41.7513 21.0675 41.7236 21.0191L40.2157 18.3866C40.1865 18.3356 40.1978 18.2704 40.2431 18.2316L42.2978 16.4684C42.5598 16.2436 42.677 15.8931 42.6031 15.556C42.3537 14.4195 42.3352 13.2587 42.548 12.1059C42.6085 11.7781 42.4905 11.4429 42.2381 11.2255L40.0991 9.38262C40.0556 9.34512 40.0456 9.28075 40.0753 9.22937L41.5963 6.5965C41.6251 6.54675 41.684 6.52413 41.7363 6.54225L44.2815 7.44287C44.6081 7.55837 44.9722 7.48425 45.2278 7.25C46.0805 6.46812 47.0892 5.85762 48.1776 5.46625C48.4902 5.35387 48.72 5.08437 48.7816 4.758L49.3068 1.97512C49.3177 1.91712 49.3671 1.875 49.4241 1.875H52.4531C52.5077 1.875 52.5546 1.915 52.5647 1.97037L53.0547 4.637C53.1175 4.97825 53.3637 5.25713 53.6946 5.36163C54.8057 5.71238 55.8163 6.272 56.6982 7.02525C56.9527 7.24237 57.3037 7.30763 57.6195 7.19613L60.2815 6.25513C60.3342 6.23663 60.3897 6.25762 60.4175 6.30587L61.9253 8.93838C61.9546 8.98938 61.9432 9.05463 61.898 9.09338L59.8432 10.8566C59.5812 11.0814 59.4641 11.4319 59.538 11.769C59.7872 12.9053 59.8058 14.066 59.593 15.2191C59.5325 15.5469 59.6505 15.8821 59.9028 16.0995L62.0418 17.9424C62.0852 17.9798 62.0952 18.0443 62.0657 18.0954Z" fill="#777A83"/>
<path d="M13.6015 33.7656C13.601 32.1005 12.2191 30.6286 10.5287 30.6362L10.001 30.6349L9.9971 25.946C9.99573 24.5221 7.77498 24.8579 8.12235 26.1855L8.12598 30.63C7.22835 30.6276 6.3306 30.6253 5.43298 30.6229L5.4196 14.5549C5.41948 14.3888 5.37523 14.2256 5.29148 14.0824L3.05898 10.2647L3.05773 5.22913L10.4697 5.26363L10.471 10.2389L8.23985 14.0741C8.15635 14.2175 8.11248 14.3804 8.1126 14.5463L8.11773 20.7272C7.80398 22.0319 9.9941 22.2625 9.99285 20.9479L9.98785 14.7981L12.2189 10.9631C12.3022 10.8199 12.3461 10.6571 12.3461 10.4915L12.3436 0.93725C12.3436 0.45375 11.8971 0 11.4034 0L2.11635 0.027125C1.60798 0.0285 1.18248 0.453875 1.1816 0.9625L1.1841 10.5191C1.1841 10.6854 1.22835 10.8486 1.31223 10.9921L3.54485 14.81L3.55798 30.6179L3.02948 30.6165C-0.620648 30.627 -1.08577 36.258 2.50373 36.884L2.47323 55.5734C2.4651 61.2981 11.064 61.2545 11.0717 55.5955L11.1024 36.8511C12.5237 36.5727 13.602 35.2941 13.6015 33.7656ZM3.05723 3.35413L3.05685 1.89937L10.4687 1.87762L10.4691 3.38862L3.05723 3.35413ZM6.78385 58.1051C5.44798 58.1051 4.34635 56.8852 4.34823 55.5765L4.37873 36.9263L9.22723 36.9121L9.19673 55.5929C9.19485 56.9741 8.11235 58.1013 6.78385 58.1051ZM10.5247 35.0332L3.03048 35.0551C1.51435 35.0551 1.52748 32.4959 3.02973 32.4916L10.529 32.5112C12.0334 32.5112 12.0441 35.0287 10.5247 35.0332Z" fill="#777A83"/>
<path d="M60.018 53.1382L60.0161 48.993C60.0134 42.1875 56.9401 35.8378 51.5846 31.5719C51.0499 31.1458 50.1474 31.1025 49.5683 31.4757C47.5224 30.0867 45.2808 29.0789 42.8845 28.4728C42.979 27.9698 42.8771 27.2777 42.379 27.0188C39.3965 25.4693 35.8359 25.4705 32.8549 27.0228C32.3569 27.282 32.2556 27.975 32.3506 28.478C31.2511 28.757 30.1841 29.1204 29.1536 29.5667L29.2455 18.5284C33.0653 17.581 35.0826 15.113 35.0935 11.3517C35.1056 7.1854 32.6325 2.38803 29.3409 0.192778C28.5451 -0.129347 28.0593 0.129653 27.8833 0.970029L27.8605 8.76203C27.8263 9.18115 27.6035 9.4119 27.1923 9.4544L23.2384 9.43465C22.8689 9.43278 22.5693 9.11753 22.5704 8.73165L22.593 0.939529C22.4226 0.0996534 21.9391 -0.162722 21.1423 0.152403C17.8366 2.31565 15.3346 7.08953 15.3225 11.2568C15.3116 15.0148 17.3124 17.5013 21.1219 18.487L21.0183 34.0539C17.308 38.131 15.234 43.4178 15.2364 49.0118L15.2381 53.1464C11.5414 54.275 12.2563 59.9343 16.2084 59.9343C18.9736 59.9343 21.5595 60.7564 23.9734 62.0527C26.3973 63.3263 29.1265 63.9994 31.8664 63.9994H31.8735L43.3918 63.9945C46.1343 63.9933 48.8655 63.3179 51.2903 62.0413C53.7019 60.7302 56.2863 59.9174 59.052 59.9163C62.9504 59.9148 63.7763 54.2359 60.018 53.1382ZM48.7804 33.2093L48.785 44.2039C48.7853 44.7217 49.2049 45.141 49.7225 45.141H49.7229C50.2408 45.1408 50.6603 44.7209 50.66 44.2032L50.6554 33.2317C55.4143 37.1372 58.1386 42.8643 58.1413 48.9939L58.1431 52.9915H50.6639L50.6621 49.1864C50.6619 48.6687 50.2423 48.2493 49.7246 48.2493C49.7245 48.2493 49.7244 48.2493 49.7243 48.2493C49.2064 48.2495 48.7869 48.6694 48.7871 49.1872L48.7888 52.9917H42.895L42.8855 30.4129C44.9987 31.0027 46.9754 31.9404 48.7804 33.2093ZM41.0096 28.4412L41.02 52.9914H34.2361L34.2258 28.4439C36.385 27.4962 38.8495 27.4952 41.0096 28.4412ZM32.361 52.9915H26.4674L26.459 33.2187C28.2435 31.9619 30.2501 31.0065 32.3515 30.418L32.361 52.9915ZM17.1976 11.2623C17.206 8.3769 18.6645 5.05215 20.7123 2.9404L20.6955 8.72628C20.6914 10.1439 21.828 11.3028 23.2293 11.3098L27.1831 11.3295C28.5499 11.3295 29.7318 10.131 29.7356 8.76753L29.7525 2.98853C31.7881 5.1214 33.2271 8.46078 33.2186 11.3464C33.2098 14.4179 31.5496 16.2179 28.1435 16.849C27.702 16.9308 27.3805 17.314 27.3768 17.763L27.2708 30.4953C26.7245 30.7999 26.191 31.131 25.6695 31.4858C25.0904 31.1132 24.1876 31.1569 23.6534 31.5837C23.3984 31.7872 23.1503 31.9968 22.9056 32.2097L23.0019 17.7459C23.0048 17.2953 22.6868 16.906 22.2443 16.8197C18.8394 16.1537 17.1886 14.3359 17.1976 11.2623ZM24.5839 33.2425L24.5923 52.9914H17.113L17.1113 49.011C17.1089 42.8815 19.8283 37.152 24.5839 33.2425ZM60.2089 57.5505C59.9034 57.8668 59.4921 58.041 59.0511 58.0413C55.9855 58.0425 53.0969 58.9428 50.4166 60.3822C48.26 61.5178 45.8306 62.1187 43.391 62.1195L31.8728 62.1244C31.8704 62.1244 31.8686 62.1244 31.8664 62.1244C29.4293 62.1243 27.0014 61.5257 24.8455 60.3928C22.2486 59.004 19.2068 57.8927 16.2084 58.0593C14.1078 58.0593 14.1486 54.8673 16.2739 54.8664H25.5301H33.2987H41.9576H49.7264H58.9829C60.3046 54.9453 61.241 56.4823 60.2089 57.5505Z" fill="#777A83"/>
</g>
<defs>
<clipPath id="clip0_2404_13">
<rect width="64" height="64" fill="white"/>
</clipPath>
</defs>
</svg>
