<svg width="65" height="65" viewBox="0 0 65 65" fill="none" xmlns="http://www.w3.org/2000/svg">
<g clip-path="url(#clip0_2404_44)">
<g clip-path="url(#clip1_2404_44)">
<path fill-rule="evenodd" clip-rule="evenodd" d="M51.2744 49.1884L50.071 53.6387L42.2489 49.1286L42.9496 42.9236C42.9796 42.607 43.0768 42.3006 43.2349 42.0247C43.393 41.7488 43.6081 41.5099 43.866 41.3239L54.3355 33.4958C54.6275 33.5245 54.9074 33.6272 55.1488 33.7941C55.3901 33.961 55.585 34.1867 55.715 34.4497C55.8451 34.7128 55.906 35.0046 55.892 35.2978C55.878 35.5909 55.7896 35.8756 55.6351 36.1251L50.3824 40.0542C50.1677 40.2159 50.0258 40.456 49.9878 40.7221C49.9497 40.9882 50.0186 41.2585 50.1794 41.4739C50.3402 41.6893 50.5797 41.8323 50.8456 41.8715C51.1115 41.9107 51.3821 41.843 51.5982 41.6832L56.9887 37.6461C57.0701 37.5887 57.141 37.5178 57.1984 37.4364C57.6186 36.8594 57.867 36.1753 57.9147 35.4631C57.9624 34.7509 57.8075 34.0398 57.4679 33.412C57.3894 33.2654 57.2993 33.1253 57.1984 32.993L59.966 19.9002C60.0674 19.7394 60.2133 19.6113 60.386 19.5317C60.5587 19.452 60.7508 19.4241 60.939 19.4514C61.1272 19.4786 61.3035 19.5598 61.4465 19.6852C61.5896 19.8105 61.6932 19.9747 61.7448 20.1577L60.6009 42.0669C60.5876 42.4673 60.4672 42.8568 60.2523 43.195C60.0374 43.5331 59.7358 43.8074 59.3789 43.9895L52.4854 47.6729C52.1887 47.8265 51.9277 48.0408 51.7193 48.3018C51.5108 48.5629 51.3596 48.8649 51.2755 49.1882L51.2744 49.1884ZM24.5976 52.3623C24.3683 52.4986 24.2018 52.7197 24.1341 52.9778C24.0664 53.2358 24.1031 53.5102 24.236 53.7415C24.369 53.9728 24.5876 54.1425 24.8447 54.2139C25.1017 54.2853 25.3766 54.2527 25.6098 54.1231L25.6818 54.0812C25.7988 54.0155 25.9017 53.9272 25.9845 53.8215C26.0672 53.7158 26.1282 53.5947 26.1638 53.4653C26.1995 53.3359 26.2091 53.2007 26.1922 53.0675C26.1753 52.9343 26.1321 52.8058 26.0652 52.6894C25.9983 52.5731 25.909 52.4711 25.8024 52.3894C25.6959 52.3078 25.5742 52.2481 25.4444 52.2137C25.3146 52.1794 25.1793 52.1711 25.0463 52.1894C24.9133 52.2077 24.7853 52.2522 24.6696 52.3202L24.5976 52.3623ZM38.9422 52.6916C38.8099 52.9263 38.7753 53.2037 38.8459 53.4638C38.9165 53.7238 39.0867 53.9456 39.3196 54.0812L39.3914 54.1231C39.5452 54.2091 39.7184 54.2545 39.8946 54.2549C40.1179 54.255 40.3349 54.1815 40.5122 54.0457C40.6895 53.9099 40.817 53.7194 40.875 53.5038C40.933 53.2882 40.9182 53.0595 40.833 52.8531C40.7478 52.6467 40.5969 52.4742 40.4036 52.3623L40.3318 52.3202C40.0982 52.1855 39.8207 52.149 39.5602 52.2186C39.2997 52.2882 39.0774 52.4583 38.9422 52.6916ZM53.4365 49.4641L60.3301 45.7805C60.9975 45.4344 61.5617 44.9181 61.9655 44.2839C62.3694 43.6497 62.5986 42.9201 62.63 42.1689L63.7799 20.128C63.785 20.0499 63.781 19.9715 63.768 19.8944C63.6558 19.2686 63.3488 18.6942 62.8908 18.2532C62.4328 17.8122 61.8472 17.5272 61.2176 17.4389C60.5879 17.3506 59.9465 17.4635 59.3848 17.7614C58.8232 18.0593 58.37 18.5271 58.09 19.0979C58.0506 19.1712 58.0224 19.2499 58.0062 19.3315L55.401 31.6636C54.9342 31.4996 54.4394 31.4306 53.9456 31.4604C53.7462 31.4734 53.5548 31.544 53.3946 31.6636L42.6496 39.6953C42.1713 40.0496 41.7716 40.4991 41.4757 41.0156C41.1798 41.5321 40.9941 42.1043 40.9304 42.6961L40.3314 48.0146L40.2775 47.9906C40.078 47.8733 39.8571 47.7969 39.6277 47.766C39.3984 47.7352 39.1652 47.7504 38.9418 47.8109C38.7179 47.8705 38.508 47.9737 38.3241 48.1145C38.1401 48.2553 37.9857 48.431 37.8697 48.6315L33.5517 56.1122C33.3187 56.5175 33.256 56.9986 33.3774 57.45C33.4988 57.9015 33.7944 58.2863 34.1992 58.52L46.7409 65.7612C47.0087 65.9159 47.312 65.9985 47.6213 66.0007C47.7771 66.0018 47.9322 65.9817 48.0825 65.9408C48.5352 65.818 48.9207 65.5208 49.1547 65.1143L53.4725 57.6458C53.7046 57.2388 53.767 56.7568 53.6461 56.3042C53.5865 56.0803 53.4833 55.8704 53.3426 55.6865C53.2018 55.5025 53.0261 55.3481 52.8256 55.232L51.8913 54.693L53.2329 49.7218C53.2448 49.6662 53.2693 49.614 53.3045 49.5694C53.3397 49.5248 53.3847 49.4888 53.436 49.4643L53.4365 49.4641ZM22.0524 42.9236L22.7531 49.1286L14.9304 53.6387L13.7265 49.1884C13.6424 48.8652 13.4912 48.5632 13.2828 48.3021C13.0744 48.0411 12.8134 47.8268 12.5167 47.6731L5.62318 43.9897C5.26709 43.8067 4.96619 43.5321 4.75142 43.1942C4.53666 42.8563 4.4158 42.4672 4.40126 42.0671L3.25741 20.1579C3.30946 19.9746 3.41355 19.8102 3.55708 19.6848C3.7006 19.5593 3.87742 19.4782 4.0661 19.4512C4.25471 19.4253 4.44678 19.4539 4.61971 19.5335C4.79264 19.613 4.93924 19.7404 5.04225 19.9005L7.80335 32.9933C7.70252 33.1255 7.61243 33.2656 7.53396 33.4122C7.19435 34.04 7.03943 34.7512 7.0871 35.4634C7.13478 36.1756 7.3831 36.8597 7.80335 37.4366C7.86236 37.5167 7.93306 37.5874 8.01308 37.6464L13.4035 41.6835C13.5104 41.764 13.6322 41.8226 13.7618 41.856C13.8915 41.8893 14.0264 41.8967 14.1589 41.8778C14.2914 41.8588 14.4189 41.8139 14.5339 41.7456C14.649 41.6772 14.7495 41.5868 14.8296 41.4796C14.9096 41.3723 14.9677 41.2503 15.0005 41.1205C15.0332 40.9907 15.0401 40.8557 15.0205 40.7233C15.001 40.5909 14.9555 40.4636 14.8866 40.3488C14.8178 40.2341 14.727 40.134 14.6193 40.0544L9.36665 36.1256C9.2122 35.8761 9.12382 35.5914 9.10986 35.2982C9.09589 35.0051 9.1568 34.7133 9.28684 34.4502C9.41688 34.1872 9.61176 33.9616 9.85312 33.7947C10.0945 33.6278 10.3744 33.5251 10.6664 33.4963L21.1357 41.3245C21.3936 41.5104 21.6088 41.7493 21.7668 42.0252C21.9249 42.3011 22.0222 42.6075 22.0522 42.9241L22.0524 42.9236ZM11.0559 31.4597C11.2555 31.4717 11.4472 31.5423 11.6069 31.6628L22.3519 39.7006C22.8315 40.0523 23.2321 40.5004 23.5282 41.0161C23.8242 41.5319 24.0091 42.1038 24.0709 42.6953L24.6698 48.0139L24.7237 47.9899C24.9237 47.8735 25.1448 47.7977 25.3742 47.7669C25.6037 47.7361 25.8369 47.7509 26.0606 47.8105C26.2843 47.87 26.494 47.9731 26.6778 48.1139C26.8615 48.2546 27.0157 48.4303 27.1315 48.6307L31.4498 56.1055C31.6834 56.5115 31.7465 56.9936 31.6252 57.446C31.504 57.8985 31.2083 58.2844 30.8029 58.5192L18.2611 65.7604C17.9933 65.9152 17.69 65.9977 17.3807 66C17.225 66.0007 17.0698 65.9805 16.9195 65.94C16.4668 65.8172 16.0813 65.52 15.8474 65.1136L11.5348 57.6458C11.4181 57.4453 11.3422 57.2237 11.3113 56.9938C11.2804 56.7639 11.2951 56.5302 11.3546 56.3059C11.4141 56.0817 11.5172 55.8715 11.6581 55.6871C11.799 55.5028 11.9748 55.3481 12.1755 55.2318L13.1099 54.6927L11.7684 49.7215C11.7565 49.6659 11.732 49.6138 11.6968 49.5691C11.6616 49.5245 11.6166 49.4885 11.5652 49.4641L4.67167 45.7805C4.00408 45.4345 3.43974 44.9183 3.03575 44.2841C2.63176 43.6499 2.40245 42.9202 2.37103 42.1689L1.22109 20.128C1.21493 20.0497 1.22097 19.9709 1.23899 19.8944C1.35021 19.2687 1.65647 18.6942 2.11395 18.2531C2.57143 17.812 3.1567 17.5268 3.78604 17.4384C4.41537 17.3501 5.05653 17.463 5.61781 17.761C6.1791 18.0591 6.63174 18.527 6.911 19.0979C6.95036 19.1712 6.97864 19.2499 6.99491 19.3315L9.60025 31.6636C10.0671 31.5001 10.5618 31.431 11.0556 31.4604L11.0559 31.4597ZM20.0696 16.0011C20.024 16.1917 19.9248 16.3653 19.7836 16.5011C19.6424 16.637 19.4651 16.7295 19.2729 16.7677L16.6196 17.2769V20.547L19.2729 21.0561C19.4652 21.0943 19.6424 21.1868 19.7836 21.3227C19.9248 21.4586 20.0241 21.6322 20.0696 21.8228C20.3844 23.1744 20.9186 24.4652 21.6508 25.6441C21.7551 25.8108 21.8089 26.0041 21.8057 26.2008C21.8025 26.3974 21.7424 26.5889 21.6327 26.7521L20.1115 28.9865L22.4294 31.2985L24.6637 29.7831C24.8264 29.6725 25.0176 29.6114 25.2142 29.6072C25.4108 29.6029 25.6045 29.6557 25.7718 29.7591C26.8213 30.4139 27.9616 30.9103 29.1559 31.2326V27.1296C27.6004 26.5092 26.244 25.4758 25.233 24.1408C24.0436 22.5625 23.4003 20.6399 23.4003 18.6636C23.4003 16.6873 24.0436 14.7647 25.233 13.1863C26.3997 11.6436 28.0245 10.5095 29.8748 9.94608C30.0265 9.90033 30.1868 9.89062 30.3429 9.91774C30.499 9.94485 30.6466 10.008 30.774 10.1023C30.9014 10.1965 31.005 10.3192 31.0766 10.4605C31.1482 10.6018 31.1858 10.7579 31.1865 10.9164V17.7444C31.1808 17.9513 31.2167 18.1572 31.292 18.3499C31.3673 18.5427 31.4804 18.7184 31.6248 18.8667C31.7691 19.015 31.9417 19.1329 32.1323 19.2134C32.3229 19.2939 32.5278 19.3353 32.7347 19.3353C32.9417 19.3353 33.1465 19.2939 33.3371 19.2134C33.5278 19.1329 33.7004 19.015 33.8447 18.8667C33.989 18.7184 34.1021 18.5427 34.1774 18.3499C34.2527 18.1572 34.2886 17.9513 34.283 17.7444V11.072C34.2835 10.9087 34.3233 10.748 34.3991 10.6033C34.4749 10.4587 34.5844 10.3344 34.7183 10.241C34.8523 10.1476 35.0067 10.0879 35.1687 10.0668C35.3306 10.0457 35.4952 10.0639 35.6486 10.1199C37.3377 10.7435 38.8041 11.8538 39.8625 13.3105C40.9208 14.7671 41.5236 16.5048 41.5948 18.304C41.6659 20.1032 41.2022 21.883 40.2621 23.4187C39.3221 24.9544 37.948 26.177 36.3133 26.932V31.0947C37.3383 30.7755 38.3182 30.3266 39.2292 29.7589C39.3965 29.6554 39.5901 29.6027 39.7868 29.6069C39.9834 29.6112 40.1746 29.6723 40.3372 29.7829L42.5716 31.2982L44.8895 28.9863L43.3683 26.7519C43.2586 26.5887 43.1985 26.3972 43.1953 26.2005C43.1921 26.0039 43.2459 25.8105 43.3502 25.6438C44.0824 24.465 44.6165 23.1741 44.9314 21.8225C44.9769 21.6319 45.0762 21.4584 45.2174 21.3225C45.3586 21.1866 45.5358 21.0941 45.7281 21.0559L48.3814 20.5468V17.2771L45.7281 16.7679C45.5359 16.7297 45.3586 16.6372 45.2174 16.5014C45.0762 16.3655 44.977 16.192 44.9314 16.0014C44.6165 14.6498 44.0824 13.359 43.3502 12.1801C43.2459 12.0134 43.1921 11.82 43.1953 11.6234C43.1985 11.4268 43.2586 11.2353 43.3683 11.072L44.8895 8.83766L42.5718 6.52609L40.3374 8.04141C40.1747 8.152 39.9835 8.21312 39.7869 8.21738C39.5903 8.22164 39.3966 8.16885 39.2293 8.0654C38.0528 7.33152 36.764 6.79544 35.4141 6.47849C35.2221 6.43587 35.047 6.33755 34.9106 6.19585C34.7742 6.05414 34.6827 5.87535 34.6475 5.68186L34.1384 3.02854H30.863L30.3597 5.68186C30.3223 5.87535 30.2292 6.05373 30.092 6.1952C29.9548 6.33668 29.7794 6.43512 29.5871 6.47849C28.2373 6.79549 26.9486 7.33157 25.7722 8.0654C25.6049 8.16885 25.4112 8.22164 25.2146 8.21738C25.018 8.21312 24.8268 8.152 24.6641 8.04141L22.4297 6.52609L20.1116 8.83804L21.6329 11.0724C21.7426 11.2356 21.8026 11.4271 21.8058 11.6238C21.809 11.8204 21.7552 12.0138 21.6509 12.1805C20.9212 13.3606 20.3872 14.651 20.0697 16.0017L20.0696 16.0011ZM15.4104 15.4381C15.1795 15.483 14.9715 15.6067 14.8218 15.7881C14.6721 15.9695 14.5902 16.1972 14.5899 16.4324V21.3918C14.5902 21.6269 14.6721 21.8547 14.8218 22.036C14.9715 22.2174 15.1796 22.3411 15.4104 22.386L18.2554 22.9311C18.5712 24.0505 19.0196 25.1283 19.5909 26.1414L17.9619 28.5371C17.8291 28.7322 17.7685 28.9675 17.7904 29.2025C17.8122 29.4375 17.9153 29.6575 18.0817 29.8248L21.5856 33.3287C21.6797 33.4236 21.7916 33.499 21.915 33.5504C22.0384 33.6018 22.1707 33.6282 22.3043 33.6282C22.5068 33.6269 22.7046 33.5665 22.8733 33.4545L25.2751 31.8254C26.4828 32.5015 27.7791 33.0055 29.1263 33.3227C29.1366 33.3218 29.147 33.3239 29.1562 33.3287V36.7546C29.1554 36.8881 29.181 37.0203 29.2316 37.1438C29.2821 37.2673 29.3565 37.3796 29.4506 37.4742C29.5446 37.5689 29.6565 37.644 29.7797 37.6952C29.9029 37.7464 30.035 37.7728 30.1684 37.7728H35.3013C35.5705 37.7719 35.8283 37.6642 36.0181 37.4732C36.2079 37.2823 36.3141 37.0239 36.3135 36.7546V33.2088C37.505 32.8927 38.6521 32.4278 39.7275 31.8251L42.1292 33.4541C42.3251 33.5858 42.5607 33.6453 42.7956 33.6223C43.0305 33.5994 43.2502 33.4954 43.4169 33.3283L46.9208 29.8244C47.0873 29.6571 47.1903 29.4371 47.2121 29.2021C47.234 28.9671 47.1734 28.7318 47.0406 28.5367L45.4116 26.141C45.983 25.1279 46.4314 24.0502 46.7471 22.9307L49.5921 22.3856C49.823 22.3407 50.031 22.217 50.1807 22.0357C50.3304 21.8543 50.4124 21.6266 50.4126 21.3914V16.4326C50.4124 16.1975 50.3304 15.9697 50.1807 15.7883C50.031 15.6069 49.823 15.4832 49.5921 15.4383L46.7471 14.8933C46.4313 13.7738 45.983 12.6961 45.4116 11.6829L47.0406 9.2872C47.1734 9.09207 47.234 8.8568 47.2121 8.62181C47.1903 8.38683 47.0873 8.16679 46.9208 7.99951L43.4169 4.49561C43.2502 4.3285 43.0305 4.22456 42.7956 4.20161C42.5607 4.17866 42.3251 4.23811 42.1292 4.36979L39.7269 5.99898C38.714 5.42844 37.6361 4.98203 36.5165 4.6694L35.9774 1.82451C35.9325 1.59209 35.8082 1.38251 35.6257 1.23172C35.4433 1.08094 35.214 0.998321 34.9773 0.998047H30.024C29.7872 0.998345 29.558 1.08097 29.3755 1.23175C29.1931 1.38254 29.0687 1.5921 29.0238 1.82451L28.4848 4.66953C27.3652 4.98214 26.2873 5.42851 25.2745 5.99898L22.8727 4.36992C22.6768 4.23824 22.4412 4.17878 22.2063 4.20174C21.9713 4.22469 21.7517 4.32862 21.585 4.49573L18.0811 7.99964C17.9146 8.16692 17.8116 8.38695 17.7897 8.62194C17.7679 8.85693 17.8285 9.09219 17.9613 9.28732L19.5903 11.6831C19.0184 12.6952 18.5719 13.7733 18.2607 14.8934L15.4104 15.4381Z" fill="#777A83"/>
</g>
</g>
<defs>
<clipPath id="clip0_2404_44">
<rect width="65" height="65" fill="white"/>
</clipPath>
<clipPath id="clip1_2404_44">
<rect width="65" height="65" fill="white" transform="translate(0 1)"/>
</clipPath>
</defs>
</svg>
