<svg width="65" height="65" viewBox="0 0 65 65" fill="none" xmlns="http://www.w3.org/2000/svg">
<path d="M53.1135 41.9084L45.8138 49.2302L42.9516 46.3459C42.5338 45.9281 41.9671 45.6934 41.3763 45.6934C40.7854 45.6934 40.2188 45.9281 39.801 46.3459C39.3832 46.7637 39.1484 47.3303 39.1484 47.9212C39.1484 48.512 39.3832 49.0787 39.801 49.4965L44.2385 53.934C44.4447 54.142 44.6901 54.307 44.9605 54.4197C45.2309 54.5323 45.5209 54.5903 45.8138 54.5903C46.1067 54.5903 46.3967 54.5323 46.667 54.4197C46.9374 54.307 47.1828 54.142 47.3891 53.934L56.2641 45.059C56.4709 44.8521 56.6351 44.6065 56.747 44.3362C56.859 44.0659 56.9166 43.7762 56.9166 43.4837C56.9166 43.1911 56.859 42.9014 56.747 42.6311C56.6351 42.3608 56.4709 42.1152 56.2641 41.9084C56.0572 41.7015 55.8116 41.5374 55.5413 41.4254C55.271 41.3135 54.9813 41.2559 54.6888 41.2559C54.3962 41.2559 54.1065 41.3135 53.8362 41.4254C53.5659 41.5374 53.3203 41.7015 53.1135 41.9084Z" fill="#777A83"/>
<path d="M32.5 1.32812C24.2617 1.32813 16.3608 4.60077 10.5355 10.4261C4.71015 16.2515 1.4375 24.1523 1.4375 32.3906C1.4375 40.6289 4.71015 48.5298 10.5355 54.3551C16.3608 60.1805 24.2617 63.4531 32.5 63.4531C35.593 63.4525 38.6679 62.9812 41.6191 62.0553C44.4944 63.3531 47.6967 63.7446 50.8 63.1777C53.9032 62.6107 56.7603 61.1122 58.9909 58.8816C61.2216 56.6509 62.7201 53.7939 63.287 50.6906C63.854 47.5873 63.4625 44.385 62.1647 41.5097C63.0905 38.5585 63.5619 35.4836 63.5625 32.3906C63.5625 24.1523 60.2899 16.2515 54.4645 10.4261C48.6392 4.60077 40.7383 1.32813 32.5 1.32812ZM5.875 32.3906C5.875 25.3292 8.68013 18.5571 13.6733 13.5639C18.6664 8.57075 25.4386 5.76563 32.5 5.76563C39.5614 5.76563 46.3336 8.57075 51.3267 13.5639C56.3199 18.5571 59.125 25.3292 59.125 32.3906C59.1349 33.8773 59.0162 35.362 58.77 36.8281C56.4544 34.5395 53.4703 33.0475 50.25 32.5681C50.2599 32.5094 50.2599 32.4494 50.25 32.3906C50.25 31.8022 50.0162 31.2378 49.6001 30.8217C49.184 30.4056 48.6197 30.1719 48.0312 30.1719H34.7188V12.4219C34.7188 11.8334 34.485 11.2691 34.0689 10.853C33.6528 10.4369 33.0884 10.2031 32.5 10.2031C31.9116 10.2031 31.3472 10.4369 30.9311 10.853C30.515 11.2691 30.2812 11.8334 30.2812 12.4219V32.3906C30.2812 32.9791 30.515 33.5434 30.9311 33.9595C31.3472 34.3756 31.9116 34.6094 32.5 34.6094H40.0659C38.075 35.8177 36.3812 37.4584 35.1101 39.4099C33.839 41.3614 33.023 43.5738 32.7226 45.8833C32.4222 48.1928 32.6451 50.5403 33.3746 52.7521C34.1042 54.9638 35.3219 56.9831 36.9375 58.6606C35.4713 58.9068 33.9866 59.0256 32.5 59.0156C25.4386 59.0156 18.6664 56.2105 13.6733 51.2173C8.68013 46.2242 5.875 39.452 5.875 32.3906ZM48.0312 59.0156C45.8371 59.0156 43.6923 58.365 41.8679 57.146C40.0435 55.927 38.6216 54.1944 37.782 52.1673C36.9423 50.1402 36.7226 47.9096 37.1507 45.7576C37.5787 43.6056 38.6353 41.6289 40.1868 40.0774C41.7383 38.5259 43.715 37.4693 45.867 37.0413C48.0189 36.6132 50.2495 36.8329 52.2766 37.6726C54.3038 38.5122 56.0364 39.9342 57.2554 41.7585C58.4744 43.5829 59.125 45.7277 59.125 47.9219C59.125 50.8641 57.9562 53.6859 55.8757 55.7663C53.7952 57.8468 50.9735 59.0156 48.0312 59.0156Z" fill="#777A83"/>
</svg>
