<svg width="58" height="58" viewBox="0 0 58 58" fill="none" xmlns="http://www.w3.org/2000/svg">
<path fill-rule="evenodd" clip-rule="evenodd" d="M28.63 18.2958C23.0327 18.2958 18.4795 22.9724 18.4795 28.7204C18.48 34.4685 23.0322 39.1448 28.6297 39.1448C34.2264 39.1447 38.78 34.4685 38.78 28.7204C38.7801 22.9724 34.2262 18.2959 28.63 18.2958ZM28.63 40.4602C22.3071 40.4602 17.1641 35.1938 17.1641 28.7204C17.1645 22.2471 22.3071 16.9805 28.6297 16.9805C34.9514 16.9804 40.0954 22.2471 40.0954 28.7204C40.0955 35.1937 34.9513 40.4603 28.63 40.4602Z" fill="#FF5E14"/>
<path fill-rule="evenodd" clip-rule="evenodd" d="M26.4575 47.3835H30.8026L31.3345 43.7302C31.3735 43.4605 31.5753 43.2429 31.8413 43.1833C33.4777 42.8168 35.0454 42.1611 36.5002 41.2341C36.7309 41.087 37.0289 41.0983 37.2482 41.2627L40.183 43.464L43.2614 40.3553L41.076 37.3883C40.9151 37.1702 40.9044 36.8762 41.0484 36.6471C41.9722 35.1844 42.6196 33.6052 42.9713 31.9531C43.0297 31.6836 43.2488 31.4784 43.5217 31.4392L47.1348 30.9199V26.5235L43.5194 25.9924C43.249 25.9528 43.0318 25.7503 42.9724 25.4836C42.6083 23.8299 41.9595 22.2481 41.0461 20.7815C40.9049 20.5528 40.9159 20.2606 41.0757 20.0437L43.2614 17.0766L40.183 13.9681L37.2483 16.1694C37.0289 16.3338 36.7309 16.3451 36.5002 16.1979C35.0388 15.2668 33.472 14.6112 31.8425 14.249C31.5754 14.1895 31.3731 13.9721 31.3342 13.7019L30.8026 10.0615H26.4575L25.9267 13.7147C25.8877 13.9845 25.6854 14.2023 25.4194 14.2619C23.7819 14.6284 22.2141 15.2842 20.7603 16.2111C20.5287 16.3582 20.2306 16.3471 20.0114 16.1825L17.0767 13.9812L13.9997 17.0897L16.1851 20.0566C16.3459 20.2748 16.3561 20.5691 16.2112 20.7982C15.2875 22.2606 14.641 23.8401 14.2882 25.4921C14.2315 25.7609 14.0129 25.9658 13.74 26.0056L10.1263 26.5366V30.9346L13.7403 31.4657C14.011 31.5052 14.2288 31.708 14.287 31.9747C14.6528 33.6279 15.2999 35.2101 16.2134 36.6768C16.3563 36.9053 16.3447 37.1977 16.1849 37.4146L13.9997 40.3815L17.0767 43.49L20.0118 41.2887C20.2307 41.1242 20.5286 41.1133 20.7603 41.2603C22.2213 42.1913 23.7887 42.8471 25.4182 43.2093C25.6847 43.2683 25.8863 43.4861 25.9263 43.7561L26.4575 47.3835ZM31.3709 48.6989H25.8887C25.5624 48.6989 25.2857 48.4596 25.2378 48.1366L24.6899 44.3877C23.2121 44.0128 21.787 43.4167 20.4418 42.6104L17.4081 44.8864C17.1445 45.0837 16.7764 45.0566 16.5457 44.8231L12.6694 40.9071C12.4407 40.6769 12.4143 40.3152 12.6062 40.0544L14.8651 36.9883C14.0727 35.6366 13.482 34.1985 13.1075 32.7023L9.37253 32.1537C9.04931 32.1062 8.81055 31.8294 8.81055 31.503L8.81088 25.9683C8.81088 25.6419 9.04924 25.3652 9.37235 25.3177L13.1041 24.7694C13.471 23.2708 14.061 21.832 14.8637 20.4807L12.6062 17.417C12.4145 17.156 12.4406 16.7944 12.669 16.5642L16.5459 12.6482C16.7766 12.4147 17.144 12.3875 17.4079 12.5848L20.4418 14.8609C21.7825 14.058 23.2075 13.4618 24.6885 13.0842L25.2381 9.309C25.2849 8.98578 25.562 8.74617 25.8886 8.74617L31.3709 8.74609C31.6978 8.74609 31.9749 8.98575 32.0217 9.30889L32.5713 13.0704C34.0486 13.4452 35.4725 14.0416 36.8176 14.848L39.8531 12.5717C40.1157 12.3741 40.4831 12.4016 40.7149 12.6351L44.5918 16.5509C44.8205 16.7811 44.8462 17.1431 44.6533 17.4039L42.3961 20.4698C43.1884 21.8215 43.7774 23.2597 44.1532 24.756L47.8886 25.3046C48.2103 25.3519 48.4501 25.629 48.4501 25.9554L48.4503 31.4898C48.4503 31.8169 48.2091 32.0944 47.886 32.141L44.1555 32.6771C43.7891 34.1749 43.1984 35.6136 42.3969 36.9644L44.6535 40.0279C44.8466 40.2887 44.82 40.6508 44.5916 40.881L40.7152 44.797C40.4836 45.0303 40.1154 45.0577 39.8528 44.8605L36.8177 42.5841C35.4787 43.387 34.0531 43.9833 32.5709 44.361L32.022 48.136C31.9753 48.4592 31.6974 48.6991 31.3709 48.6989Z" fill="#FF5E14"/>
<path fill-rule="evenodd" clip-rule="evenodd" d="M26.1196 33.0746C26.2501 33.2039 26.4689 33.2037 26.599 33.0737L33.8674 25.7399C34.1973 25.4095 34.1972 24.8554 33.8694 24.5272C33.5396 24.1971 33.0016 24.1972 32.6715 24.5273L26.8266 30.4252C26.7033 30.5495 26.534 30.62 26.3592 30.62C26.1838 30.6197 26.0154 30.5497 25.891 30.425L24.5862 29.1066C24.4285 28.9489 24.2159 28.861 23.9898 28.861C23.764 28.861 23.5514 28.9491 23.3914 29.1089C23.0627 29.4368 23.0625 29.9914 23.3914 30.3194L26.1196 33.0746ZM26.3595 34.49C25.9186 34.49 25.5029 34.3174 25.1888 34.0039C25.189 34.0031 25.1876 34.0024 25.1866 34.0017L22.4589 31.2474C21.6152 30.4028 21.6148 29.0255 22.4608 28.1788C22.8699 27.7704 23.412 27.5456 23.9898 27.5456C24.5677 27.5456 25.11 27.7704 25.5189 28.1788L26.3595 29.0275L31.74 23.5992C32.5848 22.7539 33.9562 22.7542 34.8 23.5971C35.6463 24.4437 35.6462 25.8213 34.8 26.6679L27.5311 34.0016C27.2161 34.3173 26.8 34.4902 26.3595 34.49Z" fill="#FF5E14"/>
<path fill-rule="evenodd" clip-rule="evenodd" d="M3.15123 24.3171C3.10901 24.3171 3.06674 24.3131 3.0233 24.3048C2.66712 24.2348 2.43404 23.8894 2.50487 23.5328C3.52269 18.3402 6.04471 13.6053 9.8004 9.83978C13.553 6.07641 18.2732 3.54553 23.4505 2.52055C23.8069 2.44968 24.1529 2.68173 24.2236 3.03802C24.2946 3.39412 24.0626 3.74045 23.7064 3.81094C13.5962 5.81232 5.78096 13.653 3.79523 23.7857C3.73385 24.0994 3.45839 24.3172 3.15123 24.3171Z" fill="#FF5E14"/>
<path fill-rule="evenodd" clip-rule="evenodd" d="M54.1106 24.3012C53.8022 24.3012 53.527 24.0838 53.4654 23.77C51.4813 13.637 43.6645 5.79657 33.5553 3.79522C33.1995 3.72461 32.9673 3.37859 33.0381 3.02226C33.108 2.66579 33.4549 2.43451 33.81 2.50475C38.9875 3.52958 43.7079 6.06065 47.4613 9.82402C51.2171 13.5895 53.7394 18.3244 54.7569 23.517C54.8268 23.8734 54.5947 24.2192 54.2373 24.289C54.1953 24.2971 54.1528 24.3014 54.1106 24.3012Z" fill="#FF5E14"/>
<path fill-rule="evenodd" clip-rule="evenodd" d="M23.5787 54.938C23.5365 54.938 23.4939 54.934 23.4504 54.9254C18.2732 53.9003 13.5525 51.3696 9.80032 47.6061C6.04515 43.8407 3.5222 39.1058 2.50479 33.9132C2.43425 33.5565 2.66704 33.2112 3.02322 33.1413C3.38083 33.0714 3.7255 33.3039 3.79514 33.6603C5.78102 43.7929 13.596 51.6336 23.7063 53.635C24.0627 53.7056 24.2944 54.0517 24.2235 54.4079C24.1619 54.7209 23.8866 54.9381 23.5787 54.938Z" fill="#FF5E14"/>
<path fill-rule="evenodd" clip-rule="evenodd" d="M33.6804 54.9498C33.3732 54.9498 33.0977 54.7329 33.036 54.4197C32.9657 54.0631 33.1971 53.7172 33.5533 53.6468C43.6625 51.6452 51.4787 43.8048 53.4633 33.672C53.5346 33.3154 53.8801 33.0833 54.2352 33.153C54.593 33.2227 54.8244 33.5684 54.7548 33.9249C53.7375 39.1173 51.2149 43.8525 47.4593 47.6179C43.7061 51.3811 38.9853 53.9123 33.808 54.9371C33.7663 54.9457 33.7223 54.9498 33.6804 54.9498Z" fill="#FF5E14"/>
<path fill-rule="evenodd" clip-rule="evenodd" d="M28.6317 1.31531C27.8928 1.31531 27.292 1.91634 27.292 2.65486C27.2921 3.39335 27.8926 3.99424 28.6314 3.99424C29.3706 3.99398 29.9708 3.39342 29.9708 2.65486C29.9714 1.91627 29.3702 1.31546 28.6317 1.31531ZM28.6317 5.30943C27.1677 5.30943 25.9766 4.11873 25.9766 2.65486C25.9767 1.19096 27.1676 1.37229e-08 28.6314 1.37229e-08C30.0956 -0.000147624 31.2864 1.191 31.2864 2.65486C31.2868 4.11862 30.0954 5.30969 28.6317 5.30943Z" fill="#FF5E14"/>
<path fill-rule="evenodd" clip-rule="evenodd" d="M2.65516 27.3818C1.91627 27.3818 1.31546 27.9827 1.31546 28.7213C1.31557 29.4598 1.91608 30.0606 2.65487 30.0606C3.39254 30.0605 3.99431 29.4599 3.99431 28.7213C3.99479 27.9825 3.39254 27.3819 2.65516 27.3818ZM2.65516 31.376C1.19122 31.376 0 30.1852 0 28.7213C0.000110729 27.2572 1.19096 26.0664 2.65487 26.0664C4.11914 26.0664 5.30977 27.2574 5.30977 28.7213C5.31025 30.1851 4.11873 31.3761 2.65516 31.376Z" fill="#FF5E14"/>
<path fill-rule="evenodd" clip-rule="evenodd" d="M28.6317 53.448C27.8928 53.448 27.292 54.0492 27.292 54.7877C27.2921 55.526 27.8926 56.1272 28.6314 56.1272C29.3706 56.127 29.9708 55.5263 29.9708 54.7877C29.9714 54.049 29.3702 53.4483 28.6317 53.448ZM28.6317 57.4425C27.1677 57.4425 25.9766 56.2516 25.9766 54.7877C25.9767 53.3237 27.1676 52.1328 28.6314 52.1328C30.0956 52.1326 31.2864 53.3238 31.2864 54.7877C31.2868 56.2516 30.0954 57.4426 28.6317 57.4425Z" fill="#FF5E14"/>
<path fill-rule="evenodd" clip-rule="evenodd" d="M54.6062 27.3818C53.8673 27.3818 53.2666 27.9827 53.2666 28.7213C53.2666 29.4598 53.8672 30.0606 54.606 30.0606C55.3451 30.0605 55.9454 29.4599 55.9454 28.7213C55.9458 27.9825 55.3448 27.3819 54.6062 27.3818ZM54.6062 31.376C53.1422 31.376 51.9512 30.1852 51.9512 28.7213C51.9512 27.2572 53.1421 26.0664 54.606 26.0664C56.0702 26.0664 57.2609 27.2574 57.2609 28.7213C57.2613 30.1851 56.0699 31.3761 54.6062 31.376Z" fill="#FF5E14"/>
</svg>
