<svg width="65" height="65" viewBox="0 0 65 65" fill="none" xmlns="http://www.w3.org/2000/svg">
<g clip-path="url(#clip0_2404_44)">
<path d="M29.6173 65.5308H18.2616C17.8628 65.5308 17.5394 65.2075 17.5394 64.8085V58.5472C2.61554 53.5614 2.39815 43.7214 2.39858 43.2044L2.39844 25.5368C2.39844 23.0514 4.42052 21.0293 6.90597 21.0293C9.39143 21.0293 11.4135 23.0514 11.4135 25.5368V35.824C12.6096 35.9019 14.2039 36.4678 15.9967 38.303C17.4196 39.7596 20.2477 42.2553 23.1999 42.6058C26.9468 43.0504 29.9064 43.4017 30.3375 48.978C30.3389 48.9965 30.3396 49.015 30.3396 49.0336V64.8085C30.3395 65.2075 30.0161 65.5308 29.6173 65.5308ZM18.9838 64.0863H28.895V49.0618C28.5637 44.8635 26.9533 44.506 23.0296 44.0402C19.6366 43.6375 16.5195 40.9053 14.9634 39.3125C13.5322 37.8475 12.08 37.1375 10.8165 37.2715C10.7909 37.276 10.7651 37.2792 10.7385 37.2807C10.5946 37.3 10.4534 37.3303 10.3149 37.3719C9.36499 37.6566 8.64869 38.4847 8.44546 39.5332C8.19268 40.8383 8.74417 42.143 9.9588 43.1131C9.97282 43.1244 9.98639 43.1361 9.99954 43.1482L15.5638 48.3151C15.856 48.5866 15.8731 49.0436 15.6017 49.3358C15.3303 49.628 14.8734 49.6449 14.581 49.3736L9.0358 44.2246C7.4264 42.9279 6.67587 41.0736 7.02745 39.2585C7.33324 37.6807 8.4339 36.4277 9.90016 35.9883C9.92255 35.9815 9.94537 35.9748 9.96877 35.9683V25.5368C9.96877 23.8478 8.59467 22.4737 6.90568 22.4737C5.21669 22.4737 3.84259 23.8478 3.84259 25.5368V43.2044C3.84259 43.2112 3.84259 43.2181 3.8423 43.2249C3.84014 43.3182 3.7942 52.64 18.4812 57.3356C18.7805 57.4312 18.9835 57.7094 18.9835 58.0235V64.0863H18.9838Z" fill="#777A83"/>
<path d="M29.6169 58.7452H18.2613C17.8625 58.7452 17.5391 58.422 17.5391 58.023C17.5391 57.624 17.8625 57.3008 18.2613 57.3008H29.6169C30.0157 57.3008 30.3392 57.624 30.3392 58.023C30.3392 58.422 30.0157 58.7452 29.6169 58.7452Z" fill="#777A83"/>
<path d="M46.8122 65.5308H35.4566C35.0576 65.5308 34.7344 65.2075 34.7344 64.8085V49.0336C34.7344 49.015 34.7351 48.9965 34.7365 48.9779C35.1676 43.4017 38.1272 43.0504 41.8741 42.6058C44.8263 42.2553 47.6544 39.7596 49.0773 38.303C50.8698 36.4681 52.4644 35.9019 53.6605 35.824V25.5368C53.6605 23.0514 55.6824 21.0293 58.1679 21.0293C60.6532 21.0293 62.6753 23.0514 62.6753 25.5368L62.6751 43.2044C62.6756 43.7248 62.4585 53.5612 47.5345 58.5473V64.8087C47.5345 65.2075 47.2112 65.5308 46.8122 65.5308ZM36.1788 64.0863H46.09V58.0234C46.09 57.7092 46.2931 57.431 46.5924 57.3354C61.2807 52.6392 61.2334 43.3181 61.2313 43.2246C61.2311 43.219 61.231 43.2099 61.231 43.2043V25.5368C61.231 23.8478 59.8569 22.4737 58.168 22.4737C56.4792 22.4737 55.1051 23.8478 55.1051 25.5368V35.9683C55.1283 35.9748 55.1512 35.9815 55.1737 35.9883C56.6398 36.4277 57.7406 37.6807 58.0464 39.2585C58.3981 41.0734 57.6475 42.9279 56.0382 44.2246L50.493 49.3736C50.2008 49.6449 49.7436 49.6281 49.4723 49.3358C49.2011 49.0434 49.2178 48.5864 49.5102 48.3151L55.0743 43.1482C55.0875 43.1361 55.101 43.1244 55.115 43.1131C56.3295 42.143 56.8812 40.8383 56.6284 39.5332C56.4253 38.4847 55.709 37.6566 54.7591 37.3719C54.6206 37.3303 54.4792 37.3 54.3352 37.2807C54.3089 37.279 54.2833 37.276 54.2579 37.2715C52.9935 37.138 51.5421 37.8471 50.1106 39.3125C48.5547 40.9053 45.4374 43.6375 42.0446 44.0402C38.1209 44.506 36.5105 44.8634 36.1791 49.0619V64.0863H36.1788Z" fill="#777A83"/>
<path d="M46.8122 58.7452H35.4566C35.0576 58.7452 34.7344 58.422 34.7344 58.023C34.7344 57.624 35.0576 57.3008 35.4566 57.3008H46.8122C47.2112 57.3008 47.5345 57.624 47.5345 58.023C47.5345 58.422 47.2112 58.7452 46.8122 58.7452Z" fill="#777A83"/>
<path d="M32.5376 41.4871C21.5643 41.4871 12.6367 32.5597 12.6367 21.5864C12.6367 10.6131 21.5643 1.68555 32.5376 1.68555C43.5109 1.68555 52.4384 10.6131 52.4384 21.5864C52.4384 32.5597 43.5109 41.4871 32.5376 41.4871ZM32.5376 3.12999C22.3607 3.12999 14.0812 11.4095 14.0812 21.5864C14.0812 31.7632 22.3607 40.0426 32.5376 40.0426C42.7145 40.0426 50.9939 31.7632 50.9939 21.5864C50.9939 11.4095 42.7145 3.12999 32.5376 3.12999Z" fill="#777A83"/>
<path d="M39.7573 33.8912H35.093C34.6941 33.8912 34.3708 33.5678 34.3708 33.169C34.3708 32.7702 34.6941 32.4468 35.093 32.4468H39.7573C42.3262 32.4468 44.4164 30.3567 44.4164 27.7877C44.4164 25.2186 42.3262 23.1285 39.7573 23.1285H38.6392C38.2402 23.1285 37.9169 22.8051 37.9169 22.4063C37.9169 22.0075 38.2402 21.6841 38.6392 21.6841C40.7486 21.6841 42.4649 19.9678 42.4649 17.8582C42.4649 15.7486 40.7486 14.0323 38.6392 14.0323H37.3956C37.1648 14.0323 36.948 13.9221 36.8121 13.7356C36.6761 13.5491 36.6374 13.3089 36.7079 13.0892C36.8469 12.6567 36.9172 12.2054 36.9172 11.7478C36.9172 9.33178 34.9518 7.36632 32.5358 7.36632C30.1198 7.36632 28.1544 9.33178 28.1544 11.7478C28.1544 12.2055 28.2247 12.6569 28.3637 13.0892C28.4343 13.3089 28.3956 13.5491 28.2597 13.7356C28.1237 13.9221 27.9069 14.0323 27.6761 14.0323H26.4326C24.323 14.0323 22.6067 15.7486 22.6067 17.8582C22.6067 19.9678 24.323 21.6841 26.4326 21.6841C26.8314 21.6841 27.1548 22.0075 27.1548 22.4063C27.1548 22.8051 26.8314 23.1285 26.4326 23.1285H25.3144C22.7453 23.1285 20.6554 25.2186 20.6554 27.7877C20.6554 30.3567 22.7455 32.4468 25.3144 32.4468H28.5673C28.9661 32.4468 29.2895 32.7702 29.2895 33.169C29.2895 33.5678 28.9661 33.8912 28.5673 33.8912H25.3144C21.9489 33.8912 19.2109 31.1531 19.2109 27.7877C19.2109 25.1508 20.8918 22.899 23.2383 22.0477C21.9773 21.0838 21.1622 19.5644 21.1622 17.8582C21.1622 14.9521 23.5265 12.5878 26.4326 12.5878H26.7704C26.7303 12.3107 26.7101 12.0301 26.7101 11.7478C26.7101 8.53531 29.3235 5.92188 32.5359 5.92188C35.7484 5.92188 38.3618 8.53531 38.3618 11.7478C38.3618 12.03 38.3416 12.3105 38.3014 12.5878H38.6393C41.5452 12.5878 43.9095 14.9521 43.9095 17.8582C43.9095 19.5644 43.0944 21.0838 41.8335 22.0477C44.18 22.899 45.8609 25.1508 45.8609 27.7877C45.8608 31.1533 43.1229 33.8912 39.7573 33.8912Z" fill="#777A83"/>
<path d="M35.8537 41.2004C35.494 41.2004 35.1826 40.9322 35.1377 40.566L33.8609 30.1605C33.844 30.0222 33.8674 29.8818 33.9285 29.7565L35.9203 25.6653L35.5169 25.2331L33.9511 26.028C33.7395 26.1355 33.4884 26.1321 33.2797 26.0187C33.0711 25.9055 32.9313 25.6969 32.906 25.4609L32.2599 19.4308H31.4727L28.6097 40.2959C28.5555 40.691 28.1909 40.9683 27.796 40.9131C27.4008 40.859 27.1245 40.4947 27.1787 40.0995L30.1273 18.6103C30.1765 18.2527 30.482 17.9863 30.8429 17.9863H32.9091C33.2783 17.9863 33.5878 18.2647 33.6272 18.6316L34.2309 24.266L35.3473 23.6992C35.6343 23.5535 35.9827 23.6153 36.2022 23.8503L37.3149 25.0423C37.5189 25.2608 37.5671 25.5825 37.4362 25.8513L35.3207 30.1967L36.5714 40.39C36.62 40.7859 36.3385 41.1463 35.9425 41.1948C35.9126 41.1986 35.8829 41.2004 35.8537 41.2004Z" fill="#777A83"/>
</g>
<defs>
<clipPath id="clip0_2404_44">
<rect width="65" height="65" fill="white"/>
</clipPath>
</defs>
</svg>
