<svg width="65" height="65" viewBox="0 0 65 65" fill="none" xmlns="http://www.w3.org/2000/svg">
<path d="M51.8471 39.337C52.6783 39.3222 53.4703 38.9817 54.0529 38.3887C54.6354 37.7958 54.9618 36.9977 54.9618 36.1665C54.9618 35.3353 54.6354 34.5372 54.0529 33.9443C53.4703 33.3513 52.6783 33.0108 51.8471 32.996H40.6261L47.7041 25.918C47.7131 25.909 47.7161 25.897 47.7241 25.889C47.8123 25.7996 47.882 25.6937 47.9291 25.5774C47.9763 25.461 48.0001 25.3365 47.9991 25.211V12.786C47.9991 12.5208 47.8937 12.2665 47.7061 12.079L47.7011 12.074L38.9251 3.3C38.8415 3.21967 38.7443 3.15468 38.6381 3.108C38.6241 3.102 38.6161 3.089 38.6011 3.083H38.5911C38.4711 3.03093 38.342 3.00273 38.2111 3H25.7871C25.6599 3.00069 25.5339 3.02581 25.4161 3.074H25.4041C25.3891 3.08 25.3811 3.093 25.3671 3.099C25.261 3.14567 25.1638 3.21067 25.0801 3.291L16.2991 12.072V12.077C16.1116 12.2645 16.0062 12.5188 16.0061 12.784V25.211C16.0036 25.4643 16.1018 25.7081 16.2791 25.889C16.2871 25.897 16.2901 25.909 16.2991 25.918L23.3721 33H16.9821C15.3506 32.9978 13.7575 33.4951 12.4169 34.425C11.0763 35.355 10.0525 36.6729 9.48301 38.2019C8.91355 39.7308 8.82575 41.3974 9.23139 42.9778C9.63703 44.5581 10.5167 45.9764 11.7521 47.042C10.9554 47.1448 10.2276 47.5469 9.71647 48.1667C9.20537 48.7866 8.94929 49.5777 9.00019 50.3794C9.0511 51.1812 9.40518 51.9335 9.99057 52.4837C10.576 53.034 11.3488 53.3408 12.1521 53.342H12.7631V56.662H12.1521C11.321 56.6768 10.5289 57.0173 9.94639 57.6103C9.36385 58.2032 9.03745 59.0013 9.03745 59.8325C9.03745 60.6637 9.36385 61.4618 9.94639 62.0547C10.5289 62.6477 11.321 62.9882 12.1521 63.003H47.0161C48.6477 63.0052 50.2408 62.5079 51.5814 61.578C52.922 60.648 53.9458 59.3301 54.5153 57.8011C55.0847 56.2722 55.1725 54.6056 54.7669 53.0252C54.3612 51.4449 53.4816 50.0266 52.2461 48.961C53.0459 48.8619 53.7777 48.4612 54.292 47.8408C54.8062 47.2203 55.0642 46.4269 55.0131 45.6226C54.962 44.8184 54.6058 44.0639 54.0172 43.5135C53.4286 42.963 52.652 42.6581 51.8461 42.661H51.2351V39.337H51.8471ZM17.9991 14.283L21.9801 15.931V22.065L17.9991 23.714V14.283ZM25.4331 5.765L27.0821 9.747L22.7451 14.083L18.7641 12.435L25.4331 5.765ZM45.2331 12.435L41.2521 14.083L36.9141 9.747L38.5631 5.765L45.2331 12.435ZM45.9991 23.714L42.0181 22.065V15.931L45.9991 14.283V23.714ZM36.9141 28.25L41.2511 23.913L45.2321 25.562L38.5631 32.231L36.9141 28.25ZM28.6781 27.016L23.9781 22.316V15.677L28.6781 10.977H35.3201L40.0201 15.677V22.319L35.3201 27.019L28.6781 27.016ZM35.0661 8.981H28.9321L27.2831 5H36.7151L35.0661 8.981ZM22.7471 23.913L27.0841 28.25L25.4351 32.231L18.7661 25.562L22.7471 23.913ZM28.9321 29.013H35.0661L36.7151 33H27.2831L28.9321 29.013ZM14.7621 53.339H47.0161C47.4564 53.339 47.8786 53.5139 48.1899 53.8252C48.5012 54.1365 48.6761 54.5587 48.6761 54.999C48.6761 55.4393 48.5012 55.8615 48.1899 56.1728C47.8786 56.4841 47.4564 56.659 47.0161 56.659H14.7621V53.339ZM53.0171 55C53.015 56.5906 52.3822 58.1155 51.2574 59.2403C50.1327 60.3651 48.6078 60.9979 47.0171 61H12.1511C11.8466 60.9911 11.5576 60.8639 11.3453 60.6453C11.1331 60.4268 11.0144 60.1341 11.0144 59.8295C11.0144 59.5249 11.1331 59.2322 11.3453 59.0137C11.5576 58.7951 11.8466 58.6679 12.1511 58.659H47.0161C47.9868 58.659 48.9178 58.2734 49.6042 57.587C50.2905 56.9006 50.6761 55.9697 50.6761 54.999C50.6761 54.0283 50.2905 53.0974 49.6042 52.411C48.9178 51.7246 47.9868 51.339 47.0161 51.339H12.1511C11.8466 51.3301 11.5576 51.2029 11.3453 50.9843C11.1331 50.7658 11.0144 50.4731 11.0144 50.1685C11.0144 49.8639 11.1331 49.5712 11.3453 49.3527C11.5576 49.1341 11.8466 49.0069 12.1511 48.998H47.0161C48.6073 48.9999 50.1328 49.6328 51.2578 50.7581C52.3828 51.8833 53.0156 53.4088 53.0171 55ZM53.0171 45.829C53.0171 46.1394 52.8939 46.4371 52.6745 46.6567C52.4551 46.8762 52.1575 46.9997 51.8471 47H16.9821C15.3908 47 13.8647 46.3679 12.7395 45.2426C11.6143 44.1174 10.9821 42.5913 10.9821 41C10.9821 39.4087 11.6143 37.8826 12.7395 36.7574C13.8647 35.6321 15.3908 35 16.9821 35H51.8471C52.1517 35.0089 52.4407 35.1361 52.653 35.3547C52.8652 35.5732 52.9839 35.8659 52.9839 36.1705C52.9839 36.4751 52.8652 36.7678 52.653 36.9863C52.4407 37.2049 52.1517 37.3321 51.8471 37.341H16.9821C16.0218 37.3569 15.1061 37.7495 14.4326 38.4343C13.7591 39.119 13.3816 40.041 13.3816 41.0015C13.3816 41.962 13.7591 42.884 14.4326 43.5687C15.1061 44.2535 16.0218 44.6461 16.9821 44.662H51.8471C52.1566 44.6625 52.4533 44.7854 52.6725 45.0039C52.8917 45.2223 53.0156 45.5196 53.0171 45.829ZM49.2361 42.659H16.9821C16.5488 42.6484 16.1368 42.4688 15.8341 42.1585C15.5313 41.8483 15.3619 41.432 15.3619 40.9985C15.3619 40.565 15.5313 40.1487 15.8341 39.8385C16.1368 39.5282 16.5488 39.3486 16.9821 39.338H49.2361V42.659Z" fill="#777A83"/>
</svg>
