<svg width="69" height="65" viewBox="0 0 69 65" fill="none" xmlns="http://www.w3.org/2000/svg">
<path d="M58.6515 42.8666C58.6515 42.4272 59.0124 42.0664 59.4518 42.0664C59.8911 42.0664 60.252 42.4272 60.252 42.8666V59.6555C60.252 60.8636 59.7499 61.9777 58.9497 62.7622C58.1651 63.5624 57.0511 64.0645 55.8429 64.0645H13.4628C12.2546 64.0645 11.1562 63.5624 10.356 62.7622C9.55581 61.9777 9.05371 60.8636 9.05371 59.6555V42.8666C9.05371 42.4272 9.41459 42.0664 9.85393 42.0664C10.2933 42.0664 10.6541 42.4272 10.6541 42.8666V59.6555C10.6541 60.4243 10.968 61.1304 11.4857 61.6482C11.9878 62.1503 12.6939 62.4641 13.4628 62.4641H55.8429C56.6118 62.4641 57.3178 62.1503 57.8356 61.6482C58.3377 61.1304 58.6515 60.4243 58.6515 59.6555V42.8666ZM10.6541 21.1979C10.6541 21.6373 10.2933 21.9981 9.85393 21.9981C9.41459 21.9981 9.05371 21.6373 9.05371 21.1979V4.40904C9.05371 3.20087 9.55581 2.10253 10.356 1.30232V1.28662C11.1562 0.502097 12.2546 0 13.4628 0H55.8429C57.0511 0 58.1494 0.502097 58.9497 1.28662V1.30232C59.7499 2.10253 60.252 3.20087 60.252 4.40904V21.1979C60.252 21.6373 59.8911 21.9981 59.4518 21.9981C59.0124 21.9981 58.6515 21.6373 58.6515 21.1979V4.40904C58.6515 3.64021 58.3377 2.93413 57.8356 2.41634C57.3178 1.91425 56.6118 1.60044 55.8429 1.60044H13.4628C12.6939 1.60044 11.9878 1.91425 11.4857 2.41634C10.968 2.93413 10.6541 3.64021 10.6541 4.40904V21.1979Z" fill="#FF5E14"/>
<path d="M15.1264 57.6668C14.6871 57.6668 14.3262 57.306 14.3262 56.8666C14.3262 56.4273 14.6871 56.0664 15.1264 56.0664H54.1802C54.6195 56.0664 54.9804 56.4273 54.9804 56.8666C54.9804 57.306 54.6195 57.6668 54.1802 57.6668H15.1264Z" fill="#FF5E14"/>
<path d="M15.1254 50.6629C14.6861 50.6629 14.3252 50.302 14.3252 49.8627C14.3252 49.4233 14.6861 49.0781 15.1254 49.0781H54.1792C54.6185 49.0781 54.9794 49.4233 54.9794 49.8627C54.9794 50.302 54.6185 50.6629 54.1792 50.6629H15.1254Z" fill="#FF5E14"/>
<path d="M37.7828 21.9988C37.3435 21.9988 36.9826 21.6379 36.9826 21.1986C36.9826 20.7593 37.3435 20.4141 37.7828 20.4141H67.2183C67.6576 20.4141 68.0185 20.7593 68.0185 21.1986V42.8672C68.0185 43.3066 67.6576 43.6518 67.2183 43.6518H0.800218C0.360883 43.6518 0 43.3066 0 42.8672V21.1986C0 20.7593 0.360883 20.4141 0.800218 20.4141H30.2357C30.675 20.4141 31.0359 20.7593 31.0359 21.1986C31.0359 21.6379 30.675 21.9988 30.2357 21.9988H1.60044V42.067H66.4181V21.9988H37.7828Z" fill="#FF5E14"/>
<path d="M15.1254 50.659C14.6861 50.659 14.3252 50.2981 14.3252 49.8587C14.3252 49.4194 14.6861 49.0742 15.1254 49.0742H54.1792C54.6185 49.0742 54.9794 49.4194 54.9794 49.8587C54.9794 50.2981 54.6185 50.659 54.1792 50.659H15.1254Z" fill="#FF5E14"/>
<path d="M15.1254 15.5301C14.6861 15.5301 14.3252 15.1849 14.3252 14.7455C14.3252 14.3062 14.6861 13.9453 15.1254 13.9453H54.1792C54.6185 13.9453 54.9794 14.3062 54.9794 14.7455C54.9794 15.1849 54.6185 15.5301 54.1792 15.5301H15.1254Z" fill="#FF5E14"/>
<path d="M15.1254 9.0809C14.6861 9.0809 14.3252 8.72002 14.3252 8.28069C14.3252 7.84135 14.6861 7.48047 15.1254 7.48047H34.6601C35.0995 7.48047 35.4447 7.84135 35.4447 8.28069C35.4447 8.72002 35.0995 9.0809 34.6601 9.0809H15.1254Z" fill="#FF5E14"/>
<path d="M56.2819 24.4592L57.9137 29.5115H63.2171C63.6565 29.5115 64.0174 29.8567 64.0174 30.2961C64.0174 30.5628 63.8918 30.7982 63.6878 30.9394L59.3886 34.0618L61.0361 39.1141C61.1774 39.5221 60.942 39.9771 60.534 40.1183C60.2516 40.1968 59.9692 40.134 59.7652 39.9614L55.5131 36.8704L51.2296 39.9928C50.8687 40.2596 50.3823 40.1811 50.1155 39.8202C49.9586 39.6162 49.9272 39.3495 50.0057 39.1141L51.6532 34.0618L47.354 30.9394C46.9931 30.6883 46.9147 30.1862 47.1657 29.8253C47.3383 29.6057 47.605 29.4801 47.8718 29.5115H53.1281L54.7599 24.4592C54.9011 24.0355 55.3405 23.8159 55.7641 23.9414C56.0152 24.0198 56.2035 24.2238 56.2819 24.4592Z" fill="#FF9A50"/>
<path d="M12.8971 24.4592L14.529 29.5115H19.8324C20.2717 29.5115 20.6326 29.8567 20.6326 30.2961C20.6326 30.5628 20.5071 30.7982 20.3031 30.9394L16.0039 34.0618L17.6514 39.1141C17.7926 39.5221 17.5572 39.9771 17.1336 40.1183C16.8669 40.1968 16.5844 40.134 16.3804 39.9614L12.1283 36.8704L7.84479 39.9928C7.48391 40.2596 6.98181 40.1811 6.73076 39.8202C6.57385 39.6162 6.54247 39.3495 6.62093 39.1141L8.26843 34.0618L3.96922 30.9394C3.60834 30.6883 3.52989 30.1862 3.78094 29.8253C3.95353 29.6057 4.22027 29.4801 4.48701 29.5115H9.74334L11.3752 24.4592C11.5164 24.0355 11.9557 23.8159 12.3794 23.9414C12.6304 24.0198 12.8187 24.2238 12.8971 24.4592Z" fill="#FF9A50"/>
<path d="M34.7687 18.3713L36.7614 24.5377L43.2416 24.522C43.6809 24.522 44.0261 24.8672 44.0261 25.3066C44.0261 25.5733 43.9006 25.8087 43.6966 25.9499L38.456 29.7627L40.4644 35.9134C40.6056 36.337 40.3702 36.7764 39.9623 36.9176C39.6799 37.0117 39.3974 36.9489 39.1935 36.7764L33.9999 32.9792L28.7749 36.8077C28.414 37.0588 27.9119 36.9803 27.6609 36.6351C27.504 36.4155 27.4726 36.1487 27.5511 35.9134L29.5595 29.7627L24.3031 25.9499C23.9579 25.6988 23.8795 25.1967 24.1305 24.8515C24.3031 24.6162 24.5699 24.5063 24.8366 24.522L31.254 24.5377L33.2467 18.3713C33.388 17.9477 33.8273 17.7123 34.2509 17.8536C34.502 17.932 34.6903 18.136 34.7687 18.3713Z" fill="#FF9A50"/>
</svg>
