<svg width="64" height="64" viewBox="0 0 64 64" fill="none" xmlns="http://www.w3.org/2000/svg">
<g clip-path="url(#clip0_2186_355)">
<path d="M50.1327 8.53125C46.0089 8.53125 42.666 11.8743 42.666 15.9979C42.666 20.1215 46.009 23.4645 50.1327 23.4645C54.2563 23.4645 57.5993 20.1215 57.5993 15.9979C57.5945 11.8761 54.2544 8.536 50.1327 8.53125ZM50.1327 21.3313C47.1871 21.3313 44.7993 18.9434 44.7993 15.9979C44.7993 13.0524 47.1871 10.6645 50.1327 10.6645C53.0782 10.6645 55.466 13.0524 55.466 15.9979C55.4624 18.942 53.0767 21.3278 50.1327 21.3313Z" fill="#FF5E14"/>
<path d="M52.2649 14.934H51.1983V13.8674C51.1983 13.2783 50.7206 12.8008 50.1316 12.8008C49.5426 12.8008 49.065 13.2784 49.065 13.8674V14.934H47.9983C47.4091 14.934 46.9316 15.4117 46.9316 16.0007C46.9316 16.5898 47.4093 17.0673 47.9983 17.0673H49.0649V18.1339C49.0649 18.723 49.5424 19.2005 50.1315 19.2005C50.7206 19.2005 51.1981 18.7229 51.1981 18.1339V17.0673H52.2648C52.8539 17.0673 53.3314 16.5897 53.3314 16.0007C53.3317 15.4115 52.854 14.934 52.2649 14.934Z" fill="#FF5E14"/>
<path d="M21.9721 7.67827C21.5008 7.32477 20.8322 7.42027 20.4787 7.89164L14.8168 15.4415L13.5528 14.1775C13.1343 13.7733 12.4689 13.779 12.0576 14.1905C11.6461 14.602 11.6403 15.2673 12.0446 15.6858L14.1779 17.8192C14.3779 18.0192 14.6492 18.1317 14.9321 18.1317H15.0078C15.3167 18.109 15.6004 17.9534 15.7854 17.705L22.1855 9.17165C22.3552 8.94527 22.4281 8.6609 22.3881 8.38077C22.348 8.10077 22.1983 7.84802 21.9721 7.67827Z" fill="#FF5E14"/>
<path d="M29.8653 25.5984C31.0435 25.5984 31.9986 26.5536 31.9986 27.7318C31.9986 28.3209 32.4763 28.7985 33.0653 28.7985C33.6543 28.7985 34.1319 28.3208 34.1319 27.7318C34.1247 25.7922 32.8099 24.1016 30.9319 23.6166V23.4651C30.9319 22.8759 30.4543 22.3984 29.8653 22.3984C29.2761 22.3984 28.7986 22.8761 28.7986 23.4651V23.6166C26.7205 24.1514 25.365 26.1492 25.6359 28.2778C25.9068 30.4065 27.7194 32.0011 29.8653 31.9985C31.0435 31.9985 31.9986 32.9536 31.9986 34.1318C31.9986 35.3101 31.0435 36.2652 29.8653 36.2652C28.687 36.2652 27.7319 35.3101 27.7319 34.1318C27.7319 33.5427 27.2543 33.0652 26.6653 33.0652C26.0763 33.0652 25.5986 33.5428 25.5986 34.1318C25.6059 36.0715 26.9205 37.7621 28.7986 38.2471V38.3986C28.7986 38.9877 29.2763 39.4652 29.8653 39.4652C30.4544 39.4652 30.9319 38.9877 30.9319 38.3986V38.2471C33.01 37.7122 34.3655 35.7145 34.0947 33.5858C33.8238 31.4571 32.0111 29.8626 29.8653 29.8652C28.687 29.8652 27.7319 28.9101 27.7319 27.7318C27.732 26.5536 28.6871 25.5984 29.8653 25.5984Z" fill="#FF5E14"/>
<path d="M59.7325 4.26663H56.5325V3.20001C56.5325 1.43275 55.0998 0 53.3325 0H46.9325C45.1652 0 43.7325 1.43275 43.7325 3.20001V4.26663H40.5325C38.1761 4.26663 36.2658 6.17689 36.2658 8.53327V18.6442C33.3745 17.1213 30.0337 16.6828 26.8472 17.4079C27.4548 15.2355 27.753 12.9883 27.7326 10.7326V4.88738C27.7433 3.74026 26.8414 2.79163 25.6952 2.74451C21.4286 2.57488 19.3166 1.27038 18.4333 0.504501C17.6449 -0.168 16.4847 -0.168 15.6962 0.504501C14.8151 1.26713 12.6988 2.57176 8.44279 2.74451C7.29429 2.78888 6.38891 3.73813 6.39904 4.88738V10.7328C6.39904 18.8459 9.74729 24.7904 15.8198 27.4699C16.0078 27.5532 16.2042 27.6166 16.4054 27.6587C15.4971 31.2973 16.1213 35.1492 18.1323 38.3147C16.7262 37.6716 15.1986 37.3369 13.6523 37.3333H11.536C11.0857 36.0593 9.88354 35.2056 8.53229 35.1999H3.19903C1.43178 35.1999 -0.000976562 36.6327 -0.000976562 38.3999V60.8C-0.000976562 62.5672 1.43178 64 3.19903 64H8.53241C9.43742 63.9971 10.2985 63.6092 10.9004 62.9334H37.6525C39.2177 62.9342 40.753 62.5039 42.0899 61.6896L62.0793 49.5211C63.0246 48.9503 63.6903 48.0122 63.9166 46.9313C64.143 45.8505 63.9099 44.7241 63.2729 43.822C63.251 43.7846 63.2264 43.749 63.1993 43.7153C62.1669 42.3451 60.3765 41.7845 58.747 42.3212L38.9945 48.9005C38.6688 49.011 38.3272 49.0671 37.9832 49.0668H37.1192C37.713 47.6542 37.624 46.047 36.8781 44.7085C36.598 44.2422 36.2588 43.8141 35.869 43.4348C41.7606 40.6277 44.8799 34.0767 43.3452 27.7334H59.7325C62.0889 27.7334 63.9991 25.8232 63.9991 23.4668V8.53327C63.9991 6.17689 62.0889 4.26663 59.7325 4.26663ZM45.8657 3.19988C45.8657 2.61076 46.3434 2.13325 46.9324 2.13325H53.3324C53.9215 2.13325 54.399 2.61088 54.399 3.19988V4.26651H45.8656V3.19988H45.8657ZM16.6859 25.5199C9.94679 22.5472 8.53241 15.8378 8.53241 10.7328L8.52179 4.87563C13.4284 4.68051 15.9991 3.06226 17.0402 2.1215C18.1324 3.06663 20.6988 4.68038 25.5991 4.88738V10.7328C25.6378 13.2942 25.1976 15.8403 24.3009 18.24C21.0369 19.6782 18.4478 22.3119 17.0657 25.6C16.9349 25.6007 16.8054 25.5734 16.6859 25.5199ZM8.53241 61.8667H3.19903C2.6099 61.8667 2.1324 61.3891 2.1324 60.8001V38.4001C2.1324 37.8109 2.61003 37.3334 3.19903 37.3334H8.53241C9.12154 37.3334 9.59904 37.8111 9.59904 38.4001V60.8001C9.59904 61.3891 9.12154 61.8667 8.53241 61.8667ZM28.5015 49.0667C26.3954 49.0678 24.3368 49.691 22.5836 50.8576L21.8038 51.3802C21.3143 51.709 21.1839 52.3722 21.5126 52.8619C21.8413 53.3514 22.5046 53.4817 22.9942 53.1531L23.7664 52.6326C25.1692 51.6992 26.8165 51.2008 28.5013 51.2001H37.983C38.5587 51.2007 39.1306 51.1067 39.6757 50.9217L59.4123 44.3415C60.1439 44.1006 60.9485 44.3331 61.4389 44.9271C61.4549 44.9537 61.473 44.9783 61.4911 45.0038C61.8063 45.4216 61.9291 45.9535 61.8293 46.4672C61.7294 46.9808 61.4161 47.428 60.9675 47.6972L40.9802 59.8679C39.9776 60.4784 38.8261 60.8009 37.6522 60.8001H11.7324V39.4667H13.6524C15.6202 39.4691 17.5289 40.1388 19.0668 41.3665C20.9832 42.8952 23.3609 43.7296 25.8124 43.7333H31.3922C32.8896 43.7373 34.2763 44.5226 35.0498 45.8048C35.5885 46.8643 35.4552 48.1412 34.7096 49.0667H28.5015ZM33.6706 42.0267C32.9443 41.7466 32.1728 41.602 31.3943 41.6001H25.8124C25.4916 41.598 25.1711 41.5777 24.8524 41.5393C19.7778 39.1408 17.1126 33.4843 18.4937 28.0441C19.8748 22.6038 24.9154 18.9035 30.5196 19.216C36.1237 19.5285 40.7217 23.7664 41.4894 29.3266C42.257 34.8867 38.9793 40.2118 33.6695 42.0311L33.6706 42.0267ZM61.8658 23.4667C61.8658 24.6449 60.9106 25.6 59.7324 25.6H42.6657C41.7427 23.4082 40.2739 21.489 38.3991 20.0257V8.53327C38.3991 7.35501 39.3542 6.39989 40.5325 6.39989H59.7325C60.9108 6.39989 61.8659 7.35501 61.8659 8.53327L61.8658 23.4667Z" fill="#FF5E14"/>
</g>
<defs>
<clipPath id="clip0_2186_355">
<rect width="64" height="64" fill="white"/>
</clipPath>
</defs>
</svg>
