<svg width="64" height="64" viewBox="0 0 64 64" fill="none" xmlns="http://www.w3.org/2000/svg">
<g clip-path="url(#clip0_2186_371)">
<path d="M46.8778 42.8009V28.7197C46.8778 28.2802 46.5206 27.9231 46.0811 27.9231H42.5611C42.1216 27.9231 41.7644 28.2802 41.7644 28.7197C41.7644 30.2215 40.5428 31.443 39.041 31.443C37.5393 31.443 36.3177 30.2215 36.3177 28.7197C36.3177 28.2802 35.9605 27.9231 35.521 27.9231H31.9996H29.2019C28.8275 25.9221 27.0668 24.4031 24.9582 24.4031C22.8497 24.4031 21.0903 25.9221 20.7146 27.9231H17.9169C17.4773 27.9231 17.1202 28.2802 17.1202 28.7197V42.8009C17.1202 43.2404 17.4773 43.5976 17.9169 43.5976H31.9996H46.0811C46.5206 43.5976 46.8778 43.2404 46.8778 42.8009ZM31.203 42.0042H18.7149V29.5164H21.4382C21.8777 29.5164 22.2349 29.1592 22.2349 28.7197C22.2349 27.218 23.4565 25.9964 24.9582 25.9964C26.46 25.9964 27.6816 27.218 27.6816 28.7197C27.6816 29.1592 28.0388 29.5164 28.4783 29.5164H31.203V31.5174C29.2019 31.8918 27.6829 33.6525 27.6829 35.761C27.6829 37.8695 29.2019 39.6288 31.203 40.0046V42.0042ZM45.2844 42.0042H32.7963V39.2809C32.7963 38.8414 32.4392 38.4843 31.9996 38.4843C30.4979 38.4843 29.2763 37.2627 29.2763 35.761C29.2763 34.2593 30.4979 33.0377 31.9996 33.0377C32.4392 33.0377 32.7963 32.6805 32.7963 32.241V29.5177H34.7973C35.1718 31.5187 36.9325 33.0377 39.041 33.0377C41.1496 33.0377 42.909 31.5187 43.2847 29.5177H45.2857V42.0042H45.2844ZM21.7091 7.09671C21.6507 6.89356 21.6759 6.6758 21.7781 6.48991L24.0381 2.41095C24.2519 2.02589 24.7365 1.88648 25.1216 2.10025C25.5066 2.31402 25.6461 2.79867 25.4323 3.18372L24.1058 5.57772C29.6733 4.02554 35.517 4.14106 41.0806 5.92295C41.5002 6.05706 41.7299 6.50585 41.5958 6.9241C41.4869 7.26269 41.1748 7.47779 40.8376 7.47779C40.7566 7.47779 40.6756 7.46584 40.5946 7.43928C35.3338 5.75432 29.8101 5.64411 24.5466 7.10866L26.95 8.43379C27.335 8.64624 27.4758 9.13088 27.2633 9.51594C27.1186 9.77884 26.8464 9.92755 26.5649 9.92755C26.4348 9.92755 26.3033 9.89569 26.1812 9.82797L22.0928 7.57339C21.9056 7.47248 21.7675 7.30119 21.7091 7.09671ZM4.52452 44.4752L0.417594 42.2539C0.0312001 42.0441 -0.113532 41.5608 0.096263 41.1744C0.306058 40.788 0.789382 40.6432 1.17578 40.853L3.59107 42.1596C1.96582 36.5338 2.05877 30.6185 3.86991 24.99C4.00535 24.5717 4.45415 24.3407 4.87241 24.4761C5.29067 24.6116 5.52171 25.0603 5.38627 25.4786C3.67339 30.8004 3.58576 36.3917 5.11938 41.7095L6.42993 39.2969C6.63973 38.9105 7.12438 38.7671 7.51078 38.9769C7.89717 39.1867 8.04057 39.67 7.83078 40.0577L5.60271 44.1552C5.45798 44.4208 5.18445 44.5722 4.90162 44.5722C4.77415 44.5708 4.64535 44.5403 4.52452 44.4752ZM42.4947 60.888C42.5544 61.0912 42.5305 61.3089 42.4296 61.4948L40.1909 65.5857C40.0462 65.85 39.7727 66 39.4912 66C39.3624 66 39.2309 65.9681 39.1101 65.9017C38.7237 65.6906 38.5829 65.206 38.7941 64.8209L40.1086 62.419C37.4689 63.1705 34.7642 63.5462 32.0581 63.5462C29.0094 63.5462 25.9568 63.0696 22.9825 62.1176C22.5629 61.9834 22.3332 61.5347 22.4673 61.1164C22.6014 60.6968 23.0502 60.4658 23.4684 60.6012C28.7757 62.3008 34.3525 62.3977 39.6585 60.8907L37.2498 59.5788C36.8634 59.369 36.7213 58.8844 36.9311 58.498C37.1409 58.1116 37.6256 57.9695 38.012 58.1793L42.1123 60.4127C42.2968 60.5136 42.4349 60.6849 42.4947 60.888ZM63.907 26.6112C63.7012 27.0002 63.2179 27.1476 62.8301 26.9418L60.4042 25.6539C62.0972 31.3461 62.0268 37.345 60.1918 43.0505C60.0829 43.3878 59.7709 43.6029 59.4336 43.6029C59.3526 43.6029 59.2703 43.5909 59.1893 43.5644C58.771 43.4289 58.54 42.9802 58.6754 42.5619C60.4109 37.1684 60.4786 31.4975 58.8799 26.1173L57.5893 28.5391C57.4459 28.8087 57.171 28.9614 56.8855 28.9614C56.7594 28.9614 56.6306 28.9308 56.5111 28.8671C56.1234 28.66 55.976 28.178 56.1831 27.7889L58.3767 23.6741C58.5838 23.2864 59.0658 23.139 59.4535 23.3448L63.579 25.533C63.9654 25.7402 64.1128 26.2222 63.907 26.6112ZM53.7572 11.8263C56.0795 11.8263 57.9677 9.94083 57.9677 7.62384C57.9677 5.30686 56.0782 3.4214 53.7572 3.4214C51.4362 3.4214 49.5467 5.30686 49.5467 7.62384C49.5467 9.94083 51.4348 11.8263 53.7572 11.8263ZM53.7572 5.01341C55.2005 5.01341 56.3743 6.18452 56.3743 7.62252C56.3743 9.06184 55.2005 10.2316 53.7572 10.2316C52.3139 10.2316 51.1401 9.06051 51.1401 7.62252C51.1401 6.18452 52.3139 5.01341 53.7572 5.01341ZM47.1553 21.2669H60.3591C60.7986 21.2669 61.1558 20.9097 61.1558 20.4702V18.2607C61.1558 15.1896 58.6528 12.6907 55.575 12.6907H51.9381C48.8602 12.6907 46.3573 15.1896 46.3573 18.2607V20.4702C46.3586 20.9097 46.7145 21.2669 47.1553 21.2669ZM47.952 18.2607C47.952 16.0686 49.7406 14.284 51.9394 14.284H55.5763C57.7752 14.284 59.5637 16.0672 59.5637 18.2607V19.6735H47.9533V18.2607H47.952ZM53.7572 55.1785C56.0795 55.1785 57.9677 53.2931 57.9677 50.9761C57.9677 48.6591 56.0782 46.7736 53.7572 46.7736C51.4362 46.7736 49.5467 48.6591 49.5467 50.9761C49.5467 53.2931 51.4348 55.1785 53.7572 55.1785ZM53.7572 48.367C55.2005 48.367 56.3743 49.5381 56.3743 50.9761C56.3743 52.4141 55.2005 53.5852 53.7572 53.5852C52.3139 53.5852 51.1401 52.4141 51.1401 50.9761C51.1401 49.5381 52.3139 48.367 53.7572 48.367ZM55.575 56.0443H51.9381C48.8602 56.0443 46.3573 58.5431 46.3573 61.6143V63.8238C46.3573 64.2633 46.7145 64.6204 47.154 64.6204H60.3578C60.7973 64.6204 61.1544 64.2633 61.1544 63.8238V61.6143C61.1558 58.5418 58.6528 56.0443 55.575 56.0443ZM59.5624 63.0258H47.952V61.613C47.952 59.4208 49.7406 57.6363 51.9394 57.6363H55.5763C57.7752 57.6363 59.5637 59.4195 59.5637 61.613V63.0258H59.5624ZM6.09267 50.9761C6.09267 53.2931 7.98215 55.1785 10.3032 55.1785C12.6242 55.1785 14.5137 53.2931 14.5137 50.9761C14.5137 48.6591 12.6255 46.7736 10.3032 46.7736C7.98215 46.7736 6.09267 48.6591 6.09267 50.9761ZM12.9203 50.9761C12.9203 52.4154 11.7465 53.5852 10.3032 53.5852C8.85983 53.5852 7.68605 52.4141 7.68605 50.9761C7.68605 49.5381 8.85983 48.367 10.3032 48.367C11.7465 48.367 12.9203 49.5368 12.9203 50.9761ZM12.1223 56.0443H8.48539C5.40752 56.0443 2.90459 58.5431 2.90459 61.6143V63.8238C2.90459 64.2633 3.26177 64.6204 3.70128 64.6204H16.9051C17.3446 64.6204 17.7017 64.2633 17.7017 63.8238V61.6143C17.7031 58.5418 15.1988 56.0443 12.1223 56.0443ZM16.1097 63.0258H4.49797V61.613C4.49797 59.4208 6.28653 57.6363 8.48539 57.6363H12.1223C14.3211 57.6363 16.1097 59.4195 16.1097 61.613V63.0258ZM10.3032 11.8263C12.6242 11.8263 14.5137 9.94083 14.5137 7.62384C14.5137 5.30686 12.6255 3.4214 10.3032 3.4214C7.98082 3.4214 6.09267 5.30686 6.09267 7.62384C6.09267 9.94083 7.98215 11.8263 10.3032 11.8263ZM10.3032 5.01341C11.7465 5.01341 12.9203 6.18452 12.9203 7.62252C12.9203 9.06184 11.7465 10.2316 10.3032 10.2316C8.85983 10.2316 7.68605 9.06051 7.68605 7.62252C7.68605 6.18452 8.86116 5.01341 10.3032 5.01341ZM3.70128 21.2669H16.9051C17.3446 21.2669 17.7017 20.9097 17.7017 20.4702V18.2607C17.7017 15.1896 15.1988 12.6907 12.1209 12.6907H8.48539C5.40752 12.6907 2.90459 15.1896 2.90459 18.2607V20.4702C2.90459 20.6813 2.98824 20.8845 3.13828 21.0332C3.287 21.1832 3.49016 21.2669 3.70128 21.2669ZM4.49797 18.2607C4.49797 16.0686 6.28653 14.284 8.48539 14.284H12.1223C14.3211 14.284 16.1097 16.0672 16.1097 18.2607V19.6735H4.49929V18.2607H4.49797Z" fill="#FF5E14"/>
</g>
<defs>
<clipPath id="clip0_2186_371">
<rect width="64" height="64" fill="white"/>
</clipPath>
</defs>
</svg>
