<svg width="67" height="67" viewBox="0 0 67 67" fill="none" xmlns="http://www.w3.org/2000/svg">
<path d="M61.7631 54.5694C61.7647 54.5251 61.7655 54.4811 61.7655 54.4375C61.7642 53.3273 61.3226 52.2629 60.5376 51.4779C59.7525 50.6928 58.6882 50.2512 57.578 50.25V30.8828L61.3467 28.0562C61.4776 27.9581 61.5837 27.8306 61.6564 27.684C61.7291 27.5374 61.7664 27.3759 61.7654 27.2123C61.7644 27.0486 61.725 26.8875 61.6505 26.7419C61.576 26.5962 61.4683 26.4701 61.3362 26.3735L52.3436 19.8019V8.375C52.6212 8.375 52.8875 8.2647 53.0838 8.06838C53.2802 7.87205 53.3905 7.60577 53.3905 7.32812V3.14062C53.3905 2.86298 53.2802 2.5967 53.0838 2.40037C52.8875 2.20405 52.6212 2.09375 52.3436 2.09375H41.8748C41.5972 2.09375 41.3309 2.20405 41.1346 2.40037C40.9383 2.5967 40.828 2.86298 40.828 3.14062V7.32812C40.828 7.60577 40.9383 7.87205 41.1346 8.06838C41.3309 8.2647 41.5972 8.375 41.8748 8.375V12.1517L34.1175 6.4829C33.9382 6.35189 33.7219 6.28128 33.4998 6.28128C33.2778 6.28128 33.0615 6.35189 32.8822 6.4829L5.66343 26.3735C5.53132 26.4701 5.42369 26.5962 5.34915 26.7419C5.27462 26.8875 5.23527 27.0486 5.23425 27.2123C5.23323 27.3759 5.27058 27.5374 5.34329 27.684C5.41601 27.8306 5.52207 27.9581 5.65296 28.0562L9.42171 30.8828V50.25C8.3115 50.2512 7.24711 50.6928 6.46208 51.4779C5.67704 52.2629 5.23546 53.3273 5.23421 54.4375C5.23421 54.4811 5.23499 54.5251 5.23656 54.5694C4.24896 54.8233 3.38794 55.4289 2.81507 56.2725C2.2422 57.1161 1.99684 58.1398 2.12503 59.1514C2.25322 60.163 2.74614 61.0932 3.51133 61.7672C4.27651 62.4413 5.26135 62.8129 6.28108 62.8125H60.7186C61.7383 62.8129 62.7232 62.4413 63.4883 61.7672C64.2535 61.0932 64.7465 60.163 64.8746 59.1514C65.0028 58.1398 64.7575 57.1161 64.1846 56.2725C63.6117 55.4289 62.7507 54.8233 61.7631 54.5694ZM42.9217 4.1875H51.2967V6.28125H42.9217V4.1875ZM43.9686 13.6094V8.375H50.2498V18.2719L43.8695 13.6094H43.9686ZM33.4998 8.62468L58.9592 27.2297L56.5215 29.058L34.1157 12.7627C33.9367 12.6325 33.7211 12.5624 33.4998 12.5624C33.2785 12.5624 33.063 12.6325 32.884 12.7627L10.4781 29.058L8.04049 27.2297L33.4998 8.62468ZM4.18733 58.625C4.18791 58.0753 4.4044 57.5478 4.79015 57.1562C5.1759 56.7646 5.70005 56.5401 6.24968 56.5312H6.25216C6.30569 56.5387 6.35921 56.5451 6.41378 56.5487C6.58726 56.5596 6.76074 56.5272 6.91855 56.4543C7.07637 56.3814 7.21356 56.2704 7.31774 56.1313C7.42192 55.9921 7.48981 55.8292 7.51529 55.6573C7.54076 55.4853 7.52302 55.3097 7.46366 55.1464C7.37702 54.9199 7.33108 54.6799 7.32796 54.4375C7.32862 53.8824 7.54942 53.3502 7.94193 52.9577C8.33444 52.5652 8.86661 52.3444 9.42171 52.3438V60.7188H6.28108C5.72599 60.7181 5.19382 60.4973 4.80131 60.1048C4.40879 59.7123 4.18799 59.1801 4.18733 58.625ZM49.203 60.7188H36.6405V37.6875H49.203V60.7188ZM51.2967 60.7188V36.6406C51.2967 36.363 51.1864 36.0967 50.9901 35.9004C50.7938 35.704 50.5275 35.5938 50.2498 35.5938H35.5936C35.3159 35.5938 35.0497 35.704 34.8533 35.9004C34.657 36.0967 34.5467 36.363 34.5467 36.6406V60.7188H11.5155V30.8925L33.4998 14.9038L55.4842 30.8925V60.7188H51.2967ZM60.7186 60.7188H57.578V52.3438C58.1331 52.3444 58.6652 52.5652 59.0577 52.9577C59.4502 53.3502 59.671 53.8824 59.6717 54.4375C59.6686 54.6801 59.6227 54.9203 59.536 55.1469C59.4766 55.3103 59.4589 55.4859 59.4844 55.6578C59.5099 55.8298 59.5777 55.9927 59.6819 56.1318C59.7861 56.271 59.9233 56.382 60.0811 56.4548C60.2389 56.5277 60.4124 56.5601 60.5859 56.5492C60.6405 56.5456 60.694 56.5392 60.7475 56.5318H60.75C61.3053 56.5359 61.8362 56.7605 62.2259 57.1561C62.6156 57.5517 62.8322 58.0859 62.828 58.6412C62.8239 59.1965 62.5993 59.7274 62.2037 60.1171C61.8081 60.5068 61.2739 60.7234 60.7186 60.7193V60.7188Z" fill="#87AB42"/>
<path d="M29.3125 35.5938H16.75C16.4724 35.5938 16.2061 35.704 16.0097 35.9004C15.8134 36.0967 15.7031 36.363 15.7031 36.6406V51.2969C15.7031 51.5745 15.8134 51.8408 16.0097 52.0371C16.2061 52.2335 16.4724 52.3438 16.75 52.3438H29.3125C29.5901 52.3438 29.8564 52.2335 30.0528 52.0371C30.2491 51.8408 30.3594 51.5745 30.3594 51.2969V36.6406C30.3594 36.363 30.2491 36.0967 30.0528 35.9004C29.8564 35.704 29.5901 35.5938 29.3125 35.5938ZM28.2656 42.9219H24.0781V37.6875H28.2656V42.9219ZM21.9844 37.6875V42.9219H17.7969V37.6875H21.9844ZM17.7969 45.0156H21.9844V50.25H17.7969V45.0156ZM24.0781 50.25V45.0156H28.2656V50.25H24.0781Z" fill="#87AB42"/>
<path d="M40.7491 48.5567C40.9703 48.0226 40.7167 47.4102 40.1825 47.1889C39.6483 46.9676 39.0359 47.2213 38.8147 47.7555C38.5934 48.2896 38.8471 48.902 39.3812 49.1233C39.9154 49.3445 40.5278 49.0909 40.7491 48.5567Z" fill="#87AB42"/>
</svg>
