<svg width="104" height="104" viewBox="0 0 104 104" fill="none" xmlns="http://www.w3.org/2000/svg">
<path d="M97.5731 100.494H94.6517V8.76403C94.6517 7.79573 93.8669 7.01127 92.899 7.01127H60.1798C59.2117 7.01127 58.427 7.79573 58.427 8.76403V16.3595H54.9215V8.76403C54.9215 7.79573 54.1366 7.01127 53.1687 7.01127H45.5731V1.75277C45.5731 0.784469 44.7882 0 43.8203 0C42.8524 0 42.0676 0.784469 42.0676 1.75277V7.01127H34.4721C33.504 7.01127 32.7193 7.79573 32.7193 8.76403V16.3595H27.4608C26.4927 16.3595 25.7081 17.144 25.7081 18.1122V32.719H11.1014C10.1333 32.719 9.34859 33.5034 9.34859 34.4717V100.494H6.42684C5.45874 100.494 4.67407 101.279 4.67407 102.247C4.67407 103.215 5.45895 104 6.42684 104H97.5731C98.5412 104 99.3259 103.216 99.3259 102.247C99.3259 101.279 98.541 100.494 97.5731 100.494ZM36.2247 10.5168H51.4156V16.3595H36.2247V10.5168ZM30.382 100.494H29.2134V97.5731C29.2134 96.6048 28.4285 95.8204 27.4606 95.8204C26.4927 95.8204 25.7079 96.6048 25.7079 97.5731V100.494H24.5393V94.6518H30.382V100.494ZM42.0674 55.5055V58.5209V100.494H33.8875V92.899C33.8875 91.9307 33.1026 91.1463 32.1347 91.1463H22.7865C21.8184 91.1463 21.0338 91.9307 21.0338 92.899V100.494H12.8539V36.2247H42.0674V55.5055ZM43.8201 32.7192H29.2134V19.8652H58.4268V53.7528H45.5731V47.9101H50.8316C51.7997 47.9101 52.5844 47.1256 52.5844 46.1573C52.5844 45.189 51.7995 44.4045 50.8316 44.4045H45.5731V38.5619H50.8316C51.7997 38.5619 52.5844 37.7774 52.5844 36.8091C52.5844 35.8408 51.7995 35.0563 50.8316 35.0563H45.5731V34.4721C45.5731 33.5036 44.7882 32.7192 43.8201 32.7192ZM74.7865 100.494H45.5731V58.5209V57.2585H74.7865V100.494ZM91.146 100.494H78.2921V55.5055V53.1684C78.2921 52.2001 77.5072 51.4156 76.5393 51.4156C75.5714 51.4156 74.7865 52.2001 74.7865 53.1684V53.7526H71.281V53.1684C71.281 52.2001 70.4961 51.4156 69.5282 51.4156C68.5603 51.4156 67.7755 52.2001 67.7755 53.1684V53.7526H61.9328V18.1125V10.5168H91.1462V100.494H91.146Z" fill="#FF5E14"/>
<path d="M53.1685 96.9892C54.1366 96.9892 54.9213 96.2043 54.9213 95.2364V62.5174C54.9213 61.5491 54.1364 60.7646 53.1685 60.7646C52.2006 60.7646 51.4158 61.5491 51.4158 62.5174V95.2366C51.4158 96.2045 52.2004 96.9892 53.1685 96.9892Z" fill="#FF5E14"/>
<path d="M60.1798 96.9892C61.1479 96.9892 61.9325 96.2043 61.9325 95.2364V62.5174C61.9325 61.5491 61.1477 60.7646 60.1798 60.7646C59.2119 60.7646 58.427 61.5491 58.427 62.5174V95.2366C58.4268 96.2045 59.2117 96.9892 60.1798 96.9892Z" fill="#FF5E14"/>
<path d="M67.1908 96.9892C68.1588 96.9892 68.9435 96.2043 68.9435 95.2364V62.5174C68.9435 61.5491 68.1586 60.7646 67.1908 60.7646C66.2229 60.7646 65.438 61.5491 65.438 62.5174V95.2366C65.438 96.2045 66.2229 96.9892 67.1908 96.9892Z" fill="#FF5E14"/>
<path d="M69.5279 22.2019C70.496 22.2019 71.2807 21.4174 71.2807 20.4491V18.1121C71.2807 17.1438 70.4958 16.3594 69.5279 16.3594C68.56 16.3594 67.7751 17.1438 67.7751 18.1121V20.4493C67.7751 21.4174 68.5598 22.2019 69.5279 22.2019Z" fill="#FF5E14"/>
<path d="M76.5394 22.2019C77.5075 22.2019 78.2922 21.4174 78.2922 20.4491V18.1121C78.2922 17.1438 77.5073 16.3594 76.5394 16.3594C75.5715 16.3594 74.7866 17.1438 74.7866 18.1121V20.4493C74.7866 21.4174 75.5713 22.2019 76.5394 22.2019Z" fill="#FF5E14"/>
<path d="M83.5506 22.2019C84.5187 22.2019 85.3034 21.4174 85.3034 20.4491V18.1121C85.3034 17.1438 84.5185 16.3594 83.5506 16.3594C82.5827 16.3594 81.7979 17.1438 81.7979 18.1121V20.4493C81.7979 21.4174 82.5825 22.2019 83.5506 22.2019Z" fill="#FF5E14"/>
<path d="M69.5279 33.8876C70.496 33.8876 71.2807 33.1031 71.2807 32.1348V29.7977C71.2807 28.8294 70.4958 28.0449 69.5279 28.0449C68.56 28.0449 67.7751 28.8294 67.7751 29.7977V32.1348C67.7751 33.1031 68.5598 33.8876 69.5279 33.8876Z" fill="#FF5E14"/>
<path d="M76.5394 33.8876C77.5075 33.8876 78.2922 33.1031 78.2922 32.1348V29.7977C78.2922 28.8294 77.5073 28.0449 76.5394 28.0449C75.5715 28.0449 74.7866 28.8294 74.7866 29.7977V32.1348C74.7866 33.1031 75.5713 33.8876 76.5394 33.8876Z" fill="#FF5E14"/>
<path d="M83.5506 33.8876C84.5187 33.8876 85.3034 33.1031 85.3034 32.1348V29.7977C85.3034 28.8294 84.5185 28.0449 83.5506 28.0449C82.5827 28.0449 81.7979 28.8294 81.7979 29.7977V32.1348C81.7979 33.1031 82.5825 33.8876 83.5506 33.8876Z" fill="#FF5E14"/>
<path d="M69.5279 45.5732C70.496 45.5732 71.2807 44.7887 71.2807 43.8204V41.4832C71.2807 40.5149 70.4958 39.7305 69.5279 39.7305C68.56 39.7305 67.7751 40.5149 67.7751 41.4832V43.8204C67.7751 44.7885 68.5598 45.5732 69.5279 45.5732Z" fill="#FF5E14"/>
<path d="M76.5394 45.5732C77.5075 45.5732 78.2922 44.7887 78.2922 43.8204V41.4832C78.2922 40.5149 77.5073 39.7305 76.5394 39.7305C75.5715 39.7305 74.7866 40.5149 74.7866 41.4832V43.8204C74.7866 44.7885 75.5713 45.5732 76.5394 45.5732Z" fill="#FF5E14"/>
<path d="M83.5506 45.5732C84.5187 45.5732 85.3034 44.7887 85.3034 43.8204V41.4832C85.3034 40.5149 84.5185 39.7305 83.5506 39.7305C82.5827 39.7305 81.7979 40.5149 81.7979 41.4832V43.8204C81.7979 44.7885 82.5825 45.5732 83.5506 45.5732Z" fill="#FF5E14"/>
<path d="M20.4493 50.247C21.4174 50.247 22.2021 49.4625 22.2021 48.4942V46.1571C22.2021 45.1888 21.4172 44.4043 20.4493 44.4043C19.4814 44.4043 18.6965 45.1888 18.6965 46.1571V48.4942C18.6965 49.4623 19.4814 50.247 20.4493 50.247Z" fill="#FF5E14"/>
<path d="M27.4605 50.247C28.4286 50.247 29.2133 49.4625 29.2133 48.4942V46.1571C29.2133 45.1888 28.4284 44.4043 27.4605 44.4043C26.4926 44.4043 25.7078 45.1888 25.7078 46.1571V48.4942C25.7078 49.4623 26.4924 50.247 27.4605 50.247Z" fill="#FF5E14"/>
<path d="M34.472 50.247C35.4401 50.247 36.2248 49.4625 36.2248 48.4942V46.1571C36.2248 45.1888 35.4399 44.4043 34.472 44.4043C33.5041 44.4043 32.7192 45.1888 32.7192 46.1571V48.4942C32.7192 49.4623 33.5039 50.247 34.472 50.247Z" fill="#FF5E14"/>
<path d="M20.4493 61.9325C21.4174 61.9325 22.2021 61.1481 22.2021 60.1798V57.8426C22.2021 56.8743 21.4172 56.0898 20.4493 56.0898C19.4814 56.0898 18.6965 56.8743 18.6965 57.8426V60.1798C18.6965 61.1479 19.4814 61.9325 20.4493 61.9325Z" fill="#FF5E14"/>
<path d="M27.4605 61.9325C28.4286 61.9325 29.2133 61.1481 29.2133 60.1798V57.8426C29.2133 56.8743 28.4284 56.0898 27.4605 56.0898C26.4926 56.0898 25.7078 56.8743 25.7078 57.8426V60.1798C25.7078 61.1479 26.4924 61.9325 27.4605 61.9325Z" fill="#FF5E14"/>
<path d="M34.472 61.9325C35.4401 61.9325 36.2248 61.1481 36.2248 60.1798V57.8426C36.2248 56.8743 35.4399 56.0898 34.472 56.0898C33.5041 56.0898 32.7192 56.8743 32.7192 57.8426V60.1798C32.7192 61.1479 33.5039 61.9325 34.472 61.9325Z" fill="#FF5E14"/>
<path d="M20.4493 73.6181C21.4174 73.6181 22.2021 72.8336 22.2021 71.8653V69.5282C22.2021 68.5599 21.4172 67.7754 20.4493 67.7754C19.4814 67.7754 18.6965 68.5599 18.6965 69.5282V71.8653C18.6965 72.8336 19.4814 73.6181 20.4493 73.6181Z" fill="#FF5E14"/>
<path d="M27.4605 73.6181C28.4286 73.6181 29.2133 72.8336 29.2133 71.8653V69.5282C29.2133 68.5599 28.4284 67.7754 27.4605 67.7754C26.4926 67.7754 25.7078 68.5599 25.7078 69.5282V71.8653C25.7078 72.8336 26.4924 73.6181 27.4605 73.6181Z" fill="#FF5E14"/>
<path d="M34.472 73.6181C35.4401 73.6181 36.2248 72.8336 36.2248 71.8653V69.5282C36.2248 68.5599 35.4399 67.7754 34.472 67.7754C33.5041 67.7754 32.7192 68.5599 32.7192 69.5282V71.8653C32.7192 72.8336 33.5039 73.6181 34.472 73.6181Z" fill="#FF5E14"/>
<path d="M20.4493 85.3036C21.4174 85.3036 22.2021 84.5192 22.2021 83.5509V81.2137C22.2021 80.2454 21.4172 79.4609 20.4493 79.4609C19.4814 79.4609 18.6965 80.2454 18.6965 81.2137V83.5509C18.6965 84.5192 19.4814 85.3036 20.4493 85.3036Z" fill="#FF5E14"/>
<path d="M27.4605 85.3036C28.4286 85.3036 29.2133 84.5192 29.2133 83.5509V81.2137C29.2133 80.2454 28.4284 79.4609 27.4605 79.4609C26.4926 79.4609 25.7078 80.2454 25.7078 81.2137V83.5509C25.7078 84.5192 26.4924 85.3036 27.4605 85.3036Z" fill="#FF5E14"/>
<path d="M34.472 85.3036C35.4401 85.3036 36.2248 84.5192 36.2248 83.5509V81.2137C36.2248 80.2454 35.4399 79.4609 34.472 79.4609C33.5041 79.4609 32.7192 80.2454 32.7192 81.2137V83.5509C32.7192 84.5192 33.5039 85.3036 34.472 85.3036Z" fill="#FF5E14"/>
<path d="M83.5506 57.2587C84.5187 57.2587 85.3034 56.4742 85.3034 55.5059V53.1688C85.3034 52.2005 84.5185 51.416 83.5506 51.416C82.5827 51.416 81.7979 52.2005 81.7979 53.1688V55.5059C81.7979 56.474 82.5825 57.2587 83.5506 57.2587Z" fill="#FF5E14"/>
<path d="M83.5506 68.9442C84.5187 68.9442 85.3034 68.1598 85.3034 67.1915V64.8543C85.3034 63.886 84.5185 63.1016 83.5506 63.1016C82.5827 63.1016 81.7979 63.886 81.7979 64.8543V67.1915C81.7979 68.1596 82.5825 68.9442 83.5506 68.9442Z" fill="#FF5E14"/>
<path d="M83.5506 80.6288C84.5187 80.6288 85.3034 79.8444 85.3034 78.8761V76.5389C85.3034 75.5706 84.5185 74.7861 83.5506 74.7861C82.5827 74.7861 81.7979 75.5706 81.7979 76.5389V78.8761C81.7979 79.8442 82.5825 80.6288 83.5506 80.6288Z" fill="#FF5E14"/>
<path d="M83.5506 92.3144C84.5187 92.3144 85.3034 91.5299 85.3034 90.5616V88.2244C85.3034 87.2561 84.5185 86.4717 83.5506 86.4717C82.5827 86.4717 81.7979 87.2561 81.7979 88.2244V90.5616C81.7979 91.5297 82.5825 92.3144 83.5506 92.3144Z" fill="#FF5E14"/>
<path d="M52.5842 27.4608C52.5842 26.4925 51.7993 25.708 50.8314 25.708H36.8089C35.8408 25.708 35.0562 26.4925 35.0562 27.4608C35.0562 28.4291 35.841 29.2135 36.8089 29.2135H50.8314C51.7995 29.2135 52.5842 28.4291 52.5842 27.4608Z" fill="#FF5E14"/>
</svg>
