<svg width="125" height="124" viewBox="0 0 125 124" fill="none" xmlns="http://www.w3.org/2000/svg">
<path fill-rule="evenodd" clip-rule="evenodd" d="M84.4317 57.0248C83.4797 57.0248 82.6742 56.2257 82.6742 55.2087C82.6742 38.4284 70.5916 23.9 53.8956 20.7764C53.0169 20.6311 52.2846 19.6868 52.5043 18.8151C52.724 17.8707 53.6027 17.1443 54.4815 17.3622C72.8617 20.7764 86.1891 36.8303 86.1891 55.2087C86.1891 56.2257 85.3836 57.0248 84.4317 57.0248ZM10.1786 57.0248C9.15341 57.0248 8.3479 56.2257 8.3479 55.2087C8.3479 36.8303 21.6021 20.7764 39.9091 17.3622C40.9343 17.1443 41.813 17.7981 41.9595 18.8151C42.106 19.6868 41.5201 20.7038 40.4949 20.7764C23.8722 23.9 11.8628 38.4284 11.8628 55.2087C12.0093 56.2257 11.2038 57.0248 10.1786 57.0248Z" fill="#FF5E14"/>
<path fill-rule="evenodd" clip-rule="evenodd" d="M86.775 68.938H7.83538C3.58817 68.938 0 65.5238 0 61.1653C0 56.8794 3.44171 53.3926 7.83538 53.3926H86.7018C90.949 53.3926 94.5372 56.8794 94.5372 61.1653C94.5372 65.5238 91.0955 68.938 86.775 68.938ZM7.83538 57.0247C5.49209 57.0247 3.58817 58.986 3.58817 61.3106C3.58817 63.6351 5.49209 65.5238 7.83538 65.5238H86.7018C89.0451 65.5238 90.949 63.6351 90.949 61.3106C90.949 58.986 89.0451 57.0247 86.7018 57.0247H7.83538Z" fill="#FF5E14"/>
<path fill-rule="evenodd" clip-rule="evenodd" d="M30.3896 35.886H16.8424C15.8172 35.886 15.0117 35.0869 15.0117 34.07C15.0117 33.053 15.8172 32.2539 16.8424 32.2539H30.3896C31.3415 32.2539 32.147 33.053 32.147 34.07C32.147 35.0869 31.3415 35.886 30.3896 35.886Z" fill="#FF5E14"/>
<path fill-rule="evenodd" clip-rule="evenodd" d="M30.3896 46.0559H11.8629C10.8377 46.0559 10.0322 45.2569 10.0322 44.2399C10.0322 43.2229 10.8377 42.4238 11.8629 42.4238H30.3896C31.3415 42.4238 32.147 43.2229 32.147 44.2399C32.147 45.2569 31.3415 46.0559 30.3896 46.0559Z" fill="#FF5E14"/>
<path fill-rule="evenodd" clip-rule="evenodd" d="M77.6948 35.886H64.1476C63.1224 35.886 62.3169 35.0869 62.3169 34.07C62.3169 33.053 63.1224 32.2539 64.1476 32.2539H77.6948C78.6467 32.2539 79.5254 33.053 79.5254 34.07C79.5254 35.0869 78.6467 35.886 77.6948 35.886Z" fill="#FF5E14"/>
<path fill-rule="evenodd" clip-rule="evenodd" d="M82.7475 46.0559H64.1476C63.1224 46.0559 62.3169 45.2569 62.3169 44.2399C62.3169 43.2229 63.1224 42.4238 64.1476 42.4238H82.7475C83.7727 42.4238 84.5782 43.2229 84.5782 44.2399C84.5782 45.2569 83.7727 46.0559 82.7475 46.0559Z" fill="#FF5E14"/>
<path fill-rule="evenodd" clip-rule="evenodd" d="M54.1886 57.0244H40.2753C39.3233 57.0244 38.4446 56.2254 38.4446 55.2084V18.6694C38.4446 13.9477 42.4721 10.0977 47.3052 10.0977C52.065 10.0977 56.0193 14.0203 56.0193 18.8147V55.3537C56.0193 56.2254 55.2138 57.0244 54.1886 57.0244ZM42.0327 53.5376H52.3579V18.6694C52.3579 15.8364 50.0146 13.5118 47.2319 13.5118C44.376 13.5118 41.9595 15.8364 41.9595 18.6694V53.5376H42.0327Z" fill="#FF5E14"/>
<path fill-rule="evenodd" clip-rule="evenodd" d="M54.1887 113.831H40.2754C38.8108 113.831 37.4927 112.523 37.4927 111.071V98.2129C32.8794 96.8327 28.6322 94.2902 25.044 91.094L13.8401 97.5591C13.1079 97.9223 12.3024 98.0676 11.5701 97.777C10.8378 97.5591 10.3252 97.0506 9.95906 96.3968L3.07564 84.4835C2.34336 83.1033 2.7095 81.4326 3.95437 80.6335C3.95437 80.6335 4.0276 80.6335 4.0276 80.4882L15.3047 74.1684C14.7921 71.8438 14.4992 69.5193 14.4992 67.0495C14.4992 66.0325 15.3047 65.2334 16.3299 65.2334C17.3551 65.2334 18.1606 66.0325 18.1606 67.0495C18.1606 69.6646 18.4535 72.1344 19.1858 74.4589C19.4055 75.258 19.1125 76.0571 18.3803 76.4929L6.59058 83.1033L12.8882 93.927L24.6779 87.1713C25.4101 86.7354 26.2889 86.8807 26.8015 87.4619C30.3896 91.0213 34.9298 93.6364 39.9093 95.0166C40.7148 95.2346 41.2274 95.961 41.2274 96.7601V110.199H53.6761V96.8327C53.6761 96.0336 54.1887 95.3072 54.9942 95.0893C59.9737 93.7817 64.5871 91.1666 68.102 87.5345C68.7611 86.9534 69.5666 86.8807 70.2256 87.2439L81.9421 93.9997L88.2397 83.2486L76.5232 76.5656C75.8642 76.2024 75.498 75.4033 75.7177 74.6042C76.3767 72.0618 76.7429 69.5193 76.7429 67.0495C76.7429 66.0325 77.5484 65.2334 78.5736 65.2334C79.5988 65.2334 80.4043 66.0325 80.4043 67.0495C80.4043 69.4466 80.1114 71.7712 79.5988 74.1684L90.7294 80.4882C92.0475 81.3599 92.5601 83.0307 91.7546 84.3383L84.8712 96.3242C84.0657 97.777 82.3082 98.1403 80.9901 97.4138L69.8595 91.0213C66.2713 94.2176 62.0973 96.6148 57.484 98.1403V110.925C57.191 112.523 55.8729 113.831 54.1887 113.831Z" fill="#FF5E14"/>
<path fill-rule="evenodd" clip-rule="evenodd" d="M47.3053 81.5048C39.3234 81.5048 32.8062 75.1123 32.8062 67.1217C32.8062 66.1047 33.6117 65.3057 34.6368 65.3057C35.662 65.3057 36.4675 66.1047 36.4675 67.1217C36.4675 73.0784 41.447 78.018 47.3785 78.018C53.3832 78.018 58.3627 73.151 58.3627 67.1217C58.3627 66.1047 59.1682 65.3057 60.1934 65.3057C61.2186 65.3057 62.0241 66.1047 62.0241 67.1217C61.8044 75.1123 55.3603 81.5048 47.3053 81.5048Z" fill="#FF5E14"/>
<path fill-rule="evenodd" clip-rule="evenodd" d="M109.109 112.741C101.201 112.741 94.83 106.421 94.83 98.5756C94.83 93.6359 97.393 89.0595 101.494 86.5896V38.3553C96.441 35.5223 93.3655 30.3647 93.3655 24.626C93.3655 19.1778 96.1481 14.2382 100.615 11.4051C101.128 11.1145 101.713 11.0419 102.226 11.2598C102.739 11.4051 103.178 11.841 103.324 12.4221L106.62 24.8439H111.892L115.041 12.4221C115.114 11.9136 115.554 11.4051 116.066 11.2598C116.579 11.0419 117.165 11.0419 117.677 11.3325C122.217 14.1655 125 19.1778 125 24.5533C125 30.2921 121.924 35.377 116.872 38.21V86.3717C121.046 88.9868 123.535 93.4906 123.535 98.3577C123.462 106.421 117.091 112.741 109.109 112.741ZM100.542 15.9816C98.1985 18.1608 96.8804 21.2844 96.8804 24.626C96.8804 29.3477 99.5898 33.5609 103.984 35.5949C104.569 35.8855 105.009 36.5393 105.009 37.193V87.4614C105.009 88.0425 104.569 88.6963 104.057 88.9868C100.542 90.8755 98.345 94.5076 98.345 98.4303C98.345 104.387 103.251 109.109 109.109 109.109C115.041 109.109 119.874 104.314 119.874 98.4303C119.874 94.5076 117.677 90.8755 114.235 88.9868C113.576 88.6963 113.283 88.0425 113.283 87.4614V37.3383C113.283 36.6119 113.723 36.0308 114.309 35.6676C118.702 33.7062 121.412 29.493 121.412 24.6986C121.412 21.4297 120.094 18.3061 117.75 16.0542L114.894 27.1684C114.748 27.9675 114.016 28.476 113.21 28.476H105.155C104.35 28.476 103.691 27.9675 103.471 27.1684L100.542 15.9816Z" fill="#FF5E14"/>
<path fill-rule="evenodd" clip-rule="evenodd" d="M109.11 104.895C105.595 104.895 102.666 102.062 102.666 98.5755C102.666 95.016 105.595 92.1104 109.11 92.1104C112.698 92.1104 115.627 95.016 115.627 98.5755C115.627 102.062 112.698 104.895 109.11 104.895ZM109.11 95.5972C107.645 95.5972 106.18 96.9047 106.18 98.5755C106.18 100.028 107.499 101.336 109.11 101.336C110.794 101.336 112.112 100.174 112.112 98.5755C112.112 97.05 110.647 95.5972 109.11 95.5972Z" fill="#FF5E14"/>
</svg>
