<svg width="113" height="113" viewBox="0 0 113 113" fill="none" xmlns="http://www.w3.org/2000/svg">
<g clip-path="url(#clip0_2310_81)">
<path d="M112.111 65.3454C111.427 57.7543 107.948 50.7229 102.314 45.5466C98.5603 42.097 94.0619 39.675 89.2144 38.4315C93.854 35.7725 96.9889 30.7742 96.9889 25.0541C96.9889 24.4509 96.9496 23.8484 96.8799 23.2505C97.244 23.1198 97.6133 22.9856 97.99 22.8464C98.5963 22.6219 98.9986 22.0439 98.9986 21.3974V20.2388C98.9986 19.6947 98.7166 19.2171 98.2915 18.9419V18.6993C98.2915 11.3323 93.3343 4.78357 86.3464 2.68667C86.3002 2.00912 85.8187 1.43772 85.1528 1.28543C82.8094 0.748901 80.3452 0.748901 78.0022 1.28543C77.3366 1.43772 76.855 2.00912 76.8089 2.68667C69.8212 4.78357 64.8638 11.3323 64.8638 18.6993V18.9419C64.4387 19.2171 64.1567 19.6947 64.1567 20.2388V21.3974C64.1567 22.0439 64.559 22.6219 65.1653 22.8464C65.542 22.9858 65.911 23.1198 66.2752 23.2505C66.2054 23.8479 66.1664 24.4504 66.1664 25.0541C66.1664 30.774 69.3012 35.7725 73.9409 38.4313C69.0931 39.6745 64.595 42.0965 60.8406 45.5463C59.2056 47.0487 57.7534 48.7083 56.4969 50.4914C54.1561 47.1705 51.1707 44.3287 47.7282 42.1616C48.3245 41.9718 48.9067 41.7725 49.4702 41.5624C50.2515 41.2709 50.8072 40.6066 50.9562 39.7855C51.1054 38.9636 50.8178 38.1459 50.1879 37.5988C48.0091 35.7043 46.8334 32.166 46.8334 29.7987V25.0538C46.8334 24.4507 46.7944 23.8481 46.7244 23.2502C47.0886 23.1196 47.4576 22.9856 47.8343 22.8461C48.4406 22.6217 48.8429 22.0437 48.8429 21.3972V20.2385C48.8429 19.6945 48.5609 19.2169 48.1358 18.9417V18.6991C48.1358 11.3321 43.1786 4.78335 36.1907 2.68645C36.1446 2.00889 35.663 1.43749 34.9974 1.28521C32.6544 0.74868 30.1902 0.74868 27.8468 1.28521C27.1809 1.43749 26.6994 2.00889 26.6532 2.68645C19.6655 4.78335 14.7081 11.3321 14.7081 18.6991V18.9417C14.283 19.2169 14.001 19.6945 14.001 20.2385V21.3972C14.001 22.0437 14.4033 22.6217 15.0096 22.8461C15.3863 22.9856 15.7556 23.1198 16.1197 23.2502C16.05 23.8479 16.0107 24.4504 16.0107 25.0536V29.7985C16.0107 32.166 14.835 35.7043 12.656 37.5986C12.0264 38.1459 11.7392 38.963 11.888 39.7855C12.0369 40.6061 12.5922 41.2702 13.3735 41.5622C13.937 41.7725 14.5194 41.9718 15.1158 42.1616C13.5512 43.146 12.0674 44.276 10.6849 45.5461C5.05147 50.7227 1.57231 57.7539 0.888349 65.345C0.849285 65.7771 0.994066 66.2055 1.28672 66.5257C1.57937 66.846 1.99319 67.0285 2.42709 67.0285H110.572C111.006 67.0285 111.42 66.846 111.713 66.5259C112.005 66.2057 112.15 65.7771 112.111 65.345V65.3454ZM64.1472 46.6997C66.3416 44.918 68.8172 43.4726 71.4981 42.4327L77.1594 48.0939C78.3373 49.2718 79.9062 49.9205 81.5781 49.9205C83.2499 49.9205 84.8189 49.2718 85.9966 48.0939L91.658 42.4324C94.3387 43.4724 96.8145 44.9178 99.009 46.6997V63.9389H64.1474V46.6995L64.1472 46.6997ZM74.8162 41.3812C76.9799 40.844 79.2448 40.5589 81.5779 40.5589C83.9109 40.5589 86.176 40.844 88.3398 41.3814L83.8118 45.9094C83.2175 46.5035 82.4243 46.8308 81.5781 46.8308C80.7319 46.8308 79.9385 46.5037 79.3443 45.9094L74.8162 41.3814V41.3812ZM76.6827 5.99457L76.3995 13.621C76.3677 14.4735 77.0334 15.1904 77.8859 15.2222C78.7447 15.2555 79.4554 14.5881 79.4871 13.7357L79.8451 4.08814C80.9934 3.93276 82.1612 3.93254 83.3108 4.08814L83.6688 13.7357C83.6999 14.5689 84.3848 15.2233 85.2115 15.2233C85.2309 15.2233 85.2504 15.2231 85.27 15.2222C86.1226 15.1904 86.7882 14.4735 86.7564 13.621L86.4733 5.99457C91.63 8.00143 95.1992 13.0529 95.2016 18.6941H67.9541C67.9565 13.0529 71.5259 8.00165 76.6827 5.99457ZM91.4554 21.7839C87.6589 22.8989 84.5909 23.3919 81.5781 23.4149C78.5653 23.3919 75.4973 22.8989 71.7007 21.7839H91.4554ZM69.2569 25.0541C69.2569 24.7934 69.2679 24.5332 69.2842 24.2734C74.0998 25.8115 77.8436 26.4776 81.567 26.5045H81.5783C81.5783 26.5045 81.5858 26.5045 81.5896 26.5045C85.313 26.4776 89.0568 25.8115 93.8723 24.2734C93.8887 24.5332 93.8997 24.7934 93.8997 25.0541C93.8997 31.848 88.3724 37.3752 81.5785 37.3752C74.7846 37.3752 69.2573 31.8482 69.2573 25.0541H69.2569ZM54.7048 53.359C53.5088 55.5318 52.5812 57.8457 51.9434 60.2531V49.7273C52.956 50.8514 53.8814 52.0646 54.7048 53.359ZM13.9919 46.6997C16.1864 44.918 18.6622 43.4726 21.3429 42.4327L27.0044 48.0941C27.8097 48.8997 28.7985 49.4572 29.8777 49.7295V63.9391H13.9917L13.9919 46.6997ZM38.1585 41.4073L33.6564 45.9094C33.0625 46.5035 32.269 46.8308 31.4228 46.8308C30.5767 46.8308 29.7835 46.5035 29.1891 45.9094L24.6609 41.3814C26.8247 40.8443 29.0896 40.5591 31.4226 40.5591C33.7177 40.5591 35.9779 40.8529 38.1585 41.4073ZM32.9675 49.7295C34.047 49.4572 35.0358 48.8995 35.8413 48.0939L41.4629 42.4724C44.1314 43.5214 46.628 44.9785 48.8538 46.7904V63.9389H32.9678V49.7295H32.9675ZM47.2801 39.0599C46.1636 39.4326 44.9778 39.7633 43.7438 40.0522C42.2265 39.3867 40.6579 38.846 39.0537 38.4348C41.1726 37.2219 42.9769 35.5218 44.313 33.4862C44.8833 35.4648 45.8774 37.4955 47.2801 39.0599ZM26.527 5.99457L26.244 13.621C26.2123 14.4735 26.8779 15.1904 27.7305 15.2222C28.5853 15.2555 29.3001 14.5881 29.3317 13.7355L29.6897 4.08814C30.8386 3.93276 32.0066 3.93276 33.1551 4.08814L33.5131 13.7357C33.5442 14.5689 34.2291 15.2233 35.0558 15.2233C35.0753 15.2233 35.0947 15.2231 35.1143 15.2222C35.9669 15.1904 36.6325 14.4735 36.6008 13.621L36.3176 5.99457C41.4743 8.00143 45.0435 13.0529 45.046 18.6941H17.7986C17.801 13.0529 21.3703 8.00143 26.527 5.99457ZM41.2998 21.7839C37.5032 22.8989 34.4352 23.3919 31.4224 23.4149C28.4096 23.3919 25.3416 22.8989 21.5451 21.7839H41.2998ZM31.4111 26.5047H31.4224C31.4224 26.5047 31.4299 26.5047 31.4337 26.5047C35.1571 26.4778 38.9009 25.8117 43.7167 24.2736C43.733 24.5334 43.744 24.7936 43.744 25.0543C43.744 31.8482 38.2168 37.3755 31.4228 37.3755C24.6289 37.3755 19.1014 31.8484 19.1014 25.0543C19.1014 24.7936 19.1125 24.5334 19.1288 24.2736C23.9443 25.8117 27.6881 26.4776 31.4116 26.5047H31.4111ZM15.5651 39.0601C16.9681 37.496 17.9622 35.4651 18.5325 33.4862C19.8673 35.5198 21.6695 37.2185 23.7859 38.4313C22.1791 38.8434 20.6108 39.385 19.0953 40.0506C17.8635 39.7619 16.6797 39.4322 15.5651 39.0601ZM10.9017 49.6357V63.9391H4.16888C4.99806 58.4367 7.40351 53.5223 10.9017 49.6357ZM61.0571 49.6357V63.9391H54.3241C55.1533 58.4367 57.559 53.5223 61.0571 49.6357ZM102.098 63.9391V49.636C105.596 53.5225 108.002 58.4369 108.831 63.9391H102.098ZM93.376 51.5267H69.7797C68.9265 51.5267 68.2348 52.2184 68.2348 53.0717V60.5683C68.2348 61.4215 68.9265 62.1132 69.7797 62.1132H93.376C94.2292 62.1132 94.9209 61.4215 94.9209 60.5683V53.0717C94.9209 52.2184 94.2292 51.5267 93.376 51.5267ZM91.8311 59.0234H71.3247V54.6166H91.8311V59.0234ZM95.34 70.1861H78.4291C77.5758 70.1861 76.8842 70.8778 76.8842 71.731C76.8842 82.9707 67.7398 92.1151 56.5 92.1151C45.2603 92.1151 36.1161 82.9707 36.1161 71.731C36.1161 70.8778 35.4244 70.1861 34.5712 70.1861H17.6602C16.807 70.1861 16.1153 70.8778 16.1153 71.731V76.6827C16.1153 78.3227 17.2391 79.6896 18.8481 80.0067L23.3804 80.9003L26.5978 88.666L24.0244 92.5036C23.1109 93.8655 23.2829 95.6265 24.4427 96.7863L31.4451 103.789C32.6047 104.949 34.3655 105.121 35.7277 104.207L39.5652 101.634L47.3309 104.851L48.2248 109.384C48.5421 110.993 49.9089 112.116 51.549 112.116H61.4522C63.0922 112.116 64.459 110.993 64.7762 109.384L65.67 104.851L73.4359 101.634L77.2733 104.207C78.6354 105.121 80.3964 104.949 81.5558 103.789L88.5585 96.7865C89.7181 95.6272 89.8902 93.8662 88.9769 92.5036L86.4035 88.666L89.6207 80.9003L94.1535 80.0067C95.7622 79.6893 96.886 78.3227 96.886 76.6827V71.731C96.886 70.8778 96.1944 70.1861 95.3411 70.1861H95.34ZM93.7951 76.6827C93.7951 76.8339 93.7031 76.946 93.5545 76.9751L88.2102 78.0288C87.703 78.1287 87.2795 78.4757 87.0818 78.9531L83.2311 88.2475C83.0334 88.7251 83.0875 89.2701 83.3753 89.6993L86.4095 94.224C86.4938 94.3495 86.4797 94.4941 86.3729 94.6011L79.3702 101.604C79.2636 101.711 79.1194 101.725 78.9934 101.641L74.4686 98.6062C74.0395 98.318 73.4946 98.2642 73.0168 98.4621L63.7225 102.313C63.2449 102.51 62.898 102.934 62.798 103.441L61.7444 108.786C61.7152 108.934 61.6031 109.026 61.4519 109.026H51.5488C51.3974 109.026 51.2855 108.934 51.2561 108.786L50.2023 103.441C50.1023 102.934 49.7556 102.511 49.2779 102.313L39.9839 98.4623C39.7937 98.3835 39.5928 98.3447 39.3927 98.3447C39.0905 98.3447 38.7904 98.4332 38.5321 98.6067L34.0071 101.641C33.8817 101.725 33.7371 101.711 33.6303 101.604L26.6279 94.6018C26.521 94.4948 26.5067 94.3504 26.591 94.2248L29.6252 89.7C29.9132 89.2707 29.9673 88.7258 29.7693 88.2482L25.9187 78.9537C25.721 78.4761 25.2975 78.1294 24.7905 78.0294L19.4462 76.9758C19.2979 76.9467 19.2056 76.8345 19.2056 76.6834V73.2766H33.077C33.8753 85.5027 44.0762 95.2056 56.5007 95.2056C68.9252 95.2056 79.1263 85.5029 79.9246 73.2766H93.796V76.6834L93.7951 76.6827Z" fill="#FF5E14"/>
</g>
<defs>
<clipPath id="clip0_2310_81">
<rect width="113" height="113" fill="white"/>
</clipPath>
</defs>
</svg>
