<svg width="121" height="121" viewBox="0 0 121 121" fill="none" xmlns="http://www.w3.org/2000/svg">
<path d="M65.9693 57.4972C68.7318 57.4972 70.979 55.2497 70.979 52.488C70.979 49.7258 68.7318 47.4786 65.9693 47.4786C63.2074 47.4786 60.9604 49.726 60.9604 52.488C60.9601 55.2497 63.2074 57.4972 65.9693 57.4972ZM65.9693 48.6217C68.1013 48.6217 69.8357 50.3563 69.8357 52.4878C69.8357 54.6197 68.1013 56.3536 65.9693 56.3536C63.8377 56.3536 62.104 54.6194 62.104 52.4878C62.1037 50.3563 63.8377 48.6217 65.9693 48.6217ZM70.772 86.507C68.0098 86.507 65.763 88.7544 65.763 91.5162C65.763 94.2784 68.01 96.5254 70.772 96.5254C73.534 96.5254 75.7814 94.2781 75.7814 91.5162C75.7814 88.7544 73.534 86.507 70.772 86.507ZM70.2327 95.34C68.356 95.0767 66.9064 93.4645 66.9064 91.5162C66.9064 90.7973 67.1073 90.1256 67.4506 89.5485C68.9582 90.8431 70.6815 91.9898 70.6815 92.9181C70.6813 93.3335 70.5158 94.2032 70.2327 95.34ZM71.3987 95.3267C71.6691 94.2065 71.8248 93.3477 71.8248 92.9181C71.8248 91.2364 69.7839 89.9999 68.1738 88.6623C68.8608 88.036 69.7712 87.6503 70.772 87.6503C72.9039 87.6503 74.6379 89.385 74.6379 91.5162C74.6379 93.4337 73.2329 95.0256 71.3987 95.3267ZM40.357 26.7779C43.1192 26.7779 45.3667 24.5304 45.3667 21.7684C45.3667 19.0065 43.1192 16.7592 40.357 16.7592C37.5948 16.7592 35.3478 19.0067 35.3478 21.7684C35.3478 24.5304 37.5951 26.7779 40.357 26.7779ZM40.357 17.9023C42.489 17.9023 44.2231 19.637 44.2231 21.7682C44.2231 23.8999 42.4887 25.6343 40.357 25.6343C38.2254 25.6343 36.4912 23.8996 36.4912 21.7682C36.4912 19.637 38.2254 17.9023 40.357 17.9023ZM97.4303 66.4375C97.4303 63.6755 95.1828 61.4283 92.4206 61.4283C89.6584 61.4283 87.4116 63.6758 87.4116 66.4375C87.4116 69.1997 89.6586 71.4467 92.4206 71.4467C95.1828 71.4467 97.4303 69.1997 97.4303 66.4375ZM88.5547 66.4375C88.5547 64.3058 90.2887 62.5717 92.4204 62.5717C94.5523 62.5717 96.2865 64.3061 96.2865 66.4375C96.2865 68.5694 94.5523 70.3034 92.4204 70.3034C90.2887 70.3034 88.5547 68.5697 88.5547 66.4375ZM60.5 0C27.0865 0 0 27.087 0 60.4995C0 93.913 27.0865 121 60.5 121C93.9135 121 121 93.913 121 60.4995C121 27.087 93.9135 0 60.5 0ZM118.327 56.4068C117.737 56.9719 116.186 58.167 115.818 58.1693H115.817C115.042 58.1693 114.025 56.2619 113.282 54.8688C112.796 53.8044 111.482 52.28 111.617 50.4064C111.43 45.2365 108.013 46.3931 110.122 41.1745C110.504 40.0817 110.429 37.7941 110.172 35.2873C110.892 34.9522 111.565 34.61 112.184 34.26C115.617 40.994 117.771 48.4827 118.327 56.4068ZM111.652 33.2452C111.151 33.5283 110.611 33.8067 110.037 34.0804C109.84 32.4341 109.586 30.7628 109.349 29.3236C110.165 30.5983 110.935 31.9057 111.652 33.2452ZM107.953 27.2406C108.4 29.6493 108.795 32.2413 109.037 34.5384C106.389 35.6988 103.098 36.7668 99.2862 37.7215C95.9892 30.863 91.2451 23.1963 81.8877 13.6179C84.9817 12.7837 87.5842 11.6971 89.4157 10.2692C96.7612 14.5139 103.092 20.3247 107.953 27.2406ZM70.7725 105.152C68.8112 103.294 63.5775 97.7496 63.5775 91.5162C63.5775 87.7155 66.7674 84.3219 70.772 84.3219C74.9855 84.3219 77.9658 87.8521 77.9658 91.5162C77.9658 97.7576 72.7323 103.297 70.7725 105.152ZM74.6513 103.014C74.3446 104.409 73.9745 105.719 73.5642 106.944C73.4557 107.051 66.8149 113.306 65.3944 114.562C63.9828 113.013 64.8574 111.32 65.6621 110.205C66.5791 108.935 67.5716 106.806 68.4872 104.459C69.7832 105.872 70.772 106.692 70.772 106.692C70.772 106.692 72.4469 105.306 74.2949 103.034C74.4143 103.027 74.5358 103.021 74.6513 103.014ZM43.7691 51.6212C44.3749 52.8857 45.613 53.6758 46.8289 54.1666C46.754 55.0841 46.6833 56.0072 46.6179 56.9383C42.1014 55.9495 37.8061 52.825 37.718 50.7158C37.5941 47.7468 36.6235 45.1578 35.6106 43.2686C38.9724 43.5891 42.6513 43.8053 46.6573 43.8708C43.3204 46.9934 43.0065 50.0283 43.7691 51.6212ZM44.8005 51.1268C44.2257 49.9272 44.7208 46.8365 47.8049 44.4446C47.4757 47.2025 47.1794 50.0472 46.9274 52.9701C46.0412 52.5684 45.2093 51.9804 44.8005 51.1268ZM47.6726 58.2828C51.7518 58.373 52.6078 61.6084 56.1575 65.3074C58.339 67.2387 63.301 69.3566 63.3485 70.1176C63.3504 70.1261 62.3438 71.7506 61.8509 74.6431C57.0168 74.6941 52.113 74.653 47.1694 74.5755C47.143 68.9813 47.3311 63.5281 47.6726 58.2828ZM62.8267 75.7796C68.7143 75.66 74.3391 75.4236 77.8314 75.1779C77.7836 79.2654 77.6035 82.9762 77.3256 86.3512C75.8386 84.4478 73.5243 83.1783 70.772 83.1783C68.8062 83.1783 67.0633 83.8253 65.686 84.8888C64.7203 82.6546 63.248 79.2737 62.8491 78.6753C62.605 78.3097 62.6362 77.1304 62.8267 75.7796ZM63.019 74.6296C63.3225 73.0604 63.7873 71.4987 64.2512 70.8488C65.2452 69.342 63.0169 68.2364 61.1386 67.1744C59.7705 66.4011 58.2201 65.5248 56.8844 64.4245C55.0016 62.8853 52.5643 57.0385 47.7499 57.1399C47.8106 56.2685 47.8751 55.4036 47.9439 54.545C48.8377 54.7962 49.5911 54.8962 49.8874 54.9283C51.2312 55.691 53.3882 57.1999 53.7654 58.2048C54.6684 60.855 57.7574 64.0879 62.644 64.2368C64.4119 66.3702 65.9691 67.6636 65.9691 67.6636C65.9691 67.6636 68.3813 65.669 70.6111 62.5371C72.95 62.1534 75.4154 62.4119 77.4757 63.1445C77.7248 66.6859 77.8574 70.3227 77.8392 74.035C73.0018 74.3848 68.0495 74.5601 63.019 74.6296ZM71.3678 29.0471C72.6385 33.569 73.7486 38.0871 74.4852 41.6552C68.6609 42.3483 60.3332 42.5882 60.3332 42.5882C60.1283 41.2761 63.101 39.7896 64.2321 38.1802C65.6451 36.5169 66.7967 32.5395 67.1314 31.8034C67.9751 29.9565 71.0194 30.0992 71.3678 29.0471ZM69.605 19.5599C70.685 20.0099 71.6653 20.6007 72.3086 21.1154C72.6896 21.4203 75.8873 23.1455 75.9282 23.4943C75.9216 24.0965 72.0054 25.2257 71.5379 25.522C70.8247 23.1895 70.1568 21.1674 69.605 19.5599ZM60.6078 46.084C60.3036 46.3406 60.0198 46.6181 59.7567 46.9135C58.4038 46.2423 55.3792 44.2773 54.5145 43.8254C55.993 43.7985 57.6846 43.7606 59.4793 43.7077C60.0663 44.8173 60.4142 45.5697 60.6078 46.084ZM65.9693 45.2937C70.1833 45.2937 73.1636 48.8242 73.1636 52.4878C73.1636 58.7292 67.9299 64.2685 65.9703 66.1234C64.0088 64.2654 58.775 58.7212 58.775 52.4878C58.7748 48.6874 61.9645 45.2937 65.9693 45.2937ZM59.0272 47.8621C58.1365 49.2094 57.6312 50.8141 57.6312 52.4878C57.6312 56.5517 59.6513 60.2892 61.7029 63.0393C57.9576 62.5676 55.6609 60.003 54.8357 57.8033C54.1754 56.0431 50.233 53.8117 50.233 53.8117C50.233 53.8117 49.1458 53.7148 48.0401 53.3825C48.3168 50.1193 48.6481 46.9482 49.0206 43.8925C49.0955 43.8925 50.0111 43.8887 51.4836 43.8717C53.6798 44.1858 56.921 46.8223 59.0272 47.8621ZM71.4531 61.278C73.0171 58.7861 74.307 55.747 74.307 52.488C74.307 48.0829 70.816 44.1501 65.9693 44.1501C64.3174 44.1501 62.8231 44.6081 61.5701 45.3856C61.3732 44.8993 61.0927 44.3326 60.7077 43.6699C65.491 43.5149 70.8079 43.2523 74.7194 42.8116C75.8906 48.686 76.8515 55.1119 77.3852 61.9113C75.6099 61.3517 73.534 61.0903 71.4531 61.278ZM71.8742 26.6328C73.3206 25.8973 77.0508 25.1824 77.072 23.4943C77.072 22.0097 74.121 21.1093 73.0228 20.2221C72.189 19.5552 70.7406 18.686 69.1175 18.1585C68.7152 17.0194 68.4134 16.2045 68.2561 15.781C72.67 15.3859 76.9217 14.8197 80.5914 13.9455C89.8588 23.418 94.3606 30.2351 98.1213 38.0058C91.7669 39.5185 84.0858 40.7278 75.6309 41.5472C74.5254 36.0438 73.1466 30.8867 71.8742 26.6328ZM68.266 19.0977C69.0428 21.3135 69.8198 23.7505 70.5602 26.2492C69.8331 27.0409 70.2573 28.518 70.2689 28.6125C70.0618 28.9133 67.1321 29.0993 66.0903 31.3303C65.7325 32.1177 64.3375 36.2189 63.3395 37.4663C62.3722 38.9608 59.0135 40.4903 59.1889 42.6239C55.5688 42.8201 49.809 42.7484 49.1718 42.6794C50.466 32.4519 53.7207 16.6394 53.768 16.6377C53.1436 19.9518 54.575 20.9101 57.3171 22.0071C58.5675 22.5072 59.5195 22.8612 60.3837 22.8612C62.4601 22.8612 62.9084 20.8656 62.83 18.8455C62.8139 18.4334 62.7725 17.6792 62.8938 17.6185C63.5872 17.3786 67.4034 19.0509 68.266 19.0977ZM66.0001 17.2165C62.8881 16.098 61.5701 15.8846 61.6873 18.8902C61.7462 20.4079 61.649 21.7178 60.3837 21.7178C59.6731 21.7178 58.6914 21.3251 57.7416 20.9448C55.6118 20.2803 54.0298 19.0797 55.0193 16.5827C58.8894 16.4106 63.0998 16.2107 67.0742 15.8831C67.3155 16.4938 67.5584 17.1366 67.8023 17.8031C67.2008 17.6443 66.5918 17.4292 66.0001 17.2165ZM54.3559 15.4667C54.2019 15.4741 54.1832 15.4809 54.0293 15.4875C54.6048 13.0132 55.1528 10.8248 55.6439 8.95471C55.7016 8.98165 58.6441 11.327 58.5921 12.1536C58.5893 13.2684 56.2454 12.817 54.3559 15.4667ZM52.8453 15.5376C50.3774 15.6359 48.0037 15.5724 45.7631 15.401C44.3401 14.1844 42.4786 13.4305 40.357 13.4305C39.8773 13.4305 39.4117 13.4707 38.9606 13.5442C40.2944 12.1567 41.6077 10.908 42.8697 9.79296C47.8624 11.8145 52.7756 9.66464 52.7756 9.66464C52.7756 9.66464 53.5016 9.05798 54.4918 8.84411C53.9896 10.7629 53.4305 13.0061 52.8453 15.5376ZM36.8648 14.1078C35.6754 13.8531 34.5786 13.5841 33.5827 13.3178C33.3164 12.955 33.033 12.6466 32.7359 12.4148C33.8509 11.8845 36.5342 10.6612 36.5342 10.6612C37.0744 10.0439 39.6918 6.82681 41.7211 9.28675C40.154 10.6929 38.5175 12.294 36.8648 14.1078ZM35.5019 14.9714C35.2448 15.1562 34.9997 15.3547 34.7669 15.5662C34.6526 15.2718 34.5327 14.9823 34.4009 14.7074C34.7565 14.7956 35.1259 14.8837 35.5019 14.9714ZM40.357 14.5739C44.5708 14.5739 47.5511 18.1042 47.5511 21.7682C47.5511 28.0098 42.3174 33.5487 40.3575 35.4041C38.3965 33.5458 33.1625 28.0016 33.1625 21.7682C33.1625 17.9676 36.3522 14.5739 40.357 14.5739ZM40.357 36.9442C40.357 36.9442 48.6947 30.0569 48.6947 21.7682C48.6947 19.8681 48.0439 18.0564 46.9159 16.6101C50.0337 16.7854 52.208 16.7023 52.5818 16.689C51.0128 23.6215 49.2962 32.5353 48.012 42.7437C43.1821 42.7064 38.8136 42.4407 34.8849 42.0317C34.1442 40.5473 27.7983 35.5731 30.3646 31.0649C30.5627 30.7515 31.8459 29.187 33.106 27.095C35.3639 32.7976 40.357 36.9442 40.357 36.9442ZM29.3983 30.4542C26.3118 35.4875 33.1386 41.5262 33.3927 41.8674C29.4049 41.4019 25.8968 40.7909 22.8671 40.1224C25.393 32.9446 28.306 27.3278 32.0277 22.0456C32.0551 23.2575 32.255 24.4396 32.5826 25.5726C31.2182 27.9931 29.6303 30.0765 29.3983 30.4542ZM34.2248 43.1285C35.3181 44.9817 36.4489 47.7241 36.5756 50.7633C36.6961 53.6564 41.564 57.0775 46.5401 58.0947C46.1925 63.3931 46.0001 68.9022 46.0261 74.5551C34.0977 74.3297 24.6916 73.1239 17.7041 71.7584C17.7589 59.7369 19.6632 49.6329 22.48 41.2463C25.8127 41.9818 29.7199 42.6482 34.2248 43.1285ZM46.0336 75.6992C46.1379 87.2916 46.8528 95.9653 47.8252 102.442C39.4545 102.489 30.4799 101.722 24.4578 101.075C18.9573 91.2302 17.7674 80.2067 17.7043 72.9198C24.7419 74.2827 34.1525 75.4761 46.0336 75.6992ZM47.177 75.7186C51.3005 75.8873 56.5351 75.8909 61.6637 75.8013C61.4656 77.3105 61.4801 78.6831 61.8976 79.3098C62.2722 79.8723 63.8424 83.5009 64.7877 85.6935C63.3078 87.2273 62.4341 89.3127 62.4341 91.5164C62.4341 95.6323 64.5058 99.4154 66.5838 102.175C58.7495 102.377 49.9661 102.423 48.9662 102.432C48.0023 96.0329 47.2831 87.3809 47.177 75.7186ZM75.8493 102.94C77.3143 102.845 78.7953 102.733 80.2863 102.604C79.8758 103.021 75.7703 105.301 75.0788 105.752C75.352 104.86 75.6106 103.922 75.8493 102.94ZM76.1381 101.774C76.2926 101.126 76.4434 100.452 76.5902 99.7569C77.9992 97.3733 79.1094 94.5393 79.1094 91.5162C79.1094 90.2773 78.8332 89.0763 78.3288 87.9892C78.6897 84.1567 78.922 79.8765 78.9754 75.0944C81.4559 74.9609 83.9733 74.7125 86.4455 74.3968C88.9109 78.6984 92.4201 81.6133 92.4201 81.6133C92.4201 81.6133 95.6819 78.9187 98.1253 74.8725C99.7227 75.7963 100.274 77.2188 98.9889 79.9604C97.9696 82.1351 97.4289 83.9726 96.9517 85.594C96.0232 88.7488 95.4097 90.833 91.9784 92.6116C85.1545 96.2598 88.3276 98.6611 83.3288 101.165C80.9079 101.417 78.503 101.616 76.1381 101.774ZM85.8436 73.2702C83.5857 73.5422 81.2985 73.7675 78.9827 73.949C78.9976 70.4452 78.8809 67.0075 78.6583 63.6543C79.1806 63.844 80.2381 64.959 83.0036 65.8852C83.3976 66.0346 83.7563 66.1731 84.086 66.3035C84.0851 66.3479 84.0825 66.3928 84.0825 66.4373C84.0825 68.8816 84.8153 71.2057 85.8436 73.2702ZM85.2258 66.4375C85.2258 62.6369 88.4158 59.2432 92.4204 59.2432C96.6341 59.2432 99.6144 62.7739 99.6144 66.4375C99.6144 72.6789 94.3807 78.2185 92.4208 80.0732C90.4596 78.2152 85.2258 72.6709 85.2258 66.4375ZM92.505 93.6271C96.3694 91.6235 97.0737 89.2302 98.049 85.9166C98.5148 84.3351 99.0423 82.5418 100.025 80.4463C101.209 77.919 101.414 75.4858 98.6909 73.8766C99.0066 73.2889 99.2994 72.6782 99.561 72.0468C101.93 71.4971 103.974 70.9483 105.53 70.4674C105.46 82.98 102.227 92.2195 98.234 98.8636C94.147 99.739 89.9822 100.395 85.8462 100.887C88.3851 98.9898 87.4133 96.1605 92.505 93.6271ZM100.041 70.7462C100.485 69.3767 100.758 67.9302 100.758 66.4375C100.758 62.0324 97.2665 58.0998 92.4204 58.0998C88.0655 58.0998 84.8061 61.2756 84.1895 65.116C83.9416 65.0195 83.6852 64.9212 83.4094 64.8161C81.3101 64.1728 79.4091 62.6435 78.5633 62.3471C78.0384 55.3504 77.0623 48.7389 75.8637 42.7045C84.4566 41.8788 92.2157 40.6484 98.6363 39.0934C102.573 47.5596 105.399 57.6409 105.529 69.2276C103.733 69.7896 101.901 70.2915 100.041 70.7462ZM88.3255 9.65637C86.5084 10.9491 83.9601 11.9355 80.9455 12.6958C76.4633 8.36956 72.3301 5.20442 69.5173 3.23131C76.2366 4.2851 82.5761 6.49761 88.3255 9.65637ZM66.9884 2.89407C69.4545 4.51103 74.2491 7.9021 79.6201 13.0094C76.0991 13.7919 72.0458 14.3073 67.8408 14.6731C65.6484 8.88405 63.6975 4.68591 62.6633 2.57361C64.1191 2.62702 65.5617 2.73432 66.9884 2.89407ZM61.3718 2.54005C62.2758 4.35222 64.3172 8.63212 66.6554 14.7719C63.1296 15.0541 59.3878 15.2399 55.9233 15.397C56.9974 14.0707 59.5415 14.0459 59.7329 12.226C59.9 10.2841 56.6091 8.08077 55.9405 7.83877C56.584 5.44098 57.1073 3.6671 57.4294 2.61072C58.4465 2.5566 61.0816 2.53556 61.3718 2.54005ZM56.2116 2.688C55.8772 3.79921 55.3892 5.47974 54.805 7.66081C53.5817 7.70855 52.4975 8.44377 52.2037 8.66048C51.8081 8.80842 47.9122 10.3609 43.8878 8.9117C47.19 6.11357 50.0649 4.24847 51.9215 3.16467C53.3355 2.9541 54.7657 2.79387 56.2116 2.688ZM48.9235 3.69097C47.147 4.86765 44.9839 6.44892 42.6308 8.48418C39.3163 5.59909 37.4365 8.33057 35.7888 9.70694C35.4478 9.86764 30.4655 12.2409 30.3528 12.3611C29.8218 12.187 29.3553 12.0256 28.9594 11.8835C34.9456 7.98647 41.6914 5.16282 48.9235 3.69097ZM27.7853 12.6681C28.7578 13.0385 30.5265 13.6645 32.9035 14.3158C33.271 14.8995 33.6205 15.6513 33.9039 16.4773C33.1412 17.4157 32.5837 18.5158 32.2808 19.6996C24.9986 29.6164 21.8882 39.356 21.7119 39.8603C14.0374 38.0635 9.64786 35.967 8.31426 35.2694C12.7404 26.1502 19.4895 18.3603 27.7853 12.6681ZM7.82388 36.3099C9.28391 37.087 13.6702 39.1891 21.3324 40.9845C18.2374 50.2613 16.6358 60.5165 16.5654 71.5294C9.13243 70.0023 4.65094 68.3381 2.9697 67.6466C1.27145 55.0115 4.42737 43.6765 7.82388 36.3099ZM3.14624 68.9473C5.25121 69.7669 9.68543 71.2936 16.5593 72.6931C16.5987 79.9389 17.7263 90.9447 23.0687 100.923C21.0237 100.692 19.4243 100.49 18.4468 100.361C10.4209 91.8971 4.91681 81.0208 3.14624 68.9473ZM19.7393 101.679C20.8016 101.812 22.1617 101.975 23.7488 102.148C25.0791 104.457 26.6517 106.697 28.496 108.811C25.3486 106.719 22.4157 104.328 19.7393 101.679ZM32.4278 111.205C29.4628 108.497 27.0785 105.473 25.1673 102.3C32.4486 103.264 47.696 103.585 48.0023 103.583C49.1941 110.974 50.7184 115.32 51.9811 117.844C44.9799 116.808 38.3839 114.516 32.4278 111.205ZM53.3461 118.03C52.121 115.845 50.4433 111.597 49.1447 103.574C50.1519 103.565 59.5268 103.517 67.474 103.298C67.5291 103.365 67.5839 103.43 67.6388 103.494C66.6972 105.97 65.664 108.25 64.7355 109.535C62.0739 113.221 64.4472 115.61 65.4541 116.033C65.4541 116.033 70.0871 111.959 72.5778 109.569C70.7989 113.808 68.6654 116.7 67.4892 118.049C65.1975 118.325 59.955 118.772 53.3461 118.03ZM69.207 117.817C70.3769 116.289 72.6069 112.895 74.4455 107.679C75.694 106.592 82.9065 102.45 83.6379 102.285C88.2062 101.806 92.8375 101.141 97.3885 100.211C92.984 107.141 87.2864 111.432 83.1972 113.841C78.7859 115.725 74.0955 117.077 69.207 117.817ZM89.9169 110.434C92.4835 108.217 96.1071 104.611 98.9787 99.8746C100.722 99.4927 102.448 99.0673 104.154 98.6006C100.081 103.262 95.274 107.266 89.9169 110.434ZM105.475 97.033C103.606 97.5813 101.709 98.0785 99.787 98.5191C100.688 96.9432 106.85 86.1336 106.678 70.1039C110.832 68.7535 114.667 67.1304 118.278 65.2176C117.307 77.2207 112.664 88.2005 105.475 97.033ZM106.663 68.8641C106.506 58.8223 104.719 49.8671 99.7981 38.8053C103.404 37.8858 106.553 36.8603 109.152 35.7439C109.346 38.0432 109.35 39.917 109.042 40.7966C106.778 46.3409 110.641 46.6037 110.475 50.4686C110.404 53.1214 111.955 54.4091 112.273 55.4069C113.297 57.3268 114.355 59.3122 115.817 59.3127H115.817C116.633 59.3127 117.927 58.2251 118.407 57.7782C118.552 60.322 118.435 62.751 118.371 63.8651C114.667 65.8684 110.757 67.5185 106.663 68.8641Z" fill="#FF5E14"/>
</svg>
