<svg width="43" height="46" viewBox="0 0 43 46" fill="none" xmlns="http://www.w3.org/2000/svg">
<g clip-path="url(#clip0_1_6728)">
<path d="M23.4552 19.1166C23.3944 18.9957 23.3663 18.8597 23.3739 18.7234C23.3815 18.587 23.4244 18.4554 23.4982 18.3427L27.1503 12.7617H21.1418L15.0078 21.7693H19.6661C19.7776 21.7693 19.8875 21.7965 19.9871 21.8488C20.0868 21.9011 20.1734 21.977 20.2401 22.0705C20.3068 22.164 20.3518 22.2725 20.3715 22.3874C20.3911 22.5023 20.385 22.6204 20.3534 22.7324L18.0809 30.8137L27.7752 19.5174H24.0887C23.9583 19.5173 23.8303 19.4799 23.7187 19.4093C23.6071 19.3386 23.5159 19.2374 23.4552 19.1166Z" fill="#FF5E14"/>
<path d="M42.6106 17.3551C42.7566 17.2768 42.8725 17.1485 42.9391 16.9916C43.0057 16.8346 43.0189 16.6585 42.9764 16.4926C42.934 16.3266 42.8385 16.181 42.706 16.0799C42.5734 15.9788 42.4117 15.9284 42.2479 15.9371C40.5795 16.0122 38.7248 14.7504 37.6304 12.7649C36.5361 10.7795 36.4121 8.46006 37.3165 6.99108C37.4051 6.84691 37.4438 6.67535 37.4264 6.50493C37.4089 6.3345 37.3363 6.17546 37.2205 6.05426C37.1048 5.93305 36.953 5.85698 36.7903 5.83869C36.6275 5.82039 36.4638 5.86098 36.3261 5.9537C34.9236 6.90325 32.7077 6.77189 30.8128 5.62493C28.9179 4.47796 27.701 2.53533 27.7849 0.788605C27.7932 0.617064 27.745 0.447732 27.6485 0.308867C27.552 0.170002 27.413 0.0700048 27.2546 0.0255626C27.0962 -0.0188795 26.928 -0.00507791 26.7781 0.0646642C26.6283 0.134406 26.5058 0.25587 26.4311 0.408785C25.6707 1.9656 23.6891 3.01123 21.5004 3.01123C19.3117 3.01123 17.3301 1.9656 16.5698 0.408785C16.4951 0.25587 16.3726 0.134406 16.2227 0.0646642C16.0729 -0.00507791 15.9047 -0.0188795 15.7463 0.0255626C15.5879 0.0700048 15.4488 0.170002 15.3523 0.308867C15.2558 0.447732 15.2077 0.617064 15.216 0.788605C15.2998 2.53533 14.0829 4.47871 12.1881 5.62493C10.2932 6.77114 8.07797 6.901 6.67474 5.9537C6.5371 5.86098 6.3733 5.82039 6.21058 5.83869C6.04787 5.85698 5.89603 5.93305 5.78031 6.05426C5.66459 6.17546 5.59196 6.3345 5.57449 6.50493C5.55703 6.67535 5.59578 6.84691 5.68431 6.99108C6.59376 8.46006 6.46476 10.7803 5.37041 12.7649C4.27605 14.7496 2.43207 16.0242 0.752921 15.9371C0.589143 15.9284 0.427473 15.9788 0.294891 16.0799C0.16231 16.181 0.0668371 16.3266 0.0244059 16.4926C-0.0180252 16.6585 -0.00484814 16.8346 0.0617382 16.9916C0.128324 17.1485 0.244292 17.2768 0.390288 17.3551C1.87665 18.1515 2.87497 20.227 2.87497 22.5194C2.87497 24.8118 1.87665 26.8873 0.390288 27.6838C0.244292 27.762 0.128324 27.8903 0.0617382 28.0472C-0.00484814 28.2042 -0.0180252 28.3803 0.0244059 28.5462C0.0668371 28.7122 0.16231 28.8578 0.294891 28.9589C0.427473 29.06 0.589143 29.1104 0.752921 29.1017C2.42275 29.0191 4.27605 30.2877 5.37041 32.2739C6.46476 34.26 6.58874 36.5787 5.68431 38.0477C5.59578 38.1919 5.55703 38.3634 5.57449 38.5339C5.59196 38.7043 5.66459 38.8633 5.78031 38.9846C5.89603 39.1058 6.04787 39.1818 6.21058 39.2001C6.3733 39.2184 6.5371 39.1778 6.67474 39.0851L12.1881 39.4139C14.0829 40.5601 15.2998 42.5035 15.216 44.2502C15.2077 44.4217 15.2558 44.5911 15.3523 44.7299C15.4488 44.8688 15.5879 44.9688 15.7463 45.0132C15.9047 45.0577 16.0729 45.0439 16.2227 44.9741C16.3726 44.9044 16.4951 44.7829 16.5698 44.63C17.3301 43.0732 19.3117 42.0276 21.5004 42.0276C23.6891 42.0276 25.6707 43.0732 26.4311 44.63C26.5058 44.7829 26.6283 44.9044 26.7781 44.9741C26.928 45.0439 27.0962 45.0577 27.2546 45.0132C27.413 44.9688 27.552 44.8688 27.6485 44.7299C27.745 44.5911 27.7932 44.4217 27.7849 44.2502C27.701 42.5035 28.9179 40.5601 30.8128 39.4139C32.7077 38.2677 34.9229 38.1378 36.3261 39.0851C36.4638 39.1778 36.6275 39.2184 36.7903 39.2001C36.953 39.1818 37.1048 39.1058 37.2205 38.9846C37.3363 38.8633 37.4089 38.7043 37.4264 38.5339C37.4438 38.3634 37.4051 38.1919 37.3165 38.0477C36.4071 36.5787 36.5361 34.2585 37.6304 32.2776C38.7248 30.2967 40.5774 29.0341 42.2479 29.1054C42.412 29.1158 42.5744 29.066 42.7072 28.9646C42.84 28.8633 42.9351 28.7167 42.9761 28.55C43.0185 28.3841 43.0054 28.208 42.9389 28.0511C42.8724 27.8941 42.7565 27.7658 42.6106 27.6875C41.1242 26.8911 40.1259 24.8156 40.1259 22.5232C40.1259 20.2307 41.1242 18.1515 42.6106 17.3551ZM21.5004 39.0333C18.3821 39.0333 15.3337 38.0648 12.7409 36.2502C10.1481 34.4356 8.12726 31.8565 6.93392 28.839C5.74058 25.8215 5.42835 22.5011 6.03671 19.2977C6.64507 16.0943 8.1467 13.1518 10.3517 10.8423C12.5567 8.5328 15.3661 6.96 18.4245 6.32281C21.4829 5.68561 24.6531 6.01265 27.5341 7.26254C30.415 8.51244 32.8775 10.6291 34.6099 13.3448C36.3424 16.0605 37.2671 19.2533 37.2671 22.5194C37.2624 26.8976 35.5997 31.0951 32.6439 34.191C29.6881 37.2869 25.6805 39.0283 21.5004 39.0333Z" fill="#FF5E14"/>
</g>
<defs>
<clipPath id="clip0_1_6728">
<rect width="43" height="45.0379" fill="white"/>
</clipPath>
</defs>
</svg>
