<svg width="43" height="48" viewBox="0 0 43 48" fill="none" xmlns="http://www.w3.org/2000/svg">
<g clip-path="url(#clip0_1_6761)">
<path d="M11.4532 1.99219L11.2695 6.49366L14.8657 4.50406L11.4532 1.99219Z" fill="#FF5E14"/>
<path d="M31.235 44.7147L31.3772 40.207L27.7988 42.2402L31.235 44.7147Z" fill="#FF5E14"/>
<path d="M11.623 40.207L11.7652 44.7147L15.2014 42.2402L11.623 40.207Z" fill="#FF5E14"/>
<path d="M21.2799 -0.71875L19.2656 3.21071H23.2942L21.2799 -0.71875Z" fill="#FF5E14"/>
<path d="M0.113281 18.465L3.18807 21.4618L4.04711 17.1406L0.113281 18.465Z" fill="#FF5E14"/>
<path d="M8.27699 9.33539L4.21875 8.63281L5.77688 12.8048L8.27699 9.33539Z" fill="#FF5E14"/>
<path d="M3.34197 25.9492L0.302734 28.9896L4.24841 30.258L3.34197 25.9492Z" fill="#FF5E14"/>
<path d="M8.66762 37.7249L6.16158 34.2617L4.60938 38.4337L8.66762 37.7249Z" fill="#FF5E14"/>
<path d="M23.8997 43.3164L19.8711 43.3288L21.8913 47.2521L23.8997 43.3164Z" fill="#FF5E14"/>
<path d="M39.8122 21.4618L42.887 18.465L38.9531 17.1406L39.8122 21.4618Z" fill="#FF5E14"/>
<path d="M34.7227 9.33539L37.2168 12.8048L38.7809 8.63281L34.7227 9.33539Z" fill="#FF5E14"/>
<path d="M42.6976 28.9896L39.6584 25.9492L38.752 30.258L42.6976 28.9896Z" fill="#FF5E14"/>
<path d="M28.1348 4.50406L31.7309 6.49366L31.5472 1.99219L28.1348 4.50406Z" fill="#FF5E14"/>
<path d="M34.332 37.7288L38.3903 38.4376L36.8381 34.2656L34.332 37.7288Z" fill="#FF5E14"/>
<path d="M22.5665 19.9525C22.538 19.9119 22.5193 19.8647 22.5121 19.8148C22.5049 19.765 22.5093 19.7141 22.525 19.6665L24.7585 12.5039H18.2831L13.3125 25.0944H21.0735C21.1208 25.0951 21.1674 25.1072 21.2095 25.1299C21.2516 25.1525 21.2882 25.185 21.3164 25.2249C21.3455 25.2652 21.3649 25.3122 21.3731 25.3619C21.3814 25.4116 21.3782 25.4627 21.3638 25.5109L17.9454 36.92L29.7943 20.0893H22.8153C22.7664 20.0893 22.7182 20.0769 22.6748 20.0531C22.6315 20.0292 22.5943 19.9947 22.5665 19.9525Z" fill="#FF5E14"/>
</g>
<defs>
<clipPath id="clip0_1_6761">
<rect width="43" height="47.1327" fill="white"/>
</clipPath>
</defs>
</svg>
