<svg width="43" height="46" viewBox="0 0 43 46" fill="none" xmlns="http://www.w3.org/2000/svg">
<g clip-path="url(#clip0_1_6741)">
<path d="M41.92 15.2384H34.5903L35.6842 3.21484L25.8535 20.091H33.1193L31.8389 31.9053L41.92 15.2384Z" fill="#FF5E14"/>
<path d="M21.364 22.7281L23.7019 18.7147L27.3973 12.3708C27.3928 12.3674 27.3884 12.3637 27.3839 12.3603L30.7249 6.29924L28.543 4.97977L25.2029 11.0392C24.0658 10.5098 22.8482 10.1669 21.5892 10.029V0H19.0697V10.0287C17.7965 10.1685 16.5822 10.5181 15.4585 11.0434L12.1161 4.97968L9.93421 6.29915L13.2788 12.3667C12.267 13.1397 11.3748 14.0742 10.6367 15.134L2.33993 10.1168L1.08016 12.4021L9.37328 17.4171C8.87173 18.5941 8.53797 19.8659 8.40444 21.1995H1.72071V23.8384H8.40444C8.53797 25.172 8.87173 26.4439 9.37328 27.6208L1.08008 32.6358L2.33984 34.9211L10.6367 29.9039C11.3747 30.9637 12.2669 31.8982 13.2787 32.6712L9.93413 38.7388L12.116 40.0582L15.4585 33.9946C16.5822 34.5199 17.7966 34.8695 19.0698 35.0093V45.0379H21.5893V35.0092C22.8625 34.8694 24.0768 34.5198 25.2006 33.9945L28.4392 39.8696L28.9171 35.4589L27.3805 32.6711C28.137 32.0932 28.8265 31.4248 29.4349 30.6814L30.2968 22.7281H25.8528H21.364Z" fill="#FF5E14"/>
<path d="M35.7713 30.332L34.4219 32.5632L38.3198 34.9203L39.5796 32.6349L35.7713 30.332Z" fill="#FF5E14"/>
</g>
<defs>
<clipPath id="clip0_1_6741">
<rect width="43" height="45.0379" fill="white"/>
</clipPath>
</defs>
</svg>
