<svg width="86" height="65" viewBox="0 0 86 65" fill="none" xmlns="http://www.w3.org/2000/svg">
<path d="M0.125051 3.56039C5.03545 19.2199 15.9646 32.2879 30.5089 39.8904C45.0533 47.4928 62.0217 49.007 77.6823 44.1001L69.1224 60.4366C68.8278 61.076 68.7904 61.8043 69.018 62.4705C69.2455 63.1368 69.7206 63.69 70.3448 64.0157C70.969 64.3413 71.6945 64.4145 72.3712 64.22C73.0478 64.0254 73.6237 63.5782 73.9797 62.9707L85.609 40.7765C85.7764 40.4573 85.8794 40.1083 85.9118 39.7493C85.9443 39.3903 85.9057 39.0285 85.7982 38.6845C85.6908 38.3404 85.5166 38.021 85.2855 37.7443C85.0545 37.4676 84.7713 37.2392 84.4519 37.0721L62.2576 25.4428C61.9384 25.2756 61.5894 25.1728 61.2305 25.1405C60.8716 25.1081 60.5098 25.1467 60.1658 25.2542C59.8218 25.3616 59.5024 25.5358 59.2257 25.7667C58.949 25.9976 58.7205 26.2807 58.5533 26.5999C58.386 26.9191 58.2833 27.2681 58.2509 27.6271C58.2185 27.986 58.2572 28.3478 58.3646 28.6917C58.4721 29.0357 58.6462 29.3552 58.8771 29.6318C59.108 29.9085 59.3911 30.137 59.7104 30.3043L76.0468 38.8642C61.7748 43.3374 46.3105 41.9588 33.0548 35.0316C19.7991 28.1044 9.83754 16.1959 5.36089 1.92495C5.14402 1.23063 4.66021 0.650901 4.0159 0.313296C3.37159 -0.0243015 2.61956 -0.0921242 1.92525 0.12475C1.23093 0.341623 0.651206 0.825428 0.313602 1.46973C-0.0239997 2.11404 -0.0918236 2.86608 0.125051 3.56039Z" fill="#FF5E14"/>
</svg>
