<svg width="46" height="46" viewBox="0 0 46 46" fill="none" xmlns="http://www.w3.org/2000/svg">
<g clip-path="url(#clip0_2313_40)">
<g clip-path="url(#clip1_2313_40)">
<path d="M45.2583 26.4841L37.7428 20.1588C37.6984 20.1253 37.6652 20.1147 37.6214 20.0927L36.8278 19.2437C37.0043 18.9901 37.1255 18.7039 37.1696 18.3842C37.2357 17.8554 37.0923 17.3371 36.7727 16.9074L35.7811 15.6181C35.5936 15.3759 35.3623 15.1884 35.0979 15.0561C35.5276 14.7259 35.7921 14.2626 35.8582 13.7338C35.9353 13.2049 35.792 12.6758 35.4615 12.2574C35.4615 12.2574 35.1308 11.8272 34.4807 10.9787C34.2823 10.7365 34.051 10.5379 33.7864 10.4057C34.657 9.73339 34.8221 8.47706 34.1503 7.60646L33.1691 6.32828C32.9819 6.07501 32.7392 5.88747 32.475 5.75537C33.3456 5.08296 33.5109 3.82672 32.8388 2.95575C32.8388 2.95575 32.519 2.53743 31.8578 1.67785C31.1858 0.806971 29.9294 0.641828 29.0695 1.31415L26.1491 3.54013L24.1104 1.98619C23.2398 1.31415 21.9837 1.47938 21.3116 2.34989C20.6613 3.20948 20.3306 3.63918 20.3306 3.63918C20.1433 3.88189 20.0219 4.16848 19.9667 4.46609L15.8563 1.31415C14.9858 0.641828 13.7295 0.806971 13.0576 1.67785C12.4183 2.52605 12.0875 2.9452 12.0765 2.95575C11.757 3.3749 11.6137 3.90383 11.6798 4.43267C11.757 4.96188 12.0215 5.43574 12.4402 5.75537C12.1756 5.88747 11.9444 6.07501 11.7458 6.32828L10.7653 7.60646C10.1039 8.47706 10.2585 9.72238 11.1288 10.4057C10.8752 10.5379 10.633 10.7251 10.4565 10.9787C9.7847 11.8272 9.45386 12.2574 9.45386 12.2574C9.13423 12.6758 8.99111 13.205 9.05712 13.7338C9.13423 14.2626 9.39888 14.7365 9.82858 15.0561C9.56402 15.1883 9.33242 15.3759 9.13423 15.6181L8.14254 16.9074C7.62435 17.6021 7.61324 18.5058 8.06507 19.1997L7.16151 20.2468L-0.254942 26.4841C-0.497286 26.6828 -0.519776 27.035 -0.321127 27.2776L10.9192 40.6449C11.0298 40.7771 11.184 40.8434 11.3491 40.8434C11.4705 40.8434 11.6027 40.799 11.7128 40.711L14.0602 38.7384C14.424 42.6065 19.1183 45.516 22.4025 46.0893C22.4354 46.0999 22.4686 46.0999 22.5016 46.0999C22.5349 46.0999 22.568 46.0999 22.601 46.0893C25.8851 45.5159 30.5685 42.5956 30.9322 38.7384L33.2906 40.711C33.4006 40.7989 33.5218 40.8434 33.6543 40.8434C33.8084 40.8434 33.9735 40.7771 34.0841 40.6449L45.3245 27.2776C45.5228 27.035 45.4897 26.6827 45.2583 26.4841ZM30.2157 28.2253C29.6538 28.2473 27.3285 28.2583 24.254 28.2583L35.9903 19.9931L36.5967 20.6431L30.2157 28.2253ZM29.7529 2.19567C30.1386 1.90899 30.6676 1.97545 30.9652 2.36082C31.6264 3.22077 31.9459 3.63909 31.9459 3.63909C32.2435 4.02482 32.1664 4.57615 31.7916 4.87376L30.3703 5.95347V5.96449C30.1167 6.15166 30.0726 6.50471 30.2597 6.74696C30.4585 6.98912 30.8111 7.04466 31.0533 6.84601C31.439 6.55942 31.9903 6.62552 32.2768 7.01125L33.2577 8.28998C33.5549 8.67571 33.4778 9.22658 33.1031 9.51326L31.6817 10.5929C31.439 10.7804 31.3841 11.1327 31.5711 11.3865C31.7587 11.6291 32.1115 11.6841 32.3537 11.4965C32.7393 11.1989 33.2907 11.2763 33.5879 11.6621C34.2384 12.5106 34.5689 12.9404 34.5689 12.9404C34.712 13.1277 34.7781 13.3593 34.7451 13.5908C34.712 13.822 34.591 14.0312 34.4144 14.1637L32.9929 15.2438C32.7504 15.4309 32.6954 15.7836 32.883 16.0373C33.0702 16.2795 33.4229 16.3346 33.6654 16.1474C34.0511 15.8607 34.6129 15.9268 34.8886 16.3015L35.8803 17.5908C36.0235 17.7784 36.0784 18.01 36.0564 18.2411C36.0235 18.4723 35.9022 18.6709 35.7371 18.7921L22.2923 28.2583C18.4574 28.2583 15.4376 28.2473 14.7875 28.2253L8.35175 20.5771L8.88059 19.9601L10.8423 21.3378C10.8532 21.3485 10.8532 21.3484 10.8643 21.3599C10.9193 21.3925 10.9744 21.426 11.0189 21.4586L11.085 21.5141H11.0959C11.4486 21.7342 11.801 21.8778 12.1206 21.9218C12.1977 21.9328 12.2641 21.9328 12.3302 21.9328C12.804 21.9328 13.2228 21.7237 13.5094 21.3379L14.501 20.0483C14.7437 19.7396 14.8979 19.3653 14.9749 18.9795C15.2835 19.1777 15.6472 19.2878 16.0111 19.2878C16.0989 19.2878 16.187 19.2878 16.2752 19.2658C16.8045 19.1997 17.2784 18.9355 17.598 18.5057L18.5896 17.2164C18.8542 16.8633 18.9862 16.4555 18.9862 16.0478C19.0523 16.0478 19.1182 16.0592 19.1843 16.0592C19.7907 16.0592 20.3856 15.7946 20.7714 15.2877L21.7744 13.9985C22.0937 13.5687 22.2153 13.0615 22.1601 12.5657C22.7111 12.5217 23.2399 12.268 23.6037 11.8052L24.6067 10.516C25.2677 9.63434 25.0916 8.3781 24.221 7.72809L23.3836 7.07743L29.7529 2.19567ZM21.3887 5.54571C21.2011 5.40223 21.0802 5.19303 21.047 4.96179C21.0251 4.73019 21.0801 4.51006 21.2342 4.3115C21.2342 4.3115 21.5539 3.88171 22.2043 3.03323C22.5015 2.64741 23.0417 2.5814 23.4274 2.87901L25.2236 4.25642L22.4573 6.37225L21.4108 5.56774C21.3998 5.56774 21.3998 5.54571 21.3887 5.54571ZM12.9691 3.65056C12.9691 3.65056 13.2997 3.22077 13.9502 2.36082C14.2475 1.97545 14.7876 1.89798 15.1734 2.19567L23.5377 8.62017C23.9233 8.90676 23.9894 9.44708 23.7028 9.83281L22.722 11.1221C22.4245 11.4964 21.8735 11.5624 21.4988 11.2872L21.4109 11.2101C21.3998 11.2101 21.3998 11.2101 21.3998 11.2101C21.3998 11.1987 21.3998 11.1987 21.3887 11.1987L14.5561 5.96439C14.5561 5.95338 14.5451 5.95338 14.5451 5.95338L13.1346 4.87366C12.9471 4.73019 12.8259 4.52061 12.7929 4.28947C12.7709 4.05823 12.8258 3.82663 12.9691 3.65056ZM11.6578 8.28988L12.6385 7.01115C12.9361 6.62542 13.4873 6.55933 13.8618 6.84592H13.8732L20.7164 12.1028C21.0911 12.4 21.1682 12.9292 20.871 13.3149L19.8789 14.6042C19.5923 14.99 19.0523 15.056 18.6667 14.7698L18.2479 14.4387C18.237 14.4387 18.237 14.4281 18.2259 14.4281C18.2259 14.4167 18.2148 14.4167 18.2148 14.4167L13.2448 10.6042C13.2448 10.5927 13.2448 10.5927 13.2448 10.5927L11.823 9.52364C11.4376 9.22649 11.3601 8.67562 11.6578 8.28988ZM10.3464 12.9402C10.3464 12.9402 10.6771 12.5104 11.338 11.662C11.6358 11.2761 12.1756 11.1987 12.5613 11.4963L17.5535 15.3316C17.9172 15.6293 17.9834 16.1582 17.6969 16.5329L16.7048 17.8222C16.5616 18.0097 16.3635 18.1304 16.132 18.1524C15.9004 18.1859 15.6802 18.1304 15.4926 17.9874L11.9334 15.2542V15.2436L10.5115 14.1745C10.3245 14.031 10.2034 13.8218 10.17 13.5906C10.1478 13.3591 10.2034 13.1275 10.3464 12.9402ZM9.03499 17.5907L10.0268 16.3123C10.3245 15.9267 10.8752 15.8606 11.25 16.1472L13.6084 17.9544C13.6193 17.9765 13.6414 17.9875 13.6636 18.0099C13.7847 18.0979 13.8507 18.23 13.8731 18.4173C13.9171 18.7259 13.8177 19.1007 13.6084 19.3653L12.6163 20.6546C12.5173 20.7867 12.4183 20.8307 12.264 20.8088C12.1094 20.7867 11.9333 20.7207 11.7458 20.5991C11.7348 20.5991 11.7348 20.5885 11.7348 20.5885L9.18921 18.8029C8.81459 18.5162 8.7485 17.9765 9.03499 17.5907ZM11.4152 39.4877L0.902158 26.9799L7.55835 21.382L14.0384 29.0849V37.2837L11.4152 39.4877ZM29.8409 38.2538C29.8409 41.5265 25.5322 44.3921 22.5016 44.9649C19.4712 44.3921 15.1624 41.5379 15.1624 38.2538V29.3603C16.0111 29.3714 17.9392 29.3823 22.4245 29.3934H22.4685H22.5015C27.0418 29.3934 28.9814 29.3714 29.8408 29.3603V38.2538H29.8409ZM33.5878 39.4877L30.9652 37.2837V29.0849L37.4452 21.382L44.1013 26.9799L33.5878 39.4877ZM26.6121 31.7738C26.8105 31.5312 27.1634 31.4982 27.4056 31.6858C27.6482 31.884 27.6811 32.2367 27.494 32.4793L21.3006 40.2042C21.1903 40.3252 21.047 40.4027 20.8929 40.4132C20.8816 40.4132 20.871 40.4132 20.8596 40.4132C20.7053 40.4132 20.5623 40.3587 20.4632 40.2486L17.5537 37.3388C17.3334 37.1186 17.3334 36.7658 17.5537 36.5452C17.7741 36.3251 18.1268 36.3251 18.3471 36.5452L20.8157 39.0137L26.6121 31.7738Z" fill="#FF5E14"/>
</g>
</g>
<defs>
<clipPath id="clip0_2313_40">
<rect width="46" height="46" fill="white"/>
</clipPath>
<clipPath id="clip1_2313_40">
<rect width="47" height="47" fill="white" transform="translate(-1)"/>
</clipPath>
</defs>
</svg>
