<svg width="53" height="53" viewBox="0 0 53 53" fill="none" xmlns="http://www.w3.org/2000/svg">
<path d="M36.4375 18.5417C36.1659 18.8322 35.7939 19.0085 35.3971 19.0346C35.0002 19.0608 34.6083 18.9349 34.3009 18.6825C34.1487 18.5485 34.026 18.3844 33.9404 18.2005C33.8549 18.0166 33.8085 17.817 33.8041 17.6142C33.798 17.4104 33.8338 17.2074 33.9093 17.018C33.9848 16.8286 34.0984 16.6566 34.243 16.5128L35.8578 14.8566C35.9572 14.756 36.0291 14.6316 36.0668 14.4954C36.1045 14.3591 36.1067 14.2155 36.0731 14.0781C36.0342 13.9445 35.9621 13.8229 35.8637 13.7244C35.7653 13.626 35.6436 13.554 35.51 13.515C34.6056 13.2569 33.65 13.2362 32.7353 13.4548C31.8206 13.6735 30.9777 14.1241 30.2878 14.7632C29.5979 15.4024 29.0843 16.2085 28.7965 17.1038C28.5087 17.9992 28.4565 18.9536 28.6448 19.875L27.0797 21.3988L25.5477 19.875L26.4255 18.9972C26.9297 18.4898 27.2126 17.8036 27.2126 17.0884C27.2126 16.3731 26.9297 15.6869 26.4255 15.1795L25.0756 13.8297C24.5683 13.3255 23.8821 13.0425 23.1668 13.0425C22.4515 13.0425 21.7653 13.3255 21.258 13.8297L20.3802 14.7075L19.3284 13.6641C19.1749 13.5197 18.972 13.4393 18.7612 13.4393C18.5504 13.4393 18.3475 13.5197 18.1939 13.6641L14.9477 16.9103C14.8033 17.0639 14.7229 17.2668 14.7229 17.4776C14.7229 17.6884 14.8033 17.8913 14.9477 18.0448L15.9911 19.0966L14.2438 20.8356C13.9144 20.618 13.5198 20.5214 13.1272 20.5622C12.7346 20.6029 12.3682 20.7786 12.0906 21.0592L10.6331 22.5084C10.31 22.8328 10.1285 23.272 10.1285 23.7299C10.1285 24.1878 10.31 24.627 10.6331 24.9514L15.2955 29.6055C15.455 29.7658 15.6447 29.893 15.8537 29.9797C16.0626 30.0664 16.2866 30.1109 16.5128 30.1106C16.7395 30.1142 16.9645 30.0712 17.1739 29.9844C17.3833 29.8975 17.5726 29.7685 17.7302 29.6055L19.1877 28.1562C19.4669 27.8778 19.6416 27.5117 19.6823 27.1194C19.723 26.7272 19.6273 26.333 19.4113 26.0031L21.1586 24.2558L22.6906 25.7878L15.7344 32.7523C15.4467 33.0405 15.2187 33.3826 15.0632 33.7589C14.9077 34.1352 14.8279 34.5385 14.8283 34.9457C14.8291 35.768 15.1565 36.5563 15.7385 37.1373C16.3205 37.7182 17.1095 38.0441 17.9318 38.0433C18.7542 38.0426 19.5425 37.7152 20.1234 37.1331L27.088 30.1769L34.3755 37.4561C34.9574 38.0351 35.7449 38.3602 36.5659 38.3602C37.3868 38.3602 38.1743 38.0351 38.7562 37.4561C39.3313 36.8721 39.6536 36.0853 39.6536 35.2657C39.6536 34.4461 39.3313 33.6594 38.7562 33.0753L31.4688 25.7878L33.0339 24.2144C33.9445 24.3807 34.8824 24.3137 35.7602 24.0197C36.6379 23.7257 37.4269 23.2142 38.0536 22.5329C38.6803 21.8517 39.1243 21.0228 39.3442 20.1236C39.5641 19.2244 39.5527 18.2842 39.3111 17.3906C39.268 17.2597 39.193 17.1415 39.0927 17.0469C38.9924 16.9523 38.8701 16.8842 38.7369 16.8489C38.6036 16.8135 38.4636 16.812 38.3296 16.8444C38.1957 16.8768 38.0719 16.9422 37.9695 17.0345L36.4375 18.5417ZM18.757 15.3534L19.2373 15.8338L19.1462 15.9331L17.1256 17.9455L16.6453 17.4652L18.757 15.3534ZM18.0531 27.0217L16.5625 28.4709C16.5397 28.4913 16.5102 28.5026 16.4797 28.5026C16.4491 28.5026 16.4196 28.4913 16.3969 28.4709L11.7428 23.8169C11.7307 23.8068 11.7209 23.7941 11.7141 23.7798C11.7074 23.7655 11.7039 23.7499 11.7039 23.7341C11.7039 23.7183 11.7074 23.7026 11.7141 23.6883C11.7209 23.674 11.7307 23.6614 11.7428 23.6512L13.25 22.1937C13.2728 22.1734 13.3023 22.1621 13.3328 22.1621C13.3634 22.1621 13.3929 22.1734 13.4156 22.1937L18.078 26.8561C18.0909 26.883 18.0954 26.9132 18.091 26.9427C18.0866 26.9723 18.0734 26.9998 18.0531 27.0217ZM18.3016 24.8438L15.4114 21.9453L22.3594 14.9559C22.5655 14.7521 22.8438 14.6378 23.1337 14.6378C23.4236 14.6378 23.7018 14.7521 23.908 14.9559L25.2578 16.3058C25.4616 16.512 25.5759 16.7902 25.5759 17.0801C25.5759 17.37 25.4616 17.6482 25.2578 17.8544L18.3016 24.8438ZM22.2931 23.1295L24.4131 21.0095L25.9452 22.5416L23.8252 24.6616L22.2931 23.1295ZM37.6134 34.2016C37.8926 34.4837 38.0492 34.8646 38.0492 35.2616C38.0492 35.6585 37.8926 36.0394 37.6134 36.3216C37.3277 36.5906 36.95 36.7404 36.5576 36.7404C36.1651 36.7404 35.7875 36.5906 35.5017 36.3216L28.2142 29.0341L30.3342 26.9223L37.6134 34.2016ZM36.777 21.5312C36.2896 22.0156 35.683 22.3625 35.0184 22.537C34.3538 22.7115 33.655 22.7074 32.9925 22.525C32.8562 22.4852 32.7116 22.4835 32.5744 22.52C32.4372 22.5565 32.3126 22.6298 32.2141 22.732L29.7297 25.2164L26.5 28.4709L18.9723 35.9903C18.6871 36.2636 18.3074 36.4162 17.9123 36.4162C17.5173 36.4162 17.1376 36.2636 16.8523 35.9903C16.5742 35.711 16.4181 35.3328 16.4181 34.9386C16.4181 34.5444 16.5742 34.1662 16.8523 33.8869L30.1189 20.6203C30.2254 20.5141 30.3009 20.3809 30.3373 20.235C30.3738 20.0891 30.3699 19.936 30.3259 19.7922C30.1792 19.2626 30.1468 18.7078 30.2308 18.1647C30.3148 17.6216 30.5134 17.1025 30.8134 16.642C31.1133 16.1815 31.5078 15.7901 31.9706 15.4937C32.4334 15.1973 32.9539 15.0027 33.4977 14.9228L33.1167 15.312C32.8201 15.6109 32.5872 15.9668 32.432 16.3582C32.2769 16.7496 32.2027 17.1685 32.2141 17.5894C32.2114 18.0193 32.2992 18.445 32.4718 18.8388C32.6445 19.2326 32.8981 19.5857 33.2161 19.875C33.8325 20.3994 34.6248 20.6705 35.4332 20.6336C36.2416 20.5968 37.006 20.2546 37.572 19.6763L37.8619 19.3781C37.7401 20.1935 37.3598 20.9482 36.777 21.5312Z" fill="#FF5E14"/>
<path d="M26.5 8.02453C22.8459 8.02453 19.2739 9.1081 16.2356 11.1382C13.1973 13.1683 10.8293 16.0538 9.43089 19.4297C8.03253 22.8057 7.66665 26.5205 8.37953 30.1044C9.09241 33.6883 10.852 36.9803 13.4359 39.5641C16.0197 42.148 19.3117 43.9076 22.8956 44.6205C26.4795 45.3333 30.1943 44.9675 33.5703 43.5691C36.9462 42.1707 39.8317 39.8027 41.8618 36.7644C43.8919 33.7261 44.9755 30.1541 44.9755 26.5C44.9689 21.602 43.0203 16.9065 39.5569 13.4431C36.0935 9.97973 31.398 8.0311 26.5 8.02453ZM26.5 43.3689C23.1636 43.3689 19.9022 42.3796 17.1281 40.526C14.3541 38.6724 12.1919 36.0378 10.9152 32.9555C9.6384 29.8731 9.30433 26.4813 9.95522 23.209C10.6061 19.9368 12.2127 16.931 14.5719 14.5719C16.931 12.2127 19.9368 10.6061 23.209 9.95522C26.4813 9.30433 29.8731 9.63839 32.9555 10.9152C36.0378 12.1919 38.6724 14.3541 40.526 17.1281C42.3796 19.9022 43.3689 23.1636 43.3689 26.5C43.3623 30.9719 41.583 35.2588 38.4209 38.4209C35.2588 41.583 30.9719 43.3623 26.5 43.3689Z" fill="#FF5E14"/>
<path d="M52.1719 19.1048H47.8739C47.5824 18.2554 47.2366 17.4256 46.8388 16.6205L49.8945 13.5647C50.0413 13.4107 50.1233 13.2061 50.1233 12.9933C50.1233 12.7805 50.0413 12.5759 49.8945 12.4219L40.5781 3.10547C40.4241 2.95865 40.2195 2.87675 40.0067 2.87675C39.7939 2.87675 39.5893 2.95865 39.4353 3.10547L36.3878 6.16125C35.5827 5.76337 34.7529 5.41761 33.9034 5.12609V0.828125C33.9034 0.608493 33.8162 0.397856 33.6609 0.242552C33.5056 0.0872486 33.2949 0 33.0753 0H19.875C19.6554 0 19.4447 0.0872486 19.2894 0.242552C19.1341 0.397856 19.0469 0.608493 19.0469 0.828125V5.12609C18.1974 5.41761 17.3676 5.76337 16.5625 6.16125L13.5564 3.10547C13.4024 2.95865 13.1978 2.87675 12.985 2.87675C12.7722 2.87675 12.5676 2.95865 12.4136 3.10547L3.10547 12.4219C2.95865 12.5759 2.87675 12.7805 2.87675 12.9933C2.87675 13.2061 2.95865 13.4107 3.10547 13.5647L6.16125 16.6205C5.76337 17.4256 5.41761 18.2554 5.12609 19.1048H0.828125C0.608493 19.1048 0.397856 19.1921 0.242552 19.3474C0.0872486 19.5027 0 19.7133 0 19.933V33.125C0 33.3446 0.0872486 33.5553 0.242552 33.7106C0.397856 33.8659 0.608493 33.9531 0.828125 33.9531H5.12609C5.41761 34.8026 5.76337 35.6324 6.16125 36.4375L3.10547 39.4353C2.96106 39.5889 2.88067 39.7918 2.88067 40.0026C2.88067 40.2134 2.96106 40.4163 3.10547 40.5698L12.4219 49.8945C12.5759 50.0413 12.7805 50.1233 12.9933 50.1233C13.2061 50.1233 13.4107 50.0413 13.5647 49.8945L16.6205 46.8388C17.4256 47.2366 18.2554 47.5824 19.1048 47.8739V52.1719C19.1048 52.3915 19.1921 52.6021 19.3474 52.7575C19.5027 52.9128 19.7133 53 19.933 53H33.125C33.3446 53 33.5553 52.9128 33.7106 52.7575C33.8659 52.6021 33.9531 52.3915 33.9531 52.1719V47.8739C34.8026 47.5824 35.6324 47.2366 36.4375 46.8388L39.4933 49.8945C39.6473 50.0413 39.8519 50.1233 40.0647 50.1233C40.2775 50.1233 40.4821 50.0413 40.6361 49.8945L49.9028 40.5781C50.0472 40.4245 50.1276 40.2217 50.1276 40.0109C50.1276 39.8 50.0472 39.5972 49.9028 39.4436L46.847 36.3961C47.2449 35.591 47.5907 34.7612 47.8822 33.9117H52.1719C52.3915 33.9117 52.6021 33.8245 52.7575 33.6692C52.9128 33.5139 53 33.3032 53 33.0836V19.875C52.9853 19.6656 52.8916 19.4695 52.7379 19.3266C52.5841 19.1836 52.3818 19.1043 52.1719 19.1048ZM51.3934 32.2969H47.3025C47.1327 32.2993 46.9678 32.3538 46.83 32.453C46.6923 32.5522 46.5884 32.6914 46.5323 32.8517C46.1693 33.9943 45.7065 35.1027 45.1494 36.1642C45.0726 36.3169 45.0449 36.4896 45.0701 36.6586C45.0953 36.8276 45.1721 36.9847 45.2902 37.1083L48.1969 39.9984L40.015 48.1969L37.1166 45.2902C36.993 45.1721 36.8359 45.0953 36.6669 45.0701C36.4978 45.0449 36.3252 45.0726 36.1725 45.1494C35.111 45.7065 34.0025 46.1693 32.86 46.5323C32.6997 46.5884 32.5605 46.6923 32.4613 46.83C32.362 46.9678 32.3075 47.1327 32.3052 47.3025V51.3934H20.7031V47.3025C20.7007 47.1327 20.6462 46.9678 20.547 46.83C20.4478 46.6923 20.3086 46.5884 20.1483 46.5323C19.0057 46.1693 17.8973 45.7065 16.8358 45.1494C16.6831 45.0726 16.5104 45.0449 16.3414 45.0701C16.1724 45.0953 16.0153 45.1721 15.8917 45.2902L12.9933 48.1969L4.80313 40.0067L7.70984 37.1166C7.82785 36.993 7.90473 36.8359 7.92993 36.6669C7.95513 36.4978 7.92743 36.3252 7.85062 36.1725C7.29349 35.111 6.83072 34.0025 6.46766 32.86C6.41351 32.6995 6.31143 32.5594 6.1752 32.4587C6.03897 32.358 5.87513 32.3015 5.70578 32.2969H1.60656V20.7031H5.70578C5.87412 20.6991 6.03723 20.6438 6.17335 20.5447C6.30947 20.4455 6.41214 20.3073 6.46766 20.1483C6.83072 19.0057 7.29349 17.8973 7.85062 16.8358C7.92743 16.6831 7.95513 16.5104 7.92993 16.3414C7.90473 16.1724 7.82785 16.0153 7.70984 15.8917L4.80313 12.985L12.985 4.80313L15.8834 7.70984C16.007 7.82785 16.1641 7.90473 16.3331 7.92993C16.5022 7.95513 16.6748 7.92743 16.8275 7.85062C17.889 7.29349 18.9975 6.83072 20.14 6.46766C20.3018 6.41303 20.4428 6.3097 20.5436 6.17182C20.6444 6.03395 20.7001 5.86827 20.7031 5.6975V1.60656H32.2969V5.6975C32.2993 5.86727 32.3538 6.0322 32.453 6.16996C32.5522 6.30772 32.6914 6.41164 32.8517 6.46766C33.9943 6.83072 35.1027 7.29349 36.1642 7.85062C36.3169 7.92743 36.4896 7.95513 36.6586 7.92993C36.8276 7.90473 36.9847 7.82785 37.1083 7.70984L40.0067 4.80313L48.1886 12.985L45.2819 15.8834C45.1639 16.007 45.087 16.1641 45.0618 16.3331C45.0366 16.5022 45.0643 16.6748 45.1411 16.8275C45.6982 17.889 46.161 18.9975 46.5241 20.14C46.5801 20.3003 46.684 20.4395 46.8218 20.5387C46.9595 20.638 47.1245 20.6925 47.2942 20.6948H51.3852L51.3934 32.2969Z" fill="#FF5E14"/>
</svg>
