<svg width="90" height="88" viewBox="0 0 90 88" fill="none" xmlns="http://www.w3.org/2000/svg">
<path d="M17.5946 43.8711C17.5946 45.3321 18.7764 46.5207 20.2292 46.5207H26.0351C27.488 46.5207 28.6697 45.3321 28.6697 43.8711V42.4997C30.089 42.0881 31.455 41.5199 32.7484 40.8035L33.7111 41.7716C34.7342 42.8003 36.4044 42.8019 37.437 41.7716L41.5421 37.6432C42.5651 36.6143 42.5664 34.9347 41.5409 33.8947L40.5764 32.9279C41.29 31.6295 41.8561 30.2556 42.2662 28.826H43.6299C45.0799 28.826 46.2595 27.6373 46.2595 26.1764V20.3376C46.2595 18.8794 45.0801 17.693 43.6299 17.693H42.2662C41.8552 16.2585 41.2889 14.884 40.5763 13.5894L41.5421 12.6178C42.5678 11.5861 42.5678 9.90754 41.5421 8.87584L37.437 4.74756C36.9385 4.24617 36.2765 3.97015 35.5724 3.97015H35.5671C34.8633 3.97158 34.203 4.24868 33.7111 4.74756L32.7484 5.71552C31.455 4.99934 30.0888 4.43114 28.6697 4.01935V2.64787C28.6697 1.18696 27.488 -0.00170898 26.0351 -0.00170898H20.2292C18.7764 -0.00170898 17.5946 1.18696 17.5946 2.64787V4.01935C16.1755 4.43114 14.8093 4.99916 13.516 5.71552L12.5565 4.75062C12.0615 4.24886 11.4012 3.97158 10.6974 3.97015H10.6921C9.988 3.97015 9.32605 4.24617 8.82749 4.74756L4.7224 8.87601C3.69671 9.90772 3.69671 11.5863 4.7224 12.618L5.68809 13.5894C4.97418 14.8858 4.40812 16.2603 3.99777 17.693H2.63459C1.18176 17.693 0 18.8794 0 20.3376V26.1764C0 27.6375 1.18176 28.826 2.63459 28.826H3.99831C4.40848 30.2555 4.97453 31.6295 5.68809 32.9279L4.71918 33.8992C3.69795 34.9349 3.69938 36.6143 4.72311 37.6443L8.83052 41.7747C9.85996 42.8015 11.5299 42.8005 12.5535 41.7716L13.5161 40.8037C14.8095 41.52 16.1755 42.0881 17.5948 42.4998L17.5946 43.8711ZM13.8959 38.5373C13.7236 38.4323 13.5315 38.3809 13.3406 38.3809C13.0638 38.3809 12.7897 38.4887 12.5833 38.6963L11.0394 40.2488C10.8476 40.4415 10.533 40.4402 10.3423 40.2497L6.23629 36.1203C6.04469 35.9276 6.04612 35.6114 6.23504 35.4196L7.78394 33.8669C8.13447 33.5154 8.19982 32.9684 7.94197 32.5435C6.9936 30.9806 6.29379 29.2819 5.86166 27.4947C5.74505 27.0122 5.31524 26.6724 4.8215 26.6724H2.63476C2.36727 26.6724 2.1412 26.4451 2.1412 26.176V20.3372C2.1412 20.0664 2.36263 19.8459 2.63476 19.8459H4.8215C5.3156 19.8459 5.74559 19.5058 5.86184 19.0229C6.29379 17.2317 6.99342 15.5335 7.94143 13.976C8.19964 13.5517 8.13518 13.0045 7.78537 12.6527L6.23647 11.0951C6.04862 10.9062 6.04862 10.5869 6.23647 10.3982L10.3416 6.26972C10.4683 6.14239 10.6153 6.12318 10.6924 6.12318C10.7701 6.1203 10.9132 6.14149 11.0396 6.26972L12.5835 7.8224C12.9324 8.1733 13.4743 8.23885 13.8961 7.98133C15.4554 7.02918 17.145 6.32664 18.9185 5.89295C19.3983 5.7755 19.736 5.34342 19.736 4.84669V2.64751C19.736 2.37383 19.9574 2.15114 20.2296 2.15114H26.0355C26.3075 2.15114 26.5291 2.37383 26.5291 2.64751V4.84669C26.5291 5.34342 26.8669 5.7755 27.3465 5.89295C29.1201 6.32664 30.8097 7.02936 32.3689 7.98133C32.7904 8.23885 33.3325 8.1733 33.6816 7.8224L35.2285 6.26666C35.3514 6.14203 35.4962 6.12318 35.5715 6.12318H35.5726C35.6498 6.12318 35.7967 6.14239 35.9235 6.26972L40.0286 10.3982C40.2164 10.5871 40.2164 10.9062 40.0286 11.0951L38.4797 12.6528C38.1299 13.0046 38.0654 13.5518 38.3236 13.9762C39.2697 15.5305 39.9693 17.2288 40.4032 19.0238C40.5198 19.5063 40.9496 19.8461 41.4434 19.8461H43.6301C43.8994 19.8461 44.1185 20.0666 44.1185 20.3374V26.1762C44.1185 26.4499 43.8992 26.6726 43.6301 26.6726H41.4434C40.9495 26.6726 40.5198 27.0124 40.4032 27.4949C39.9711 29.2821 39.2711 30.9808 38.3229 32.5437C38.0651 32.9686 38.1304 33.5158 38.4809 33.8671L40.0254 35.4154C40.2188 35.6115 40.2202 35.9278 40.0286 36.1205L35.9265 40.2459C35.7314 40.4404 35.4169 40.4416 35.2253 40.2489L33.6814 38.6963C33.3325 38.3454 32.7904 38.2798 32.3688 38.5373C30.8095 39.4895 29.1199 40.1922 27.3465 40.6257C26.8666 40.743 26.5289 41.1752 26.5289 41.672V43.8711C26.5289 44.1402 26.3028 44.3675 26.0353 44.3675H20.2294C19.9619 44.3675 19.7358 44.1402 19.7358 43.8711V41.672C19.7358 41.1752 19.398 40.7432 18.9182 40.6257C17.1448 40.192 15.455 39.4895 13.8959 38.5373ZM37.7504 23.2594C37.7504 15.1543 31.1916 8.56031 23.1297 8.56031C15.0677 8.56031 8.51374 15.1543 8.51374 23.2594C8.51374 31.3646 15.0704 37.9584 23.1297 37.9584C31.189 37.9584 37.7504 31.3644 37.7504 23.2594ZM10.6549 23.2594C10.6549 16.3417 16.2511 10.7137 23.1297 10.7137C30.0083 10.7137 35.6094 16.3417 35.6094 23.2594C35.6094 30.1772 30.011 35.8051 23.1297 35.8051C16.2484 35.8051 10.6549 30.1772 10.6549 23.2594ZM74.4812 44.7288C78.3819 44.7288 81.555 41.5375 81.555 37.6148C81.555 33.6922 78.3817 30.5008 74.4812 30.5008C70.5808 30.5008 67.4075 33.6922 67.4075 37.6148C67.4075 41.5375 70.5808 44.7288 74.4812 44.7288ZM74.4812 32.654C77.201 32.654 79.414 34.8794 79.414 37.6148C79.414 40.3502 77.201 42.5756 74.4812 42.5756C71.7615 42.5756 69.5485 40.3502 69.5485 37.6148C69.5485 34.8794 71.7615 32.654 74.4812 32.654ZM88.5366 46.4045C87.5951 45.4544 86.3424 44.9311 85.0098 44.9311C83.6771 44.9311 82.4243 45.4544 81.4843 46.4029L76.3094 51.6031L57.0654 32.2453C55.1174 30.2925 51.9524 30.293 50.01 32.2465L39.7232 42.5918C37.7815 44.5509 37.7822 47.734 39.7245 49.6873C41.6668 51.6408 44.8317 51.6412 46.7817 49.6871L53.3008 43.1257C53.4304 42.9953 53.6412 42.9953 53.7711 43.1257L56.375 45.7446L47.9097 54.2583C46.7331 55.4414 46.0851 57.019 46.0851 58.7001C46.0851 60.015 46.4815 61.2663 47.2172 62.3153L30.1884 79.4361C29.247 80.3829 28.7283 81.6432 28.7283 82.9845C28.7283 84.3258 29.2469 85.5859 30.1897 86.5341C31.1636 87.5104 32.4413 87.9983 33.7187 87.9983C34.9962 87.9983 36.2739 87.5098 37.2451 86.5329L54.7061 68.9725L58.0548 72.425L54.7229 75.776C52.7806 77.7293 52.7799 80.9125 54.7229 82.8728C56.6652 84.8261 59.8299 84.8267 61.7799 82.8726L68.6269 75.9814C69.5704 75.0356 70.0908 73.7771 70.0919 72.4379C70.0931 71.0962 69.5733 69.8339 68.6262 68.8814L61.6933 61.9457L66.7148 56.8955C66.8482 56.7613 67.0066 56.7414 67.0891 56.7414C67.1716 56.7414 67.3301 56.7613 67.4635 56.8956L72.7834 62.2458C74.7259 64.1991 77.8908 64.1997 79.8402 62.2458L88.5349 53.4967C89.4797 52.5497 90 51.2899 90 49.9495C90 48.6091 89.4789 47.349 88.5366 46.4045ZM87.0213 51.9725L78.3267 60.7219C77.2137 61.8372 75.4059 61.8383 74.297 60.7231L68.9771 55.373C68.4739 54.8667 67.8032 54.5878 67.0887 54.5878C66.3743 54.5878 65.7037 54.8665 65.2005 55.3728L59.42 61.1863C59.2189 61.3885 59.106 61.6629 59.1064 61.949C59.1067 62.235 59.2203 62.5091 59.4219 62.7109L67.1139 70.4059C67.6541 70.9492 67.9512 71.6702 67.9507 72.4359C67.9499 73.1992 67.6533 73.9168 67.1135 74.4577L60.2665 81.3488C59.1537 82.4644 57.3461 82.4653 56.2379 81.3514C55.1283 80.2318 55.1277 78.4137 56.2366 77.2985L60.3164 73.1956C60.7308 72.7788 60.7349 72.1044 60.3258 71.6824L55.4818 66.6885C55.2818 66.4825 55.0083 66.3655 54.722 66.3637H54.7154C54.4315 66.3637 54.1594 66.477 53.9585 66.679L35.731 85.0102C34.6223 86.1254 32.8146 86.1249 31.7023 85.0102C30.5917 83.8932 30.5917 82.0758 31.7023 80.9588L49.4236 63.1418C49.6245 62.9399 49.7373 62.666 49.7373 62.3805C49.7373 62.0949 49.6245 61.8211 49.4237 61.6191C48.6516 60.8425 48.2263 59.8058 48.2263 58.6999C48.2263 57.594 48.6516 56.5573 49.4237 55.7808L58.646 46.5058C59.0641 46.0854 59.0642 45.4037 58.646 44.9831L55.2852 41.603C54.8031 41.1179 54.1697 40.8755 53.5362 40.8755C52.9026 40.8755 52.269 41.1181 51.7865 41.6032L45.2687 48.1634C44.1556 49.2795 42.3476 49.2797 41.2387 48.1646C40.1298 47.0494 40.1304 45.2313 41.2387 44.113L51.5244 33.769C52.6333 32.654 54.441 32.6545 55.5531 33.769L75.5518 53.8867C75.9696 54.3073 76.6476 54.3077 77.0658 53.8872L82.9996 47.9245C83.5368 47.3827 84.2507 47.0843 85.0103 47.0843C85.7699 47.0843 86.4836 47.3827 87.0231 47.927C87.562 48.4671 87.8588 49.1852 87.8588 49.949C87.8588 50.7127 87.5617 51.4309 87.0213 51.9725ZM17.2059 24.8566C17.0528 24.2823 17.3916 23.6919 17.9626 23.538L22.2556 22.3804L23.7809 16.6581C23.9339 16.0838 24.5204 15.7431 25.0923 15.8968C25.6634 16.0507 26.0023 16.6414 25.8491 17.2155L24.1638 23.5381C24.0647 23.9095 23.7763 24.1997 23.407 24.2992L18.5173 25.6177C18.4242 25.6429 18.331 25.6547 18.2392 25.6547C17.7668 25.6547 17.3343 25.3376 17.2059 24.8566ZM22.0793 13.8539C22.0668 13.7839 22.0597 13.7138 22.0597 13.6438C22.0597 13.572 22.0668 13.5019 22.0793 13.4319C22.0936 13.3636 22.1151 13.2972 22.1418 13.2307C22.1686 13.1661 22.2008 13.1032 22.2401 13.0458C22.2795 12.9865 22.3242 12.9308 22.3722 12.8823C22.4222 12.8321 22.4775 12.7872 22.5347 12.7477C22.5936 12.71 22.6561 12.6758 22.7204 12.6489C22.7847 12.622 22.8525 12.6004 22.9204 12.5878C23.2686 12.516 23.6382 12.6309 23.8864 12.8823C23.9363 12.9308 23.9809 12.9865 24.0204 13.0458C24.0579 13.1032 24.0916 13.1661 24.1186 13.2307C24.1452 13.2972 24.165 13.3636 24.1793 13.4319C24.1936 13.5019 24.2007 13.572 24.2007 13.6438C24.2007 13.7138 24.1936 13.7839 24.1793 13.8539C24.165 13.9221 24.1454 13.9904 24.1186 14.055C24.0918 14.1197 24.0579 14.1825 24.0204 14.24C23.9809 14.2993 23.9363 14.3549 23.8864 14.4052C23.8364 14.4537 23.7829 14.4986 23.7239 14.5381C23.665 14.5776 23.6043 14.6099 23.5382 14.6369C23.474 14.6638 23.4079 14.6854 23.3382 14.6979C23.2704 14.7123 23.199 14.7195 23.1293 14.7195C23.0597 14.7195 22.99 14.7123 22.9204 14.6979C22.8525 14.6854 22.7847 14.6638 22.7204 14.6369C22.6561 14.6099 22.5936 14.5776 22.5347 14.5381C22.4775 14.4986 22.4222 14.4537 22.3722 14.4052C22.324 14.3549 22.2793 14.2993 22.2401 14.24C22.2008 14.1825 22.1688 14.1197 22.1418 14.055C22.1152 13.9904 22.0936 13.9221 22.0793 13.8539ZM26.8632 15.1415C26.8489 15.0715 26.8435 15.0014 26.8435 14.9314C26.8435 14.8614 26.8489 14.7895 26.8632 14.7213C26.8775 14.6512 26.8969 14.5848 26.9239 14.5184C26.9505 14.4537 26.9846 14.3909 27.0221 14.3334C27.0614 14.2741 27.106 14.2185 27.156 14.17C27.3542 13.9688 27.631 13.8539 27.9131 13.8539C28.1953 13.8539 28.4703 13.9688 28.6703 14.17C28.7185 14.2185 28.7647 14.2741 28.8022 14.3334C28.8417 14.3909 28.8737 14.4537 28.9006 14.5184C28.9272 14.5848 28.9488 14.6512 28.9613 14.7213C28.9756 14.7895 28.9828 14.8614 28.9828 14.9314C28.9828 15.2151 28.8683 15.4917 28.6703 15.6928C28.4703 15.8922 28.1953 16.0071 27.9131 16.0071C27.631 16.0071 27.3542 15.8922 27.156 15.6928C27.106 15.6426 27.0614 15.5869 27.0221 15.5294C26.9846 15.4702 26.9507 15.4073 26.9239 15.3426C26.8971 15.278 26.8775 15.2098 26.8632 15.1415ZM30.654 19.2145C30.454 19.0133 30.3397 18.7368 30.3397 18.453C30.3397 18.383 30.3468 18.313 30.3611 18.2429C30.3736 18.1747 30.3949 18.1064 30.4218 18.0418C30.4486 17.9771 30.4825 17.9143 30.5201 17.855C30.5593 17.7976 30.604 17.7419 30.654 17.6916C30.8522 17.4923 31.129 17.3773 31.4111 17.3773C31.6915 17.3773 31.9682 17.4923 32.1663 17.6916C32.2163 17.7419 32.2609 17.7976 32.3002 17.855C32.3397 17.9143 32.3716 17.9771 32.3986 18.0418C32.4252 18.1064 32.4468 18.1747 32.4593 18.2429C32.4736 18.313 32.4807 18.383 32.4807 18.453C32.4807 18.5231 32.4736 18.5949 32.4593 18.6632C32.4468 18.7332 32.4254 18.7996 32.3986 18.8661C32.3718 18.9307 32.3397 18.9936 32.3002 19.0511C32.2609 19.1103 32.2163 19.166 32.1663 19.2145C32.1181 19.2648 32.0629 19.3097 32.0039 19.3492C31.9468 19.3869 31.8843 19.421 31.82 19.4479C31.7557 19.4749 31.6879 19.4946 31.62 19.509C31.5504 19.5234 31.4807 19.5305 31.4111 19.5305C31.3397 19.5305 31.27 19.5234 31.2004 19.509C31.1325 19.4946 31.0645 19.4749 31.0004 19.4479C30.9361 19.421 30.8736 19.3869 30.8165 19.3492C30.7575 19.3097 30.7022 19.2648 30.654 19.2145ZM32.2807 22.2656C32.3468 22.2387 32.4129 22.2171 32.4825 22.2027C32.8289 22.1327 33.2003 22.2476 33.4486 22.4973C33.4968 22.5476 33.5414 22.6032 33.5807 22.6625C33.62 22.7199 33.6519 22.7828 33.6789 22.8475C33.7055 22.9121 33.7271 22.9803 33.7414 23.0486C33.7539 23.1186 33.7611 23.1887 33.7611 23.2587C33.7611 23.5424 33.6466 23.8208 33.4486 24.0201C33.2486 24.2213 32.9736 24.3362 32.6914 24.3362C32.6218 24.3362 32.5504 24.329 32.4825 24.3147C32.4129 24.3003 32.3468 24.2805 32.2807 24.2536C32.2164 24.2267 32.1539 24.1925 32.0968 24.1548C32.0379 24.1153 31.9825 24.0704 31.9343 24.0201C31.7343 23.8208 31.62 23.5424 31.62 23.2587C31.62 23.1887 31.6272 23.1186 31.6415 23.0486C31.6557 22.9803 31.6752 22.9121 31.7022 22.8475C31.7291 22.7828 31.7629 22.7199 31.8004 22.6625C31.8398 22.6032 31.8845 22.5476 31.9343 22.4973C31.9827 22.4488 32.0379 22.4039 32.0968 22.3644C32.1539 22.3249 32.2164 22.2925 32.2807 22.2656ZM30.3611 28.2745C30.3468 28.2062 30.3397 28.1344 30.3397 28.0644C30.3397 27.9943 30.3468 27.9243 30.3611 27.8542C30.3736 27.786 30.3949 27.7178 30.4218 27.6531C30.4486 27.5885 30.4825 27.5256 30.5201 27.4663C30.5593 27.4089 30.604 27.3532 30.654 27.3029C30.7024 27.2544 30.7575 27.2095 30.8165 27.17C30.8736 27.1305 30.9361 27.0982 31.0004 27.0713C31.0645 27.0443 31.1325 27.0228 31.2004 27.0084C31.5484 26.9384 31.9182 27.0533 32.1663 27.3029C32.2163 27.3532 32.2609 27.4089 32.3002 27.4663C32.3397 27.5256 32.3716 27.5885 32.3986 27.6531C32.4252 27.7178 32.4468 27.786 32.4593 27.8542C32.4736 27.9243 32.4807 27.9943 32.4807 28.0644C32.4807 28.1344 32.4736 28.2062 32.4593 28.2745C32.4468 28.3427 32.4254 28.411 32.3986 28.4756C32.3718 28.5421 32.3397 28.6031 32.3002 28.6624C32.2609 28.7216 32.2163 28.7755 32.1663 28.8258C32.1181 28.8761 32.0629 28.921 32.0039 28.9605C31.9468 28.9982 31.8843 29.0323 31.82 29.0593C31.7557 29.0862 31.6879 29.1059 31.62 29.1203C31.5504 29.1347 31.4807 29.1419 31.4111 29.1419C31.3397 29.1419 31.27 29.1347 31.2004 29.1203C31.1325 29.1059 31.0645 29.0862 31.0004 29.0593C30.9361 29.0323 30.8736 28.9982 30.8165 28.9605C30.7575 28.921 30.7022 28.8761 30.654 28.8258C30.604 28.7755 30.5593 28.7216 30.5201 28.6624C30.4825 28.6031 30.4488 28.5421 30.4218 28.4756C30.3951 28.411 30.3736 28.3427 30.3611 28.2745ZM27.1558 32.3438C26.9558 32.1427 26.8433 31.8661 26.8433 31.5824C26.8433 31.5124 26.8487 31.4405 26.863 31.3723C26.8773 31.3023 26.8967 31.2358 26.9237 31.1712C26.9503 31.1047 26.9844 31.0437 27.0219 30.9844C27.0612 30.9251 27.1058 30.8713 27.1558 30.821C27.354 30.6198 27.6308 30.5049 27.913 30.5049C28.1951 30.5049 28.4701 30.6198 28.6701 30.821C28.7183 30.8713 28.7646 30.9251 28.8021 30.9844C28.8415 31.0437 28.8735 31.1047 28.9004 31.1712C28.927 31.2358 28.9487 31.3023 28.9612 31.3723C28.9754 31.4405 28.9826 31.5124 28.9826 31.5824C28.9826 31.8661 28.8681 32.1427 28.6701 32.3438C28.4701 32.5432 28.1951 32.6581 27.913 32.6581C27.6308 32.6581 27.3558 32.5432 27.1558 32.3438ZM23.8863 33.6315C23.6863 33.8326 23.4113 33.9475 23.1291 33.9475C23.0593 33.9475 22.9899 33.9403 22.9202 33.926C22.8524 33.9116 22.7845 33.8919 22.7202 33.8649C22.6559 33.838 22.5934 33.8039 22.5345 33.7661C22.4774 33.7266 22.422 33.6817 22.372 33.6315C22.3238 33.5812 22.2792 33.5273 22.2399 33.468C22.2006 33.4088 22.1686 33.3477 22.1417 33.2813C22.1151 33.2166 22.0934 33.1502 22.0792 33.0801C22.0667 33.0119 22.0595 32.9401 22.0595 32.87C22.0595 32.5863 22.1738 32.3097 22.372 32.1086C22.422 32.0601 22.4774 32.0134 22.5345 31.9757C22.5934 31.9362 22.6559 31.9039 22.7202 31.8769C22.7845 31.85 22.8524 31.8284 22.9202 31.8141C23.0577 31.7871 23.2004 31.7871 23.3381 31.8141C23.4077 31.8284 23.4738 31.85 23.5381 31.8769C23.6041 31.9039 23.6648 31.9362 23.7238 31.9757C23.7827 32.0134 23.8363 32.0601 23.8863 32.1086C24.0861 32.3097 24.2005 32.5863 24.2005 32.87C24.2005 32.9401 24.1934 33.0119 24.1791 33.0801C24.1648 33.1502 24.1452 33.2166 24.1184 33.2813C24.0916 33.3477 24.0577 33.4088 24.0202 33.468C23.9807 33.5273 23.9361 33.5812 23.8863 33.6315ZM19.4006 31.3723C19.4149 31.4405 19.4221 31.5124 19.4221 31.5824C19.4221 31.6524 19.4149 31.7225 19.4006 31.7925C19.3864 31.8608 19.3667 31.929 19.3399 31.9937C19.3132 32.0583 19.279 32.1212 19.2415 32.1804C19.2023 32.2397 19.1576 32.2936 19.1076 32.3438C19.0578 32.3923 19.004 32.439 18.9453 32.4767C18.8864 32.5162 18.8255 32.5486 18.7596 32.5755C18.6953 32.6024 18.6292 32.624 18.5596 32.6384C18.4917 32.6509 18.4203 32.6581 18.3507 32.6581C18.281 32.6581 18.2114 32.6509 18.1417 32.6384C18.0737 32.624 18.0059 32.6024 17.9418 32.5755C17.8775 32.5486 17.815 32.5162 17.756 32.4767C17.6989 32.439 17.6435 32.3923 17.5935 32.3438C17.5452 32.2936 17.5005 32.2397 17.4614 32.1804C17.4223 32.1212 17.39 32.0583 17.3632 31.9937C17.3364 31.929 17.3148 31.8608 17.3005 31.7925C17.2882 31.7225 17.2811 31.6524 17.2811 31.5824C17.2811 31.5124 17.2882 31.4405 17.3005 31.3723C17.3148 31.3023 17.3362 31.2358 17.3632 31.1712C17.3898 31.1047 17.4221 31.0437 17.4614 30.9844C17.5007 30.9251 17.5453 30.8713 17.5935 30.821C17.7935 30.6198 18.0685 30.5049 18.3507 30.5049C18.6328 30.5049 18.9096 30.6198 19.1076 30.821C19.1576 30.8713 19.2023 30.9251 19.2415 30.9844C19.279 31.0437 19.313 31.1047 19.3399 31.1712C19.3665 31.2358 19.3864 31.3023 19.4006 31.3723ZM15.6097 27.3029C15.8097 27.5041 15.9239 27.7824 15.9239 28.0644C15.9239 28.1344 15.9168 28.2062 15.9027 28.2745C15.8902 28.3445 15.8688 28.411 15.8418 28.4756C15.8152 28.5421 15.7829 28.6031 15.7436 28.6624C15.7043 28.7216 15.6597 28.7755 15.6097 28.8258C15.5614 28.8761 15.5061 28.921 15.4472 28.9605C15.3902 28.9982 15.3275 29.0323 15.2634 29.0593C15.1991 29.0862 15.1313 29.1059 15.0634 29.1203C14.9936 29.1347 14.9241 29.1419 14.8545 29.1419C14.7849 29.1419 14.7134 29.1347 14.6436 29.1203C14.5758 29.1059 14.5079 29.0862 14.4436 29.0593C14.3795 29.0323 14.3168 28.9982 14.2599 28.9605C14.2009 28.921 14.1454 28.8761 14.0974 28.8258C14.0474 28.7755 14.0027 28.7216 13.9634 28.6624C13.9242 28.6031 13.892 28.5421 13.8652 28.4756C13.8384 28.411 13.8168 28.3445 13.8045 28.2745C13.7902 28.2062 13.7831 28.1344 13.7831 28.0644C13.7831 27.9943 13.7902 27.9243 13.8045 27.8542C13.8168 27.786 13.8383 27.7178 13.8652 27.6531C13.8918 27.5885 13.9242 27.5256 13.9634 27.4663C14.0027 27.4071 14.0474 27.3532 14.0974 27.3029C14.1456 27.2544 14.2009 27.2077 14.2599 27.17C14.3168 27.1305 14.3795 27.0982 14.4436 27.0713C14.5079 27.0443 14.5758 27.0228 14.6436 27.0084C14.9918 26.9384 15.3616 27.0533 15.6097 27.3029ZM13.9831 24.2536C13.917 24.2805 13.8509 24.3003 13.7811 24.3147C13.7133 24.329 13.642 24.3362 13.5722 24.3362C13.5024 24.3362 13.4331 24.329 13.3633 24.3147C13.2954 24.3003 13.2276 24.2805 13.1633 24.2536C13.0992 24.2267 13.0365 24.1925 12.9795 24.1548C12.9206 24.1153 12.8651 24.0704 12.8153 24.0201C12.7669 23.9716 12.7222 23.916 12.6831 23.8567C12.6438 23.7992 12.6117 23.7364 12.5849 23.6717C12.5581 23.6053 12.5365 23.5389 12.5222 23.4688C12.5099 23.4006 12.5028 23.3287 12.5028 23.2587C12.5028 23.1887 12.5099 23.1186 12.5222 23.0486C12.5365 22.9803 12.5579 22.9121 12.5849 22.8475C12.6115 22.7828 12.6438 22.7199 12.6831 22.6625C12.7224 22.6032 12.767 22.5476 12.8153 22.4973C12.8651 22.4488 12.9206 22.4039 12.9795 22.3644C13.0365 22.3249 13.0992 22.2925 13.1633 22.2656C13.2276 22.2387 13.2954 22.2171 13.3633 22.2027C13.5026 22.1758 13.6436 22.1758 13.7811 22.2027C13.8509 22.2171 13.917 22.2387 13.9831 22.2656C14.0472 22.2925 14.1099 22.3249 14.1668 22.3644C14.2258 22.4039 14.2793 22.4488 14.3293 22.4973C14.3793 22.5476 14.424 22.6032 14.4633 22.6625C14.5008 22.7199 14.5347 22.7828 14.5615 22.8475C14.5883 22.9121 14.6081 22.9803 14.6222 23.0486C14.6365 23.1186 14.6436 23.1887 14.6436 23.2587C14.6436 23.5424 14.5293 23.819 14.3293 24.0201C14.2793 24.0704 14.2258 24.1153 14.1668 24.1548C14.1099 24.1925 14.0472 24.2267 13.9831 24.2536ZM15.9241 18.4485V18.4536C15.9241 19.0482 15.4448 19.5302 14.8536 19.5302C14.2624 19.5302 13.7831 19.0482 13.7831 18.4536C13.7831 17.859 14.2624 17.3745 14.8536 17.3745C15.4448 17.3745 15.9241 17.8539 15.9241 18.4485ZM17.3007 15.1415C17.2884 15.0715 17.2812 15.0014 17.2812 14.9314C17.2812 14.8614 17.2884 14.7895 17.3007 14.7213C17.315 14.6512 17.3364 14.5848 17.3634 14.5184C17.39 14.4537 17.4223 14.3909 17.4616 14.3334C17.5009 14.2741 17.5455 14.2185 17.5937 14.17C17.6437 14.1197 17.6991 14.0748 17.7562 14.0353C17.8151 13.9976 17.8776 13.9634 17.9419 13.9365C18.006 13.9096 18.0739 13.8898 18.1419 13.8754C18.281 13.8467 18.4221 13.8467 18.5598 13.8754C18.6294 13.8898 18.6955 13.9096 18.7598 13.9365C18.8257 13.9634 18.8866 13.9976 18.9455 14.0353C19.0042 14.0748 19.058 14.1197 19.1078 14.17C19.1578 14.2185 19.2024 14.2741 19.2417 14.3334C19.2792 14.3909 19.3132 14.4537 19.3401 14.5184C19.3667 14.5848 19.3865 14.6512 19.4008 14.7213C19.4151 14.7895 19.4223 14.8614 19.4223 14.9314C19.4223 15.0014 19.4151 15.0715 19.4008 15.1415C19.3865 15.2098 19.3669 15.278 19.3401 15.3426C19.3133 15.4073 19.2792 15.4702 19.2417 15.5294C19.2024 15.5869 19.1578 15.6426 19.1078 15.6928C18.9098 15.8922 18.633 16.0071 18.3508 16.0071C18.0687 16.0071 17.7937 15.8922 17.5937 15.6928C17.5453 15.6426 17.5007 15.5869 17.4616 15.5294C17.4223 15.4702 17.3902 15.4073 17.3634 15.3426C17.3366 15.278 17.315 15.2098 17.3007 15.1415ZM14.9574 51.4201C14.9574 50.8255 15.4366 50.3435 16.0279 50.3435H30.2361C30.8275 50.3435 31.3066 50.8255 31.3066 51.4201C31.3066 52.0147 30.8274 52.4967 30.2361 52.4967H16.0279C15.4364 52.4967 14.9574 52.0147 14.9574 51.4201ZM37.1987 57.086C37.1987 57.6806 36.7194 58.1626 36.1281 58.1626H21.9199C21.3285 58.1626 20.8494 57.6806 20.8494 57.086C20.8494 56.4914 21.3286 56.0094 21.9199 56.0094H36.1281C36.7196 56.0094 37.1987 56.4914 37.1987 57.086ZM14.9574 62.7517C14.9574 62.1571 15.4366 61.6751 16.0279 61.6751H30.2361C30.8275 61.6751 31.3066 62.1571 31.3066 62.7517C31.3066 63.3463 30.8274 63.8283 30.2361 63.8283H16.0279C15.4364 63.8283 14.9574 63.3463 14.9574 62.7517ZM20.8492 68.4176C20.8492 67.823 21.3285 67.341 21.9197 67.341H36.128C36.7194 67.341 37.1985 67.823 37.1985 68.4176C37.1985 69.0122 36.7192 69.4942 36.128 69.4942H21.9197C21.3283 69.4942 20.8492 69.0122 20.8492 68.4176ZM30.2361 75.1599H16.0279C15.4364 75.1599 14.9574 74.6778 14.9574 74.0833C14.9574 73.4886 15.4366 73.0066 16.0279 73.0066H30.2361C30.8275 73.0066 31.3066 73.4886 31.3066 74.0833C31.3066 74.6778 30.8274 75.1599 30.2361 75.1599Z" fill="#FF7029"/>
</svg>
