<svg width="54" height="54" viewBox="0 0 54 54" fill="none" xmlns="http://www.w3.org/2000/svg">
<path d="M52.2 7.2H47.8017L20.5263 1.0413C20.3821 0.731165 20.1526 0.468514 19.8646 0.2841C19.5766 0.099685 19.242 0.00113919 18.9 0H15.3C14.9285 0.00165624 14.5667 0.118194 14.2641 0.333628C13.9615 0.549063 13.7329 0.852842 13.6098 1.2033L2.4732 7.2H1.8C1.32261 7.2 0.864773 7.38964 0.527208 7.72721C0.189642 8.06477 0 8.52261 0 9V10.8C0 11.2774 0.189642 11.7352 0.527208 12.0728C0.864773 12.4104 1.32261 12.6 1.8 12.6H11.7V15.3C11.7023 15.8564 11.8765 16.3986 12.1987 16.8522C12.5209 17.3059 12.9754 17.6489 13.5 17.8344V43.2C12.7839 43.2 12.0972 43.4845 11.5908 43.9908C11.0845 44.4972 10.8 45.1839 10.8 45.9V46.9656C10.2754 47.1511 9.82088 47.4941 9.49868 47.9478C9.17648 48.4014 9.00231 48.9436 9 49.5V52.2C9 52.6774 9.18964 53.1352 9.52721 53.4728C9.86477 53.8104 10.3226 54 10.8 54H23.4C23.8774 54 24.3352 53.8104 24.6728 53.4728C25.0104 53.1352 25.2 52.6774 25.2 52.2V49.5C25.1977 48.9436 25.0235 48.4014 24.7013 47.9478C24.3791 47.4941 23.9246 47.1511 23.4 46.9656V45.9C23.4 45.1839 23.1155 44.4972 22.6092 43.9908C22.1028 43.4845 21.4161 43.2 20.7 43.2V18C21.6548 18 22.5705 17.6207 23.2456 16.9456C23.9207 16.2705 24.3 15.3548 24.3 14.4V12.6H45V16.2H44.1C43.6226 16.2 43.1648 16.3896 42.8272 16.7272C42.4896 17.0648 42.3 17.5226 42.3 18V21.6C42.3 22.0774 42.4896 22.5352 42.8272 22.8728C43.1648 23.2104 43.6226 23.4 44.1 23.4H47.7C48.1774 23.4 48.6352 23.2104 48.9728 22.8728C49.3104 22.5352 49.5 22.0774 49.5 21.6V18C49.5 17.5226 49.3104 17.0648 48.9728 16.7272C48.6352 16.3896 48.1774 16.2 47.7 16.2H46.8V12.6H52.2C52.6774 12.6 53.1352 12.4104 53.4728 12.0728C53.8104 11.7352 54 11.2774 54 10.8V9C54 8.52261 53.8104 8.06477 53.4728 7.72721C53.1352 7.38964 52.6774 7.2 52.2 7.2ZM47.7 21.6H44.1V18H47.7V21.6ZM18.9 7.2H20.7C21.1774 7.2 21.6352 7.38964 21.9728 7.72721C22.3104 8.06477 22.5 8.52261 22.5 9V11.7H19.8C19.5613 11.7 19.3324 11.6052 19.1636 11.4364C18.9948 11.2676 18.9 11.0387 18.9 10.8V7.2ZM20.7 5.4V2.9259L39.627 7.2H23.7996C23.4861 6.65459 23.0347 6.20119 22.4906 5.88526C21.9466 5.56933 21.3291 5.40199 20.7 5.4ZM15.3 1.8H18.9V5.4H15.3V1.8ZM13.5 3.3066V5.5656C13.1236 5.70006 12.7817 5.91642 12.4991 6.19906C12.2164 6.48171 12.0001 6.82358 11.8656 7.2H6.2703L13.5 3.3066ZM1.8 10.8V9H11.7V10.8H1.8ZM10.8 52.2V49.5C10.8 49.2613 10.8948 49.0324 11.0636 48.8636C11.2324 48.6948 11.4613 48.6 11.7 48.6H22.5C22.7387 48.6 22.9676 48.6948 23.1364 48.8636C23.3052 49.0324 23.4 49.2613 23.4 49.5V52.2H10.8ZM21.6 45.9V46.8H12.6V45.9C12.6 45.6613 12.6948 45.4324 12.8636 45.2636C13.0324 45.0948 13.2613 45 13.5 45H20.7C20.9387 45 21.1676 45.0948 21.3364 45.2636C21.5052 45.4324 21.6 45.6613 21.6 45.9ZM18.9 43.2H15.3V18H18.9V43.2ZM20.7 16.2H14.4C14.1613 16.2 13.9324 16.1052 13.7636 15.9364C13.5948 15.7676 13.5 15.5387 13.5 15.3V8.1C13.5 7.8613 13.5948 7.63239 13.7636 7.4636C13.9324 7.29482 14.1613 7.2 14.4 7.2H17.1V10.8C17.1 11.5161 17.3845 12.2028 17.8908 12.7092C18.3972 13.2155 19.0839 13.5 19.8 13.5H22.5V14.4C22.5 14.8774 22.3104 15.3352 21.9728 15.6728C21.6352 16.0104 21.1774 16.2 20.7 16.2ZM52.2 10.8H24.3V9H52.2V10.8Z" fill="#FE5E14"/>
<path d="M52.2 24.3H50.4C49.9226 24.3 49.4648 24.4896 49.1272 24.8272C48.7896 25.1648 48.6 25.6226 48.6 26.1V27H43.2V26.1C43.2 25.6226 43.0104 25.1648 42.6728 24.8272C42.3352 24.4896 41.8774 24.3 41.4 24.3H39.6C39.1226 24.3 38.6648 24.4896 38.3272 24.8272C37.9896 25.1648 37.8 25.6226 37.8 26.1V34.2H32.4V33.3C32.4 32.8226 32.2104 32.3648 31.8728 32.0272C31.5352 31.6896 31.0774 31.5 30.6 31.5H28.8C28.3226 31.5 27.8648 31.6896 27.5272 32.0272C27.1896 32.3648 27 32.8226 27 33.3V52.2C27 52.6774 27.1896 53.1352 27.5272 53.4728C27.8648 53.8104 28.3226 54 28.8 54H52.2C52.6774 54 53.1352 53.8104 53.4728 53.4728C53.8104 53.1352 54 52.6774 54 52.2V26.1C54 25.6226 53.8104 25.1648 53.4728 24.8272C53.1352 24.4896 52.6774 24.3 52.2 24.3ZM52.2 52.2H28.8V33.3H30.6V35.1C30.6 35.3387 30.6948 35.5676 30.8636 35.7364C31.0324 35.9052 31.2613 36 31.5 36H38.7C38.9387 36 39.1676 35.9052 39.3364 35.7364C39.5052 35.5676 39.6 35.3387 39.6 35.1V26.1H41.4V27.9C41.4 28.1387 41.4948 28.3676 41.6636 28.5364C41.8324 28.7052 42.0613 28.8 42.3 28.8H49.5C49.7387 28.8 49.9676 28.7052 50.1364 28.5364C50.3052 28.3676 50.4 28.1387 50.4 27.9V26.1H52.2V52.2Z" fill="#FE5E14"/>
<path d="M37.8 37.8H32.4C31.9226 37.8 31.4648 37.9896 31.1272 38.3272C30.7896 38.6648 30.6 39.1226 30.6 39.6V41.4C30.6 41.8774 30.7896 42.3352 31.1272 42.6728C31.4648 43.0104 31.9226 43.2 32.4 43.2H37.8C38.2774 43.2 38.7352 43.0104 39.0728 42.6728C39.4104 42.3352 39.6 41.8774 39.6 41.4V39.6C39.6 39.1226 39.4104 38.6648 39.0728 38.3272C38.7352 37.9896 38.2774 37.8 37.8 37.8ZM32.4 41.4V39.6H37.8V41.4H32.4Z" fill="#FE5E14"/>
<path d="M37.8 45H32.4C31.9226 45 31.4648 45.1896 31.1272 45.5272C30.7896 45.8648 30.6 46.3226 30.6 46.8V48.6C30.6 49.0774 30.7896 49.5352 31.1272 49.8728C31.4648 50.2104 31.9226 50.4 32.4 50.4H37.8C38.2774 50.4 38.7352 50.2104 39.0728 49.8728C39.4104 49.5352 39.6 49.0774 39.6 48.6V46.8C39.6 46.3226 39.4104 45.8648 39.0728 45.5272C38.7352 45.1896 38.2774 45 37.8 45ZM32.4 48.6V46.8H37.8V48.6H32.4Z" fill="#FE5E14"/>
<path d="M48.6 37.8H43.2C42.7226 37.8 42.2648 37.9896 41.9272 38.3272C41.5896 38.6648 41.4 39.1226 41.4 39.6V41.4C41.4 41.8774 41.5896 42.3352 41.9272 42.6728C42.2648 43.0104 42.7226 43.2 43.2 43.2H48.6C49.0774 43.2 49.5352 43.0104 49.8728 42.6728C50.2104 42.3352 50.4 41.8774 50.4 41.4V39.6C50.4 39.1226 50.2104 38.6648 49.8728 38.3272C49.5352 37.9896 49.0774 37.8 48.6 37.8ZM43.2 41.4V39.6H48.6V41.4H43.2Z" fill="#FE5E14"/>
<path d="M48.6 30.6H43.2C42.7226 30.6 42.2648 30.7896 41.9272 31.1272C41.5896 31.4648 41.4 31.9226 41.4 32.4V34.2C41.4 34.6774 41.5896 35.1352 41.9272 35.4728C42.2648 35.8104 42.7226 36 43.2 36H48.6C49.0774 36 49.5352 35.8104 49.8728 35.4728C50.2104 35.1352 50.4 34.6774 50.4 34.2V32.4C50.4 31.9226 50.2104 31.4648 49.8728 31.1272C49.5352 30.7896 49.0774 30.6 48.6 30.6ZM43.2 34.2V32.4H48.6V34.2H43.2Z" fill="#FE5E14"/>
<path d="M48.6 45H43.2C42.7226 45 42.2648 45.1896 41.9272 45.5272C41.5896 45.8648 41.4 46.3226 41.4 46.8V48.6C41.4 49.0774 41.5896 49.5352 41.9272 49.8728C42.2648 50.2104 42.7226 50.4 43.2 50.4H48.6C49.0774 50.4 49.5352 50.2104 49.8728 49.8728C50.2104 49.5352 50.4 49.0774 50.4 48.6V46.8C50.4 46.3226 50.2104 45.8648 49.8728 45.5272C49.5352 45.1896 49.0774 45 48.6 45ZM43.2 48.6V46.8H48.6V48.6H43.2Z" fill="#FE5E14"/>
</svg>
