<svg width="82" height="82" viewBox="0 0 82 82" fill="none" xmlns="http://www.w3.org/2000/svg">
<path fill-rule="evenodd" clip-rule="evenodd" d="M2.83044 79.8635H35.0732V70.4009C35.0732 65.3596 31.1103 61.2281 26.1357 60.9552C25.6106 64.4478 22.5892 67.1348 18.9516 67.1348C15.3141 67.1348 12.2929 64.4479 11.7674 60.9552C6.79323 61.2281 2.83032 65.3596 2.83032 70.4009L2.83044 79.8635ZM36.1428 82.0026H1.76101C1.17071 82.0026 0.691406 81.5235 0.691406 80.9331L0.691481 70.4008C0.691481 64.0041 5.89619 58.8011 12.2931 58.8011H12.7573C13.3481 58.8011 13.8267 59.2803 13.8267 59.8708C13.8269 62.6968 16.1256 64.9957 18.9517 64.9957C21.7779 64.9956 24.0766 62.6969 24.0766 59.8708C24.077 59.2802 24.5556 58.8011 25.1462 58.8011H25.6123C32.0076 58.8011 37.212 64.0041 37.212 70.4009L37.2123 80.9331C37.2123 81.5235 36.7329 82.0026 36.1428 82.0026Z" fill="#FF7029"/>
<path fill-rule="evenodd" clip-rule="evenodd" d="M12.7571 60.939C12.1668 60.939 11.6875 60.46 11.6875 59.8695L11.6876 55.3963C11.6876 54.804 12.1667 54.3268 12.757 54.3268C13.3479 54.3268 13.8266 54.804 13.8266 55.3963L13.8267 59.8694C13.8267 60.46 13.3476 60.939 12.7571 60.939Z" fill="#FF7029"/>
<path fill-rule="evenodd" clip-rule="evenodd" d="M25.1461 60.939C24.5553 60.939 24.0762 60.46 24.0762 59.8695L24.0765 55.3963C24.0765 54.804 24.5552 54.3268 25.1457 54.3268C25.7365 54.3268 26.2152 54.804 26.2152 55.3963L26.2156 59.8694C26.2156 60.46 25.7362 60.939 25.1461 60.939Z" fill="#FF7029"/>
<path fill-rule="evenodd" clip-rule="evenodd" d="M18.9515 59.2011C13.9938 59.2011 9.93628 55.4058 8.61423 49.5326C8.48456 48.9551 8.84627 48.3832 9.42375 48.2532C9.9995 48.1233 10.5713 48.4853 10.7013 49.0627C11.7951 53.9222 15.0333 57.0622 18.9513 57.0622C22.8696 57.0621 26.1076 53.9222 27.2013 49.0627C27.3316 48.4853 27.9032 48.1233 28.4806 48.2532C29.0566 48.3832 29.4183 48.9551 29.2884 49.5326C27.9666 55.4058 23.909 59.2012 18.9515 59.2011Z" fill="#FF7029"/>
<path fill-rule="evenodd" clip-rule="evenodd" d="M18.9525 32.4892C16.6518 32.4892 14.3492 33.1762 12.5554 34.5484C9.11473 37.1814 8.23644 41.7772 10.0635 47.3087C10.4128 45.8028 10.654 43.0417 10.6317 40.3028C10.628 39.8497 10.9084 39.445 11.3318 39.289C11.7552 39.133 12.2324 39.2612 12.5221 39.6084C13.3503 40.5998 15.9944 41.2925 18.9523 41.2925C21.9121 41.2924 24.5562 40.5999 25.3826 39.6084C25.6723 39.2611 26.1495 39.1349 26.5728 39.289C26.9984 39.4449 27.2784 39.8497 27.2747 40.3028C27.2528 43.0417 27.4939 45.801 27.843 47.3087C29.6685 41.7771 28.7918 37.1814 25.3492 34.5484C23.5558 33.1762 21.2548 32.4892 18.9525 32.4892ZM9.94487 50.4338C9.69799 50.4338 9.44892 50.38 9.2075 50.2667C8.96436 50.1534 8.77117 49.953 8.66903 49.7022C4.48397 39.4802 9.08308 34.5113 11.2556 32.8495C13.3633 31.2377 16.0964 30.3501 18.9523 30.3501C21.8102 30.3501 24.5432 31.2377 26.6489 32.8495C28.8216 34.5113 33.4209 39.4802 29.2355 49.7022C29.1337 49.9529 28.9422 50.1535 28.6971 50.2667C28.1531 50.5211 27.5588 50.4859 27.0686 50.1702C26.3816 49.7282 25.6351 48.7088 25.2934 44.503C25.2306 43.7268 25.1931 42.9711 25.169 42.3175C22.9633 43.3313 20.0144 43.4316 18.9523 43.4316C17.8921 43.4316 14.9432 43.3313 12.7356 42.3175C12.7136 42.971 12.6742 43.7269 12.6111 44.503C12.2695 48.7087 11.523 49.7282 10.836 50.1702C10.5633 50.3465 10.2566 50.4338 9.94487 50.4338Z" fill="#FF7029"/>
<path fill-rule="evenodd" clip-rule="evenodd" d="M8.2239 81.9988C7.6336 81.9988 7.1543 81.5197 7.1543 80.9293L7.15437 71.0377C7.15437 70.4473 7.63345 69.9683 8.2239 69.9683C8.81465 69.9682 9.29344 70.4473 9.29344 71.0378V80.9293C9.29344 81.5197 8.81436 81.9988 8.2239 81.9988Z" fill="#FF7029"/>
<path fill-rule="evenodd" clip-rule="evenodd" d="M29.6793 81.9988C29.0885 81.9988 28.6094 81.5197 28.6094 80.9293L28.6098 71.0377C28.6098 70.4473 29.0884 69.9683 29.6789 69.9683C30.2697 69.9682 30.7485 70.4473 30.7485 71.0378L30.7489 80.9293C30.7489 81.5197 30.2694 81.9988 29.6793 81.9988Z" fill="#FF7029"/>
<path fill-rule="evenodd" clip-rule="evenodd" d="M46.9265 79.8635H79.1686V70.4009C79.1686 65.3596 75.206 61.2281 70.2316 60.9552C69.7061 64.4478 66.6849 67.1348 63.0474 67.1348C59.41 67.1348 56.3887 64.4479 55.8633 60.9552C50.8887 61.2281 46.9262 65.3596 46.9262 70.4009L46.9265 79.8635ZM80.2382 82.0026H45.8569C45.2665 82.0026 44.7871 81.5235 44.7871 80.9331L44.7873 70.4008C44.7873 64.0041 49.9918 58.8011 56.3887 58.8011H56.8532C57.4435 58.8011 57.9225 59.2803 57.9225 59.8708C57.9227 62.6968 60.2213 64.9957 63.0474 64.9957C65.8736 64.9956 68.1723 62.6969 68.1723 59.8708C68.1723 59.2802 68.6514 58.8011 69.2418 58.8011H69.706C76.1033 58.8011 81.3077 64.0041 81.3077 70.4009V80.9331C81.3077 81.5235 80.8287 82.0026 80.2382 82.0026Z" fill="#FF7029"/>
<path fill-rule="evenodd" clip-rule="evenodd" d="M56.8549 60.939C56.2645 60.939 55.7852 60.46 55.7852 59.8695L55.7854 55.3963C55.7854 54.804 56.2642 54.3268 56.8547 54.3268C57.4452 54.3268 57.9242 54.804 57.9242 55.3963L57.9244 59.8694C57.9244 60.46 57.4451 60.939 56.8549 60.939Z" fill="#FF7029"/>
<path fill-rule="evenodd" clip-rule="evenodd" d="M69.2434 60.939C68.6531 60.939 68.1738 60.46 68.1738 59.8695L68.1739 55.3963C68.1739 54.804 68.6529 54.3268 69.2434 54.3268C69.8342 54.3268 70.3129 54.804 70.3129 55.3963L70.313 59.8694C70.313 60.46 69.8338 60.939 69.2434 60.939Z" fill="#FF7029"/>
<path fill-rule="evenodd" clip-rule="evenodd" d="M63.0495 59.2011C58.0919 59.2011 54.0341 55.4058 52.7119 49.5326C52.582 48.9551 52.9441 48.3832 53.5215 48.2532C54.0974 48.1233 54.6691 48.4853 54.799 49.0627C55.8931 53.9222 59.1311 57.0622 63.0491 57.0622C66.9671 57.0621 70.2054 53.9222 71.2991 49.0627C71.4291 48.4853 71.9991 48.1233 72.5785 48.2532C73.1542 48.3832 73.5162 48.9551 73.3862 49.5326C72.0641 55.4058 68.005 59.2012 63.0495 59.2011Z" fill="#FF7029"/>
<path fill-rule="evenodd" clip-rule="evenodd" d="M63.0483 32.4892C60.7458 32.4892 58.4449 33.1744 56.6512 34.5484C53.2106 37.1814 52.332 41.7772 54.1592 47.3087C54.5086 45.8028 54.7497 43.0417 54.7274 40.3028C54.7222 39.8497 55.004 39.445 55.4274 39.289C55.851 39.133 56.328 39.2612 56.6176 39.6084C57.4461 40.5998 60.0901 41.2925 63.0479 41.2925C66.0063 41.2924 68.6519 40.5999 69.4782 39.6084C69.768 39.2611 70.2451 39.1349 70.6685 39.289C71.092 39.4449 71.3741 39.8497 71.3704 40.3028C71.3482 43.0417 71.5895 45.8028 71.9385 47.3087C73.7638 41.7771 72.8856 37.1814 69.4448 34.5484C67.6511 33.1762 65.3486 32.4892 63.0483 32.4892ZM72.0559 50.4338C71.7438 50.4338 71.4391 50.3466 71.1643 50.1702C70.4775 49.7282 69.7308 48.7088 69.3891 44.503C69.326 43.7268 69.2888 42.9711 69.2647 42.3175C67.057 43.3313 64.1101 43.4316 63.048 43.4316C61.9858 43.4316 59.0391 43.3313 56.8312 42.3175C56.809 42.9711 56.77 43.7269 56.7068 44.503C56.3654 48.7088 55.6187 49.7282 54.9316 50.1702C54.4418 50.4857 53.8472 50.5211 53.3032 50.2668C53.0581 50.1534 52.8668 49.953 52.7647 49.7022C48.5797 39.4802 53.1788 34.5113 55.3513 32.8495C57.4591 31.2377 60.1903 30.3501 63.0479 30.3501C65.906 30.3501 68.639 31.2377 70.7447 32.8495C72.9174 34.5113 77.5166 39.4802 73.3312 49.7022C73.2294 49.9529 73.0378 50.1535 72.7927 50.2668C72.5535 50.38 72.3026 50.4338 72.0559 50.4338Z" fill="#FF7029"/>
<path fill-rule="evenodd" clip-rule="evenodd" d="M52.3216 81.9988C51.7313 81.9988 51.252 81.5197 51.252 80.9293L51.2521 71.0377C51.2521 70.4473 51.731 69.9683 52.3215 69.9683C52.9119 69.9682 53.391 70.4473 53.391 71.0378L53.3912 80.9293C53.3912 81.5197 52.9119 81.9988 52.3216 81.9988Z" fill="#FF7029"/>
<path fill-rule="evenodd" clip-rule="evenodd" d="M73.7748 81.9988C73.1844 81.9988 72.7051 81.5197 72.7051 80.9293L72.7052 71.0377C72.7052 70.4473 73.1842 69.9683 73.7746 69.9683C74.3651 69.9682 74.8441 70.4473 74.8441 71.0378L74.8443 80.9293C74.8443 81.5197 74.3651 81.9988 73.7748 81.9988Z" fill="#FF7029"/>
<path fill-rule="evenodd" clip-rule="evenodd" d="M40.999 36.7787C37.3618 36.7787 34.3403 34.0919 33.8148 30.5992C31.0539 30.7495 28.5246 32.0902 26.8163 34.3277C26.4583 34.7975 25.7858 34.8866 25.3178 34.5283C24.8484 34.1699 24.757 33.4995 25.1154 33.0298C27.3401 30.1163 30.7027 28.4452 34.3403 28.4452H34.8048C35.3952 28.4452 35.874 28.9243 35.874 29.5148C35.8744 32.3408 38.1729 34.6396 40.999 34.6396C43.8254 34.6396 46.1239 32.3408 46.1239 29.5148C46.1241 28.9242 46.6029 28.4452 47.1934 28.4452H47.6578C51.2972 28.4452 54.658 30.1163 56.8825 33.0298C57.2411 33.4995 57.1498 34.1699 56.6819 34.5301C56.2125 34.8866 55.54 34.7975 55.1816 34.3277C53.4734 32.0901 50.9461 30.7495 48.1831 30.5992C47.6578 34.0919 44.6366 36.7787 40.999 36.7787ZM54.0973 51.6465H27.9008C27.3105 51.6465 26.8312 51.1675 26.8312 50.5771C26.8312 49.9866 27.3102 49.5075 27.9007 49.5075L54.0972 49.5074C54.6879 49.5074 55.1667 49.9866 55.1667 50.5771C55.1667 51.1674 54.6877 51.6466 54.0973 51.6465Z" fill="#FF7029"/>
<path fill-rule="evenodd" clip-rule="evenodd" d="M34.8062 30.5872C34.2155 30.5872 33.7363 30.1082 33.7363 29.5178L33.7367 25.0445C33.7367 24.4522 34.2154 23.975 34.8059 23.975C35.3966 23.9749 35.8755 24.4523 35.8755 25.0445L35.8758 29.5177C35.8758 30.1082 35.3964 30.5873 34.8062 30.5872Z" fill="#FF7029"/>
<path fill-rule="evenodd" clip-rule="evenodd" d="M47.1948 30.5849C46.6045 30.5849 46.125 30.1059 46.125 29.5154L46.1252 25.0403C46.1252 24.4498 46.6041 23.9708 47.1945 23.9708C47.7872 23.9708 48.2641 24.4499 48.2641 25.0404L48.2643 29.5153C48.2643 30.1058 47.7869 30.5849 47.1948 30.5849Z" fill="#FF7029"/>
<path fill-rule="evenodd" clip-rule="evenodd" d="M41.0002 28.8495C36.0428 28.8495 31.9851 25.0541 30.6631 19.1808C30.5333 18.6033 30.8952 18.0315 31.4707 17.9014C32.0487 17.7714 32.6201 18.1336 32.7502 18.711C33.8439 23.5704 37.0822 26.7104 41.0002 26.7104C44.9183 26.7104 48.1565 23.5705 49.2501 18.711C49.3803 18.1336 49.952 17.7715 50.5296 17.9014C51.1054 18.0313 51.4673 18.6033 51.3372 19.1808C50.0154 25.0541 45.9561 28.8495 41.0002 28.8495Z" fill="#FF7029"/>
<path fill-rule="evenodd" clip-rule="evenodd" d="M48.2522 8.87221C48.375 8.87221 48.499 8.89276 48.6197 8.93731C49.0451 9.09323 49.3254 9.49806 49.3216 9.95112C49.2996 12.6899 49.5408 15.4511 49.8898 16.957C51.7152 11.4255 50.8387 6.82975 47.396 4.19676C43.8089 1.45225 38.1898 1.45232 34.6024 4.19676C31.1619 6.82975 30.2851 11.4255 32.1104 16.957C32.4596 15.4492 32.701 12.6899 32.6786 9.95112C32.6752 9.49806 32.9553 9.09323 33.3787 8.93731C33.8024 8.78311 34.2793 8.90941 34.5689 9.25665C35.3971 10.2482 38.0413 10.9408 40.9992 10.9408C43.9572 10.9408 46.6032 10.2482 47.4313 9.25665C47.6376 9.00773 47.9401 8.87228 48.2522 8.87221ZM50.0069 20.0821C49.6953 20.0821 49.3884 19.9949 49.1155 19.8185C48.4285 19.3764 47.682 18.3571 47.3404 14.1513C47.2774 13.3752 47.2401 12.6194 47.2159 11.9658C45.0101 12.9796 42.0613 13.0799 40.9992 13.0799C39.9394 13.0799 36.9902 12.9796 34.7825 11.9658C34.7583 12.6194 34.7212 13.3752 34.6581 14.1513C34.3167 18.3571 33.5699 19.3765 32.8829 19.8185C32.3928 20.1341 31.7985 20.1694 31.2544 19.915C31.0116 19.8017 30.818 19.6012 30.716 19.3506C26.5307 9.12848 31.13 4.15954 33.3026 2.49769C35.4101 0.885854 38.1434 -0.0015869 40.9992 -0.0015869C43.857 -0.00173681 46.5902 0.886001 48.6958 2.49769C50.8683 4.15955 55.4678 9.12855 51.2824 19.3506C51.1804 19.6011 50.9891 19.8017 50.744 19.915C50.5045 20.0282 50.2538 20.0821 50.0069 20.0821Z" fill="#FF7029"/>
</svg>
