<svg width="98" height="98" viewBox="0 0 98 98" fill="none" xmlns="http://www.w3.org/2000/svg">
<path d="M59.7188 62.7812V57.9118C60.6123 57.5959 61.3863 57.0114 61.9346 56.2383C62.4828 55.4652 62.7786 54.5415 62.7813 53.5937V50.5312C62.7813 49.3129 62.2973 48.1444 61.4358 47.2829C60.5743 46.4214 59.4058 45.9375 58.1875 45.9375H44.6972L37.3166 42.9821C37.0847 42.8897 36.8337 42.8553 36.5855 42.8819C36.3373 42.9086 36.0994 42.9956 35.8925 43.1353C35.6847 43.2757 35.5146 43.4651 35.3971 43.6867C35.2796 43.9083 35.2184 44.1554 35.2188 44.4062V53.5937C35.2214 54.5415 35.5172 55.4652 36.0654 56.2383C36.6137 57.0114 37.3877 57.5959 38.2813 57.9118V62.7812C38.2813 65.624 39.4105 68.3504 41.4207 70.3605C43.4309 72.3707 46.1572 73.5 49 73.5C51.8428 73.5 54.5691 72.3707 56.5793 70.3605C58.5895 68.3504 59.7188 65.624 59.7188 62.7812ZM38.2813 53.5937V46.6725L43.8397 48.8928C44.0194 48.9664 44.2121 49.0028 44.4063 49H58.1875C58.5936 49 58.9831 49.1613 59.2703 49.4485C59.5574 49.7356 59.7188 50.1251 59.7188 50.5312V53.5937C59.7188 53.9998 59.5574 54.3893 59.2703 54.6765C58.9831 54.9636 58.5936 55.125 58.1875 55.125H39.8125C39.4064 55.125 39.0169 54.9636 38.7297 54.6765C38.4426 54.3893 38.2813 53.9998 38.2813 53.5937ZM49 70.4375C46.9694 70.4375 45.022 69.6308 43.5862 68.195C42.1504 66.7592 41.3438 64.8118 41.3438 62.7812V58.1875H56.6563V62.7812C56.6563 64.8118 55.8496 66.7592 54.4138 68.195C52.978 69.6308 51.0306 70.4375 49 70.4375Z" fill="#FF7029"/>
<path d="M27.5625 81.1562V93.4062C27.5625 93.8124 27.7238 94.2018 28.011 94.489C28.2982 94.7762 28.6876 94.9375 29.0938 94.9375H68.9062C69.3124 94.9375 69.7018 94.7762 69.989 94.489C70.2762 94.2018 70.4375 93.8124 70.4375 93.4062V81.1562C70.4375 79.1257 69.6309 77.1783 68.195 75.7425C66.7592 74.3066 64.8118 73.5 62.7812 73.5H35.2188C33.1882 73.5 31.2408 74.3066 29.805 75.7425C28.3691 77.1783 27.5625 79.1257 27.5625 81.1562ZM53.3794 76.5625L49 81.83L44.6206 76.5625H53.3794ZM30.625 81.1562C30.625 79.9379 31.109 78.7695 31.9705 77.908C32.832 77.0465 34.0004 76.5625 35.2188 76.5625H40.6241L47.8209 85.1987C47.9646 85.3721 48.1448 85.5117 48.3486 85.6075C48.5524 85.7033 48.7748 85.753 49 85.753C49.2252 85.753 49.4476 85.7033 49.6514 85.6075C49.8552 85.5117 50.0354 85.3721 50.1791 85.1987L57.3759 76.5625H62.7812C63.9996 76.5625 65.168 77.0465 66.0295 77.908C66.891 78.7695 67.375 79.9379 67.375 81.1562V91.875H59.7188V85.75H56.6562V91.875H41.3438V85.75H38.2812V91.875H30.625V81.1562Z" fill="#FF7029"/>
<path d="M47.4688 87.2812H50.5312V90.3438H47.4688V87.2812Z" fill="#FF7029"/>
<path d="M32.2324 15.8025C32.1473 16.0657 32.1352 16.3471 32.1972 16.6167C32.2592 16.8864 32.3931 17.1341 32.5846 17.3337L39.7049 24.6225L38.0206 34.9431C37.9865 35.2223 38.0299 35.5054 38.1461 35.7615C38.2622 36.0176 38.4467 36.2368 38.6792 36.3949C38.9118 36.5531 39.1834 36.6442 39.4642 36.6582C39.7451 36.6722 40.0244 36.6086 40.2715 36.4744L48.9996 31.7428L57.7278 36.5662C57.9535 36.6881 58.2062 36.7513 58.4628 36.75C58.7802 36.7524 59.0906 36.6561 59.3509 36.4744C59.5912 36.3061 59.7782 36.0723 59.8895 35.8009C60.0008 35.5294 60.0317 35.2317 59.9787 34.9431L58.2943 24.6225L65.4146 17.3337C65.6062 17.1341 65.7401 16.8864 65.8021 16.6167C65.8641 16.3471 65.8519 16.0657 65.7668 15.8025C65.6769 15.5353 65.5149 15.2981 65.2988 15.1171C65.0826 14.936 64.8207 14.8182 64.5418 14.7766L54.7724 13.2453L50.3931 3.90468C50.2713 3.63734 50.0751 3.41069 49.8281 3.25175C49.581 3.09281 49.2934 3.0083 48.9996 3.0083C48.7059 3.0083 48.4183 3.09281 48.1712 3.25175C47.9241 3.41069 47.728 3.63734 47.6062 3.90468L43.2268 13.2453L33.4574 14.7766C33.1786 14.8182 32.9167 14.936 32.7005 15.1171C32.4844 15.2981 32.3224 15.5353 32.2324 15.8025ZM44.4824 16.1853C44.7293 16.1469 44.963 16.0487 45.1632 15.8992C45.3634 15.7498 45.5239 15.5536 45.6309 15.3278L48.9996 8.19218L52.3531 15.3125C52.46 15.5383 52.6206 15.7344 52.8208 15.8839C53.0209 16.0334 53.2547 16.1316 53.5015 16.17L61.1578 17.3337L55.584 23.0606C55.4191 23.2308 55.2959 23.4369 55.2242 23.6628C55.1524 23.8886 55.1341 24.128 55.1706 24.3622L56.4721 32.34L49.7653 28.6344C49.5325 28.5 49.2684 28.4292 48.9996 28.4292C48.7308 28.4292 48.4668 28.5 48.234 28.6344L41.5271 32.34L42.8746 24.3775C42.9111 24.1433 42.8928 23.9039 42.821 23.6781C42.7493 23.4522 42.6261 23.2461 42.4612 23.0759L36.8874 17.3491L44.4824 16.1853Z" fill="#FF7029"/>
<path d="M67.4512 31.8346C67.3661 32.0979 67.3539 32.3793 67.4159 32.6489C67.4779 32.9185 67.6118 33.1663 67.8034 33.3659L73.3924 39.0928L72.0756 47.1931C72.0415 47.4722 72.0849 47.7554 72.2011 48.0115C72.3173 48.2676 72.5017 48.4867 72.7342 48.6449C72.9668 48.8031 73.2383 48.8942 73.5192 48.9082C73.8001 48.9222 74.0794 48.8586 74.3265 48.7243L81.1559 45.034L87.9853 48.8162C88.211 48.9381 88.4637 49.0012 88.7203 49C89.0377 49.0024 89.3481 48.9061 89.6084 48.7243C89.8487 48.5561 90.0357 48.3223 90.147 48.0508C90.2583 47.7794 90.2892 47.4816 90.2362 47.1931L88.9193 39.0928L94.5084 33.3659C94.6999 33.1663 94.8338 32.9185 94.8959 32.6489C94.9579 32.3793 94.9457 32.0979 94.8606 31.8346C94.7706 31.5674 94.6087 31.3302 94.3925 31.1492C94.1764 30.9682 93.9144 30.8504 93.6356 30.8087L85.9793 29.645L82.5493 22.3256C82.4275 22.0582 82.2314 21.8316 81.9843 21.6726C81.7372 21.5137 81.4497 21.4292 81.1559 21.4292C80.8621 21.4292 80.5745 21.5137 80.3275 21.6726C80.0804 21.8316 79.8843 22.0582 79.7624 22.3256L76.3324 29.645L68.6762 30.8087C68.3973 30.8504 68.1354 30.9682 67.9193 31.1492C67.7031 31.3302 67.5411 31.5674 67.4512 31.8346ZM77.6034 32.539C77.8502 32.5006 78.0839 32.4024 78.2841 32.2529C78.4843 32.1035 78.6449 31.9073 78.7518 31.6815L81.1559 26.5671L83.5599 31.6815C83.6669 31.9073 83.8275 32.1035 84.0276 32.2529C84.2278 32.4024 84.4615 32.5006 84.7084 32.539L90.2362 33.3965L86.1784 37.5309C86.0112 37.7027 85.8867 37.9114 85.8149 38.1401C85.7431 38.3688 85.726 38.6112 85.7649 38.8478L86.7143 44.6053L81.8909 41.9409C81.6581 41.8065 81.3941 41.7357 81.1253 41.7357C80.8565 41.7357 80.5924 41.8065 80.3596 41.9409L75.5362 44.6053L76.5621 38.8478C76.6011 38.6112 76.584 38.3688 76.5122 38.1401C76.4404 37.9114 76.3159 37.7027 76.1487 37.5309L72.0909 33.3965L77.6034 32.539Z" fill="#FF7029"/>
<path d="M4.3637 30.8087C4.08485 30.8504 3.82292 30.9682 3.60677 31.1492C3.39062 31.3302 3.22864 31.5674 3.1387 31.8346C3.0536 32.0979 3.0414 32.3793 3.10342 32.6489C3.16543 32.9185 3.29933 33.1663 3.49088 33.3659L9.07995 39.0928L7.76307 47.1931C7.72896 47.4722 7.77237 47.7554 7.88856 48.0115C8.00475 48.2676 8.18922 48.4867 8.42174 48.6449C8.65426 48.8031 8.92585 48.8942 9.20672 48.9082C9.48759 48.9222 9.7669 48.8586 10.014 48.7243L16.8434 45.034L23.6728 48.8162C23.8985 48.9381 24.1512 49.0012 24.4078 49C24.7252 49.0024 25.0356 48.9061 25.2959 48.7243C25.5362 48.5561 25.7232 48.3223 25.8345 48.0508C25.9458 47.7794 25.9767 47.4816 25.9237 47.1931L24.6068 39.0928L30.1959 33.3659C30.3874 33.1663 30.5213 32.9185 30.5834 32.6489C30.6454 32.3793 30.6332 32.0979 30.5481 31.8346C30.4581 31.5674 30.2962 31.3302 30.08 31.1492C29.8639 30.9682 29.6019 30.8504 29.3231 30.8087L21.6668 29.645L18.2368 22.3256C18.115 22.0582 17.9189 21.8316 17.6718 21.6726C17.4247 21.5137 17.1372 21.4292 16.8434 21.4292C16.5496 21.4292 16.262 21.5137 16.015 21.6726C15.7679 21.8316 15.5717 22.0582 15.4499 22.3256L12.0199 29.645L4.3637 30.8087ZM14.4393 31.6815L16.8434 26.5671L19.2474 31.6815C19.3544 31.9073 19.515 32.1035 19.7151 32.2529C19.9153 32.4024 20.149 32.5006 20.3959 32.539L25.9237 33.3965L21.8659 37.5309C21.6987 37.7027 21.5742 37.9114 21.5024 38.1401C21.4306 38.3688 21.4135 38.6112 21.4524 38.8478L22.4018 44.6053L17.5784 41.9409C17.3456 41.8065 17.0815 41.7357 16.8128 41.7357C16.544 41.7357 16.2799 41.8065 16.0471 41.9409L11.2849 44.6053L12.2496 38.8478C12.2886 38.6112 12.2715 38.3688 12.1997 38.1401C12.1279 37.9114 12.0034 37.7027 11.8362 37.5309L7.77838 33.3965L13.3062 32.539C13.5503 32.4983 13.7809 32.399 13.9783 32.2497C14.1756 32.1003 14.3338 31.9054 14.4393 31.6815Z" fill="#FF7029"/>
<path d="M73.5 85.75H88.8125V88.8125H73.5V85.75Z" fill="#FF7029"/>
<path d="M91.875 85.75H94.9375V88.8125H91.875V85.75Z" fill="#FF7029"/>
<path d="M73.5 79.625H82.6875V82.6875H73.5V79.625Z" fill="#FF7029"/>
<path d="M85.75 79.625H88.8125V82.6875H85.75V79.625Z" fill="#FF7029"/>
<path d="M73.5 91.875H82.6875V94.9375H73.5V91.875Z" fill="#FF7029"/>
<path d="M85.75 91.875H88.8125V94.9375H85.75V91.875Z" fill="#FF7029"/>
<path d="M9.1875 85.75H24.5V88.8125H9.1875V85.75Z" fill="#FF7029"/>
<path d="M3.0625 85.75H6.125V88.8125H3.0625V85.75Z" fill="#FF7029"/>
<path d="M15.3125 91.875H24.5V94.9375H15.3125V91.875Z" fill="#FF7029"/>
<path d="M9.1875 91.875H12.25V94.9375H9.1875V91.875Z" fill="#FF7029"/>
<path d="M15.3125 79.625H24.5V82.6875H15.3125V79.625Z" fill="#FF7029"/>
<path d="M9.1875 79.625H12.25V82.6875H9.1875V79.625Z" fill="#FF7029"/>
</svg>
