<svg width="46" height="46" viewBox="0 0 46 46" fill="none" xmlns="http://www.w3.org/2000/svg">
<g clip-path="url(#clip0_2313_40)">
<path d="M28.25 17.75H17.75C16.5125 17.75 15.5 18.7625 15.5 20V26C15.5 27.2375 16.5125 28.25 17.75 28.25H28.25C29.4875 28.25 30.5 27.2375 30.5 26V20C30.5 18.7625 29.4875 17.75 28.25 17.75ZM29 26C29 26.4125 28.6625 26.75 28.25 26.75H17.75C17.3375 26.75 17 26.4125 17 26V20C17 19.5875 17.3375 19.25 17.75 19.25H28.25C28.6625 19.25 29 19.5875 29 20V26Z" fill="#FF5E14"/>
<path d="M19.25 22.25H23.75C24.1625 22.25 24.5 21.9125 24.5 21.5C24.5 21.0875 24.1625 20.75 23.75 20.75H19.25C18.8375 20.75 18.5 21.0875 18.5 21.5C18.5 21.9125 18.8375 22.25 19.25 22.25Z" fill="#FF5E14"/>
<path d="M26.75 23.75H19.25C18.8375 23.75 18.5 24.0875 18.5 24.5C18.5 24.9125 18.8375 25.25 19.25 25.25H26.75C27.1625 25.25 27.5 24.9125 27.5 24.5C27.5 24.0875 27.1625 23.75 26.75 23.75Z" fill="#FF5E14"/>
<path d="M28.2503 33.4999H17.7503C16.5128 33.4999 15.5003 34.5124 15.5003 35.7499V37.9999H9.12531C5.19531 37.9999 2.00031 34.8049 2.00031 30.8749C2.00031 26.9449 5.19531 23.7499 9.12531 23.7499H11.4428L10.4753 24.7174C10.1828 25.0099 10.1828 25.4824 10.4753 25.7749C10.6253 25.9249 10.8128 25.9924 11.0078 25.9924C11.2028 25.9924 11.3903 25.9174 11.5403 25.7749L13.7903 23.5249C14.0828 23.2324 14.0828 22.7599 13.7903 22.4674L11.5403 20.2174C11.2478 19.9249 10.7753 19.9249 10.4828 20.2174C10.1903 20.5099 10.1903 20.9824 10.4828 21.2749L11.4503 22.2424H9.13281C4.37781 22.2424 0.507812 26.1124 0.507812 30.8674C0.507812 35.6224 4.37781 39.4924 9.13281 39.4924H15.5078V41.7424C15.5078 42.9799 16.5203 43.9924 17.7578 43.9924H28.2578C29.4953 43.9924 30.5078 42.9799 30.5078 41.7424V35.7424C30.5078 34.5049 29.4953 33.4924 28.2578 33.4924L28.2503 33.4999ZM29.0003 41.7499C29.0003 42.1624 28.6628 42.4999 28.2503 42.4999H17.7503C17.3378 42.4999 17.0003 42.1624 17.0003 41.7499V35.7499C17.0003 35.3374 17.3378 34.9999 17.7503 34.9999H28.2503C28.6628 34.9999 29.0003 35.3374 29.0003 35.7499V41.7499Z" fill="#FF5E14"/>
<path d="M19.25 38H23.75C24.1625 38 24.5 37.6625 24.5 37.25C24.5 36.8375 24.1625 36.5 23.75 36.5H19.25C18.8375 36.5 18.5 36.8375 18.5 37.25C18.5 37.6625 18.8375 38 19.25 38Z" fill="#FF5E14"/>
<path d="M26.75 39.5H19.25C18.8375 39.5 18.5 39.8375 18.5 40.25C18.5 40.6625 18.8375 41 19.25 41H26.75C27.1625 41 27.5 40.6625 27.5 40.25C27.5 39.8375 27.1625 39.5 26.75 39.5Z" fill="#FF5E14"/>
<path d="M19.25 6.5H23.75C24.1625 6.5 24.5 6.1625 24.5 5.75C24.5 5.3375 24.1625 5 23.75 5H19.25C18.8375 5 18.5 5.3375 18.5 5.75C18.5 6.1625 18.8375 6.5 19.25 6.5Z" fill="#FF5E14"/>
<path d="M26.75 8H19.25C18.8375 8 18.5 8.3375 18.5 8.75C18.5 9.1625 18.8375 9.5 19.25 9.5H26.75C27.1625 9.5 27.5 9.1625 27.5 8.75C27.5 8.3375 27.1625 8 26.75 8Z" fill="#FF5E14"/>
<path d="M38.75 32C35.03 32 32 35.03 32 38.75C32 42.47 35.03 45.5 38.75 45.5C42.47 45.5 45.5 42.47 45.5 38.75C45.5 35.03 42.47 32 38.75 32ZM38.75 44C35.855 44 33.5 41.645 33.5 38.75C33.5 35.855 35.855 33.5 38.75 33.5C41.645 33.5 44 35.855 44 38.75C44 41.645 41.645 44 38.75 44Z" fill="#FF5E14"/>
<path d="M40.8427 36.3424L37.6252 39.5599L36.6577 38.5924C36.3652 38.2999 35.8927 38.2999 35.6002 38.5924C35.3077 38.8849 35.3077 39.3574 35.6002 39.6499L37.1002 41.1499C37.2502 41.2999 37.4377 41.3674 37.6327 41.3674C37.8277 41.3674 38.0152 41.2924 38.1652 41.1499L41.9152 37.3999C42.2077 37.1074 42.2077 36.6349 41.9152 36.3424C41.6227 36.0499 41.1502 36.0499 40.8577 36.3424H40.8427Z" fill="#FF5E14"/>
<path d="M0.552781 8.83965C0.447781 9.22965 0.500281 9.63465 0.702781 9.97965L1.45278 11.2771C1.65528 11.6221 1.97778 11.8696 2.36028 11.9746C2.75028 12.0796 3.15528 12.0271 3.50028 11.8246L3.94278 11.5696C4.17528 11.7271 4.41528 11.8696 4.67028 11.9896V12.4996C4.67028 13.3246 5.34528 13.9996 6.17028 13.9996H7.67028C8.49528 13.9996 9.17028 13.3246 9.17028 12.4996V11.9896C9.42528 11.8696 9.66528 11.7271 9.89778 11.5696L10.3403 11.8246C11.0528 12.2371 11.9753 11.9896 12.3878 11.2771L13.1378 9.97965C13.3403 9.63465 13.3928 9.22965 13.2878 8.83965C13.1828 8.44965 12.9353 8.12715 12.5903 7.93215L12.1478 7.67715C12.1628 7.53465 12.1628 7.39215 12.1628 7.25715C12.1628 7.12215 12.1628 6.97965 12.1478 6.83715L12.5903 6.58215C12.9353 6.37965 13.1828 6.05715 13.2878 5.67465C13.3928 5.28465 13.3403 4.88715 13.1378 4.53465L12.3878 3.23715C11.9753 2.51715 11.0528 2.27715 10.3403 2.68965L9.89778 2.94465C9.66528 2.78715 9.42528 2.64465 9.17028 2.52465V2.01465C9.17028 1.18965 8.49528 0.514648 7.67028 0.514648H6.17028C5.34528 0.514648 4.67028 1.18965 4.67028 2.01465V2.52465C4.41528 2.64465 4.16778 2.78715 3.94278 2.94465L3.50028 2.68965C3.15528 2.48715 2.75028 2.43465 2.36028 2.53965C1.97028 2.64465 1.64778 2.89215 1.45278 3.23715L0.702781 4.53465C0.500281 4.87965 0.447781 5.28465 0.552781 5.67465C0.657781 6.06465 0.905281 6.38715 1.25028 6.58215L1.69278 6.83715C1.67778 6.97965 1.67778 7.12215 1.67778 7.25715C1.67778 7.39215 1.67778 7.53465 1.69278 7.67715L1.25028 7.93215C0.905281 8.13465 0.657781 8.45715 0.552781 8.83965ZM3.23778 7.93965C3.19278 7.69965 3.17028 7.47465 3.17028 7.25715C3.17028 7.03965 3.19278 6.81465 3.23778 6.57465C3.29778 6.25965 3.14778 5.94465 2.87778 5.78715L2.00028 5.28465L2.75028 3.98715L3.62778 4.48965C3.90528 4.64715 4.25028 4.61715 4.49028 4.40715C4.84278 4.10715 5.24028 3.88215 5.67528 3.72465C5.97528 3.61965 6.17778 3.33465 6.17778 3.01965V2.00715H7.67778V3.01965C7.67778 3.33465 7.88028 3.61965 8.18028 3.72465C8.61528 3.88215 9.01278 4.10715 9.36528 4.40715C9.60528 4.60965 9.95028 4.64715 10.2278 4.48965L11.1053 3.98715L11.8553 5.28465L10.9778 5.78715C10.7003 5.94465 10.5578 6.25965 10.6178 6.57465C10.6628 6.81465 10.6853 7.03965 10.6853 7.25715C10.6853 7.47465 10.6628 7.69965 10.6178 7.93965C10.5578 8.25465 10.7078 8.56965 10.9778 8.72715L11.8553 9.22965L11.1053 10.5271L10.2278 10.0246C9.95028 9.86715 9.60528 9.89715 9.36528 10.1071C9.01278 10.4071 8.61528 10.6321 8.18028 10.7896C7.88028 10.8946 7.67778 11.1796 7.67778 11.4946V12.5071H6.17778V11.4946C6.17778 11.1796 5.97528 10.8946 5.67528 10.7896C5.24028 10.6321 4.84278 10.4071 4.49028 10.1071C4.34778 9.98715 4.17528 9.92715 4.00278 9.92715C3.87528 9.92715 3.74778 9.95715 3.62778 10.0246L2.75028 10.5271L2.00028 9.22965L2.87778 8.72715C3.15528 8.56965 3.29778 8.25465 3.23778 7.93965Z" fill="#FF5E14"/>
<path d="M6.91992 9.5C8.15742 9.5 9.16992 8.4875 9.16992 7.25C9.16992 6.0125 8.15742 5 6.91992 5C5.68242 5 4.66992 6.0125 4.66992 7.25C4.66992 8.4875 5.68242 9.5 6.91992 9.5ZM6.91992 6.5C7.33242 6.5 7.66992 6.8375 7.66992 7.25C7.66992 7.6625 7.33242 8 6.91992 8C6.50742 8 6.16992 7.6625 6.16992 7.25C6.16992 6.8375 6.50742 6.5 6.91992 6.5Z" fill="#FF5E14"/>
<path d="M36.8753 8.00031C40.8053 8.00031 44.0003 11.1953 44.0003 15.1253C44.0003 19.0553 40.8053 22.2503 36.8753 22.2503H34.5578L35.5253 21.2828C35.8178 20.9903 35.8178 20.5178 35.5253 20.2253C35.2328 19.9328 34.7603 19.9328 34.4678 20.2253L32.2178 22.4753C31.9253 22.7678 31.9253 23.2403 32.2178 23.5328L34.4678 25.7828C34.6178 25.9328 34.8053 26.0003 35.0003 26.0003C35.1953 26.0003 35.3828 25.9253 35.5328 25.7828C35.8253 25.4903 35.8253 25.0178 35.5328 24.7253L34.5653 23.7578H36.8828C41.6378 23.7578 45.5078 19.8878 45.5078 15.1328C45.5078 10.3778 41.6378 6.50781 36.8828 6.50781H30.5078V4.25781C30.5078 3.02031 29.4953 2.00781 28.2578 2.00781H17.7578C16.5203 2.00781 15.5078 3.02031 15.5078 4.25781V10.2578C15.5078 11.4953 16.5203 12.5078 17.7578 12.5078H28.2578C29.4953 12.5078 30.5078 11.4953 30.5078 10.2578V8.00781H36.8828L36.8753 8.00031ZM29.0003 10.2503C29.0003 10.6628 28.6628 11.0003 28.2503 11.0003H17.7503C17.3378 11.0003 17.0003 10.6628 17.0003 10.2503V4.25031C17.0003 3.83781 17.3378 3.50031 17.7503 3.50031H28.2503C28.6628 3.50031 29.0003 3.83781 29.0003 4.25031V10.2503Z" fill="#FF5E14"/>
</g>
<defs>
<clipPath id="clip0_2313_40">
<rect width="46" height="46" fill="white"/>
</clipPath>
</defs>
</svg>
