<svg width="65" height="65" viewBox="0 0 65 65" fill="none" xmlns="http://www.w3.org/2000/svg">
<path d="M60.477 48L63.928 39.372L62.071 38.629L58.323 48H58V36H56V20H52V16H50V20H48V14H46V20H44V16H42V20H38V32H34V37.129C31.643 34.235 28.426 32.127 24.775 31.161L24.321 29.8C25.779 29.397 26.977 28.366 27.576 27H28C30.206 27 32 25.206 32 23V18C33.103 18 34 17.103 34 16V14C34 12.897 33.103 12 32 12H31.826C30.869 6.24 25.943 2 20 2C14.057 2 9.131 6.24 8.174 12H8C6.897 12 6 12.897 6 14V16C6 17.103 6.897 18 8 18V23C8 25.206 9.794 27 12 27H12.424C13.024 28.366 14.221 29.398 15.679 29.8L15.225 31.161C7.41 33.222 2 40.208 2 48.342V49C2 53.264 4.444 56.961 8 58.786V64H38V56H41.101C41.566 58.279 43.585 60 46 60C48.415 60 50.434 58.279 50.899 56H55.918C59.933 56 63.327 53.125 63.987 49.165L64.181 48H60.477ZM48 48V38H56V48H48ZM40 22H54V36H48V32H40V22ZM46 34V48H36V34H46ZM34 40.676V48H33.677L29.928 38.628L28.071 39.371L31.523 48H27.82L28.014 49.165C28.279 50.755 28.99 52.166 30 53.29V62H25V60C26.654 60 28 58.654 28 57C28 55.346 26.654 54 25 54V33.327C28.813 34.539 32.038 37.155 34 40.676ZM22.279 30L22.896 31.852L20 36.197L17.103 31.852L17.721 30H22.279ZM23 40.149L21.238 37.946L23 35.303V40.149ZM17 40.149V35.303L18.762 37.946L17 40.149ZM17 43.35L20 39.6L23 43.35V52.176C22.686 52.065 22.351 52 22 52H20.829C20.028 52 19.274 52.312 18.707 52.879L17.681 53.905L17 53.753V43.35ZM19 55.414L20.121 54.293C20.31 54.104 20.562 54 20.829 54H22C22.551 54 23 54.449 23 55V56H25C25.551 56 26 56.449 26 57C26 57.551 25.551 58 25 58H19V55.414ZM23 60V62H17V60H23ZM28 25V21C29.103 21 30 21.897 30 23C30 24.103 29.103 25 28 25ZM30 19.556C29.409 19.212 28.732 19 28 19V18H30V19.556ZM29.796 12H23V4.458C26.435 5.523 29.07 8.372 29.796 12ZM21 4.05V12H19V4.05C19.329 4.018 19.662 4 20 4C20.338 4 20.671 4.018 21 4.05ZM17 4.458V12H10.204C10.93 8.372 13.565 5.523 17 4.458ZM7.999 14H32V16H8L7.999 14ZM12 18V19C11.268 19 10.591 19.212 10 19.556V18H12ZM10 23C10 21.897 10.897 21 12 21V25C10.897 25 10 24.103 10 23ZM14 25V18H26V25C26 26.654 24.654 28 23 28H17C15.346 28 14 26.654 14 25ZM4 49V48.342C4 41.382 8.464 35.374 15 33.313V53.31L13.915 53.069C11.61 52.556 10 50.549 10 48.187V44H8V48.187C8 51.493 10.254 54.303 13.481 55.02L17 55.802V58H13C8.038 58 4 53.962 4 49ZM10 59.574C10.955 59.845 11.959 60 13 60H15V62H10V59.574ZM32 62V54.914C33.183 55.594 34.55 55.982 36 55.997V62H32ZM46 58C44.346 58 43 56.654 43 55C43 54.449 43.449 54 44 54H48C48.551 54 49 54.449 49 55C49 56.654 47.654 58 46 58ZM55.917 54H50.815C50.401 52.839 49.301 52 47.999 52H43.999C42.697 52 41.597 52.839 41.183 54H36.081C33.457 54 31.185 52.375 30.296 50H61.7C60.813 52.375 58.542 54 55.917 54Z" fill="#FF5E14"/>
<path d="M50 24H52V26H50V24Z" fill="#FF5E14"/>
<path d="M46 24H48V26H46V24Z" fill="#FF5E14"/>
<path d="M42 24H44V26H42V24Z" fill="#FF5E14"/>
<path d="M50 28H52V30H50V28Z" fill="#FF5E14"/>
<path d="M42 28H44V30H42V28Z" fill="#FF5E14"/>
<path d="M46 28H48V30H46V28Z" fill="#FF5E14"/>
<path d="M50 32H52V34H50V32Z" fill="#FF5E14"/>
<path d="M38 36H40V46H38V36Z" fill="#FF5E14"/>
<path d="M42 36H44V46H42V36Z" fill="#FF5E14"/>
<path d="M50 40H54V42H50V40Z" fill="#FF5E14"/>
<path d="M50 44H54V46H50V44Z" fill="#FF5E14"/>
</svg>
