<svg width="91" height="91" viewBox="0 0 91 91" fill="none" xmlns="http://www.w3.org/2000/svg">
<path opacity="0.4" d="M89.2969 47.1094C90.1758 50.9766 90.5273 55.0195 90 58.8867C89.8242 61.875 87.5391 64.1602 84.5508 64.6875C81.7383 65.0391 78.9258 63.457 77.6953 60.8203C76.1133 56.9531 73.3008 53.9648 69.6094 51.8555C69.9609 55.3711 69.7852 59.0625 69.082 62.5781C66.6211 75.5859 56.25 86.3086 43.418 89.2969C40.6055 90 37.793 90.1758 34.9805 90.1758C33.9258 90.1758 32.6953 90.1758 31.6406 90C28.6523 89.8242 26.3672 87.5391 25.8398 84.5508C25.4883 81.7383 26.8945 78.9258 29.707 77.6953C33.3984 76.1133 36.5625 73.3008 38.6719 69.6094C34.9805 69.9609 31.4648 69.7852 27.9492 69.082C14.9414 66.6211 4.21875 56.25 1.23047 43.418C0.351562 39.5508 0 35.5078 0.351562 31.6406C0.703125 28.6523 2.98828 26.1914 5.80078 25.8398C8.78906 25.3125 11.6016 26.8945 12.832 29.707C14.4141 33.3984 17.2266 36.5625 20.918 38.6719C20.5664 34.9805 20.5664 31.4648 21.4453 27.9492C23.9062 14.9414 34.2773 4.21875 47.1094 1.23047C50.9766 0.351562 55.0195 0 58.8867 0.351562C61.875 0.703125 64.1602 2.98828 64.6875 5.80078C65.2148 8.78906 63.6328 11.6016 60.8203 12.832C56.9531 14.4141 53.9648 17.2266 51.8555 20.918C55.3711 20.3906 59.0625 20.5664 62.5781 21.4453C75.5859 23.9062 86.3086 34.2773 89.2969 47.1094ZM64.5117 41.3086C71.1914 42.3633 77.168 45.7031 81.3867 50.9766C79.6289 39.9023 70.8398 31.6406 60.9961 29.707C56.25 28.6523 51.3281 29.0039 46.9336 30.5859C45.5273 30.9375 43.9453 30.7617 42.8906 29.707C41.6602 28.8281 41.1328 27.4219 41.3086 25.8398C42.3633 19.3359 45.7031 13.3594 50.9766 9.14062C39.9023 10.8984 31.6406 19.6875 29.707 29.5312C28.6523 34.2773 29.0039 39.0234 30.5859 43.5938C30.9375 45 30.7617 46.582 29.707 47.6367C28.8281 48.8672 27.4219 49.3945 25.8398 49.2188C19.3359 48.1641 13.3594 44.8242 9.14062 39.5508C10.8984 50.625 19.5117 58.8867 29.5312 60.8203C34.2773 61.875 39.0234 61.5234 43.5938 59.9414C45 59.4141 46.582 59.7656 47.6367 60.6445C48.8672 61.6992 49.3945 63.1055 49.2188 64.5117C48.1641 71.1914 44.8242 77.168 39.5508 81.3867C50.625 79.6289 58.8867 70.8398 60.8203 60.9961C61.875 56.25 61.5234 51.5039 59.9414 46.9336C59.4141 45.5273 59.7656 43.9453 60.6445 42.8906C61.6992 41.6602 63.1055 41.1328 64.5117 41.3086ZM45.1758 38.1445C49.2188 38.1445 52.207 41.3086 52.207 45.1758C52.207 49.2188 49.2188 52.207 45.1758 52.207C41.3086 52.207 38.1445 49.2188 38.1445 45.1758C38.1445 41.3086 41.3086 38.1445 45.1758 38.1445Z" fill="#FF5E14"/>
</svg>
