<svg width="95" height="95" viewBox="0 0 95 95" fill="none" xmlns="http://www.w3.org/2000/svg">
<g opacity="0.4">
<path d="M17.6886 24.7911C17.9921 25.0411 18.3824 25.1605 18.7739 25.123C19.1653 25.0855 19.5259 24.8941 19.7764 24.591C20.0269 24.2879 20.1469 23.8977 20.1099 23.5062C20.073 23.1147 19.8823 22.7539 19.5795 22.5029L17.2696 20.5938C17.1195 20.4692 16.9462 20.3755 16.7597 20.318C16.5733 20.2604 16.3773 20.2402 16.183 20.2585C15.9887 20.2768 15.8 20.3332 15.6275 20.4245C15.4551 20.5159 15.3023 20.6403 15.178 20.7907C15.0537 20.9411 14.9603 21.1146 14.9031 21.3011C14.8459 21.4877 14.826 21.6837 14.8447 21.8779C14.8633 22.0722 14.9201 22.2608 15.0117 22.4331C15.1033 22.6054 15.228 22.7579 15.3787 22.882L17.6886 24.7911Z" fill="#FF5E14"/>
<path d="M12.5919 33.4104L9.75796 32.395C9.38747 32.2627 8.97964 32.2829 8.62403 32.4511C8.26843 32.6193 7.99414 32.9218 7.86142 33.2922C7.72869 33.6625 7.74839 34.0703 7.91618 34.4262C8.08397 34.782 8.38613 35.0566 8.75629 35.1898L11.5902 36.2052C11.9606 36.3369 12.368 36.3163 12.7232 36.148C13.0784 35.9797 13.3523 35.6774 13.4849 35.3074C13.6175 34.9374 13.598 34.5299 13.4306 34.1743C13.2631 33.8187 12.9615 33.544 12.5919 33.4104Z" fill="#FF5E14"/>
<path d="M6.80302 46.0156C6.40934 46.0156 6.03178 46.172 5.75341 46.4504C5.47503 46.7288 5.31864 47.1063 5.31864 47.5C5.31864 47.8937 5.47503 48.2713 5.75341 48.5496C6.03178 48.828 6.40934 48.9844 6.80302 48.9844H9.81847C10.2122 48.9844 10.5897 48.828 10.8681 48.5496C11.1465 48.2713 11.3028 47.8937 11.3028 47.5C11.3028 47.1063 11.1465 46.7288 10.8681 46.4504C10.5897 46.172 10.2122 46.0156 9.81847 46.0156H6.80302Z" fill="#FF5E14"/>
<path d="M11.5902 58.7948L8.75629 59.8103C8.57256 59.8759 8.40356 59.977 8.25896 60.108C8.11435 60.2389 7.99698 60.3971 7.91356 60.5735C7.83013 60.7498 7.78229 60.9409 7.77276 61.1358C7.76323 61.3306 7.7922 61.5254 7.85802 61.7091C7.92385 61.8927 8.02522 62.0616 8.15636 62.2061C8.28749 62.3505 8.44582 62.4677 8.62227 62.5509C8.79873 62.6341 8.98985 62.6817 9.18472 62.691C9.37959 62.7003 9.57438 62.6711 9.75796 62.6051L12.5919 61.5896C12.9615 61.4561 13.2631 61.1814 13.4306 60.8258C13.598 60.4702 13.6175 60.0627 13.4849 59.6927C13.3523 59.3227 13.0784 59.0204 12.7232 58.852C12.368 58.6837 11.9606 58.6632 11.5902 58.7948Z" fill="#FF5E14"/>
<path d="M17.2696 74.4071L19.5795 72.4979C19.8823 72.247 20.073 71.8861 20.1099 71.4946C20.1469 71.1031 20.0269 70.713 19.7764 70.4098C19.5259 70.1067 19.1653 69.9154 18.7739 69.8779C18.3824 69.8404 17.9921 69.9597 17.6886 70.2098L15.3787 72.1189C15.228 72.2429 15.1033 72.3955 15.0117 72.5677C14.9201 72.74 14.8633 72.9287 14.8447 73.1229C14.826 73.3172 14.8459 73.5132 14.9031 73.6997C14.9603 73.8863 15.0537 74.0598 15.178 74.2102C15.3023 74.3606 15.4551 74.485 15.6275 74.5763C15.8 74.6676 15.9887 74.7241 16.183 74.7424C16.3773 74.7606 16.5733 74.7404 16.7597 74.6829C16.9462 74.6254 17.1195 74.5316 17.2696 74.4071Z" fill="#FF5E14"/>
<path d="M29.4097 78.3577C29.0699 78.1589 28.6652 78.1031 28.2843 78.2024C27.9035 78.3018 27.5776 78.5481 27.3781 78.8875L25.8706 81.459C25.7715 81.6272 25.7065 81.8133 25.6794 82.0067C25.6523 82.2 25.6636 82.3968 25.7127 82.5858C25.7617 82.7748 25.8476 82.9522 25.9653 83.108C26.083 83.2637 26.2303 83.3947 26.3988 83.4934C26.5672 83.5922 26.7534 83.6567 26.9468 83.6834C27.1402 83.7101 27.337 83.6983 27.5259 83.6489C27.7147 83.5994 27.892 83.5132 28.0475 83.3951C28.2029 83.277 28.3336 83.1295 28.432 82.9608L29.9395 80.3893C30.1385 80.0496 30.1945 79.6447 30.0952 79.2638C29.9958 78.8828 29.7493 78.5569 29.4097 78.3577Z" fill="#FF5E14"/>
<path d="M55.5043 83.7839C55.4342 83.397 55.2135 83.0538 54.8906 82.8295C54.5677 82.6053 54.169 82.5182 53.7821 82.5875C53.3951 82.6568 53.0514 82.8768 52.8264 83.1992C52.6014 83.5216 52.5135 83.92 52.582 84.3072L53.1056 87.2317C53.1396 87.4239 53.2112 87.6076 53.3162 87.7721C53.4213 87.9366 53.5578 88.0788 53.7178 88.1905C53.8779 88.3023 54.0585 88.3813 54.2491 88.4231C54.4398 88.465 54.6369 88.4688 54.829 88.4344C55.0212 88.4 55.2047 88.328 55.369 88.2226C55.5333 88.1172 55.6752 87.9804 55.7865 87.8201C55.8979 87.6598 55.9765 87.4791 56.018 87.2883C56.0594 87.0975 56.0628 86.9005 56.028 86.7084L55.5043 83.7839Z" fill="#FF5E14"/>
<path d="M67.6213 78.8864C67.523 78.7175 67.3924 78.5697 67.2369 78.4514C67.0814 78.3332 66.9041 78.2467 66.7151 78.1971C66.5261 78.1475 66.3293 78.1357 66.1357 78.1623C65.9422 78.189 65.7558 78.2535 65.5872 78.3524C65.4187 78.4512 65.2713 78.5823 65.1535 78.7382C65.0358 78.8941 64.9499 79.0717 64.9009 79.2608C64.852 79.4499 64.8408 79.6469 64.8681 79.8403C64.8953 80.0338 64.9605 80.22 65.0599 80.3882L66.5675 82.9597C66.666 83.1281 66.7967 83.2754 66.9522 83.3932C67.1077 83.511 67.2848 83.597 67.4736 83.6463C67.6623 83.6956 67.8589 83.7072 68.0521 83.6805C68.2453 83.6538 68.4314 83.5892 68.5996 83.4906C68.7679 83.3919 68.9151 83.2611 69.0328 83.1055C69.1504 82.9499 69.2363 82.7727 69.2855 82.5839C69.3346 82.3952 69.3461 82.1986 69.3192 82.0054C69.2923 81.8122 69.2276 81.6262 69.1288 81.458L67.6213 78.8864Z" fill="#FF5E14"/>
<path d="M77.311 70.2095C77.0074 69.9596 76.6171 69.8404 76.2258 69.8779C75.8344 69.9155 75.4739 70.1068 75.2234 70.4098C74.973 70.7129 74.853 71.103 74.8898 71.4944C74.9267 71.8859 75.1173 72.2467 75.42 72.4977L77.7299 74.4068C78.0334 74.6567 78.4237 74.776 78.8151 74.7385C79.2065 74.7009 79.5669 74.5096 79.8174 74.2065C80.0679 73.9035 80.1879 73.5134 80.151 73.1219C80.1142 72.7305 79.9235 72.3697 79.6209 72.1187L77.311 70.2095Z" fill="#FF5E14"/>
<path d="M81.5111 59.6908C81.3783 60.0614 81.3981 60.4696 81.5663 60.8256C81.7344 61.1816 82.037 61.4562 82.4076 61.589L85.2416 62.6045C85.6119 62.7362 86.0194 62.7156 86.3745 62.5473C86.7297 62.379 87.0037 62.0766 87.1363 61.7066C87.2689 61.3366 87.2493 60.9291 87.0819 60.5735C86.9145 60.2179 86.6129 59.9432 86.2432 59.8097L83.4093 58.7943C83.2258 58.7284 83.0311 58.6994 82.8364 58.7088C82.6416 58.7182 82.4507 58.7659 82.2744 58.8492C82.0981 58.9325 81.94 59.0496 81.809 59.194C81.678 59.3385 81.5768 59.5073 81.5111 59.6908Z" fill="#FF5E14"/>
<path d="M85.1811 46.0156C84.7874 46.0156 84.4098 46.172 84.1315 46.4504C83.8531 46.7288 83.6967 47.1063 83.6967 47.5C83.6967 47.8937 83.8531 48.2713 84.1315 48.5496C84.4098 48.828 84.7874 48.9844 85.1811 48.9844H88.1965C88.5902 48.9844 88.9678 48.828 89.2461 48.5496C89.5245 48.2713 89.6809 47.8937 89.6809 47.5C89.6809 47.1063 89.5245 46.7288 89.2461 46.4504C88.9678 46.172 88.5902 46.0156 88.1965 46.0156H85.1811Z" fill="#FF5E14"/>
<path d="M86.2432 35.1892C86.6129 35.0557 86.9145 34.781 87.0819 34.4254C87.2494 34.0697 87.2689 33.6622 87.1363 33.2922C87.0037 32.9222 86.7298 32.6199 86.3746 32.4516C86.0194 32.2833 85.612 32.2627 85.2416 32.3944L82.4077 33.4098C82.2239 33.4754 82.0549 33.5766 81.9103 33.7076C81.7657 33.8385 81.6484 33.9967 81.5649 34.173C81.4815 34.3494 81.4337 34.5405 81.4241 34.7353C81.4146 34.9302 81.4436 35.125 81.5094 35.3087C81.5752 35.4923 81.6766 35.6612 81.8077 35.8056C81.9389 35.9501 82.0972 36.0673 82.2737 36.1505C82.4501 36.2337 82.6412 36.2813 82.8361 36.2906C83.031 36.2999 83.2258 36.2707 83.4093 36.2046L86.2432 35.1892Z" fill="#FF5E14"/>
<path d="M77.7298 20.5943L75.4199 22.5034C75.2693 22.6275 75.1446 22.78 75.053 22.9523C74.9613 23.1246 74.9046 23.3132 74.8859 23.5075C74.8673 23.7017 74.8871 23.8977 74.9443 24.0843C75.0015 24.2708 75.095 24.4443 75.2193 24.5947C75.3436 24.7451 75.4963 24.8695 75.6688 24.9609C75.8412 25.0522 76.03 25.1086 76.2243 25.1269C76.4185 25.1452 76.6145 25.125 76.801 25.0674C76.9874 25.0099 77.1607 24.9162 77.3109 24.7916L79.6208 22.8825C79.9234 22.6315 80.1141 22.2706 80.151 21.8792C80.1878 21.4878 80.0678 21.0977 79.8174 20.7946C79.5669 20.4915 79.2064 20.3002 78.815 20.2627C78.4236 20.2251 78.0334 20.3444 77.7298 20.5943Z" fill="#FF5E14"/>
<path d="M22.1486 20.0344C22.275 20.1831 22.4294 20.3054 22.603 20.3943C22.7767 20.4833 22.9661 20.5371 23.1606 20.5528C23.3551 20.5684 23.5507 20.5456 23.7364 20.4856C23.922 20.4256 24.094 20.3296 24.2425 20.2031C24.391 20.0765 24.5131 19.922 24.6018 19.7482C24.6906 19.5745 24.7442 19.3849 24.7596 19.1904C24.775 18.9959 24.7519 18.8003 24.6917 18.6148C24.6314 18.4292 24.5352 18.2573 24.4085 18.109L18.5953 11.2869C18.469 11.1382 18.3146 11.0159 18.141 10.9269C17.9673 10.838 17.7778 10.7842 17.5834 10.7685C17.3889 10.7528 17.1932 10.7756 17.0076 10.8357C16.822 10.8957 16.65 10.9917 16.5015 11.1182C16.353 11.2447 16.2309 11.3993 16.1421 11.573C16.0534 11.7468 15.9998 11.9363 15.9844 12.1308C15.969 12.3253 15.992 12.5209 16.0523 12.7065C16.1125 12.8921 16.2088 13.0639 16.3355 13.2123L22.1486 20.0344Z" fill="#FF5E14"/>
<path d="M6.30074 25.7827L14.1328 30.2358C14.3022 30.3326 14.4892 30.395 14.6828 30.4195C14.8764 30.444 15.073 30.43 15.2612 30.3784C15.4495 30.3269 15.6257 30.2387 15.7798 30.1189C15.9339 29.9991 16.0629 29.8502 16.1594 29.6805C16.2559 29.5108 16.318 29.3238 16.3421 29.1301C16.3662 28.9364 16.3519 28.7399 16.3 28.5518C16.2481 28.3636 16.1596 28.1876 16.0395 28.0336C15.9195 27.8797 15.7703 27.751 15.6005 27.6548L7.7684 23.2017C7.42614 23.0071 7.02059 22.9564 6.64095 23.0608C6.26132 23.1652 5.9387 23.4161 5.74408 23.7584C5.54946 24.1006 5.49876 24.5062 5.60316 24.8858C5.70755 25.2655 5.95848 25.5881 6.30074 25.7827Z" fill="#FF5E14"/>
<path d="M1.23045 40.9722L10.1367 42.5189C10.2212 42.5336 10.3067 42.541 10.3925 42.541C10.764 42.5405 11.1218 42.4008 11.3953 42.1494C11.6688 41.8979 11.8381 41.5531 11.8698 41.183C11.9015 40.8128 11.7932 40.4442 11.5664 40.15C11.3396 39.8557 11.0108 39.6572 10.6447 39.5936L1.73853 38.0469C1.35077 37.9799 0.952272 38.0696 0.630605 38.2963C0.308939 38.5229 0.0904255 38.868 0.0230869 39.2557C-0.0442516 39.6434 0.0450945 40.042 0.27149 40.3639C0.497886 40.6857 0.842806 40.9045 1.23045 40.9722Z" fill="#FF5E14"/>
<path d="M11.8533 53.6893C11.7855 53.3015 11.5667 52.9565 11.2449 52.73C10.923 52.5034 10.5245 52.4137 10.1366 52.4807L1.23042 54.0274C0.864413 54.091 0.535558 54.2895 0.308769 54.5837C0.0819798 54.878 -0.026263 55.2465 0.00540828 55.6167C0.0370796 55.9868 0.206363 56.3316 0.479842 56.583C0.753321 56.8345 1.11112 56.9742 1.48261 56.9747C1.56837 56.9747 1.65397 56.9673 1.73847 56.9526L10.6447 55.4059C11.0326 55.3385 11.3778 55.1198 11.6045 54.7979C11.8312 54.476 11.9207 54.0772 11.8533 53.6893Z" fill="#FF5E14"/>
<path d="M16.1571 65.3209C15.9623 64.9788 15.6397 64.728 15.2601 64.6236C14.8805 64.5192 14.4751 64.5698 14.1328 64.7642L6.30074 69.2173C6.13127 69.3137 5.98244 69.4425 5.86275 69.5964C5.74306 69.7503 5.65485 69.9262 5.60316 70.1142C5.55147 70.3022 5.53731 70.4985 5.56149 70.692C5.58567 70.8854 5.64771 71.0722 5.74408 71.2417C5.84045 71.4111 5.96925 71.56 6.12314 71.6797C6.27702 71.7993 6.45298 71.8876 6.64095 71.9393C6.82893 71.9909 7.02524 72.0051 7.21869 71.9809C7.41214 71.9567 7.59893 71.8947 7.7684 71.7983L15.6005 67.3452C15.9427 67.1505 16.1935 66.8279 16.2979 66.4483C16.4023 66.0687 16.3517 65.6631 16.1571 65.3209Z" fill="#FF5E14"/>
<path d="M22.1486 74.9646L16.3355 81.7867C16.0801 82.0864 15.9543 82.4752 15.9857 82.8677C16.017 83.2601 16.203 83.624 16.5027 83.8793C16.8024 84.1347 17.1912 84.2605 17.5836 84.2291C17.9761 84.1978 18.34 84.0118 18.5953 83.7121L24.4085 76.89C24.5352 76.7417 24.6314 76.5698 24.6917 76.3842C24.7519 76.1987 24.775 76.0031 24.7596 75.8086C24.7442 75.6141 24.6906 75.4245 24.6018 75.2508C24.5131 75.077 24.391 74.9225 24.2425 74.7959C24.094 74.6694 23.922 74.5734 23.7364 74.5134C23.5507 74.4534 23.3551 74.4306 23.1606 74.4462C22.9661 74.4619 22.7767 74.5157 22.603 74.6047C22.4294 74.6936 22.275 74.8159 22.1486 74.9646Z" fill="#FF5E14"/>
<path d="M61.7799 81.8566C61.7123 81.6738 61.6094 81.506 61.477 81.363C61.3446 81.2199 61.1853 81.1043 61.0082 81.0228C60.8311 80.9413 60.6397 80.8955 60.4449 80.8879C60.2502 80.8804 60.0558 80.9113 59.8729 80.9789C59.6901 81.0465 59.5224 81.1494 59.3793 81.2818C59.2362 81.4142 59.1206 81.5735 59.0391 81.7506C58.9576 81.9277 58.9118 82.119 58.9043 82.3138C58.8967 82.5086 58.9276 82.703 58.9952 82.8858L62.0883 91.255C62.1552 91.4387 62.2578 91.6073 62.3901 91.7513C62.5224 91.8952 62.6818 92.0116 62.8592 92.0937C63.0366 92.1759 63.2285 92.2221 63.4238 92.2299C63.6192 92.2377 63.8141 92.2068 63.9975 92.139C64.1809 92.0713 64.3491 91.9679 64.4924 91.835C64.6357 91.702 64.7514 91.5421 64.8327 91.3643C64.914 91.1865 64.9595 90.9944 64.9663 90.7991C64.9732 90.6037 64.9415 90.4089 64.8729 90.2258L61.7799 81.8566Z" fill="#FF5E14"/>
<path d="M72.851 74.9649C72.5957 74.6653 72.2318 74.4793 71.8393 74.4479C71.4469 74.4166 71.058 74.5424 70.7583 74.7977C70.4587 75.053 70.2727 75.4169 70.2413 75.8094C70.21 76.2018 70.3358 76.5907 70.5911 76.8904L76.4043 83.7125C76.5307 83.8608 76.6851 83.9829 76.8587 84.0716C77.0323 84.1603 77.2216 84.214 77.4159 84.2295C77.6103 84.245 77.8057 84.2221 77.9912 84.1621C78.1767 84.1021 78.3485 84.0061 78.4969 83.8797C78.6453 83.7533 78.7673 83.5989 78.856 83.4253C78.9448 83.2517 78.9984 83.0623 79.0139 82.868C79.0295 82.6737 79.0066 82.4782 78.9465 82.2927C78.8865 82.1073 78.7906 81.9354 78.6642 81.787L72.851 74.9649Z" fill="#FF5E14"/>
<path d="M88.6988 69.2173L80.8668 64.7642C80.6973 64.6679 80.5105 64.6058 80.317 64.5816C80.1236 64.5574 79.9273 64.5716 79.7393 64.6233C79.5513 64.675 79.3754 64.7632 79.2215 64.8829C79.0676 65.0026 78.9388 65.1514 78.8424 65.3209C78.7461 65.4904 78.684 65.6771 78.6598 65.8706C78.6357 66.064 78.6498 66.2604 78.7015 66.4483C78.7532 66.6363 78.8414 66.8123 78.9611 66.9661C79.0808 67.12 79.2296 67.2488 79.3991 67.3452L87.2311 71.7983C87.5733 71.9921 87.9784 72.0422 88.3575 71.9376C88.7366 71.833 89.0587 71.5822 89.2531 71.2404C89.4475 70.8985 89.4984 70.4935 89.3944 70.1142C89.2905 69.7349 89.0403 69.4124 88.6988 69.2173Z" fill="#FF5E14"/>
<path d="M93.769 54.0274L84.8628 52.4807C84.4751 52.4137 84.0766 52.5034 83.7549 52.73C83.4333 52.9567 83.2147 53.3018 83.1474 53.6895C83.0801 54.0772 83.1694 54.4758 83.3958 54.7976C83.6222 55.1195 83.9671 55.3383 84.3548 55.406L93.2609 56.9527C93.3454 56.9673 93.431 56.9747 93.5168 56.9748C93.8883 56.9743 94.2461 56.8346 94.5196 56.5831C94.7931 56.3317 94.9624 55.9869 94.9941 55.6167C95.0258 55.2466 94.9175 54.878 94.6907 54.5838C94.4639 54.2895 94.135 54.091 93.769 54.0274Z" fill="#FF5E14"/>
<path d="M83.1462 41.3103C83.206 41.6545 83.3853 41.9666 83.6525 42.1917C83.9196 42.4168 84.2577 42.5405 84.607 42.541C84.6928 42.5409 84.7784 42.5336 84.8629 42.5189L93.7691 40.9722C94.1567 40.9045 94.5016 40.6857 94.728 40.3638C94.9544 40.042 95.0438 39.6434 94.9764 39.2557C94.9091 38.868 94.6906 38.5229 94.3689 38.2962C94.0472 38.0696 93.6487 37.9799 93.261 38.0469L84.3548 39.5936C83.9669 39.661 83.6216 39.8797 83.395 40.2017C83.1683 40.5236 83.0788 40.9224 83.1462 41.3103Z" fill="#FF5E14"/>
<path d="M78.8424 29.68C78.9387 29.8495 79.0675 29.9984 79.2214 30.1181C79.3753 30.2379 79.5512 30.3261 79.7392 30.3778C79.9272 30.4295 80.1235 30.4436 80.317 30.4194C80.5105 30.3952 80.6973 30.3331 80.8667 30.2367L88.6988 25.7835C89.0403 25.5885 89.2905 25.266 89.3944 24.8867C89.4983 24.5074 89.4475 24.1024 89.2531 23.7605C89.0587 23.4186 88.7366 23.1679 88.3575 23.0633C87.9784 22.9587 87.5733 23.0088 87.2311 23.2025L79.399 27.6557C79.0568 27.8504 78.806 28.173 78.7016 28.5526C78.5972 28.9322 78.6479 29.3377 78.8424 29.68Z" fill="#FF5E14"/>
<path d="M71.7202 20.5577C71.9353 20.558 72.1478 20.5114 72.343 20.4213C72.5383 20.3312 72.7116 20.1997 72.8509 20.0358L78.664 13.2137C78.791 13.0654 78.8876 12.8935 78.948 12.7078C79.0085 12.5222 79.0317 12.3264 79.0164 12.1318C79.0011 11.9371 78.9476 11.7474 78.8588 11.5735C78.7701 11.3995 78.6479 11.2448 78.4992 11.1182C78.3506 10.9916 78.1785 10.8955 77.9927 10.8355C77.8068 10.7755 77.611 10.7528 77.4164 10.7686C77.2218 10.7844 77.0322 10.8384 76.8585 10.9276C76.6848 11.0168 76.5304 11.1394 76.4042 11.2883L70.591 18.1104C70.4071 18.3262 70.2888 18.5901 70.2502 18.8709C70.2115 19.1518 70.2541 19.4378 70.3729 19.6952C70.4917 19.9526 70.6817 20.1706 70.9204 20.3235C71.1592 20.4763 71.4367 20.5576 71.7202 20.5577Z" fill="#FF5E14"/>
<path d="M62.8287 57.056C62.6577 56.805 62.4139 56.6124 62.1301 56.5041C61.8463 56.3959 61.5361 56.3771 61.2414 56.4505L54.9582 58.0215L60.7829 40.5474C60.7901 40.526 60.7903 40.5035 60.7964 40.4819C60.8158 40.4132 60.8302 40.3432 60.8394 40.2724C60.845 40.2305 60.8501 40.1893 60.8521 40.1473C60.8531 40.1239 60.859 40.1018 60.859 40.0781C60.859 38.2183 61.1805 37.3902 62.2869 35.508L63.3403 33.7141C64.6235 31.544 65.3042 29.0707 65.3121 26.5496V12.399C65.2811 11.0508 64.7168 9.76985 63.743 8.83691C62.7691 7.90396 61.4652 7.39513 60.1169 7.4219C59.3483 7.42221 58.5888 7.58834 57.8903 7.90896V7.87235C57.8903 5.37327 55.5598 3.33987 52.695 3.33987C51.8719 3.33815 51.058 3.51246 50.3078 3.85111C50.0133 2.7696 49.3788 1.8115 48.4979 1.11838C47.617 0.425255 46.5365 0.0338874 45.4161 0.00210164C44.2956 -0.0296841 43.1947 0.299799 42.2759 0.941864C41.3571 1.58393 40.6693 2.50452 40.314 3.5676C39.5533 3.17266 38.7085 2.96723 37.8514 2.96877C36.5 2.94488 35.1943 3.45778 34.2204 4.39503C33.2465 5.33229 32.684 6.61743 32.6561 7.96876V13.1772L35.6248 11.3807V7.96876C35.6759 7.41352 35.9325 6.89739 36.3445 6.5216C36.7564 6.14582 37.2938 5.93749 37.8514 5.93749C38.409 5.93749 38.9464 6.14582 39.3584 6.5216C39.7703 6.89739 40.0269 7.41352 40.078 7.96876V8.68621L40.0993 8.67325C41.0062 8.12902 42.0051 7.75585 43.0467 7.57229V5.08299C43.0763 4.51243 43.3237 3.97501 43.7381 3.58162C44.1524 3.18823 44.7019 2.96891 45.2732 2.96891C45.8445 2.96891 46.3941 3.18823 46.8084 3.58162C47.2227 3.97501 47.4702 4.51243 47.4998 5.08299V7.88934C48.599 8.25498 49.61 8.84551 50.4685 9.62331V7.87235C50.4685 7.02471 51.4883 6.30862 52.695 6.30862C53.9018 6.30862 54.9216 7.02471 54.9216 7.87235V18.8464C54.9216 19.6941 53.9018 20.4102 52.695 20.4102C52.115 20.418 51.5477 20.2397 51.0764 19.9014C50.9892 20.0007 50.9069 20.1029 50.8139 20.1985L48.1046 22.9843C48.6643 23.3759 49.1958 23.8064 49.6952 24.2725C49.9704 23.8385 50.177 23.3647 50.3078 22.8677C51.058 23.2063 51.8719 23.3807 52.695 23.3789C53.5332 23.3941 54.3634 23.2142 55.1202 22.8537C55.877 22.4931 56.5397 21.9616 57.056 21.3011C57.819 21.8352 58.7085 22.1603 59.6361 22.244C60.5637 22.3278 61.4971 22.1673 62.3434 21.7786V26.5496C62.3356 28.5419 61.7961 30.496 60.7808 32.2102L59.7273 34.0041C58.806 35.3829 58.2075 36.9517 57.9761 38.5938H35.6238V32.8592C35.7115 31.8456 35.4316 30.8343 34.8352 30.0101L30.0828 23.9896C29.927 23.8058 29.8132 23.5903 29.7492 23.358C29.6852 23.1257 29.6727 22.8823 29.7124 22.6447C29.7786 22.3535 29.9062 22.0797 30.0867 21.8417C30.2672 21.6037 30.4964 21.407 30.759 21.2647L43.1732 13.753C43.6889 13.455 44.2834 13.3218 44.8769 13.3713C45.4705 13.4207 46.0347 13.6503 46.4941 14.0295C46.6419 14.1566 46.7625 14.3124 46.8485 14.4874C46.9345 14.6624 46.9842 14.8531 46.9946 15.0478C46.9938 15.2371 46.9547 15.4243 46.8796 15.5981C46.8044 15.7719 46.6949 15.9286 46.5575 16.0589L39.3778 23.4409C39.1912 23.6334 39.0601 23.8728 38.9986 24.1337C38.937 24.3947 38.9471 24.6674 39.028 24.923C39.1088 25.1787 39.2573 25.4077 39.4577 25.5857C39.6581 25.7638 39.903 25.8844 40.1664 25.9345C40.4969 25.9976 48.2485 27.5508 47.4371 33.6978C47.4112 33.8913 47.4237 34.0879 47.474 34.2765C47.5242 34.465 47.6111 34.6418 47.7297 34.7968C47.8483 34.9518 47.9963 35.0818 48.1653 35.1795C48.3342 35.2772 48.5207 35.3406 48.7142 35.3662C48.9076 35.3917 49.1043 35.3788 49.2927 35.3283C49.4812 35.2778 49.6579 35.1906 49.8127 35.0717C49.9674 34.9529 50.0972 34.8046 50.1947 34.6356C50.2921 34.4665 50.3552 34.2798 50.3804 34.0863C51.1371 28.351 46.8804 25.1467 43.2275 23.741L48.6859 18.1285C49.0985 17.7159 49.4241 17.2245 49.6434 16.6837C49.8627 16.1429 49.9713 15.5636 49.9626 14.98C49.9436 14.391 49.8067 13.8118 49.5599 13.2767C49.3131 12.7415 48.9614 12.2613 48.5257 11.8645C47.5926 11.0438 46.424 10.5389 45.1867 10.422C43.9495 10.305 42.707 10.582 41.6366 11.2133L29.2225 18.7247C28.5977 19.0824 28.0572 19.5703 27.6376 20.1554C27.2181 20.7405 26.9294 21.4091 26.7912 22.1156C26.6752 22.7673 26.7011 23.4364 26.867 24.0772C27.0329 24.718 27.335 25.3155 27.7526 25.8291L32.5054 31.8499C32.6355 32.0145 32.6551 32.2243 32.6551 32.8592V40.0781L32.6561 40.0889V69.7656C32.6562 70.0061 32.7146 70.2429 32.8264 70.4557C32.9382 70.6686 33.1 70.8511 33.2979 70.9876C33.4958 71.1241 33.7239 71.2105 33.9626 71.2394C34.2013 71.2682 34.4434 71.2387 34.6682 71.1533L38.7588 69.5975L34.6214 93.2602C34.5635 93.5914 34.6199 93.9326 34.7812 94.2277C34.9425 94.5227 35.1992 94.7543 35.5093 94.8844C35.8195 95.0145 36.1646 95.0355 36.4882 94.9438C36.8117 94.8522 37.0946 94.6534 37.2904 94.38L62.808 58.755C62.9849 58.5079 63.0818 58.2126 63.0855 57.9088C63.0892 57.6049 62.9995 57.3073 62.8287 57.056ZM60.1169 19.2969C59.5558 19.3237 59.0069 19.1276 58.5898 18.7514C58.1727 18.3752 57.9213 17.8493 57.8903 17.2885V12.399C57.9473 11.8482 58.2064 11.338 58.6177 10.9671C59.0289 10.5962 59.563 10.3909 60.1169 10.3909C60.6707 10.3909 61.2048 10.5962 61.616 10.9671C62.0273 11.338 62.2864 11.8482 62.3434 12.399V17.2885C62.3124 17.8493 62.061 18.3752 61.6439 18.7514C61.2268 19.1276 60.6779 19.3237 60.1169 19.2969ZM38.6668 87.3603L42.1327 67.538C42.1778 67.2798 42.1536 67.0142 42.0628 66.7683C41.9719 66.5224 41.8176 66.3049 41.6154 66.138C41.4133 65.9711 41.1705 65.8607 40.9119 65.818C40.6532 65.7753 40.3879 65.8018 40.1428 65.8949L35.6248 67.613V47.5H38.5936V59.375C38.5925 59.5706 38.6301 59.7645 38.7042 59.9456C38.7784 60.1266 38.8875 60.2912 39.0255 60.4299C39.1634 60.5686 39.3274 60.6786 39.508 60.7538C39.6886 60.8289 39.8823 60.8675 40.0779 60.8675C40.2736 60.8675 40.4672 60.8289 40.6479 60.7538C40.8285 60.6786 40.9925 60.5686 41.1304 60.4299C41.2684 60.2912 41.3775 60.1266 41.4517 59.9456C41.5258 59.7645 41.5634 59.5706 41.5623 59.375V47.5H55.336L51.2868 59.6479C51.2028 59.9002 51.188 60.1705 51.2442 60.4305C51.3003 60.6904 51.4253 60.9305 51.606 61.1257C51.7867 61.3208 52.0165 61.4638 52.2714 61.5398C52.5262 61.6157 52.7968 61.6218 53.0549 61.5574L58.0421 60.3104L38.6668 87.3603Z" fill="#FF5E14"/>
<path d="M80.8978 47.4996C80.8973 42.4772 79.7624 37.5199 77.5777 32.9976C75.393 28.4753 72.215 24.5049 68.2809 21.3828V26.5491C68.2729 29.5992 67.4509 32.5919 65.8996 35.218L64.8468 37.0108C63.897 38.627 63.8278 38.9289 63.8278 40.0777C63.8278 40.1774 63.8209 40.2948 63.81 40.405C63.8035 40.4858 63.7944 40.5684 63.7836 40.6525C63.7611 40.8224 63.7292 40.9909 63.6883 41.1573C63.6654 41.261 63.6379 41.3668 63.6085 41.4574L59.4848 53.8292L60.5213 53.5701C61.4056 53.3491 62.3365 53.4048 63.1882 53.7296C64.0398 54.0545 64.7713 54.6329 65.2838 55.3867C65.7963 56.1405 66.0651 57.0334 66.054 57.9449C66.0429 58.8564 65.7523 59.7425 65.2216 60.4835L50.7117 80.7404C58.9706 79.9324 66.6342 76.0827 72.213 69.9394C77.7918 63.796 80.8873 55.798 80.8978 47.4996Z" fill="#FF5E14"/>
<path d="M34.14 74.2181C32.9591 74.2181 31.8265 73.749 30.9915 72.9139C30.1564 72.0789 29.6873 70.9463 29.6873 69.7654L29.6862 33.0699L25.4222 27.6684C24.5685 26.6012 24.0154 25.3253 23.8203 23.9727C19.9829 27.8279 17.1462 32.5627 15.5571 37.765C13.9681 42.9672 13.6749 48.479 14.7031 53.8204C15.7314 59.1618 18.0498 64.1709 21.4565 68.4114C24.8633 72.6519 29.2551 75.9953 34.2494 78.1504L34.95 74.1442C34.6828 74.1935 34.4117 74.2183 34.14 74.2181Z" fill="#FF5E14"/>
</g>
</svg>
