<svg width="95" height="95" viewBox="0 0 95 95" fill="none" xmlns="http://www.w3.org/2000/svg">
<g opacity="0.4">
<path d="M35.0235 91.6749L47.2566 56.8204L15.1206 56.7233C13.7613 56.7233 12.6934 55.6554 12.6934 54.2961C12.6934 53.7136 12.8875 53.2282 13.2759 52.7427C22.6934 41.1893 32.1109 29.6359 41.5284 18.0824C46.1886 12.4514 50.8488 6.72319 55.6061 0.897929C56.4799 -0.170035 57.9362 -0.267123 59.0042 0.509578C59.7809 1.18919 60.0721 2.25716 59.7809 3.22803L47.4507 38.1796L79.5867 38.2767C80.946 38.2767 82.0139 39.3446 82.0139 40.7039C82.0139 41.2864 81.8197 41.7718 81.5285 42.1602C72.4993 53.8107 62.9848 65.267 53.4702 76.8205C48.81 82.4515 44.1498 88.0826 39.1983 94.1021C38.3245 95.17 36.8682 95.2671 35.8002 94.4904C34.9264 93.7137 34.6352 92.6457 35.0235 91.6749Z" fill="#FF5E14"/>
<path d="M29.0051 80.8014C30.1701 81.481 30.6556 82.9374 29.9759 84.1024C29.2963 85.2675 27.84 85.7529 26.675 85.0733C19.6847 81.2869 13.9565 75.7529 9.9759 69.0538C6.09239 62.4519 3.85938 54.879 3.85938 46.8208C3.85938 36.7236 7.35453 27.3061 13.2769 19.8304C19.1992 12.3547 27.6458 6.82066 37.4517 4.49056C38.7138 4.19929 40.0731 4.97599 40.3643 6.33522C40.6556 7.59736 39.8789 8.95659 38.5197 9.24785C29.7818 11.2867 22.306 16.2382 17.0633 22.8401C11.8206 29.4421 8.71376 37.8887 8.71376 46.8208C8.71376 53.9082 10.6555 60.7043 14.1507 66.6266C17.7429 72.549 22.7915 77.5005 29.0051 80.8014Z" fill="#FF5E14"/>
<path d="M66.2859 13.0356C65.1209 12.356 64.6354 10.8997 65.3151 9.73463C65.9947 8.56958 67.451 8.08414 68.616 8.76375C75.6064 12.5502 81.2374 18.1813 85.1209 24.6861C89.0044 31.2881 91.1404 38.8609 91.1404 46.8221C91.1404 57.0163 87.5481 66.5309 81.5287 74.0066C75.5093 81.4824 66.9655 87.0164 57.0626 89.2494C55.8005 89.5407 54.4412 88.6669 54.15 87.4047C53.8587 86.1426 54.7325 84.7834 55.9946 84.4921C64.8296 82.5504 72.4025 77.5989 77.7423 70.9969C83.0821 64.2979 86.286 55.8513 86.286 46.8221C86.286 39.7347 84.3442 33.0357 80.9462 27.2104C77.451 21.3851 72.4995 16.4337 66.2859 13.0356Z" fill="#FF5E14"/>
</g>
</svg>
