<svg width="93" height="93" viewBox="0 0 93 93" fill="none" xmlns="http://www.w3.org/2000/svg">
<path d="M89.6484 2.98828C91.6406 5.21484 91.7578 8.90625 90 14.0625C88.2422 19.2187 84.9023 25.3125 79.9805 32.3438C81.8555 36.7969 82.793 41.4844 82.793 46.4062C82.5586 56.7188 79.043 65.2734 72.2461 72.0703C65.332 78.9844 56.7188 82.5586 46.4062 82.793C41.4844 82.793 36.7969 81.8555 32.3438 79.9805C25.3125 84.9023 19.2188 88.2422 14.0625 90C8.78906 91.7578 5.09766 91.6406 2.98828 89.6484C0.996094 87.5391 0.878906 83.8477 2.63672 78.5742C4.39453 73.418 7.73438 67.3242 12.6562 60.293C10.7812 55.8398 9.84375 51.1523 9.84375 46.2305C10.0781 35.918 13.5938 27.3633 20.3906 20.5664C27.3047 13.6523 35.918 10.0781 46.2305 9.84375C51.0352 9.84375 55.7227 10.7812 60.293 12.6562C67.3242 7.73438 73.418 4.39453 78.5742 2.63672C83.7305 0.878906 87.4219 0.996094 89.6484 2.98828ZM12.4805 80.1562C14.1211 81.4453 18.0469 79.9219 24.2578 75.5859C21.5625 73.4766 19.1602 71.0742 17.0508 68.3789C12.7148 74.5898 11.1914 78.5156 12.4805 80.1562ZM31.6406 70.3125C37.8516 65.3906 44.5898 59.2969 51.8555 52.0312C59.1211 44.7656 65.2148 38.0273 70.1367 31.8164C67.5586 27.7148 64.2188 24.4336 60.1172 21.9727C56.0156 19.6289 51.3867 18.3984 46.2305 18.2812C38.2617 18.5156 31.6406 21.2695 26.3672 26.543C21.0938 31.8164 18.3398 38.4375 18.1055 46.4062C18.1055 51.5625 19.3359 56.1914 21.7969 60.293C24.2578 64.3945 27.5391 67.7344 31.6406 70.3125ZM46.2305 74.5312C54.1992 74.2969 60.8203 71.543 66.0938 66.2695C71.3672 60.9961 74.1211 54.375 74.3555 46.4062C74.3555 44.5312 74.1797 42.6562 73.8281 40.7812C68.9062 46.875 63.6328 52.6758 58.0078 58.1836C52.5 63.8086 46.6992 69.082 40.6055 74.0039C42.4805 74.3555 44.3555 74.5312 46.2305 74.5312ZM68.2031 17.2266C70.8984 19.3359 73.3008 21.7383 75.4102 24.4336C79.7461 18.2227 81.2695 14.2969 79.9805 12.6562C78.3398 11.3672 74.4141 12.8906 68.2031 17.2266Z" fill="#FF5E14" fill-opacity="0.4"/>
</svg>
