<svg width="18" height="17" viewBox="0 0 18 17" fill="none" xmlns="http://www.w3.org/2000/svg">
<path d="M5.71366 16.0745C5.64661 16.0745 5.58073 16.057 5.52255 16.0237C5.46437 15.9904 5.4159 15.9424 5.38196 15.8846C3.94431 13.4353 0.113349 8.22265 0.0748108 8.17027C0.0200741 8.09587 -0.00605985 8.00426 0.00118577 7.91217C0.0084314 7.82009 0.0485727 7.73369 0.114272 7.66877L1.29189 6.50512C1.35587 6.44189 1.43998 6.40309 1.5296 6.39546C1.61922 6.38783 1.70868 6.41185 1.78243 6.46335L5.63346 9.15242C8.19377 5.86335 10.5731 3.59346 12.1369 2.256C13.8898 0.756654 15.0043 0.0829232 15.0508 0.0548463C15.1106 0.0189616 15.179 3.53344e-06 15.2488 5.15191e-09H17.1538C17.2318 -1.27544e-05 17.308 0.0236755 17.3722 0.0679239C17.4364 0.112172 17.4856 0.174891 17.5134 0.247763C17.5411 0.320636 17.546 0.400221 17.5275 0.475965C17.509 0.551709 17.4679 0.620036 17.4097 0.671885C14.5854 3.18727 11.6491 7.18392 9.6832 10.0937C7.54616 13.2565 6.06262 15.8544 6.04789 15.8803C6.01449 15.9389 5.96626 15.9877 5.90804 16.0218C5.84982 16.0559 5.78366 16.0741 5.7162 16.0745L5.71366 16.0745Z" fill="#FF5E14"/>
</svg>
